<?xml version="1.0" encoding="utf-8" standalone="no"?>
<!DOCTYPE svg PUBLIC "-//W3C//DTD SVG 1.1//EN"
  "http://www.w3.org/Graphics/SVG/1.1/DTD/svg11.dtd">
<svg xmlns:xlink="http://www.w3.org/1999/xlink" width="345.469828pt" height="103.361797pt" viewBox="0 0 345.469828 103.361797" xmlns="http://www.w3.org/2000/svg" version="1.1">
 <metadata>
  <rdf:RDF xmlns:dc="http://purl.org/dc/elements/1.1/" xmlns:cc="http://creativecommons.org/ns#" xmlns:rdf="http://www.w3.org/1999/02/22-rdf-syntax-ns#">
   <cc:Work>
    <dc:type rdf:resource="http://purl.org/dc/dcmitype/StillImage"/>
    <dc:date>2025-04-23T14:18:22.227716</dc:date>
    <dc:format>image/svg+xml</dc:format>
    <dc:creator>
     <cc:Agent>
      <dc:title>Matplotlib v3.10.0, https://matplotlib.org/</dc:title>
     </cc:Agent>
    </dc:creator>
   </cc:Work>
  </rdf:RDF>
 </metadata>
 <defs>
  <style type="text/css">*{stroke-linejoin: round; stroke-linecap: butt}</style>
 </defs>
 <g id="figure_1">
  <g id="patch_1">
   <path d="M 0 103.361797 
L 345.469828 103.361797 
L 345.469828 0 
L 0 0 
z
" style="fill: #ffffff"/>
  </g>
  <g id="axes_1">
   <g id="patch_2">
    <path d="M 26.71 65.861016 
L 79.623793 65.861016 
L 79.623793 10.421016 
L 26.71 10.421016 
z
" style="fill: #ffffff"/>
   </g>
   <g id="matplotlib.axis_1">
    <g id="xtick_1">
     <g id="line2d_1">
      <defs>
       <path id="m7dcbd44994" d="M 0 0 
L 0 3.5 
" style="stroke: #000000; stroke-width: 1.5"/>
      </defs>
      <g>
       <use xlink:href="#m7dcbd44994" x="29.115172" y="65.861016" style="stroke: #000000; stroke-width: 1.5"/>
      </g>
     </g>
     <g id="text_1">
      <!-- $10^2$ -->
      <g transform="translate(22.050172 82.142266)">
       <text>
        <tspan x="0" y="-0.199438" style="font-size: 9px; font-family: 'Arial'">1</tspan>
        <tspan x="5.005371" y="-0.199438" style="font-size: 9px; font-family: 'Arial'">0</tspan>
        <tspan x="10.167553" y="-6.471875" style="font-size: 6.3px; font-family: 'Arial'">2</tspan>
       </text>
      </g>
     </g>
    </g>
    <g id="xtick_2">
     <g id="line2d_2">
      <g>
       <use xlink:href="#m7dcbd44994" x="45.149655" y="65.861016" style="stroke: #000000; stroke-width: 1.5"/>
      </g>
     </g>
     <g id="text_2">
      <!-- $10^3$ -->
      <g transform="translate(38.084655 82.142266)">
       <text>
        <tspan x="0" y="-0.199438" style="font-size: 9px; font-family: 'Arial'">1</tspan>
        <tspan x="5.005371" y="-0.199438" style="font-size: 9px; font-family: 'Arial'">0</tspan>
        <tspan x="10.167553" y="-6.471875" style="font-size: 6.3px; font-family: 'Arial'">3</tspan>
       </text>
      </g>
     </g>
    </g>
    <g id="xtick_3">
     <g id="line2d_3">
      <g>
       <use xlink:href="#m7dcbd44994" x="61.184138" y="65.861016" style="stroke: #000000; stroke-width: 1.5"/>
      </g>
     </g>
     <g id="text_3">
      <!-- $10^4$ -->
      <g transform="translate(54.119138 82.052266)">
       <text>
        <tspan x="0" y="-0.221312" style="font-size: 9px; font-family: 'Arial'">1</tspan>
        <tspan x="5.005371" y="-0.221312" style="font-size: 9px; font-family: 'Arial'">0</tspan>
        <tspan x="10.167553" y="-6.49375" style="font-size: 6.3px; font-family: 'Arial'">4</tspan>
       </text>
      </g>
     </g>
    </g>
    <g id="xtick_4">
     <g id="line2d_4">
      <g>
       <use xlink:href="#m7dcbd44994" x="77.218621" y="65.861016" style="stroke: #000000; stroke-width: 1.5"/>
      </g>
     </g>
     <g id="text_4">
      <!-- $10^5$ -->
      <g transform="translate(70.153621 82.052266)">
       <text>
        <tspan x="0" y="-0.276" style="font-size: 9px; font-family: 'Arial'">1</tspan>
        <tspan x="5.005371" y="-0.276" style="font-size: 9px; font-family: 'Arial'">0</tspan>
        <tspan x="10.167553" y="-6.548437" style="font-size: 6.3px; font-family: 'Arial'">5</tspan>
       </text>
      </g>
     </g>
    </g>
    <g id="text_5">
     <text style="font-size: 9px; font-family: 'Arial', sans-serif; text-anchor: middle" x="53.166897" y="94.373047" transform="rotate(-0 53.166897 94.373047)">Num. sim.</text>
    </g>
   </g>
   <g id="matplotlib.axis_2">
    <g id="ytick_1">
     <g id="line2d_5">
      <defs>
       <path id="mce457e3f28" d="M 0 0 
L -3.5 0 
" style="stroke: #000000; stroke-width: 1.5"/>
      </defs>
      <g>
       <use xlink:href="#mce457e3f28" x="26.71" y="65.861016" style="stroke: #000000; stroke-width: 1.5"/>
      </g>
     </g>
     <g id="text_6">
      <text style="font-size: 9px; font-family: 'Arial', sans-serif; text-anchor: end" x="19.71" y="69.082031" transform="rotate(-0 19.71 69.082031)">0.5</text>
     </g>
    </g>
    <g id="ytick_2">
     <g id="line2d_6">
      <g>
       <use xlink:href="#mce457e3f28" x="26.71" y="10.421016" style="stroke: #000000; stroke-width: 1.5"/>
      </g>
     </g>
     <g id="text_7">
      <text style="font-size: 9px; font-family: 'Arial', sans-serif; text-anchor: end" x="19.71" y="13.642031" transform="rotate(-0 19.71 13.642031)">1.0</text>
     </g>
    </g>
   </g>
   <g id="line2d_7">
    <path d="M 29.115172 31.912886 
L 29.115172 30.061744 
L 29.115172 31.135617 
L 45.149655 44.014884 
L 45.149655 43.977739 
L 45.149655 43.697212 
L 61.184138 51.420559 
L 61.184138 49.826104 
L 61.184138 50.401017 
L 77.218621 60.177861 
L 77.218621 60.406274 
L 77.218621 60.262684 
" clip-path="url(#pabead772d2)" style="fill: none; stroke: #0000ff; stroke-opacity: 0.7; stroke-width: 1.5; stroke-linecap: square"/>
   </g>
   <g id="line2d_8">
    <path d="M 29.115172 31.796462 
L 29.115172 31.187731 
L 29.115172 29.992999 
L 45.149655 44.03706 
L 45.149655 44.611972 
L 45.149655 45.291112 
L 61.184138 51.45216 
L 61.184138 51.605174 
L 61.184138 51.262555 
L 77.218621 60.32644 
L 77.218621 60.062546 
L 77.218621 60.598096 
" clip-path="url(#pabead772d2)" style="fill: none; stroke-dasharray: 5.55,2.4; stroke-dashoffset: 0; stroke: #f2a900; stroke-width: 1.5"/>
   </g>
   <g id="patch_3">
    <path d="M 26.71 65.861016 
L 26.71 10.421016 
" style="fill: none; stroke: #000000; stroke-width: 1.5; stroke-linejoin: miter; stroke-linecap: square"/>
   </g>
   <g id="patch_4">
    <path d="M 26.71 65.861016 
L 79.623793 65.861016 
" style="fill: none; stroke: #000000; stroke-width: 1.5; stroke-linejoin: miter; stroke-linecap: square"/>
   </g>
  </g>
  <g id="axes_2">
   <g id="patch_5">
    <path d="M 90.206552 65.861016 
L 143.120345 65.861016 
L 143.120345 10.421016 
L 90.206552 10.421016 
z
" style="fill: #ffffff"/>
   </g>
   <g id="matplotlib.axis_3">
    <g id="xtick_5">
     <g id="line2d_9">
      <g>
       <use xlink:href="#m7dcbd44994" x="92.611724" y="65.861016" style="stroke: #000000; stroke-width: 1.5"/>
      </g>
     </g>
     <g id="text_8">
      <!-- $10^2$ -->
      <g transform="translate(85.546724 82.142266)">
       <text>
        <tspan x="0" y="-0.199438" style="font-size: 9px; font-family: 'Arial'">1</tspan>
        <tspan x="5.005371" y="-0.199438" style="font-size: 9px; font-family: 'Arial'">0</tspan>
        <tspan x="10.167553" y="-6.471875" style="font-size: 6.3px; font-family: 'Arial'">2</tspan>
       </text>
      </g>
     </g>
    </g>
    <g id="xtick_6">
     <g id="line2d_10">
      <g>
       <use xlink:href="#m7dcbd44994" x="108.646207" y="65.861016" style="stroke: #000000; stroke-width: 1.5"/>
      </g>
     </g>
     <g id="text_9">
      <!-- $10^3$ -->
      <g transform="translate(101.581207 82.142266)">
       <text>
        <tspan x="0" y="-0.199438" style="font-size: 9px; font-family: 'Arial'">1</tspan>
        <tspan x="5.005371" y="-0.199438" style="font-size: 9px; font-family: 'Arial'">0</tspan>
        <tspan x="10.167553" y="-6.471875" style="font-size: 6.3px; font-family: 'Arial'">3</tspan>
       </text>
      </g>
     </g>
    </g>
    <g id="xtick_7">
     <g id="line2d_11">
      <g>
       <use xlink:href="#m7dcbd44994" x="124.68069" y="65.861016" style="stroke: #000000; stroke-width: 1.5"/>
      </g>
     </g>
     <g id="text_10">
      <!-- $10^4$ -->
      <g transform="translate(117.61569 82.052266)">
       <text>
        <tspan x="0" y="-0.221312" style="font-size: 9px; font-family: 'Arial'">1</tspan>
        <tspan x="5.005371" y="-0.221312" style="font-size: 9px; font-family: 'Arial'">0</tspan>
        <tspan x="10.167553" y="-6.49375" style="font-size: 6.3px; font-family: 'Arial'">4</tspan>
       </text>
      </g>
     </g>
    </g>
    <g id="xtick_8">
     <g id="line2d_12">
      <g>
       <use xlink:href="#m7dcbd44994" x="140.715172" y="65.861016" style="stroke: #000000; stroke-width: 1.5"/>
      </g>
     </g>
     <g id="text_11">
      <!-- $10^5$ -->
      <g transform="translate(133.650172 82.052266)">
       <text>
        <tspan x="0" y="-0.276" style="font-size: 9px; font-family: 'Arial'">1</tspan>
        <tspan x="5.005371" y="-0.276" style="font-size: 9px; font-family: 'Arial'">0</tspan>
        <tspan x="10.167553" y="-6.548437" style="font-size: 6.3px; font-family: 'Arial'">5</tspan>
       </text>
      </g>
     </g>
    </g>
    <g id="text_12">
     <text style="font-size: 9px; font-family: 'Arial', sans-serif; text-anchor: middle" x="116.663448" y="94.373047" transform="rotate(-0 116.663448 94.373047)">Num. sim.</text>
    </g>
   </g>
   <g id="matplotlib.axis_4">
    <g id="ytick_3">
     <g id="line2d_13">
      <g>
       <use xlink:href="#mce457e3f28" x="90.206552" y="65.861016" style="stroke: #000000; stroke-width: 1.5"/>
      </g>
     </g>
    </g>
    <g id="ytick_4">
     <g id="line2d_14">
      <g>
       <use xlink:href="#mce457e3f28" x="90.206552" y="10.421016" style="stroke: #000000; stroke-width: 1.5"/>
      </g>
     </g>
    </g>
   </g>
   <g id="line2d_15">
    <path d="M 92.611724 16.225029 
L 92.611724 17.003961 
L 92.611724 16.475618 
L 108.646207 22.295709 
L 108.646207 22.341724 
L 108.646207 21.430291 
L 124.68069 25.846087 
L 124.68069 25.43694 
L 140.715172 31.5492 
L 140.715172 31.3413 
L 140.715172 32.135755 
" clip-path="url(#p5a2dd3cfb2)" style="fill: none; stroke: #0000ff; stroke-opacity: 0.7; stroke-width: 1.5; stroke-linecap: square"/>
   </g>
   <g id="line2d_16">
    <path d="M 92.611724 15.779292 
L 92.611724 16.785528 
L 92.611724 16.424059 
L 108.646207 21.297789 
L 108.646207 22.529112 
L 108.646207 22.148239 
L 124.68069 25.086004 
L 124.68069 25.869926 
L 140.715172 31.309144 
L 140.715172 32.743377 
L 140.715172 31.302492 
" clip-path="url(#p5a2dd3cfb2)" style="fill: none; stroke: #0000ff; stroke-opacity: 0.7; stroke-width: 1.5; stroke-linecap: square"/>
   </g>
   <g id="line2d_17">
    <path d="M 92.611724 16.2655 
L 92.611724 16.546027 
L 92.611724 16.886983 
L 108.646207 20.670763 
L 108.646207 22.106659 
L 108.646207 22.044566 
L 124.68069 25.306656 
L 124.68069 24.65579 
L 124.68069 24.939088 
L 140.715172 32.180107 
L 140.715172 30.517461 
L 140.715172 31.226539 
" clip-path="url(#p5a2dd3cfb2)" style="fill: none; stroke: #0000ff; stroke-opacity: 0.7; stroke-width: 1.5; stroke-linecap: square"/>
   </g>
   <g id="line2d_18">
    <path d="M 92.611724 16.116921 
L 92.611724 16.886983 
L 92.611724 16.624752 
L 108.646207 21.165842 
L 108.646207 22.459257 
L 108.646207 22.90444 
L 124.68069 25.785103 
L 124.68069 26.515802 
L 124.68069 26.611159 
L 140.715172 32.298748 
L 140.715172 32.862573 
L 140.715172 31.744348 
" clip-path="url(#p5a2dd3cfb2)" style="fill: none; stroke: #0000ff; stroke-opacity: 0.7; stroke-width: 1.5; stroke-linecap: square"/>
   </g>
   <g id="line2d_19">
    <path d="M 92.611724 16.610337 
L 92.611724 16.80216 
L 92.611724 15.809784 
L 108.646207 22.74311 
L 108.646207 21.954753 
L 108.646207 22.536319 
L 124.68069 25.9359 
L 124.68069 26.264659 
L 124.68069 26.425989 
L 140.715172 31.90457 
L 140.715172 33.102074 
L 140.715172 31.722727 
" clip-path="url(#p5a2dd3cfb2)" style="fill: none; stroke: #0000ff; stroke-opacity: 0.7; stroke-width: 1.5; stroke-linecap: square"/>
   </g>
   <g id="line2d_20">
    <path d="M 92.611724 15.783172 
L 92.611724 17.022256 
L 92.611724 16.590933 
L 108.646207 21.803402 
L 108.646207 22.213658 
L 108.646207 20.817679 
L 124.68069 25.196884 
L 124.68069 25.858838 
L 124.68069 25.741305 
L 140.715172 32.998401 
L 140.715172 32.255505 
L 140.715172 32.054258 
" clip-path="url(#p5a2dd3cfb2)" style="fill: none; stroke: #0000ff; stroke-opacity: 0.7; stroke-width: 1.5; stroke-linecap: square"/>
   </g>
   <g id="line2d_21">
    <path d="M 92.611724 16.39523 
L 92.611724 16.979568 
L 92.611724 16.523851 
L 108.646207 22.123291 
L 108.646207 22.218093 
L 108.646207 21.172495 
L 124.68069 25.546711 
L 124.68069 25.304992 
L 124.68069 25.075471 
L 140.715172 32.15405 
L 140.715172 31.00367 
L 140.715172 31.203808 
" clip-path="url(#p5a2dd3cfb2)" style="fill: none; stroke: #0000ff; stroke-opacity: 0.7; stroke-width: 1.5; stroke-linecap: square"/>
   </g>
   <g id="line2d_22">
    <path d="M 92.611724 16.383033 
L 92.611724 16.150185 
L 92.611724 17.017267 
L 108.646207 21.907629 
L 108.646207 21.039993 
L 108.646207 22.024053 
L 124.68069 24.866462 
L 124.68069 24.575956 
L 140.715172 31.718292 
L 140.715172 31.092374 
L 140.715172 32.043724 
" clip-path="url(#p5a2dd3cfb2)" style="fill: none; stroke: #0000ff; stroke-opacity: 0.7; stroke-width: 1.5; stroke-linecap: square"/>
   </g>
   <g id="line2d_23">
    <path d="M 92.611724 16.038751 
L 92.611724 16.826553 
L 92.611724 16.737295 
L 108.646207 21.838884 
L 108.646207 22.58566 
L 108.646207 22.61338 
L 124.68069 25.993003 
L 124.68069 27.071311 
L 124.68069 26.595636 
L 140.715172 31.686691 
L 140.715172 32.06202 
L 140.715172 33.2124 
" clip-path="url(#p5a2dd3cfb2)" style="fill: none; stroke: #0000ff; stroke-opacity: 0.7; stroke-width: 1.5; stroke-linecap: square"/>
   </g>
   <g id="line2d_24">
    <path d="M 92.611724 15.911239 
L 92.611724 16.835978 
L 92.611724 16.435701 
L 108.646207 20.915253 
L 108.646207 22.327864 
L 108.646207 21.509016 
L 124.68069 25.155859 
L 124.68069 24.95572 
L 124.68069 25.364868 
L 140.715172 32.954604 
L 140.715172 31.527024 
L 140.715172 31.431112 
" clip-path="url(#p5a2dd3cfb2)" style="fill: none; stroke-dasharray: 5.55,2.4; stroke-dashoffset: 0; stroke: #f2a900; stroke-width: 1.5"/>
   </g>
   <g id="patch_6">
    <path d="M 90.206552 65.861016 
L 90.206552 10.421016 
" style="fill: none; stroke: #000000; stroke-width: 1.5; stroke-linejoin: miter; stroke-linecap: square"/>
   </g>
   <g id="patch_7">
    <path d="M 90.206552 65.861016 
L 143.120345 65.861016 
" style="fill: none; stroke: #000000; stroke-width: 1.5; stroke-linejoin: miter; stroke-linecap: square"/>
   </g>
  </g>
  <g id="axes_3">
   <g id="patch_8">
    <path d="M 153.703103 65.861016 
L 206.616897 65.861016 
L 206.616897 10.421016 
L 153.703103 10.421016 
z
" style="fill: #ffffff"/>
   </g>
   <g id="matplotlib.axis_5">
    <g id="xtick_9">
     <g id="line2d_25">
      <g>
       <use xlink:href="#m7dcbd44994" x="156.108276" y="65.861016" style="stroke: #000000; stroke-width: 1.5"/>
      </g>
     </g>
     <g id="text_13">
      <!-- $10^2$ -->
      <g transform="translate(149.043276 82.142266)">
       <text>
        <tspan x="0" y="-0.199438" style="font-size: 9px; font-family: 'Arial'">1</tspan>
        <tspan x="5.005371" y="-0.199438" style="font-size: 9px; font-family: 'Arial'">0</tspan>
        <tspan x="10.167553" y="-6.471875" style="font-size: 6.3px; font-family: 'Arial'">2</tspan>
       </text>
      </g>
     </g>
    </g>
    <g id="xtick_10">
     <g id="line2d_26">
      <g>
       <use xlink:href="#m7dcbd44994" x="172.142759" y="65.861016" style="stroke: #000000; stroke-width: 1.5"/>
      </g>
     </g>
     <g id="text_14">
      <!-- $10^3$ -->
      <g transform="translate(165.077759 82.142266)">
       <text>
        <tspan x="0" y="-0.199438" style="font-size: 9px; font-family: 'Arial'">1</tspan>
        <tspan x="5.005371" y="-0.199438" style="font-size: 9px; font-family: 'Arial'">0</tspan>
        <tspan x="10.167553" y="-6.471875" style="font-size: 6.3px; font-family: 'Arial'">3</tspan>
       </text>
      </g>
     </g>
    </g>
    <g id="xtick_11">
     <g id="line2d_27">
      <g>
       <use xlink:href="#m7dcbd44994" x="188.177241" y="65.861016" style="stroke: #000000; stroke-width: 1.5"/>
      </g>
     </g>
     <g id="text_15">
      <!-- $10^4$ -->
      <g transform="translate(181.112241 82.052266)">
       <text>
        <tspan x="0" y="-0.221312" style="font-size: 9px; font-family: 'Arial'">1</tspan>
        <tspan x="5.005371" y="-0.221312" style="font-size: 9px; font-family: 'Arial'">0</tspan>
        <tspan x="10.167553" y="-6.49375" style="font-size: 6.3px; font-family: 'Arial'">4</tspan>
       </text>
      </g>
     </g>
    </g>
    <g id="xtick_12">
     <g id="line2d_28">
      <g>
       <use xlink:href="#m7dcbd44994" x="204.211724" y="65.861016" style="stroke: #000000; stroke-width: 1.5"/>
      </g>
     </g>
     <g id="text_16">
      <!-- $10^5$ -->
      <g transform="translate(197.146724 82.052266)">
       <text>
        <tspan x="0" y="-0.276" style="font-size: 9px; font-family: 'Arial'">1</tspan>
        <tspan x="5.005371" y="-0.276" style="font-size: 9px; font-family: 'Arial'">0</tspan>
        <tspan x="10.167553" y="-6.548437" style="font-size: 6.3px; font-family: 'Arial'">5</tspan>
       </text>
      </g>
     </g>
    </g>
    <g id="text_17">
     <text style="font-size: 9px; font-family: 'Arial', sans-serif; text-anchor: middle" x="180.16" y="94.373047" transform="rotate(-0 180.16 94.373047)">Num. sim.</text>
    </g>
   </g>
   <g id="matplotlib.axis_6">
    <g id="ytick_5">
     <g id="line2d_29">
      <g>
       <use xlink:href="#mce457e3f28" x="153.703103" y="65.861016" style="stroke: #000000; stroke-width: 1.5"/>
      </g>
     </g>
    </g>
    <g id="ytick_6">
     <g id="line2d_30">
      <g>
       <use xlink:href="#mce457e3f28" x="153.703103" y="10.421016" style="stroke: #000000; stroke-width: 1.5"/>
      </g>
     </g>
    </g>
   </g>
   <g id="line2d_31">
    <path d="M 156.108276 26.20312 
L 156.108276 24.712339 
L 156.108276 28.52273 
L 172.142759 37.405327 
L 172.142759 40.041499 
L 172.142759 37.653698 
L 188.177241 50.674336 
L 188.177241 51.411688 
L 188.177241 51.245923 
L 204.211724 57.780636 
L 204.211724 58.502464 
L 204.211724 59.020274 
" clip-path="url(#p843af746cd)" style="fill: none; stroke: #0000ff; stroke-opacity: 0.7; stroke-width: 1.5; stroke-linecap: square"/>
   </g>
   <g id="line2d_32">
    <path d="M 156.108276 27.712197 
L 156.108276 28.225572 
L 156.108276 25.189123 
L 172.142759 42.154317 
L 172.142759 41.105392 
L 172.142759 42.047872 
L 188.177241 52.894708 
L 188.177241 54.08944 
L 188.177241 53.648692 
L 204.211724 58.529076 
L 204.211724 59.043559 
L 204.211724 59.408354 
" clip-path="url(#p843af746cd)" style="fill: none; stroke: #0000ff; stroke-opacity: 0.7; stroke-width: 1.5; stroke-linecap: square"/>
   </g>
   <g id="line2d_33">
    <path d="M 156.108276 26.177064 
L 156.108276 27.994941 
L 156.108276 27.495981 
L 172.142759 37.98024 
L 172.142759 40.312046 
L 172.142759 36.5704 
L 188.177241 51.0225 
L 188.177241 52.229983 
L 204.211724 58.470864 
L 204.211724 58.910503 
L 204.211724 58.861161 
" clip-path="url(#p843af746cd)" style="fill: none; stroke: #0000ff; stroke-opacity: 0.7; stroke-width: 1.5; stroke-linecap: square"/>
   </g>
   <g id="line2d_34">
    <path d="M 156.108276 25.959739 
L 156.108276 28.341441 
L 156.108276 27.960568 
L 172.142759 39.402276 
L 172.142759 37.015584 
L 172.142759 36.501655 
L 188.177241 50.57399 
L 188.177241 50.580088 
L 188.177241 51.423885 
L 204.211724 58.497475 
L 204.211724 57.934759 
L 204.211724 58.675992 
" clip-path="url(#p843af746cd)" style="fill: none; stroke: #0000ff; stroke-opacity: 0.7; stroke-width: 1.5; stroke-linecap: square"/>
   </g>
   <g id="line2d_35">
    <path d="M 156.108276 28.123562 
L 156.108276 24.730634 
L 156.108276 27.624602 
L 172.142759 38.251896 
L 172.142759 39.76818 
L 172.142759 40.728955 
L 188.177241 52.660197 
L 188.177241 52.080295 
L 188.177241 52.643011 
L 204.211724 59.198236 
L 204.211724 59.497058 
L 204.211724 59.230392 
" clip-path="url(#p843af746cd)" style="fill: none; stroke: #0000ff; stroke-opacity: 0.7; stroke-width: 1.5; stroke-linecap: square"/>
   </g>
   <g id="line2d_36">
    <path d="M 156.108276 26.292933 
L 156.108276 28.147956 
L 156.108276 27.75156 
L 172.142759 37.902624 
L 172.142759 39.940598 
L 172.142759 38.356123 
L 188.177241 51.333518 
L 188.177241 50.535182 
L 188.177241 50.882236 
L 204.211724 57.575508 
L 204.211724 58.230808 
L 204.211724 57.676963 
" clip-path="url(#p843af746cd)" style="fill: none; stroke-dasharray: 5.55,2.4; stroke-dashoffset: 0; stroke: #f2a900; stroke-width: 1.5"/>
   </g>
   <g id="patch_9">
    <path d="M 153.703103 65.861016 
L 153.703103 10.421016 
" style="fill: none; stroke: #000000; stroke-width: 1.5; stroke-linejoin: miter; stroke-linecap: square"/>
   </g>
   <g id="patch_10">
    <path d="M 153.703103 65.861016 
L 206.616897 65.861016 
" style="fill: none; stroke: #000000; stroke-width: 1.5; stroke-linejoin: miter; stroke-linecap: square"/>
   </g>
  </g>
  <g id="axes_4">
   <g id="patch_11">
    <path d="M 217.199655 65.861016 
L 270.113448 65.861016 
L 270.113448 10.421016 
L 217.199655 10.421016 
z
" style="fill: #ffffff"/>
   </g>
   <g id="matplotlib.axis_7">
    <g id="xtick_13">
     <g id="line2d_37">
      <g>
       <use xlink:href="#m7dcbd44994" x="219.604828" y="65.861016" style="stroke: #000000; stroke-width: 1.5"/>
      </g>
     </g>
     <g id="text_18">
      <!-- $10^2$ -->
      <g transform="translate(212.539828 82.142266)">
       <text>
        <tspan x="0" y="-0.199438" style="font-size: 9px; font-family: 'Arial'">1</tspan>
        <tspan x="5.005371" y="-0.199438" style="font-size: 9px; font-family: 'Arial'">0</tspan>
        <tspan x="10.167553" y="-6.471875" style="font-size: 6.3px; font-family: 'Arial'">2</tspan>
       </text>
      </g>
     </g>
    </g>
    <g id="xtick_14">
     <g id="line2d_38">
      <g>
       <use xlink:href="#m7dcbd44994" x="235.63931" y="65.861016" style="stroke: #000000; stroke-width: 1.5"/>
      </g>
     </g>
     <g id="text_19">
      <!-- $10^3$ -->
      <g transform="translate(228.57431 82.142266)">
       <text>
        <tspan x="0" y="-0.199438" style="font-size: 9px; font-family: 'Arial'">1</tspan>
        <tspan x="5.005371" y="-0.199438" style="font-size: 9px; font-family: 'Arial'">0</tspan>
        <tspan x="10.167553" y="-6.471875" style="font-size: 6.3px; font-family: 'Arial'">3</tspan>
       </text>
      </g>
     </g>
    </g>
    <g id="xtick_15">
     <g id="line2d_39">
      <g>
       <use xlink:href="#m7dcbd44994" x="251.673793" y="65.861016" style="stroke: #000000; stroke-width: 1.5"/>
      </g>
     </g>
     <g id="text_20">
      <!-- $10^4$ -->
      <g transform="translate(244.608793 82.052266)">
       <text>
        <tspan x="0" y="-0.221312" style="font-size: 9px; font-family: 'Arial'">1</tspan>
        <tspan x="5.005371" y="-0.221312" style="font-size: 9px; font-family: 'Arial'">0</tspan>
        <tspan x="10.167553" y="-6.49375" style="font-size: 6.3px; font-family: 'Arial'">4</tspan>
       </text>
      </g>
     </g>
    </g>
    <g id="xtick_16">
     <g id="line2d_40">
      <g>
       <use xlink:href="#m7dcbd44994" x="267.708276" y="65.861016" style="stroke: #000000; stroke-width: 1.5"/>
      </g>
     </g>
     <g id="text_21">
      <!-- $10^5$ -->
      <g transform="translate(260.643276 82.052266)">
       <text>
        <tspan x="0" y="-0.276" style="font-size: 9px; font-family: 'Arial'">1</tspan>
        <tspan x="5.005371" y="-0.276" style="font-size: 9px; font-family: 'Arial'">0</tspan>
        <tspan x="10.167553" y="-6.548437" style="font-size: 6.3px; font-family: 'Arial'">5</tspan>
       </text>
      </g>
     </g>
    </g>
    <g id="text_22">
     <text style="font-size: 9px; font-family: 'Arial', sans-serif; text-anchor: middle" x="243.656552" y="94.373047" transform="rotate(-0 243.656552 94.373047)">Num. sim.</text>
    </g>
   </g>
   <g id="matplotlib.axis_8">
    <g id="ytick_7">
     <g id="line2d_41">
      <g>
       <use xlink:href="#mce457e3f28" x="217.199655" y="65.861016" style="stroke: #000000; stroke-width: 1.5"/>
      </g>
     </g>
    </g>
    <g id="ytick_8">
     <g id="line2d_42">
      <g>
       <use xlink:href="#mce457e3f28" x="217.199655" y="10.421016" style="stroke: #000000; stroke-width: 1.5"/>
      </g>
     </g>
    </g>
   </g>
   <g id="line2d_43">
    <path d="M 219.604828 33.199648 
L 219.604828 30.254676 
L 219.604828 33.67366 
L 235.63931 56.901357 
L 235.63931 56.720068 
L 235.63931 58.341134 
L 251.673793 61.762336 
L 251.673793 61.745704 
L 251.673793 61.838289 
L 267.708276 64.426783 
L 267.708276 64.269333 
L 267.708276 64.50828 
" clip-path="url(#p0037e31d92)" style="fill: none; stroke: #0000ff; stroke-opacity: 0.7; stroke-width: 1.5; stroke-linecap: square"/>
   </g>
   <g id="line2d_44">
    <path d="M 219.604828 34.011844 
L 219.604828 32.033191 
L 219.604828 34.211428 
L 219.604828 34.505815 
L 219.604828 31.795908 
L 219.604828 34.1826 
L 235.63931 57.294427 
L 235.63931 57.374815 
L 235.63931 57.26837 
L 235.63931 57.659776 
L 235.63931 55.481539 
L 235.63931 55.375094 
L 251.673793 62.065593 
L 251.673793 61.921449 
L 251.673793 61.634824 
L 251.673793 62.160396 
L 251.673793 62.256307 
L 251.673793 61.683612 
L 267.708276 64.818189 
L 267.708276 64.404607 
L 267.708276 64.259354 
" clip-path="url(#p0037e31d92)" style="fill: none; stroke-dasharray: 5.55,2.4; stroke-dashoffset: 0; stroke: #f2a900; stroke-width: 1.5"/>
   </g>
   <g id="patch_12">
    <path d="M 217.199655 65.861016 
L 217.199655 10.421016 
" style="fill: none; stroke: #000000; stroke-width: 1.5; stroke-linejoin: miter; stroke-linecap: square"/>
   </g>
   <g id="patch_13">
    <path d="M 217.199655 65.861016 
L 270.113448 65.861016 
" style="fill: none; stroke: #000000; stroke-width: 1.5; stroke-linejoin: miter; stroke-linecap: square"/>
   </g>
  </g>
  <g id="axes_5">
   <g id="patch_14">
    <path d="M 280.696207 65.861016 
L 333.61 65.861016 
L 333.61 10.421016 
L 280.696207 10.421016 
z
" style="fill: #ffffff"/>
   </g>
   <g id="matplotlib.axis_9">
    <g id="xtick_17">
     <g id="line2d_45">
      <g>
       <use xlink:href="#m7dcbd44994" x="283.101379" y="65.861016" style="stroke: #000000; stroke-width: 1.5"/>
      </g>
     </g>
     <g id="text_23">
      <!-- $10^2$ -->
      <g transform="translate(276.036379 82.142266)">
       <text>
        <tspan x="0" y="-0.199438" style="font-size: 9px; font-family: 'Arial'">1</tspan>
        <tspan x="5.005371" y="-0.199438" style="font-size: 9px; font-family: 'Arial'">0</tspan>
        <tspan x="10.167553" y="-6.471875" style="font-size: 6.3px; font-family: 'Arial'">2</tspan>
       </text>
      </g>
     </g>
    </g>
    <g id="xtick_18">
     <g id="line2d_46">
      <g>
       <use xlink:href="#m7dcbd44994" x="299.135862" y="65.861016" style="stroke: #000000; stroke-width: 1.5"/>
      </g>
     </g>
     <g id="text_24">
      <!-- $10^3$ -->
      <g transform="translate(292.070862 82.142266)">
       <text>
        <tspan x="0" y="-0.199438" style="font-size: 9px; font-family: 'Arial'">1</tspan>
        <tspan x="5.005371" y="-0.199438" style="font-size: 9px; font-family: 'Arial'">0</tspan>
        <tspan x="10.167553" y="-6.471875" style="font-size: 6.3px; font-family: 'Arial'">3</tspan>
       </text>
      </g>
     </g>
    </g>
    <g id="xtick_19">
     <g id="line2d_47">
      <g>
       <use xlink:href="#m7dcbd44994" x="315.170345" y="65.861016" style="stroke: #000000; stroke-width: 1.5"/>
      </g>
     </g>
     <g id="text_25">
      <!-- $10^4$ -->
      <g transform="translate(308.105345 82.052266)">
       <text>
        <tspan x="0" y="-0.221312" style="font-size: 9px; font-family: 'Arial'">1</tspan>
        <tspan x="5.005371" y="-0.221312" style="font-size: 9px; font-family: 'Arial'">0</tspan>
        <tspan x="10.167553" y="-6.49375" style="font-size: 6.3px; font-family: 'Arial'">4</tspan>
       </text>
      </g>
     </g>
    </g>
    <g id="xtick_20">
     <g id="line2d_48">
      <g>
       <use xlink:href="#m7dcbd44994" x="331.204828" y="65.861016" style="stroke: #000000; stroke-width: 1.5"/>
      </g>
     </g>
     <g id="text_26">
      <!-- $10^5$ -->
      <g transform="translate(324.139828 82.052266)">
       <text>
        <tspan x="0" y="-0.276" style="font-size: 9px; font-family: 'Arial'">1</tspan>
        <tspan x="5.005371" y="-0.276" style="font-size: 9px; font-family: 'Arial'">0</tspan>
        <tspan x="10.167553" y="-6.548437" style="font-size: 6.3px; font-family: 'Arial'">5</tspan>
       </text>
      </g>
     </g>
    </g>
    <g id="text_27">
     <text style="font-size: 9px; font-family: 'Arial', sans-serif; text-anchor: middle" x="307.153103" y="94.373047" transform="rotate(-0 307.153103 94.373047)">Num. sim.</text>
    </g>
   </g>
   <g id="matplotlib.axis_10">
    <g id="ytick_9">
     <g id="line2d_49">
      <g>
       <use xlink:href="#mce457e3f28" x="280.696207" y="65.861016" style="stroke: #000000; stroke-width: 1.5"/>
      </g>
     </g>
    </g>
    <g id="ytick_10">
     <g id="line2d_50">
      <g>
       <use xlink:href="#mce457e3f28" x="280.696207" y="10.421016" style="stroke: #000000; stroke-width: 1.5"/>
      </g>
     </g>
    </g>
   </g>
   <g id="line2d_51">
    <path d="M 283.101379 11.726073 
L 283.101379 11.906253 
L 283.101379 11.991631 
L 299.135862 18.600079 
L 299.135862 18.371666 
L 299.135862 17.918167 
L 331.204828 43.855216 
L 331.204828 43.911211 
L 331.204828 43.341842 
" clip-path="url(#pa080817156)" style="fill: none; stroke: #0000ff; stroke-opacity: 0.7; stroke-width: 1.5; stroke-linecap: square"/>
   </g>
   <g id="line2d_52">
    <path d="M 283.101379 12.189552 
L 283.101379 11.751576 
L 283.101379 11.8996 
L 299.135862 17.940343 
L 299.135862 17.754064 
L 299.135862 17.85053 
L 315.170345 28.326472 
L 331.204828 43.4311 
L 331.204828 44.233872 
L 331.204828 42.169286 
" clip-path="url(#pa080817156)" style="fill: none; stroke: #0000ff; stroke-opacity: 0.7; stroke-width: 1.5; stroke-linecap: square"/>
   </g>
   <g id="line2d_53">
    <path d="M 283.101379 11.621846 
L 283.101379 11.803135 
L 283.101379 11.814777 
L 299.135862 19.079635 
L 299.135862 18.646094 
L 299.135862 18.859538 
L 315.170345 29.593831 
L 331.204828 44.759997 
L 331.204828 42.098877 
L 331.204828 44.416269 
" clip-path="url(#pa080817156)" style="fill: none; stroke: #0000ff; stroke-opacity: 0.7; stroke-width: 1.5; stroke-linecap: square"/>
   </g>
   <g id="line2d_54">
    <path d="M 283.101379 11.775415 
L 283.101379 11.848041 
L 283.101379 11.680612 
L 299.135862 17.921493 
L 299.135862 18.466468 
L 299.135862 17.639858 
L 315.170345 28.390783 
L 331.204828 41.922578 
L 331.204828 44.231654 
L 331.204828 43.755424 
" clip-path="url(#pa080817156)" style="fill: none; stroke: #0000ff; stroke-opacity: 0.7; stroke-width: 1.5; stroke-linecap: square"/>
   </g>
   <g id="line2d_55">
    <path d="M 283.101379 12.309302 
L 283.101379 11.843606 
L 283.101379 12.452892 
L 299.135862 17.882685 
L 299.135862 18.163212 
L 299.135862 18.1743 
L 331.204828 41.720776 
L 331.204828 43.13616 
L 331.204828 43.584115 
" clip-path="url(#pa080817156)" style="fill: none; stroke: #0000ff; stroke-opacity: 0.7; stroke-width: 1.5; stroke-linecap: square"/>
   </g>
   <g id="line2d_56">
    <path d="M 283.101379 11.716648 
L 283.101379 12.063703 
L 283.101379 11.620183 
L 299.135862 18.190932 
L 299.135862 17.78622 
L 299.135862 17.918721 
L 315.170345 28.381358 
L 331.204828 42.494719 
L 331.204828 43.747663 
L 331.204828 45.241216 
" clip-path="url(#pa080817156)" style="fill: none; stroke: #0000ff; stroke-opacity: 0.7; stroke-width: 1.5; stroke-linecap: square"/>
   </g>
   <g id="line2d_57">
    <path d="M 283.101379 12.090868 
L 283.101379 11.674514 
L 283.101379 11.911243 
L 299.135862 18.716503 
L 299.135862 19.530916 
L 299.135862 18.228631 
L 315.170345 31.157239 
L 331.204828 45.860481 
L 331.204828 47.211554 
L 331.204828 47.434977 
" clip-path="url(#pa080817156)" style="fill: none; stroke: #0000ff; stroke-opacity: 0.7; stroke-width: 1.5; stroke-linecap: square"/>
   </g>
   <g id="line2d_58">
    <path d="M 283.101379 11.812005 
L 283.101379 12.513876 
L 283.101379 12.237784 
L 299.135862 18.97319 
L 299.135862 18.428215 
L 299.135862 20.142974 
L 315.170345 29.28503 
L 331.204828 44.282104 
L 331.204828 45.836088 
L 331.204828 47.215989 
" clip-path="url(#pa080817156)" style="fill: none; stroke: #0000ff; stroke-opacity: 0.7; stroke-width: 1.5; stroke-linecap: square"/>
   </g>
   <g id="line2d_59">
    <path d="M 283.101379 11.833627 
L 283.101379 12.405768 
L 283.101379 12.285463 
L 299.135862 18.82572 
L 299.135862 18.149352 
L 299.135862 17.445818 
L 315.170345 28.384684 
L 331.204828 45.178569 
L 331.204828 45.411417 
L 331.204828 43.199916 
" clip-path="url(#pa080817156)" style="fill: none; stroke-dasharray: 5.55,2.4; stroke-dashoffset: 0; stroke: #f2a900; stroke-width: 1.5"/>
   </g>
   <g id="patch_15">
    <path d="M 280.696207 65.861016 
L 280.696207 10.421016 
" style="fill: none; stroke: #000000; stroke-width: 1.5; stroke-linejoin: miter; stroke-linecap: square"/>
   </g>
   <g id="patch_16">
    <path d="M 280.696207 65.861016 
L 333.61 65.861016 
" style="fill: none; stroke: #000000; stroke-width: 1.5; stroke-linejoin: miter; stroke-linecap: square"/>
   </g>
  </g>
 </g>
 <defs>
  <clipPath id="pabead772d2">
   <rect x="26.71" y="10.421016" width="52.913793" height="55.44"/>
  </clipPath>
  <clipPath id="p5a2dd3cfb2">
   <rect x="90.206552" y="10.421016" width="52.913793" height="55.44"/>
  </clipPath>
  <clipPath id="p843af746cd">
   <rect x="153.703103" y="10.421016" width="52.913793" height="55.44"/>
  </clipPath>
  <clipPath id="p0037e31d92">
   <rect x="217.199655" y="10.421016" width="52.913793" height="55.44"/>
  </clipPath>
  <clipPath id="pa080817156">
   <rect x="280.696207" y="10.421016" width="52.913793" height="55.44"/>
  </clipPath>
 </defs>
</svg>
