<?xml version="1.0" encoding="utf-8" standalone="no"?>
<!DOCTYPE svg PUBLIC "-//W3C//DTD SVG 1.1//EN"
  "http://www.w3.org/Graphics/SVG/1.1/DTD/svg11.dtd">
<svg xmlns:xlink="http://www.w3.org/1999/xlink" width="155.037656pt" height="53.208pt" viewBox="0 0 155.037656 53.208" xmlns="http://www.w3.org/2000/svg" version="1.1">
 <metadata>
  <rdf:RDF xmlns:dc="http://purl.org/dc/elements/1.1/" xmlns:cc="http://creativecommons.org/ns#" xmlns:rdf="http://www.w3.org/1999/02/22-rdf-syntax-ns#">
   <cc:Work>
    <dc:type rdf:resource="http://purl.org/dc/dcmitype/StillImage"/>
    <dc:date>2025-04-23T14:18:22.845088</dc:date>
    <dc:format>image/svg+xml</dc:format>
    <dc:creator>
     <cc:Agent>
      <dc:title>Matplotlib v3.10.0, https://matplotlib.org/</dc:title>
     </cc:Agent>
    </dc:creator>
   </cc:Work>
  </rdf:RDF>
 </metadata>
 <defs>
  <style type="text/css">*{stroke-linejoin: round; stroke-linecap: butt}</style>
 </defs>
 <g id="figure_1">
  <g id="patch_1">
   <path d="M 0 53.208 
L 155.037656 53.208 
L 155.037656 0 
L 0 0 
L 0 53.208 
z
" style="fill: none"/>
  </g>
  <g id="axes_1">
   <g id="legend_1">
    <g id="line2d_1">
     <path d="M 10.8 25.780641 
L 19.8 25.780641 
L 28.8 25.780641 
" style="fill: none; stroke: #0000ff; stroke-width: 1.5; stroke-linecap: square"/>
     <defs>
      <path id="mfb616f5aef" d="M -1.5 1.5 
L 1.5 1.5 
L 1.5 -1.5 
L -1.5 -1.5 
z
" style="stroke: #0000ff; stroke-linejoin: miter"/>
     </defs>
     <g>
      <use xlink:href="#mfb616f5aef" x="19.8" y="25.780641" style="fill: #0000ff; stroke: #0000ff; stroke-linejoin: miter"/>
     </g>
    </g>
    <g id="text_1">
     <text style="font-size: 9px; font-family: 'Arial', sans-serif; text-anchor: start" x="36" y="28.930641" transform="rotate(-0 36 28.930641)">permuted</text>
    </g>
    <g id="line2d_2">
     <path d="M 92.017969 25.780641 
L 101.017969 25.780641 
L 110.017969 25.780641 
" style="fill: none; stroke-dasharray: 5.55,2.4; stroke-dashoffset: 0; stroke: #f2a900; stroke-width: 1.5"/>
     <defs>
      <path id="md2eefdefee" d="M 0 1.5 
C 0.397805 1.5 0.77937 1.341951 1.06066 1.06066 
C 1.341951 0.77937 1.5 0.397805 1.5 0 
C 1.5 -0.397805 1.341951 -0.77937 1.06066 -1.06066 
C 0.77937 -1.341951 0.397805 -1.5 0 -1.5 
C -0.397805 -1.5 -0.77937 -1.341951 -1.06066 -1.06066 
C -1.341951 -0.77937 -1.5 -0.397805 -1.5 0 
C -1.5 0.397805 -1.341951 0.77937 -1.06066 1.06066 
C -0.77937 1.341951 -0.397805 1.5 0 1.5 
z
" style="stroke: #f2a900"/>
     </defs>
     <g>
      <use xlink:href="#md2eefdefee" x="101.017969" y="25.780641" style="fill: #f2a900; stroke: #f2a900"/>
     </g>
    </g>
    <g id="text_2">
     <text style="font-size: 9px; font-family: 'Arial', sans-serif; text-anchor: start" x="117.217969" y="28.930641" transform="rotate(-0 117.217969 28.930641)">default</text>
    </g>
   </g>
  </g>
 </g>
</svg>
