<?xml version="1.0" encoding="utf-8" standalone="no"?>
<!DOCTYPE svg PUBLIC "-//W3C//DTD SVG 1.1//EN"
  "http://www.w3.org/Graphics/SVG/1.1/DTD/svg11.dtd">
<svg xmlns:xlink="http://www.w3.org/1999/xlink" width="73.7pt" height="175.956781pt" viewBox="0 0 73.7 175.956781" xmlns="http://www.w3.org/2000/svg" version="1.1">
 <metadata>
  <rdf:RDF xmlns:dc="http://purl.org/dc/elements/1.1/" xmlns:cc="http://creativecommons.org/ns#" xmlns:rdf="http://www.w3.org/1999/02/22-rdf-syntax-ns#">
   <cc:Work>
    <dc:type rdf:resource="http://purl.org/dc/dcmitype/StillImage"/>
    <dc:date>2025-04-22T11:35:09.349713</dc:date>
    <dc:format>image/svg+xml</dc:format>
    <dc:creator>
     <cc:Agent>
      <dc:title>Matplotlib v3.10.1, https://matplotlib.org/</dc:title>
     </cc:Agent>
    </dc:creator>
   </cc:Work>
  </rdf:RDF>
 </metadata>
 <defs>
  <style type="text/css">*{stroke-linejoin: round; stroke-linecap: butt}</style>
 </defs>
 <g id="figure_1">
  <g id="patch_1">
   <path d="M 0 175.956781 
L 73.7 175.956781 
L 73.7 0 
L 0 0 
L 0 175.956781 
z
" style="fill: none"/>
  </g>
  <g id="axes_1">
   <g id="patch_2">
    <path d="M 10.7 58.375385 
L 66.5 58.375385 
L 66.5 7.2 
L 10.7 7.2 
L 10.7 58.375385 
z
" style="fill: none"/>
   </g>
   <g id="QuadMesh_1">
    <path d="M 10.7 58.375385 
L 15.772727 58.375385 
L 15.772727 54.130422 
L 10.7 54.130422 
L 10.7 58.375385 
" clip-path="url(#pc69e9c78c4)" style="fill: #ffe5e5"/>
    <path d="M 15.772727 58.375385 
L 20.845455 58.375385 
L 20.845455 54.130422 
L 15.772727 54.130422 
L 15.772727 58.375385 
" clip-path="url(#pc69e9c78c4)" style="fill: #ffe1e1"/>
    <path d="M 20.845455 58.375385 
L 25.918182 58.375385 
L 25.918182 54.130422 
L 20.845455 54.130422 
L 20.845455 58.375385 
" clip-path="url(#pc69e9c78c4)" style="fill: #ffe5e5"/>
    <path d="M 25.918182 58.375385 
L 30.990909 58.375385 
L 30.990909 54.130422 
L 25.918182 54.130422 
L 25.918182 58.375385 
" clip-path="url(#pc69e9c78c4)" style="fill: #ffe9e9"/>
    <path d="M 30.990909 58.375385 
L 36.063636 58.375385 
L 36.063636 54.130422 
L 30.990909 54.130422 
L 30.990909 58.375385 
" clip-path="url(#pc69e9c78c4)" style="fill: #ffe9e9"/>
    <path d="M 36.063636 58.375385 
L 41.136364 58.375385 
L 41.136364 54.130422 
L 36.063636 54.130422 
L 36.063636 58.375385 
" clip-path="url(#pc69e9c78c4)" style="fill: #fff1f1"/>
    <path d="M 41.136364 58.375385 
L 46.209091 58.375385 
L 46.209091 54.130422 
L 41.136364 54.130422 
L 41.136364 58.375385 
" clip-path="url(#pc69e9c78c4)" style="fill: #fff1f1"/>
    <path d="M 46.209091 58.375385 
L 51.281818 58.375385 
L 51.281818 54.130422 
L 46.209091 54.130422 
L 46.209091 58.375385 
" clip-path="url(#pc69e9c78c4)" style="fill: #fff9f9"/>
    <path d="M 51.281818 58.375385 
L 56.354545 58.375385 
L 56.354545 54.130422 
L 51.281818 54.130422 
L 51.281818 58.375385 
" clip-path="url(#pc69e9c78c4)" style="fill: #fff9f9"/>
    <path d="M 56.354545 58.375385 
L 61.427273 58.375385 
L 61.427273 54.130422 
L 56.354545 54.130422 
L 56.354545 58.375385 
" clip-path="url(#pc69e9c78c4)" style="fill: #fffdfd"/>
    <path d="M 61.427273 58.375385 
L 66.5 58.375385 
L 66.5 54.130422 
L 61.427273 54.130422 
L 61.427273 58.375385 
" clip-path="url(#pc69e9c78c4)" style="fill: #fffdfd"/>
    <path d="M 10.7 54.130422 
L 15.772727 54.130422 
L 15.772727 49.649628 
L 10.7 49.649628 
L 10.7 54.130422 
" clip-path="url(#pc69e9c78c4)" style="fill: #f9f9ff"/>
    <path d="M 15.772727 54.130422 
L 20.845455 54.130422 
L 20.845455 49.649628 
L 15.772727 49.649628 
L 15.772727 54.130422 
" clip-path="url(#pc69e9c78c4)" style="fill: #b1b1ff"/>
    <path d="M 20.845455 54.130422 
L 25.918182 54.130422 
L 25.918182 49.649628 
L 20.845455 49.649628 
L 20.845455 54.130422 
" clip-path="url(#pc69e9c78c4)" style="fill: #9d9dff"/>
    <path d="M 25.918182 54.130422 
L 30.990909 54.130422 
L 30.990909 49.649628 
L 25.918182 49.649628 
L 25.918182 54.130422 
" clip-path="url(#pc69e9c78c4)" style="fill: #c5c5ff"/>
    <path d="M 30.990909 54.130422 
L 36.063636 54.130422 
L 36.063636 49.649628 
L 30.990909 49.649628 
L 30.990909 54.130422 
" clip-path="url(#pc69e9c78c4)" style="fill: #fff9f9"/>
    <path d="M 36.063636 54.130422 
L 41.136364 54.130422 
L 41.136364 49.649628 
L 36.063636 49.649628 
L 36.063636 54.130422 
" clip-path="url(#pc69e9c78c4)" style="fill: #ffd1d1"/>
    <path d="M 41.136364 54.130422 
L 46.209091 54.130422 
L 46.209091 49.649628 
L 41.136364 49.649628 
L 41.136364 54.130422 
" clip-path="url(#pc69e9c78c4)" style="fill: #ffc5c5"/>
    <path d="M 46.209091 54.130422 
L 51.281818 54.130422 
L 51.281818 49.649628 
L 46.209091 49.649628 
L 46.209091 54.130422 
" clip-path="url(#pc69e9c78c4)" style="fill: #ffc9c9"/>
    <path d="M 51.281818 54.130422 
L 56.354545 54.130422 
L 56.354545 49.649628 
L 51.281818 49.649628 
L 51.281818 54.130422 
" clip-path="url(#pc69e9c78c4)" style="fill: #ffcdcd"/>
    <path d="M 56.354545 54.130422 
L 61.427273 54.130422 
L 61.427273 49.649628 
L 56.354545 49.649628 
L 56.354545 54.130422 
" clip-path="url(#pc69e9c78c4)" style="fill: #ffdddd"/>
    <path d="M 61.427273 54.130422 
L 66.5 54.130422 
L 66.5 49.649628 
L 61.427273 49.649628 
L 61.427273 54.130422 
" clip-path="url(#pc69e9c78c4)" style="fill: #ffe5e5"/>
    <path d="M 10.7 49.649628 
L 15.772727 49.649628 
L 15.772727 44.933002 
L 10.7 44.933002 
L 10.7 49.649628 
" clip-path="url(#pc69e9c78c4)" style="fill: #bdbdff"/>
    <path d="M 15.772727 49.649628 
L 20.845455 49.649628 
L 20.845455 44.933002 
L 15.772727 44.933002 
L 15.772727 49.649628 
" clip-path="url(#pc69e9c78c4)" style="fill: #3939ff"/>
    <path d="M 20.845455 49.649628 
L 25.918182 49.649628 
L 25.918182 44.933002 
L 20.845455 44.933002 
L 20.845455 49.649628 
" clip-path="url(#pc69e9c78c4)" style="fill: #0909ff"/>
    <path d="M 25.918182 49.649628 
L 30.990909 49.649628 
L 30.990909 44.933002 
L 25.918182 44.933002 
L 25.918182 49.649628 
" clip-path="url(#pc69e9c78c4)" style="fill: #6161ff"/>
    <path d="M 30.990909 49.649628 
L 36.063636 49.649628 
L 36.063636 44.933002 
L 30.990909 44.933002 
L 30.990909 49.649628 
" clip-path="url(#pc69e9c78c4)" style="fill: #bdbdff"/>
    <path d="M 36.063636 49.649628 
L 41.136364 49.649628 
L 41.136364 44.933002 
L 36.063636 44.933002 
L 36.063636 49.649628 
" clip-path="url(#pc69e9c78c4)" style="fill: #fff9f9"/>
    <path d="M 41.136364 49.649628 
L 46.209091 49.649628 
L 46.209091 44.933002 
L 41.136364 44.933002 
L 41.136364 49.649628 
" clip-path="url(#pc69e9c78c4)" style="fill: #ffcdcd"/>
    <path d="M 46.209091 49.649628 
L 51.281818 49.649628 
L 51.281818 44.933002 
L 46.209091 44.933002 
L 46.209091 49.649628 
" clip-path="url(#pc69e9c78c4)" style="fill: #ffc5c5"/>
    <path d="M 51.281818 49.649628 
L 56.354545 49.649628 
L 56.354545 44.933002 
L 51.281818 44.933002 
L 51.281818 49.649628 
" clip-path="url(#pc69e9c78c4)" style="fill: #ffc1c1"/>
    <path d="M 56.354545 49.649628 
L 61.427273 49.649628 
L 61.427273 44.933002 
L 56.354545 44.933002 
L 56.354545 49.649628 
" clip-path="url(#pc69e9c78c4)" style="fill: #ffc9c9"/>
    <path d="M 61.427273 49.649628 
L 66.5 49.649628 
L 66.5 44.933002 
L 61.427273 44.933002 
L 61.427273 49.649628 
" clip-path="url(#pc69e9c78c4)" style="fill: #ffd5d5"/>
    <path d="M 10.7 44.933002 
L 15.772727 44.933002 
L 15.772727 40.216377 
L 10.7 40.216377 
L 10.7 44.933002 
" clip-path="url(#pc69e9c78c4)" style="fill: #8585ff"/>
    <path d="M 15.772727 44.933002 
L 20.845455 44.933002 
L 20.845455 40.216377 
L 15.772727 40.216377 
L 15.772727 44.933002 
" clip-path="url(#pc69e9c78c4)" style="fill: #0505ff"/>
    <path d="M 20.845455 44.933002 
L 25.918182 44.933002 
L 25.918182 40.216377 
L 20.845455 40.216377 
L 20.845455 44.933002 
" clip-path="url(#pc69e9c78c4)" style="fill: #0000d3"/>
    <path d="M 25.918182 44.933002 
L 30.990909 44.933002 
L 30.990909 40.216377 
L 25.918182 40.216377 
L 25.918182 44.933002 
" clip-path="url(#pc69e9c78c4)" style="fill: #1111ff"/>
    <path d="M 30.990909 44.933002 
L 36.063636 44.933002 
L 36.063636 40.216377 
L 30.990909 40.216377 
L 30.990909 44.933002 
" clip-path="url(#pc69e9c78c4)" style="fill: #7979ff"/>
    <path d="M 36.063636 44.933002 
L 41.136364 44.933002 
L 41.136364 40.216377 
L 36.063636 40.216377 
L 36.063636 44.933002 
" clip-path="url(#pc69e9c78c4)" style="fill: #ddddff"/>
    <path d="M 41.136364 44.933002 
L 46.209091 44.933002 
L 46.209091 40.216377 
L 41.136364 40.216377 
L 41.136364 44.933002 
" clip-path="url(#pc69e9c78c4)" style="fill: #ffe9e9"/>
    <path d="M 46.209091 44.933002 
L 51.281818 44.933002 
L 51.281818 40.216377 
L 46.209091 40.216377 
L 46.209091 44.933002 
" clip-path="url(#pc69e9c78c4)" style="fill: #ffc5c5"/>
    <path d="M 51.281818 44.933002 
L 56.354545 44.933002 
L 56.354545 40.216377 
L 51.281818 40.216377 
L 51.281818 44.933002 
" clip-path="url(#pc69e9c78c4)" style="fill: #ffbdbd"/>
    <path d="M 56.354545 44.933002 
L 61.427273 44.933002 
L 61.427273 40.216377 
L 56.354545 40.216377 
L 56.354545 44.933002 
" clip-path="url(#pc69e9c78c4)" style="fill: #ffbdbd"/>
    <path d="M 61.427273 44.933002 
L 66.5 44.933002 
L 66.5 40.216377 
L 61.427273 40.216377 
L 61.427273 44.933002 
" clip-path="url(#pc69e9c78c4)" style="fill: #ffc9c9"/>
    <path d="M 10.7 40.216377 
L 15.772727 40.216377 
L 15.772727 35.499752 
L 10.7 35.499752 
L 10.7 40.216377 
" clip-path="url(#pc69e9c78c4)" style="fill: #6969ff"/>
    <path d="M 15.772727 40.216377 
L 20.845455 40.216377 
L 20.845455 35.499752 
L 15.772727 35.499752 
L 15.772727 40.216377 
" clip-path="url(#pc69e9c78c4)" style="fill: #0505ff"/>
    <path d="M 20.845455 40.216377 
L 25.918182 40.216377 
L 25.918182 35.499752 
L 20.845455 35.499752 
L 20.845455 40.216377 
" clip-path="url(#pc69e9c78c4)" style="fill: #0000de"/>
    <path d="M 25.918182 40.216377 
L 30.990909 40.216377 
L 30.990909 35.499752 
L 25.918182 35.499752 
L 25.918182 40.216377 
" clip-path="url(#pc69e9c78c4)" style="fill: #0000f4"/>
    <path d="M 30.990909 40.216377 
L 36.063636 40.216377 
L 36.063636 35.499752 
L 30.990909 35.499752 
L 30.990909 40.216377 
" clip-path="url(#pc69e9c78c4)" style="fill: #5959ff"/>
    <path d="M 36.063636 40.216377 
L 41.136364 40.216377 
L 41.136364 35.499752 
L 36.063636 35.499752 
L 36.063636 40.216377 
" clip-path="url(#pc69e9c78c4)" style="fill: #b9b9ff"/>
    <path d="M 41.136364 40.216377 
L 46.209091 40.216377 
L 46.209091 35.499752 
L 41.136364 35.499752 
L 41.136364 40.216377 
" clip-path="url(#pc69e9c78c4)" style="fill: #fff9f9"/>
    <path d="M 46.209091 40.216377 
L 51.281818 40.216377 
L 51.281818 35.499752 
L 46.209091 35.499752 
L 46.209091 40.216377 
" clip-path="url(#pc69e9c78c4)" style="fill: #ffdddd"/>
    <path d="M 51.281818 40.216377 
L 56.354545 40.216377 
L 56.354545 35.499752 
L 51.281818 35.499752 
L 51.281818 40.216377 
" clip-path="url(#pc69e9c78c4)" style="fill: #ffc9c9"/>
    <path d="M 56.354545 40.216377 
L 61.427273 40.216377 
L 61.427273 35.499752 
L 56.354545 35.499752 
L 56.354545 40.216377 
" clip-path="url(#pc69e9c78c4)" style="fill: #ffc5c5"/>
    <path d="M 61.427273 40.216377 
L 66.5 40.216377 
L 66.5 35.499752 
L 61.427273 35.499752 
L 61.427273 40.216377 
" clip-path="url(#pc69e9c78c4)" style="fill: #ffcdcd"/>
    <path d="M 10.7 35.499752 
L 15.772727 35.499752 
L 15.772727 30.783127 
L 10.7 30.783127 
L 10.7 35.499752 
" clip-path="url(#pc69e9c78c4)" style="fill: #6d6dff"/>
    <path d="M 15.772727 35.499752 
L 20.845455 35.499752 
L 20.845455 30.783127 
L 15.772727 30.783127 
L 15.772727 35.499752 
" clip-path="url(#pc69e9c78c4)" style="fill: #0000fa"/>
    <path d="M 20.845455 35.499752 
L 25.918182 35.499752 
L 25.918182 30.783127 
L 20.845455 30.783127 
L 20.845455 35.499752 
" clip-path="url(#pc69e9c78c4)" style="fill: #0000de"/>
    <path d="M 25.918182 35.499752 
L 30.990909 35.499752 
L 30.990909 30.783127 
L 25.918182 30.783127 
L 25.918182 35.499752 
" clip-path="url(#pc69e9c78c4)" style="fill: #0000ec"/>
    <path d="M 30.990909 35.499752 
L 36.063636 35.499752 
L 36.063636 30.783127 
L 30.990909 30.783127 
L 30.990909 35.499752 
" clip-path="url(#pc69e9c78c4)" style="fill: #2d2dff"/>
    <path d="M 36.063636 35.499752 
L 41.136364 35.499752 
L 41.136364 30.783127 
L 36.063636 30.783127 
L 36.063636 35.499752 
" clip-path="url(#pc69e9c78c4)" style="fill: #9191ff"/>
    <path d="M 41.136364 35.499752 
L 46.209091 35.499752 
L 46.209091 30.783127 
L 41.136364 30.783127 
L 41.136364 35.499752 
" clip-path="url(#pc69e9c78c4)" style="fill: #e5e5ff"/>
    <path d="M 46.209091 35.499752 
L 51.281818 35.499752 
L 51.281818 30.783127 
L 46.209091 30.783127 
L 46.209091 35.499752 
" clip-path="url(#pc69e9c78c4)" style="fill: #ffe5e5"/>
    <path d="M 51.281818 35.499752 
L 56.354545 35.499752 
L 56.354545 30.783127 
L 51.281818 30.783127 
L 51.281818 35.499752 
" clip-path="url(#pc69e9c78c4)" style="fill: #ffcdcd"/>
    <path d="M 56.354545 35.499752 
L 61.427273 35.499752 
L 61.427273 30.783127 
L 56.354545 30.783127 
L 56.354545 35.499752 
" clip-path="url(#pc69e9c78c4)" style="fill: #ffc9c9"/>
    <path d="M 61.427273 35.499752 
L 66.5 35.499752 
L 66.5 30.783127 
L 61.427273 30.783127 
L 61.427273 35.499752 
" clip-path="url(#pc69e9c78c4)" style="fill: #ffcdcd"/>
    <path d="M 10.7 30.783127 
L 15.772727 30.783127 
L 15.772727 26.066501 
L 10.7 26.066501 
L 10.7 30.783127 
" clip-path="url(#pc69e9c78c4)" style="fill: #5555ff"/>
    <path d="M 15.772727 30.783127 
L 20.845455 30.783127 
L 20.845455 26.066501 
L 15.772727 26.066501 
L 15.772727 30.783127 
" clip-path="url(#pc69e9c78c4)" style="fill: #0000f2"/>
    <path d="M 20.845455 30.783127 
L 25.918182 30.783127 
L 25.918182 26.066501 
L 20.845455 26.066501 
L 20.845455 30.783127 
" clip-path="url(#pc69e9c78c4)" style="fill: #0000cd"/>
    <path d="M 25.918182 30.783127 
L 30.990909 30.783127 
L 30.990909 26.066501 
L 25.918182 26.066501 
L 25.918182 30.783127 
" clip-path="url(#pc69e9c78c4)" style="fill: #0000db"/>
    <path d="M 30.990909 30.783127 
L 36.063636 30.783127 
L 36.063636 26.066501 
L 30.990909 26.066501 
L 30.990909 30.783127 
" clip-path="url(#pc69e9c78c4)" style="fill: #0d0dff"/>
    <path d="M 36.063636 30.783127 
L 41.136364 30.783127 
L 41.136364 26.066501 
L 36.063636 26.066501 
L 36.063636 30.783127 
" clip-path="url(#pc69e9c78c4)" style="fill: #6565ff"/>
    <path d="M 41.136364 30.783127 
L 46.209091 30.783127 
L 46.209091 26.066501 
L 41.136364 26.066501 
L 41.136364 30.783127 
" clip-path="url(#pc69e9c78c4)" style="fill: #c1c1ff"/>
    <path d="M 46.209091 30.783127 
L 51.281818 30.783127 
L 51.281818 26.066501 
L 46.209091 26.066501 
L 46.209091 30.783127 
" clip-path="url(#pc69e9c78c4)" style="fill: #fff9f9"/>
    <path d="M 51.281818 30.783127 
L 56.354545 30.783127 
L 56.354545 26.066501 
L 51.281818 26.066501 
L 51.281818 30.783127 
" clip-path="url(#pc69e9c78c4)" style="fill: #ffd5d5"/>
    <path d="M 56.354545 30.783127 
L 61.427273 30.783127 
L 61.427273 26.066501 
L 56.354545 26.066501 
L 56.354545 30.783127 
" clip-path="url(#pc69e9c78c4)" style="fill: #ffbdbd"/>
    <path d="M 61.427273 30.783127 
L 66.5 30.783127 
L 66.5 26.066501 
L 61.427273 26.066501 
L 61.427273 30.783127 
" clip-path="url(#pc69e9c78c4)" style="fill: #ffc1c1"/>
    <path d="M 10.7 26.066501 
L 15.772727 26.066501 
L 15.772727 21.349876 
L 10.7 21.349876 
L 10.7 26.066501 
" clip-path="url(#pc69e9c78c4)" style="fill: #5555ff"/>
    <path d="M 15.772727 26.066501 
L 20.845455 26.066501 
L 20.845455 21.349876 
L 15.772727 21.349876 
L 15.772727 26.066501 
" clip-path="url(#pc69e9c78c4)" style="fill: #0909ff"/>
    <path d="M 20.845455 26.066501 
L 25.918182 26.066501 
L 25.918182 21.349876 
L 20.845455 21.349876 
L 20.845455 26.066501 
" clip-path="url(#pc69e9c78c4)" style="fill: #0000e1"/>
    <path d="M 25.918182 26.066501 
L 30.990909 26.066501 
L 30.990909 21.349876 
L 25.918182 21.349876 
L 25.918182 26.066501 
" clip-path="url(#pc69e9c78c4)" style="fill: #0000de"/>
    <path d="M 30.990909 26.066501 
L 36.063636 26.066501 
L 36.063636 21.349876 
L 30.990909 21.349876 
L 30.990909 26.066501 
" clip-path="url(#pc69e9c78c4)" style="fill: #0505ff"/>
    <path d="M 36.063636 26.066501 
L 41.136364 26.066501 
L 41.136364 21.349876 
L 36.063636 21.349876 
L 36.063636 26.066501 
" clip-path="url(#pc69e9c78c4)" style="fill: #4d4dff"/>
    <path d="M 41.136364 26.066501 
L 46.209091 26.066501 
L 46.209091 21.349876 
L 41.136364 21.349876 
L 41.136364 26.066501 
" clip-path="url(#pc69e9c78c4)" style="fill: #a9a9ff"/>
    <path d="M 46.209091 26.066501 
L 51.281818 26.066501 
L 51.281818 21.349876 
L 46.209091 21.349876 
L 46.209091 26.066501 
" clip-path="url(#pc69e9c78c4)" style="fill: #f5f5ff"/>
    <path d="M 51.281818 26.066501 
L 56.354545 26.066501 
L 56.354545 21.349876 
L 51.281818 21.349876 
L 51.281818 26.066501 
" clip-path="url(#pc69e9c78c4)" style="fill: #ffe1e1"/>
    <path d="M 56.354545 26.066501 
L 61.427273 26.066501 
L 61.427273 21.349876 
L 56.354545 21.349876 
L 56.354545 26.066501 
" clip-path="url(#pc69e9c78c4)" style="fill: #ffc5c5"/>
    <path d="M 61.427273 26.066501 
L 66.5 26.066501 
L 66.5 21.349876 
L 61.427273 21.349876 
L 61.427273 26.066501 
" clip-path="url(#pc69e9c78c4)" style="fill: #ffd1d1"/>
    <path d="M 10.7 21.349876 
L 15.772727 21.349876 
L 15.772727 16.633251 
L 10.7 16.633251 
L 10.7 21.349876 
" clip-path="url(#pc69e9c78c4)" style="fill: #6161ff"/>
    <path d="M 15.772727 21.349876 
L 20.845455 21.349876 
L 20.845455 16.633251 
L 15.772727 16.633251 
L 15.772727 21.349876 
" clip-path="url(#pc69e9c78c4)" style="fill: #0d0dff"/>
    <path d="M 20.845455 21.349876 
L 25.918182 21.349876 
L 25.918182 16.633251 
L 20.845455 16.633251 
L 20.845455 21.349876 
" clip-path="url(#pc69e9c78c4)" style="fill: #0000f2"/>
    <path d="M 25.918182 21.349876 
L 30.990909 21.349876 
L 30.990909 16.633251 
L 25.918182 16.633251 
L 25.918182 21.349876 
" clip-path="url(#pc69e9c78c4)" style="fill: #0000ef"/>
    <path d="M 30.990909 21.349876 
L 36.063636 21.349876 
L 36.063636 16.633251 
L 30.990909 16.633251 
L 30.990909 21.349876 
" clip-path="url(#pc69e9c78c4)" style="fill: #2525ff"/>
    <path d="M 36.063636 21.349876 
L 41.136364 21.349876 
L 41.136364 16.633251 
L 36.063636 16.633251 
L 36.063636 21.349876 
" clip-path="url(#pc69e9c78c4)" style="fill: #5959ff"/>
    <path d="M 41.136364 21.349876 
L 46.209091 21.349876 
L 46.209091 16.633251 
L 41.136364 16.633251 
L 41.136364 21.349876 
" clip-path="url(#pc69e9c78c4)" style="fill: #bdbdff"/>
    <path d="M 46.209091 21.349876 
L 51.281818 21.349876 
L 51.281818 16.633251 
L 46.209091 16.633251 
L 46.209091 21.349876 
" clip-path="url(#pc69e9c78c4)" style="fill: #fdfdff"/>
    <path d="M 51.281818 21.349876 
L 56.354545 21.349876 
L 56.354545 16.633251 
L 51.281818 16.633251 
L 51.281818 21.349876 
" clip-path="url(#pc69e9c78c4)" style="fill: #ffc9c9"/>
    <path d="M 56.354545 21.349876 
L 61.427273 21.349876 
L 61.427273 16.633251 
L 56.354545 16.633251 
L 56.354545 21.349876 
" clip-path="url(#pc69e9c78c4)" style="fill: #ffb5b5"/>
    <path d="M 61.427273 21.349876 
L 66.5 21.349876 
L 66.5 16.633251 
L 61.427273 16.633251 
L 61.427273 21.349876 
" clip-path="url(#pc69e9c78c4)" style="fill: #ffb5b5"/>
    <path d="M 10.7 16.633251 
L 15.772727 16.633251 
L 15.772727 11.916625 
L 10.7 11.916625 
L 10.7 16.633251 
" clip-path="url(#pc69e9c78c4)" style="fill: #5d5dff"/>
    <path d="M 15.772727 16.633251 
L 20.845455 16.633251 
L 20.845455 11.916625 
L 15.772727 11.916625 
L 15.772727 16.633251 
" clip-path="url(#pc69e9c78c4)" style="fill: #1919ff"/>
    <path d="M 20.845455 16.633251 
L 25.918182 16.633251 
L 25.918182 11.916625 
L 20.845455 11.916625 
L 20.845455 16.633251 
" clip-path="url(#pc69e9c78c4)" style="fill: #0000f4"/>
    <path d="M 25.918182 16.633251 
L 30.990909 16.633251 
L 30.990909 11.916625 
L 25.918182 11.916625 
L 25.918182 16.633251 
" clip-path="url(#pc69e9c78c4)" style="fill: #0000f2"/>
    <path d="M 30.990909 16.633251 
L 36.063636 16.633251 
L 36.063636 11.916625 
L 30.990909 11.916625 
L 30.990909 16.633251 
" clip-path="url(#pc69e9c78c4)" style="fill: #0909ff"/>
    <path d="M 36.063636 16.633251 
L 41.136364 16.633251 
L 41.136364 11.916625 
L 36.063636 11.916625 
L 36.063636 16.633251 
" clip-path="url(#pc69e9c78c4)" style="fill: #4545ff"/>
    <path d="M 41.136364 16.633251 
L 46.209091 16.633251 
L 46.209091 11.916625 
L 41.136364 11.916625 
L 41.136364 16.633251 
" clip-path="url(#pc69e9c78c4)" style="fill: #9595ff"/>
    <path d="M 46.209091 16.633251 
L 51.281818 16.633251 
L 51.281818 11.916625 
L 46.209091 11.916625 
L 46.209091 16.633251 
" clip-path="url(#pc69e9c78c4)" style="fill: #e5e5ff"/>
    <path d="M 51.281818 16.633251 
L 56.354545 16.633251 
L 56.354545 11.916625 
L 51.281818 11.916625 
L 51.281818 16.633251 
" clip-path="url(#pc69e9c78c4)" style="fill: #ffd5d5"/>
    <path d="M 56.354545 16.633251 
L 61.427273 16.633251 
L 61.427273 11.916625 
L 56.354545 11.916625 
L 56.354545 16.633251 
" clip-path="url(#pc69e9c78c4)" style="fill: #ffc5c5"/>
    <path d="M 61.427273 16.633251 
L 66.5 16.633251 
L 66.5 11.916625 
L 61.427273 11.916625 
L 61.427273 16.633251 
" clip-path="url(#pc69e9c78c4)" style="fill: #ffbdbd"/>
    <path d="M 10.7 11.916625 
L 15.772727 11.916625 
L 15.772727 7.2 
L 10.7 7.2 
L 10.7 11.916625 
" clip-path="url(#pc69e9c78c4)" style="fill: #5555ff"/>
    <path d="M 15.772727 11.916625 
L 20.845455 11.916625 
L 20.845455 7.2 
L 15.772727 7.2 
L 15.772727 11.916625 
" clip-path="url(#pc69e9c78c4)" style="fill: #1919ff"/>
    <path d="M 20.845455 11.916625 
L 25.918182 11.916625 
L 25.918182 7.2 
L 20.845455 7.2 
L 20.845455 11.916625 
" clip-path="url(#pc69e9c78c4)" style="fill: #0000fa"/>
    <path d="M 25.918182 11.916625 
L 30.990909 11.916625 
L 30.990909 7.2 
L 25.918182 7.2 
L 25.918182 11.916625 
" clip-path="url(#pc69e9c78c4)" style="fill: #0000fa"/>
    <path d="M 30.990909 11.916625 
L 36.063636 11.916625 
L 36.063636 7.2 
L 30.990909 7.2 
L 30.990909 11.916625 
" clip-path="url(#pc69e9c78c4)" style="fill: #0d0dff"/>
    <path d="M 36.063636 11.916625 
L 41.136364 11.916625 
L 41.136364 7.2 
L 36.063636 7.2 
L 36.063636 11.916625 
" clip-path="url(#pc69e9c78c4)" style="fill: #4949ff"/>
    <path d="M 41.136364 11.916625 
L 46.209091 11.916625 
L 46.209091 7.2 
L 41.136364 7.2 
L 41.136364 11.916625 
" clip-path="url(#pc69e9c78c4)" style="fill: #8989ff"/>
    <path d="M 46.209091 11.916625 
L 51.281818 11.916625 
L 51.281818 7.2 
L 46.209091 7.2 
L 46.209091 11.916625 
" clip-path="url(#pc69e9c78c4)" style="fill: #d5d5ff"/>
    <path d="M 51.281818 11.916625 
L 56.354545 11.916625 
L 56.354545 7.2 
L 51.281818 7.2 
L 51.281818 11.916625 
" clip-path="url(#pc69e9c78c4)" style="fill: #ffe5e5"/>
    <path d="M 56.354545 11.916625 
L 61.427273 11.916625 
L 61.427273 7.2 
L 56.354545 7.2 
L 56.354545 11.916625 
" clip-path="url(#pc69e9c78c4)" style="fill: #ffc5c5"/>
    <path d="M 61.427273 11.916625 
L 66.5 11.916625 
L 66.5 7.2 
L 61.427273 7.2 
L 61.427273 11.916625 
" clip-path="url(#pc69e9c78c4)" style="fill: #ffc1c1"/>
   </g>
   <g id="matplotlib.axis_1">
    <g id="xtick_1">
     <g id="line2d_1">
      <defs>
       <path id="mc40a7a6656" d="M 0 0 
L 0 3.5 
" style="stroke: #000000; stroke-width: 1.5"/>
      </defs>
      <g>
       <use xlink:href="#mc40a7a6656" x="13.236364" y="58.375385" style="stroke: #000000; stroke-width: 1.5"/>
      </g>
     </g>
     <g id="text_1">
      <text style="font-size: 9px; font-family: 'Arial', sans-serif; text-anchor: middle" x="13.236364" y="71.817416" transform="rotate(-0 13.236364 71.817416)">0</text>
     </g>
    </g>
    <g id="xtick_2">
     <g id="line2d_2">
      <g>
       <use xlink:href="#mc40a7a6656" x="63.963636" y="58.375385" style="stroke: #000000; stroke-width: 1.5"/>
      </g>
     </g>
     <g id="text_2">
      <text style="font-size: 9px; font-family: 'Arial', sans-serif; text-anchor: middle" x="63.963636" y="71.817416" transform="rotate(-0 63.963636 71.817416)">5</text>
     </g>
    </g>
    <g id="text_3">
     <!-- $\mu_m$ (mean) -->
     <g transform="translate(17.54 84.176166)">
      <text>
       <tspan x="0" y="-0.453125" style="font-size: 9px; font-family: 'Arial'">μ</tspan>
       <tspan x="11.038338" y="-0.453125" style="font-size: 9px; font-family: 'Arial'"> </tspan>
       <tspan x="13.538827" y="-0.453125" style="font-size: 9px; font-family: 'Arial'">(</tspan>
       <tspan x="16.535897" y="-0.453125" style="font-size: 9px; font-family: 'Arial'">m</tspan>
       <tspan x="24.032967" y="-0.453125" style="font-size: 9px; font-family: 'Arial'">e</tspan>
       <tspan x="29.038338" y="-0.453125" style="font-size: 9px; font-family: 'Arial'">a</tspan>
       <tspan x="34.043709" y="-0.453125" style="font-size: 9px; font-family: 'Arial'">n</tspan>
       <tspan x="39.04908" y="-0.453125" style="font-size: 9px; font-family: 'Arial'">)</tspan>
       <tspan x="5.342358" y="2.235062" style="font-size: 6.3px; font-family: 'Arial'">m</tspan>
      </text>
     </g>
    </g>
   </g>
   <g id="matplotlib.axis_2">
    <g id="ytick_1">
     <g id="line2d_3">
      <defs>
       <path id="m9c3b3c99a9" d="M 0 0 
L -3.5 0 
" style="stroke: #000000; stroke-width: 1.5"/>
      </defs>
      <g>
       <use xlink:href="#m9c3b3c99a9" x="10.7" y="56.252903" style="stroke: #000000; stroke-width: 1.5"/>
      </g>
     </g>
    </g>
    <g id="ytick_2">
     <g id="line2d_4">
      <g>
       <use xlink:href="#m9c3b3c99a9" x="10.7" y="9.558313" style="stroke: #000000; stroke-width: 1.5"/>
      </g>
     </g>
    </g>
   </g>
   <g id="patch_3">
    <path d="M 10.7 58.375385 
L 10.7 7.2 
" style="fill: none; stroke: #000000; stroke-width: 1.5; stroke-linejoin: miter; stroke-linecap: square"/>
   </g>
   <g id="patch_4">
    <path d="M 10.7 58.375385 
L 66.5 58.375385 
" style="fill: none; stroke: #000000; stroke-width: 1.5; stroke-linejoin: miter; stroke-linecap: square"/>
   </g>
  </g>
  <g id="axes_2">
   <g id="patch_5">
    <path d="M 10.7 140.256 
L 66.5 140.256 
L 66.5 89.080615 
L 10.7 89.080615 
L 10.7 140.256 
z
" style="fill: none"/>
   </g>
   <g id="QuadMesh_2">
    <path d="M 10.7 138.36935 
L 15.772727 138.36935 
L 15.772727 137.897687 
L 10.7 137.897687 
L 10.7 138.36935 
" clip-path="url(#pbc7484c584)" style="fill: #ff6161"/>
    <path d="M 15.772727 138.36935 
L 20.845455 138.36935 
L 20.845455 137.897687 
L 15.772727 137.897687 
L 15.772727 138.36935 
" clip-path="url(#pbc7484c584)" style="fill: #ffb1b1"/>
    <path d="M 20.845455 138.36935 
L 25.918182 138.36935 
L 25.918182 137.897687 
L 20.845455 137.897687 
L 20.845455 138.36935 
" clip-path="url(#pbc7484c584)" style="fill: #e1e1ff"/>
    <path d="M 25.918182 138.36935 
L 30.990909 138.36935 
L 30.990909 137.897687 
L 25.918182 137.897687 
L 25.918182 138.36935 
" clip-path="url(#pbc7484c584)" style="fill: #ba0000"/>
    <path d="M 30.990909 138.36935 
L 36.063636 138.36935 
L 36.063636 137.897687 
L 30.990909 137.897687 
L 30.990909 138.36935 
" clip-path="url(#pbc7484c584)" style="fill: #c80000"/>
    <path d="M 36.063636 138.36935 
L 41.136364 138.36935 
L 41.136364 137.897687 
L 36.063636 137.897687 
L 36.063636 138.36935 
" clip-path="url(#pbc7484c584)" style="fill: #8e0000"/>
    <path d="M 41.136364 138.36935 
L 46.209091 138.36935 
L 46.209091 137.897687 
L 41.136364 137.897687 
L 41.136364 138.36935 
" clip-path="url(#pbc7484c584)" style="fill: #e30000"/>
    <path d="M 46.209091 138.36935 
L 51.281818 138.36935 
L 51.281818 137.897687 
L 46.209091 137.897687 
L 46.209091 138.36935 
" clip-path="url(#pbc7484c584)" style="fill: #da0000"/>
    <path d="M 51.281818 138.36935 
L 56.354545 138.36935 
L 56.354545 137.897687 
L 51.281818 137.897687 
L 51.281818 138.36935 
" clip-path="url(#pbc7484c584)" style="fill: #2121ff"/>
    <path d="M 56.354545 138.36935 
L 61.427273 138.36935 
L 61.427273 137.897687 
L 56.354545 137.897687 
L 56.354545 138.36935 
" clip-path="url(#pbc7484c584)" style="fill: #6161ff"/>
    <path d="M 61.427273 138.36935 
L 66.5 138.36935 
L 66.5 137.897687 
L 61.427273 137.897687 
L 61.427273 138.36935 
" clip-path="url(#pbc7484c584)" style="fill: #000063"/>
    <path d="M 10.7 137.897687 
L 15.772727 137.897687 
L 15.772727 135.775206 
L 10.7 135.775206 
L 10.7 137.897687 
" clip-path="url(#pbc7484c584)" style="fill: #ff5959"/>
    <path d="M 15.772727 137.897687 
L 20.845455 137.897687 
L 20.845455 135.775206 
L 15.772727 135.775206 
L 15.772727 137.897687 
" clip-path="url(#pbc7484c584)" style="fill: #ffa5a5"/>
    <path d="M 20.845455 137.897687 
L 25.918182 137.897687 
L 25.918182 135.775206 
L 20.845455 135.775206 
L 20.845455 137.897687 
" clip-path="url(#pbc7484c584)" style="fill: #3d3dff"/>
    <path d="M 25.918182 137.897687 
L 30.990909 137.897687 
L 30.990909 135.775206 
L 25.918182 135.775206 
L 25.918182 137.897687 
" clip-path="url(#pbc7484c584)" style="fill: #ffa5a5"/>
    <path d="M 30.990909 137.897687 
L 36.063636 137.897687 
L 36.063636 135.775206 
L 30.990909 135.775206 
L 30.990909 137.897687 
" clip-path="url(#pbc7484c584)" style="fill: #ee0000"/>
    <path d="M 36.063636 137.897687 
L 41.136364 137.897687 
L 41.136364 135.775206 
L 36.063636 135.775206 
L 36.063636 137.897687 
" clip-path="url(#pbc7484c584)" style="fill: #fa0000"/>
    <path d="M 41.136364 137.897687 
L 46.209091 137.897687 
L 46.209091 135.775206 
L 41.136364 135.775206 
L 41.136364 137.897687 
" clip-path="url(#pbc7484c584)" style="fill: #ffd9d9"/>
    <path d="M 46.209091 137.897687 
L 51.281818 137.897687 
L 51.281818 135.775206 
L 46.209091 135.775206 
L 46.209091 137.897687 
" clip-path="url(#pbc7484c584)" style="fill: #ff5959"/>
    <path d="M 51.281818 137.897687 
L 56.354545 137.897687 
L 56.354545 135.775206 
L 51.281818 135.775206 
L 51.281818 137.897687 
" clip-path="url(#pbc7484c584)" style="fill: #0000f7"/>
    <path d="M 56.354545 137.897687 
L 61.427273 137.897687 
L 61.427273 135.775206 
L 56.354545 135.775206 
L 56.354545 137.897687 
" clip-path="url(#pbc7484c584)" style="fill: #8181ff"/>
    <path d="M 61.427273 137.897687 
L 66.5 137.897687 
L 66.5 135.775206 
L 61.427273 135.775206 
L 61.427273 137.897687 
" clip-path="url(#pbc7484c584)" style="fill: #00004f"/>
    <path d="M 10.7 135.775206 
L 15.772727 135.775206 
L 15.772727 131.530243 
L 10.7 131.530243 
L 10.7 135.775206 
" clip-path="url(#pbc7484c584)" style="fill: #9999ff"/>
    <path d="M 15.772727 135.775206 
L 20.845455 135.775206 
L 20.845455 131.530243 
L 15.772727 131.530243 
L 15.772727 135.775206 
" clip-path="url(#pbc7484c584)" style="fill: #0000ec"/>
    <path d="M 20.845455 135.775206 
L 25.918182 135.775206 
L 25.918182 131.530243 
L 20.845455 131.530243 
L 20.845455 135.775206 
" clip-path="url(#pbc7484c584)" style="fill: #0000db"/>
    <path d="M 25.918182 135.775206 
L 30.990909 135.775206 
L 30.990909 131.530243 
L 25.918182 131.530243 
L 25.918182 135.775206 
" clip-path="url(#pbc7484c584)" style="fill: #e5e5ff"/>
    <path d="M 30.990909 135.775206 
L 36.063636 135.775206 
L 36.063636 131.530243 
L 30.990909 131.530243 
L 30.990909 135.775206 
" clip-path="url(#pbc7484c584)" style="fill: #6161ff"/>
    <path d="M 36.063636 135.775206 
L 41.136364 135.775206 
L 41.136364 131.530243 
L 36.063636 131.530243 
L 36.063636 135.775206 
" clip-path="url(#pbc7484c584)" style="fill: #5d5dff"/>
    <path d="M 41.136364 135.775206 
L 46.209091 135.775206 
L 46.209091 131.530243 
L 41.136364 131.530243 
L 41.136364 135.775206 
" clip-path="url(#pbc7484c584)" style="fill: #4949ff"/>
    <path d="M 46.209091 135.775206 
L 51.281818 135.775206 
L 51.281818 131.530243 
L 46.209091 131.530243 
L 46.209091 135.775206 
" clip-path="url(#pbc7484c584)" style="fill: #e9e9ff"/>
    <path d="M 51.281818 135.775206 
L 56.354545 135.775206 
L 56.354545 131.530243 
L 51.281818 131.530243 
L 51.281818 135.775206 
" clip-path="url(#pbc7484c584)" style="fill: #0000fa"/>
    <path d="M 56.354545 135.775206 
L 61.427273 135.775206 
L 61.427273 131.530243 
L 56.354545 131.530243 
L 56.354545 135.775206 
" clip-path="url(#pbc7484c584)" style="fill: #7171ff"/>
    <path d="M 61.427273 135.775206 
L 66.5 135.775206 
L 66.5 131.530243 
L 61.427273 131.530243 
L 61.427273 135.775206 
" clip-path="url(#pbc7484c584)" style="fill: #000058"/>
    <path d="M 10.7 131.530243 
L 15.772727 131.530243 
L 15.772727 126.813618 
L 10.7 126.813618 
L 10.7 131.530243 
" clip-path="url(#pbc7484c584)" style="fill: #0000e1"/>
    <path d="M 15.772727 131.530243 
L 20.845455 131.530243 
L 20.845455 126.813618 
L 15.772727 126.813618 
L 15.772727 131.530243 
" clip-path="url(#pbc7484c584)" style="fill: #0000e6"/>
    <path d="M 20.845455 131.530243 
L 25.918182 131.530243 
L 25.918182 126.813618 
L 20.845455 126.813618 
L 20.845455 131.530243 
" clip-path="url(#pbc7484c584)" style="fill: #3131ff"/>
    <path d="M 25.918182 131.530243 
L 30.990909 131.530243 
L 30.990909 126.813618 
L 25.918182 126.813618 
L 25.918182 131.530243 
" clip-path="url(#pbc7484c584)" style="fill: #3535ff"/>
    <path d="M 30.990909 131.530243 
L 36.063636 131.530243 
L 36.063636 126.813618 
L 30.990909 126.813618 
L 30.990909 131.530243 
" clip-path="url(#pbc7484c584)" style="fill: #0000d3"/>
    <path d="M 36.063636 131.530243 
L 41.136364 131.530243 
L 41.136364 126.813618 
L 36.063636 126.813618 
L 36.063636 131.530243 
" clip-path="url(#pbc7484c584)" style="fill: #1d1dff"/>
    <path d="M 41.136364 131.530243 
L 46.209091 131.530243 
L 46.209091 126.813618 
L 41.136364 126.813618 
L 41.136364 131.530243 
" clip-path="url(#pbc7484c584)" style="fill: #2121ff"/>
    <path d="M 46.209091 131.530243 
L 51.281818 131.530243 
L 51.281818 126.813618 
L 46.209091 126.813618 
L 46.209091 131.530243 
" clip-path="url(#pbc7484c584)" style="fill: #b5b5ff"/>
    <path d="M 51.281818 131.530243 
L 56.354545 131.530243 
L 56.354545 126.813618 
L 51.281818 126.813618 
L 51.281818 131.530243 
" clip-path="url(#pbc7484c584)" style="fill: #4141ff"/>
    <path d="M 56.354545 131.530243 
L 61.427273 131.530243 
L 61.427273 126.813618 
L 56.354545 126.813618 
L 56.354545 131.530243 
" clip-path="url(#pbc7484c584)" style="fill: #8585ff"/>
    <path d="M 61.427273 131.530243 
L 66.5 131.530243 
L 66.5 126.813618 
L 61.427273 126.813618 
L 61.427273 131.530243 
" clip-path="url(#pbc7484c584)" style="fill: #000052"/>
    <path d="M 10.7 126.813618 
L 15.772727 126.813618 
L 15.772727 122.096993 
L 10.7 122.096993 
L 10.7 126.813618 
" clip-path="url(#pbc7484c584)" style="fill: #0000ef"/>
    <path d="M 15.772727 126.813618 
L 20.845455 126.813618 
L 20.845455 122.096993 
L 15.772727 122.096993 
L 15.772727 126.813618 
" clip-path="url(#pbc7484c584)" style="fill: #0000f7"/>
    <path d="M 20.845455 126.813618 
L 25.918182 126.813618 
L 25.918182 122.096993 
L 20.845455 122.096993 
L 20.845455 126.813618 
" clip-path="url(#pbc7484c584)" style="fill: #2121ff"/>
    <path d="M 25.918182 126.813618 
L 30.990909 126.813618 
L 30.990909 122.096993 
L 25.918182 122.096993 
L 25.918182 126.813618 
" clip-path="url(#pbc7484c584)" style="fill: #0000ec"/>
    <path d="M 30.990909 126.813618 
L 36.063636 126.813618 
L 36.063636 122.096993 
L 30.990909 122.096993 
L 30.990909 126.813618 
" clip-path="url(#pbc7484c584)" style="fill: #0000e9"/>
    <path d="M 36.063636 126.813618 
L 41.136364 126.813618 
L 41.136364 122.096993 
L 36.063636 122.096993 
L 36.063636 126.813618 
" clip-path="url(#pbc7484c584)" style="fill: #3535ff"/>
    <path d="M 41.136364 126.813618 
L 46.209091 126.813618 
L 46.209091 122.096993 
L 41.136364 122.096993 
L 41.136364 126.813618 
" clip-path="url(#pbc7484c584)" style="fill: #2929ff"/>
    <path d="M 46.209091 126.813618 
L 51.281818 126.813618 
L 51.281818 122.096993 
L 46.209091 122.096993 
L 46.209091 126.813618 
" clip-path="url(#pbc7484c584)" style="fill: #a5a5ff"/>
    <path d="M 51.281818 126.813618 
L 56.354545 126.813618 
L 56.354545 122.096993 
L 51.281818 122.096993 
L 51.281818 126.813618 
" clip-path="url(#pbc7484c584)" style="fill: #3535ff"/>
    <path d="M 56.354545 126.813618 
L 61.427273 126.813618 
L 61.427273 122.096993 
L 56.354545 122.096993 
L 56.354545 126.813618 
" clip-path="url(#pbc7484c584)" style="fill: #7d7dff"/>
    <path d="M 61.427273 126.813618 
L 66.5 126.813618 
L 66.5 122.096993 
L 61.427273 122.096993 
L 61.427273 126.813618 
" clip-path="url(#pbc7484c584)" style="fill: #000055"/>
    <path d="M 10.7 122.096993 
L 15.772727 122.096993 
L 15.772727 117.380367 
L 10.7 117.380367 
L 10.7 122.096993 
" clip-path="url(#pbc7484c584)" style="fill: #2121ff"/>
    <path d="M 15.772727 122.096993 
L 20.845455 122.096993 
L 20.845455 117.380367 
L 15.772727 117.380367 
L 15.772727 122.096993 
" clip-path="url(#pbc7484c584)" style="fill: #1d1dff"/>
    <path d="M 20.845455 122.096993 
L 25.918182 122.096993 
L 25.918182 117.380367 
L 20.845455 117.380367 
L 20.845455 122.096993 
" clip-path="url(#pbc7484c584)" style="fill: #1515ff"/>
    <path d="M 25.918182 122.096993 
L 30.990909 122.096993 
L 30.990909 117.380367 
L 25.918182 117.380367 
L 25.918182 122.096993 
" clip-path="url(#pbc7484c584)" style="fill: #0000f4"/>
    <path d="M 30.990909 122.096993 
L 36.063636 122.096993 
L 36.063636 117.380367 
L 30.990909 117.380367 
L 30.990909 122.096993 
" clip-path="url(#pbc7484c584)" style="fill: #0909ff"/>
    <path d="M 36.063636 122.096993 
L 41.136364 122.096993 
L 41.136364 117.380367 
L 36.063636 117.380367 
L 36.063636 122.096993 
" clip-path="url(#pbc7484c584)" style="fill: #4141ff"/>
    <path d="M 41.136364 122.096993 
L 46.209091 122.096993 
L 46.209091 117.380367 
L 41.136364 117.380367 
L 41.136364 122.096993 
" clip-path="url(#pbc7484c584)" style="fill: #4949ff"/>
    <path d="M 46.209091 122.096993 
L 51.281818 122.096993 
L 51.281818 117.380367 
L 46.209091 117.380367 
L 46.209091 122.096993 
" clip-path="url(#pbc7484c584)" style="fill: #8d8dff"/>
    <path d="M 51.281818 122.096993 
L 56.354545 122.096993 
L 56.354545 117.380367 
L 51.281818 117.380367 
L 51.281818 122.096993 
" clip-path="url(#pbc7484c584)" style="fill: #0d0dff"/>
    <path d="M 56.354545 122.096993 
L 61.427273 122.096993 
L 61.427273 117.380367 
L 56.354545 117.380367 
L 56.354545 122.096993 
" clip-path="url(#pbc7484c584)" style="fill: #9191ff"/>
    <path d="M 61.427273 122.096993 
L 66.5 122.096993 
L 66.5 117.380367 
L 61.427273 117.380367 
L 61.427273 122.096993 
" clip-path="url(#pbc7484c584)" style="fill: #000052"/>
    <path d="M 10.7 117.380367 
L 15.772727 117.380367 
L 15.772727 112.663742 
L 10.7 112.663742 
L 10.7 117.380367 
" clip-path="url(#pbc7484c584)" style="fill: #4949ff"/>
    <path d="M 15.772727 117.380367 
L 20.845455 117.380367 
L 20.845455 112.663742 
L 15.772727 112.663742 
L 15.772727 117.380367 
" clip-path="url(#pbc7484c584)" style="fill: #4141ff"/>
    <path d="M 20.845455 117.380367 
L 25.918182 117.380367 
L 25.918182 112.663742 
L 20.845455 112.663742 
L 20.845455 117.380367 
" clip-path="url(#pbc7484c584)" style="fill: #4d4dff"/>
    <path d="M 25.918182 117.380367 
L 30.990909 117.380367 
L 30.990909 112.663742 
L 25.918182 112.663742 
L 25.918182 117.380367 
" clip-path="url(#pbc7484c584)" style="fill: #4141ff"/>
    <path d="M 30.990909 117.380367 
L 36.063636 117.380367 
L 36.063636 112.663742 
L 30.990909 112.663742 
L 30.990909 117.380367 
" clip-path="url(#pbc7484c584)" style="fill: #2929ff"/>
    <path d="M 36.063636 117.380367 
L 41.136364 117.380367 
L 41.136364 112.663742 
L 36.063636 112.663742 
L 36.063636 117.380367 
" clip-path="url(#pbc7484c584)" style="fill: #4949ff"/>
    <path d="M 41.136364 117.380367 
L 46.209091 117.380367 
L 46.209091 112.663742 
L 41.136364 112.663742 
L 41.136364 117.380367 
" clip-path="url(#pbc7484c584)" style="fill: #5d5dff"/>
    <path d="M 46.209091 117.380367 
L 51.281818 117.380367 
L 51.281818 112.663742 
L 46.209091 112.663742 
L 46.209091 117.380367 
" clip-path="url(#pbc7484c584)" style="fill: #9d9dff"/>
    <path d="M 51.281818 117.380367 
L 56.354545 117.380367 
L 56.354545 112.663742 
L 51.281818 112.663742 
L 51.281818 117.380367 
" clip-path="url(#pbc7484c584)" style="fill: #5555ff"/>
    <path d="M 56.354545 117.380367 
L 61.427273 117.380367 
L 61.427273 112.663742 
L 56.354545 112.663742 
L 56.354545 117.380367 
" clip-path="url(#pbc7484c584)" style="fill: #9999ff"/>
    <path d="M 61.427273 117.380367 
L 66.5 117.380367 
L 66.5 112.663742 
L 61.427273 112.663742 
L 61.427273 117.380367 
" clip-path="url(#pbc7484c584)" style="fill: #000052"/>
    <path d="M 10.7 112.663742 
L 15.772727 112.663742 
L 15.772727 107.947117 
L 10.7 107.947117 
L 10.7 112.663742 
" clip-path="url(#pbc7484c584)" style="fill: #6161ff"/>
    <path d="M 15.772727 112.663742 
L 20.845455 112.663742 
L 20.845455 107.947117 
L 15.772727 107.947117 
L 15.772727 112.663742 
" clip-path="url(#pbc7484c584)" style="fill: #6161ff"/>
    <path d="M 20.845455 112.663742 
L 25.918182 112.663742 
L 25.918182 107.947117 
L 20.845455 107.947117 
L 20.845455 112.663742 
" clip-path="url(#pbc7484c584)" style="fill: #6161ff"/>
    <path d="M 25.918182 112.663742 
L 30.990909 112.663742 
L 30.990909 107.947117 
L 25.918182 107.947117 
L 25.918182 112.663742 
" clip-path="url(#pbc7484c584)" style="fill: #4949ff"/>
    <path d="M 30.990909 112.663742 
L 36.063636 112.663742 
L 36.063636 107.947117 
L 30.990909 107.947117 
L 30.990909 112.663742 
" clip-path="url(#pbc7484c584)" style="fill: #3535ff"/>
    <path d="M 36.063636 112.663742 
L 41.136364 112.663742 
L 41.136364 107.947117 
L 36.063636 107.947117 
L 36.063636 112.663742 
" clip-path="url(#pbc7484c584)" style="fill: #6161ff"/>
    <path d="M 41.136364 112.663742 
L 46.209091 112.663742 
L 46.209091 107.947117 
L 41.136364 107.947117 
L 41.136364 112.663742 
" clip-path="url(#pbc7484c584)" style="fill: #6969ff"/>
    <path d="M 46.209091 112.663742 
L 51.281818 112.663742 
L 51.281818 107.947117 
L 46.209091 107.947117 
L 46.209091 112.663742 
" clip-path="url(#pbc7484c584)" style="fill: #a1a1ff"/>
    <path d="M 51.281818 112.663742 
L 56.354545 112.663742 
L 56.354545 107.947117 
L 51.281818 107.947117 
L 51.281818 112.663742 
" clip-path="url(#pbc7484c584)" style="fill: #5555ff"/>
    <path d="M 56.354545 112.663742 
L 61.427273 112.663742 
L 61.427273 107.947117 
L 56.354545 107.947117 
L 56.354545 112.663742 
" clip-path="url(#pbc7484c584)" style="fill: #a1a1ff"/>
    <path d="M 61.427273 112.663742 
L 66.5 112.663742 
L 66.5 107.947117 
L 61.427273 107.947117 
L 61.427273 112.663742 
" clip-path="url(#pbc7484c584)" style="fill: #000055"/>
    <path d="M 10.7 107.947117 
L 15.772727 107.947117 
L 15.772727 103.230491 
L 10.7 103.230491 
L 10.7 107.947117 
" clip-path="url(#pbc7484c584)" style="fill: #7979ff"/>
    <path d="M 15.772727 107.947117 
L 20.845455 107.947117 
L 20.845455 103.230491 
L 15.772727 103.230491 
L 15.772727 107.947117 
" clip-path="url(#pbc7484c584)" style="fill: #7171ff"/>
    <path d="M 20.845455 107.947117 
L 25.918182 107.947117 
L 25.918182 103.230491 
L 20.845455 103.230491 
L 20.845455 107.947117 
" clip-path="url(#pbc7484c584)" style="fill: #7979ff"/>
    <path d="M 25.918182 107.947117 
L 30.990909 107.947117 
L 30.990909 103.230491 
L 25.918182 103.230491 
L 25.918182 107.947117 
" clip-path="url(#pbc7484c584)" style="fill: #5555ff"/>
    <path d="M 30.990909 107.947117 
L 36.063636 107.947117 
L 36.063636 103.230491 
L 30.990909 103.230491 
L 30.990909 107.947117 
" clip-path="url(#pbc7484c584)" style="fill: #4141ff"/>
    <path d="M 36.063636 107.947117 
L 41.136364 107.947117 
L 41.136364 103.230491 
L 36.063636 103.230491 
L 36.063636 107.947117 
" clip-path="url(#pbc7484c584)" style="fill: #6d6dff"/>
    <path d="M 41.136364 107.947117 
L 46.209091 107.947117 
L 46.209091 103.230491 
L 41.136364 103.230491 
L 41.136364 107.947117 
" clip-path="url(#pbc7484c584)" style="fill: #7575ff"/>
    <path d="M 46.209091 107.947117 
L 51.281818 107.947117 
L 51.281818 103.230491 
L 46.209091 103.230491 
L 46.209091 107.947117 
" clip-path="url(#pbc7484c584)" style="fill: #a5a5ff"/>
    <path d="M 51.281818 107.947117 
L 56.354545 107.947117 
L 56.354545 103.230491 
L 51.281818 103.230491 
L 51.281818 107.947117 
" clip-path="url(#pbc7484c584)" style="fill: #6d6dff"/>
    <path d="M 56.354545 107.947117 
L 61.427273 107.947117 
L 61.427273 103.230491 
L 56.354545 103.230491 
L 56.354545 107.947117 
" clip-path="url(#pbc7484c584)" style="fill: #a9a9ff"/>
    <path d="M 61.427273 107.947117 
L 66.5 107.947117 
L 66.5 103.230491 
L 61.427273 103.230491 
L 61.427273 107.947117 
" clip-path="url(#pbc7484c584)" style="fill: #000055"/>
    <path d="M 10.7 103.230491 
L 15.772727 103.230491 
L 15.772727 98.513866 
L 10.7 98.513866 
L 10.7 103.230491 
" clip-path="url(#pbc7484c584)" style="fill: #9191ff"/>
    <path d="M 15.772727 103.230491 
L 20.845455 103.230491 
L 20.845455 98.513866 
L 15.772727 98.513866 
L 15.772727 103.230491 
" clip-path="url(#pbc7484c584)" style="fill: #8181ff"/>
    <path d="M 20.845455 103.230491 
L 25.918182 103.230491 
L 25.918182 98.513866 
L 20.845455 98.513866 
L 20.845455 103.230491 
" clip-path="url(#pbc7484c584)" style="fill: #5959ff"/>
    <path d="M 25.918182 103.230491 
L 30.990909 103.230491 
L 30.990909 98.513866 
L 25.918182 98.513866 
L 25.918182 103.230491 
" clip-path="url(#pbc7484c584)" style="fill: #6161ff"/>
    <path d="M 30.990909 103.230491 
L 36.063636 103.230491 
L 36.063636 98.513866 
L 30.990909 98.513866 
L 30.990909 103.230491 
" clip-path="url(#pbc7484c584)" style="fill: #4545ff"/>
    <path d="M 36.063636 103.230491 
L 41.136364 103.230491 
L 41.136364 98.513866 
L 36.063636 98.513866 
L 36.063636 103.230491 
" clip-path="url(#pbc7484c584)" style="fill: #7575ff"/>
    <path d="M 41.136364 103.230491 
L 46.209091 103.230491 
L 46.209091 98.513866 
L 41.136364 98.513866 
L 41.136364 103.230491 
" clip-path="url(#pbc7484c584)" style="fill: #7d7dff"/>
    <path d="M 46.209091 103.230491 
L 51.281818 103.230491 
L 51.281818 98.513866 
L 46.209091 98.513866 
L 46.209091 103.230491 
" clip-path="url(#pbc7484c584)" style="fill: #adadff"/>
    <path d="M 51.281818 103.230491 
L 56.354545 103.230491 
L 56.354545 98.513866 
L 51.281818 98.513866 
L 51.281818 103.230491 
" clip-path="url(#pbc7484c584)" style="fill: #6161ff"/>
    <path d="M 56.354545 103.230491 
L 61.427273 103.230491 
L 61.427273 98.513866 
L 56.354545 98.513866 
L 56.354545 103.230491 
" clip-path="url(#pbc7484c584)" style="fill: #adadff"/>
    <path d="M 61.427273 103.230491 
L 66.5 103.230491 
L 66.5 98.513866 
L 61.427273 98.513866 
L 61.427273 103.230491 
" clip-path="url(#pbc7484c584)" style="fill: #00005a"/>
    <path d="M 10.7 98.513866 
L 15.772727 98.513866 
L 15.772727 93.797241 
L 10.7 93.797241 
L 10.7 98.513866 
" clip-path="url(#pbc7484c584)" style="fill: #9595ff"/>
    <path d="M 15.772727 98.513866 
L 20.845455 98.513866 
L 20.845455 93.797241 
L 15.772727 93.797241 
L 15.772727 98.513866 
" clip-path="url(#pbc7484c584)" style="fill: #8d8dff"/>
    <path d="M 20.845455 98.513866 
L 25.918182 98.513866 
L 25.918182 93.797241 
L 20.845455 93.797241 
L 20.845455 98.513866 
" clip-path="url(#pbc7484c584)" style="fill: #6161ff"/>
    <path d="M 25.918182 98.513866 
L 30.990909 98.513866 
L 30.990909 93.797241 
L 25.918182 93.797241 
L 25.918182 98.513866 
" clip-path="url(#pbc7484c584)" style="fill: #3939ff"/>
    <path d="M 30.990909 98.513866 
L 36.063636 98.513866 
L 36.063636 93.797241 
L 30.990909 93.797241 
L 30.990909 98.513866 
" clip-path="url(#pbc7484c584)" style="fill: #5151ff"/>
    <path d="M 36.063636 98.513866 
L 41.136364 98.513866 
L 41.136364 93.797241 
L 36.063636 93.797241 
L 36.063636 98.513866 
" clip-path="url(#pbc7484c584)" style="fill: #8181ff"/>
    <path d="M 41.136364 98.513866 
L 46.209091 98.513866 
L 46.209091 93.797241 
L 41.136364 93.797241 
L 41.136364 98.513866 
" clip-path="url(#pbc7484c584)" style="fill: #8989ff"/>
    <path d="M 46.209091 98.513866 
L 51.281818 98.513866 
L 51.281818 93.797241 
L 46.209091 93.797241 
L 46.209091 98.513866 
" clip-path="url(#pbc7484c584)" style="fill: #9d9dff"/>
    <path d="M 51.281818 98.513866 
L 56.354545 98.513866 
L 56.354545 93.797241 
L 51.281818 93.797241 
L 51.281818 98.513866 
" clip-path="url(#pbc7484c584)" style="fill: #8585ff"/>
    <path d="M 56.354545 98.513866 
L 61.427273 98.513866 
L 61.427273 93.797241 
L 56.354545 93.797241 
L 56.354545 98.513866 
" clip-path="url(#pbc7484c584)" style="fill: #bdbdff"/>
    <path d="M 61.427273 98.513866 
L 66.5 98.513866 
L 66.5 93.797241 
L 61.427273 93.797241 
L 61.427273 98.513866 
" clip-path="url(#pbc7484c584)" style="fill: #00005d"/>
    <path d="M 10.7 93.797241 
L 15.772727 93.797241 
L 15.772727 89.080615 
L 10.7 89.080615 
L 10.7 93.797241 
" clip-path="url(#pbc7484c584)" style="fill: #a1a1ff"/>
    <path d="M 15.772727 93.797241 
L 20.845455 93.797241 
L 20.845455 89.080615 
L 15.772727 89.080615 
L 15.772727 93.797241 
" clip-path="url(#pbc7484c584)" style="fill: #9d9dff"/>
    <path d="M 20.845455 93.797241 
L 25.918182 93.797241 
L 25.918182 89.080615 
L 20.845455 89.080615 
L 20.845455 93.797241 
" clip-path="url(#pbc7484c584)" style="fill: #6969ff"/>
    <path d="M 25.918182 93.797241 
L 30.990909 93.797241 
L 30.990909 89.080615 
L 25.918182 89.080615 
L 25.918182 93.797241 
" clip-path="url(#pbc7484c584)" style="fill: #4141ff"/>
    <path d="M 30.990909 93.797241 
L 36.063636 93.797241 
L 36.063636 89.080615 
L 30.990909 89.080615 
L 30.990909 93.797241 
" clip-path="url(#pbc7484c584)" style="fill: #5555ff"/>
    <path d="M 36.063636 93.797241 
L 41.136364 93.797241 
L 41.136364 89.080615 
L 36.063636 89.080615 
L 36.063636 93.797241 
" clip-path="url(#pbc7484c584)" style="fill: #7d7dff"/>
    <path d="M 41.136364 93.797241 
L 46.209091 93.797241 
L 46.209091 89.080615 
L 41.136364 89.080615 
L 41.136364 93.797241 
" clip-path="url(#pbc7484c584)" style="fill: #8989ff"/>
    <path d="M 46.209091 93.797241 
L 51.281818 93.797241 
L 51.281818 89.080615 
L 46.209091 89.080615 
L 46.209091 93.797241 
" clip-path="url(#pbc7484c584)" style="fill: #adadff"/>
    <path d="M 51.281818 93.797241 
L 56.354545 93.797241 
L 56.354545 89.080615 
L 51.281818 89.080615 
L 51.281818 93.797241 
" clip-path="url(#pbc7484c584)" style="fill: #8d8dff"/>
    <path d="M 56.354545 93.797241 
L 61.427273 93.797241 
L 61.427273 89.080615 
L 56.354545 89.080615 
L 56.354545 93.797241 
" clip-path="url(#pbc7484c584)" style="fill: #bdbdff"/>
    <path d="M 61.427273 93.797241 
L 66.5 93.797241 
L 66.5 89.080615 
L 61.427273 89.080615 
L 61.427273 93.797241 
" clip-path="url(#pbc7484c584)" style="fill: #000052"/>
   </g>
   <g id="matplotlib.axis_3">
    <g id="xtick_3">
     <g id="line2d_5">
      <g>
       <use xlink:href="#mc40a7a6656" x="13.236364" y="140.256" style="stroke: #000000; stroke-width: 1.5"/>
      </g>
     </g>
     <g id="text_4">
      <text style="font-size: 9px; font-family: 'Arial', sans-serif; text-anchor: middle" x="13.236364" y="153.698031" transform="rotate(-0 13.236364 153.698031)">0</text>
     </g>
    </g>
    <g id="xtick_4">
     <g id="line2d_6">
      <g>
       <use xlink:href="#mc40a7a6656" x="63.963636" y="140.256" style="stroke: #000000; stroke-width: 1.5"/>
      </g>
     </g>
     <g id="text_5">
      <text style="font-size: 9px; font-family: 'Arial', sans-serif; text-anchor: middle" x="63.963636" y="153.698031" transform="rotate(-0 63.963636 153.698031)">1</text>
     </g>
    </g>
    <g id="text_6">
     <!-- $\lambda_m$ (fraction) -->
     <g transform="translate(14.39 166.056781)">
      <text>
       <tspan x="0" y="-0.453125" style="font-size: 9px; font-family: 'Arial'">λ</tspan>
       <tspan x="10.352791" y="-0.453125" style="font-size: 9px; font-family: 'Arial'"> </tspan>
       <tspan x="12.85328" y="-0.453125" style="font-size: 9px; font-family: 'Arial'">(</tspan>
       <tspan x="15.85035" y="-0.453125" style="font-size: 9px; font-family: 'Arial'">f</tspan>
       <tspan x="18.350838" y="-0.453125" style="font-size: 9px; font-family: 'Arial'">r</tspan>
       <tspan x="21.347909" y="-0.453125" style="font-size: 9px; font-family: 'Arial'">a</tspan>
       <tspan x="26.35328" y="-0.453125" style="font-size: 9px; font-family: 'Arial'">c</tspan>
       <tspan x="30.85328" y="-0.453125" style="font-size: 9px; font-family: 'Arial'">t</tspan>
       <tspan x="33.353768" y="-0.453125" style="font-size: 9px; font-family: 'Arial'">i</tspan>
       <tspan x="35.35328" y="-0.453125" style="font-size: 9px; font-family: 'Arial'">o</tspan>
       <tspan x="40.358651" y="-0.453125" style="font-size: 9px; font-family: 'Arial'">n</tspan>
       <tspan x="45.364022" y="-0.453125" style="font-size: 9px; font-family: 'Arial'">)</tspan>
       <tspan x="4.656811" y="2.235062" style="font-size: 6.3px; font-family: 'Arial'">m</tspan>
      </text>
     </g>
    </g>
   </g>
   <g id="matplotlib.axis_4">
    <g id="ytick_3">
     <g id="line2d_7">
      <g>
       <use xlink:href="#m9c3b3c99a9" x="10.7" y="138.133519" style="stroke: #000000; stroke-width: 1.5"/>
      </g>
     </g>
    </g>
    <g id="ytick_4">
     <g id="line2d_8">
      <g>
       <use xlink:href="#m9c3b3c99a9" x="10.7" y="91.438928" style="stroke: #000000; stroke-width: 1.5"/>
      </g>
     </g>
    </g>
   </g>
   <g id="patch_6">
    <path d="M 10.7 140.256 
L 10.7 89.080615 
" style="fill: none; stroke: #000000; stroke-width: 1.5; stroke-linejoin: miter; stroke-linecap: square"/>
   </g>
   <g id="patch_7">
    <path d="M 10.7 140.256 
L 66.5 140.256 
" style="fill: none; stroke: #000000; stroke-width: 1.5; stroke-linejoin: miter; stroke-linecap: square"/>
   </g>
  </g>
 </g>
 <defs>
  <clipPath id="pc69e9c78c4">
   <rect x="10.7" y="7.2" width="55.8" height="51.175385"/>
  </clipPath>
  <clipPath id="pbc7484c584">
   <rect x="10.7" y="89.080615" width="55.8" height="51.175385"/>
  </clipPath>
 </defs>
</svg>
