<?xml version="1.0" encoding="utf-8" standalone="no"?>
<!DOCTYPE svg PUBLIC "-//W3C//DTD SVG 1.1//EN"
  "http://www.w3.org/Graphics/SVG/1.1/DTD/svg11.dtd">
<svg xmlns:xlink="http://www.w3.org/1999/xlink" width="125.701548pt" height="100.140781pt" viewBox="0 0 125.701548 100.140781" xmlns="http://www.w3.org/2000/svg" version="1.1">
 <metadata>
  <rdf:RDF xmlns:dc="http://purl.org/dc/elements/1.1/" xmlns:cc="http://creativecommons.org/ns#" xmlns:rdf="http://www.w3.org/1999/02/22-rdf-syntax-ns#">
   <cc:Work>
    <dc:type rdf:resource="http://purl.org/dc/dcmitype/StillImage"/>
    <dc:date>2025-04-08T12:24:38.114274</dc:date>
    <dc:format>image/svg+xml</dc:format>
    <dc:creator>
     <cc:Agent>
      <dc:title>Matplotlib v3.10.1, https://matplotlib.org/</dc:title>
     </cc:Agent>
    </dc:creator>
   </cc:Work>
  </rdf:RDF>
 </metadata>
 <defs>
  <style type="text/css">*{stroke-linejoin: round; stroke-linecap: butt}</style>
 </defs>
 <g id="figure_1">
  <g id="patch_1">
   <path d="M 0 100.140781 
L 125.701548 100.140781 
L 125.701548 0 
L 0 0 
L 0 100.140781 
z
" style="fill: none"/>
  </g>
  <g id="axes_1">
   <g id="patch_2">
    <path d="M 31.541094 62.64 
L 115.241094 62.64 
L 115.241094 7.2 
L 31.541094 7.2 
L 31.541094 62.64 
z
" style="fill: none"/>
   </g>
   <g id="matplotlib.axis_1">
    <g id="xtick_1">
     <g id="line2d_1">
      <defs>
       <path id="m9b160e7c6d" d="M 0 0 
L 0 3.5 
" style="stroke: #000000; stroke-width: 1.5"/>
      </defs>
      <g>
       <use xlink:href="#m9b160e7c6d" x="35.345639" y="62.64" style="stroke: #000000; stroke-width: 1.5"/>
      </g>
     </g>
     <g id="text_1">
      <!-- $\mathdefault{10^{2}}$ -->
      <g transform="translate(28.280639 78.92125)">
       <text>
        <tspan x="0" y="-0.199438" style="font-size: 9px; font-family: 'Arial'">1</tspan>
        <tspan x="5.005371" y="-0.199438" style="font-size: 9px; font-family: 'Arial'">0</tspan>
        <tspan x="10.167553" y="-6.471875" style="font-size: 6.3px; font-family: 'Arial'">2</tspan>
       </text>
      </g>
     </g>
    </g>
    <g id="xtick_2">
     <g id="line2d_2">
      <g>
       <use xlink:href="#m9b160e7c6d" x="73.391094" y="62.64" style="stroke: #000000; stroke-width: 1.5"/>
      </g>
     </g>
     <g id="text_2">
      <!-- $\mathdefault{10^{3}}$ -->
      <g transform="translate(66.326094 78.92125)">
       <text>
        <tspan x="0" y="-0.199438" style="font-size: 9px; font-family: 'Arial'">1</tspan>
        <tspan x="5.005371" y="-0.199438" style="font-size: 9px; font-family: 'Arial'">0</tspan>
        <tspan x="10.167553" y="-6.471875" style="font-size: 6.3px; font-family: 'Arial'">3</tspan>
       </text>
      </g>
     </g>
    </g>
    <g id="xtick_3">
     <g id="line2d_3">
      <g>
       <use xlink:href="#m9b160e7c6d" x="111.436548" y="62.64" style="stroke: #000000; stroke-width: 1.5"/>
      </g>
     </g>
     <g id="text_3">
      <!-- $\mathdefault{10^{4}}$ -->
      <g transform="translate(104.371548 78.83125)">
       <text>
        <tspan x="0" y="-0.221312" style="font-size: 9px; font-family: 'Arial'">1</tspan>
        <tspan x="5.005371" y="-0.221312" style="font-size: 9px; font-family: 'Arial'">0</tspan>
        <tspan x="10.167553" y="-6.49375" style="font-size: 6.3px; font-family: 'Arial'">4</tspan>
       </text>
      </g>
     </g>
    </g>
    <g id="text_4">
     <text style="font-size: 9px; font-family: 'Arial', sans-serif; text-anchor: middle" x="73.391094" y="91.152031" transform="rotate(-0 73.391094 91.152031)">Number of Simulations</text>
    </g>
   </g>
   <g id="matplotlib.axis_2">
    <g id="ytick_1">
     <g id="line2d_4">
      <defs>
       <path id="m2553991002" d="M 0 0 
L -3.5 0 
" style="stroke: #000000; stroke-width: 1.5"/>
      </defs>
      <g>
       <use xlink:href="#m2553991002" x="31.541094" y="53.063813" style="stroke: #000000; stroke-width: 1.5"/>
      </g>
     </g>
     <g id="text_5">
      <text style="font-size: 9px; font-family: 'Arial', sans-serif; text-anchor: end" x="24.541094" y="56.284828" transform="rotate(-0 24.541094 56.284828)">0</text>
     </g>
    </g>
    <g id="ytick_2">
     <g id="line2d_5">
      <g>
       <use xlink:href="#m2553991002" x="31.541094" y="26.190856" style="stroke: #000000; stroke-width: 1.5"/>
      </g>
     </g>
     <g id="text_6">
      <text style="font-size: 9px; font-family: 'Arial', sans-serif; text-anchor: end" x="24.541094" y="29.411871" transform="rotate(-0 24.541094 29.411871)">1</text>
     </g>
    </g>
    <g id="text_7">
     <text style="font-size: 9px; font-family: 'Arial', sans-serif; text-anchor: middle" x="13.642031" y="34.92" transform="rotate(-90 13.642031 34.92)">log prob.</text>
    </g>
   </g>
   <g id="LineCollection_1">
    <path d="M 35.345639 60.12 
L 35.345639 33.449073 
" clip-path="url(#paf619bcdd8)" style="fill: none; stroke: #1f77b4; stroke-width: 1.5"/>
    <path d="M 53.497934 46.497169 
L 53.497934 27.793706 
" clip-path="url(#paf619bcdd8)" style="fill: none; stroke: #1f77b4; stroke-width: 1.5"/>
    <path d="M 73.391094 46.56478 
L 73.391094 29.26147 
" clip-path="url(#paf619bcdd8)" style="fill: none; stroke: #1f77b4; stroke-width: 1.5"/>
    <path d="M 91.543389 47.950999 
L 91.543389 33.361326 
" clip-path="url(#paf619bcdd8)" style="fill: none; stroke: #1f77b4; stroke-width: 1.5"/>
    <path d="M 111.436548 48.878512 
L 111.436548 36.483553 
" clip-path="url(#paf619bcdd8)" style="fill: none; stroke: #1f77b4; stroke-width: 1.5"/>
   </g>
   <g id="LineCollection_2">
    <path d="M 35.345639 27.530675 
L 35.345639 9.72 
" clip-path="url(#paf619bcdd8)" style="fill: none; stroke: #f2a900; stroke-width: 1.5"/>
    <path d="M 53.497934 20.444244 
L 53.497934 11.207841 
" clip-path="url(#paf619bcdd8)" style="fill: none; stroke: #f2a900; stroke-width: 1.5"/>
    <path d="M 73.391094 19.183756 
L 73.391094 13.638548 
" clip-path="url(#paf619bcdd8)" style="fill: none; stroke: #f2a900; stroke-width: 1.5"/>
    <path d="M 91.543389 18.061115 
L 91.543389 14.072877 
" clip-path="url(#paf619bcdd8)" style="fill: none; stroke: #f2a900; stroke-width: 1.5"/>
    <path d="M 111.436548 18.284194 
L 111.436548 16.533352 
" clip-path="url(#paf619bcdd8)" style="fill: none; stroke: #f2a900; stroke-width: 1.5"/>
   </g>
   <g id="line2d_6">
    <path d="M 35.345639 46.784536 
L 53.497934 37.145437 
L 73.391094 37.913125 
L 91.543389 40.656163 
L 111.436548 42.681032 
" clip-path="url(#paf619bcdd8)" style="fill: none; stroke: #1f77b4; stroke-width: 1.5; stroke-linecap: square"/>
    <defs>
     <path id="m0c5b5a3fa2" d="M 0 1.5 
C 0.397805 1.5 0.77937 1.341951 1.06066 1.06066 
C 1.341951 0.77937 1.5 0.397805 1.5 0 
C 1.5 -0.397805 1.341951 -0.77937 1.06066 -1.06066 
C 0.77937 -1.341951 0.397805 -1.5 0 -1.5 
C -0.397805 -1.5 -0.77937 -1.341951 -1.06066 -1.06066 
C -1.341951 -0.77937 -1.5 -0.397805 -1.5 0 
C -1.5 0.397805 -1.341951 0.77937 -1.06066 1.06066 
C -0.77937 1.341951 -0.397805 1.5 0 1.5 
z
" style="stroke: #1f77b4"/>
    </defs>
    <g clip-path="url(#paf619bcdd8)">
     <use xlink:href="#m0c5b5a3fa2" x="35.345639" y="46.784536" style="fill: #1f77b4; stroke: #1f77b4"/>
     <use xlink:href="#m0c5b5a3fa2" x="53.497934" y="37.145437" style="fill: #1f77b4; stroke: #1f77b4"/>
     <use xlink:href="#m0c5b5a3fa2" x="73.391094" y="37.913125" style="fill: #1f77b4; stroke: #1f77b4"/>
     <use xlink:href="#m0c5b5a3fa2" x="91.543389" y="40.656163" style="fill: #1f77b4; stroke: #1f77b4"/>
     <use xlink:href="#m0c5b5a3fa2" x="111.436548" y="42.681032" style="fill: #1f77b4; stroke: #1f77b4"/>
    </g>
   </g>
   <g id="line2d_7">
    <path d="M 35.345639 18.625337 
L 53.497934 15.826043 
L 73.391094 16.411152 
L 91.543389 16.066996 
L 111.436548 17.408773 
" clip-path="url(#paf619bcdd8)" style="fill: none; stroke: #f2a900; stroke-width: 1.5; stroke-linecap: square"/>
    <defs>
     <path id="ma4faf01300" d="M -1.5 1.5 
L 1.5 1.5 
L 1.5 -1.5 
L -1.5 -1.5 
z
" style="stroke: #f2a900; stroke-linejoin: miter"/>
    </defs>
    <g clip-path="url(#paf619bcdd8)">
     <use xlink:href="#ma4faf01300" x="35.345639" y="18.625337" style="fill: #f2a900; stroke: #f2a900; stroke-linejoin: miter"/>
     <use xlink:href="#ma4faf01300" x="53.497934" y="15.826043" style="fill: #f2a900; stroke: #f2a900; stroke-linejoin: miter"/>
     <use xlink:href="#ma4faf01300" x="73.391094" y="16.411152" style="fill: #f2a900; stroke: #f2a900; stroke-linejoin: miter"/>
     <use xlink:href="#ma4faf01300" x="91.543389" y="16.066996" style="fill: #f2a900; stroke: #f2a900; stroke-linejoin: miter"/>
     <use xlink:href="#ma4faf01300" x="111.436548" y="17.408773" style="fill: #f2a900; stroke: #f2a900; stroke-linejoin: miter"/>
    </g>
   </g>
   <g id="patch_3">
    <path d="M 31.541094 62.64 
L 31.541094 7.2 
" style="fill: none; stroke: #000000; stroke-width: 1.5; stroke-linejoin: miter; stroke-linecap: square"/>
   </g>
   <g id="patch_4">
    <path d="M 31.541094 62.64 
L 115.241094 62.64 
" style="fill: none; stroke: #000000; stroke-width: 1.5; stroke-linejoin: miter; stroke-linecap: square"/>
   </g>
  </g>
 </g>
 <defs>
  <clipPath id="paf619bcdd8">
   <rect x="31.541094" y="7.2" width="83.7" height="55.44"/>
  </clipPath>
 </defs>
</svg>
