<?xml version="1.0" encoding="utf-8" standalone="no"?>
<!DOCTYPE svg PUBLIC "-//W3C//DTD SVG 1.1//EN"
  "http://www.w3.org/Graphics/SVG/1.1/DTD/svg11.dtd">
<svg xmlns:xlink="http://www.w3.org/1999/xlink" width="132.876236pt" height="97.301563pt" viewBox="0 0 132.876236 97.301563" xmlns="http://www.w3.org/2000/svg" version="1.1">
 <metadata>
  <rdf:RDF xmlns:dc="http://purl.org/dc/elements/1.1/" xmlns:cc="http://creativecommons.org/ns#" xmlns:rdf="http://www.w3.org/1999/02/22-rdf-syntax-ns#">
   <cc:Work>
    <dc:type rdf:resource="http://purl.org/dc/dcmitype/StillImage"/>
    <dc:date>2025-04-11T11:29:24.862930</dc:date>
    <dc:format>image/svg+xml</dc:format>
    <dc:creator>
     <cc:Agent>
      <dc:title>Matplotlib v3.10.1, https://matplotlib.org/</dc:title>
     </cc:Agent>
    </dc:creator>
   </cc:Work>
  </rdf:RDF>
 </metadata>
 <defs>
  <style type="text/css">*{stroke-linejoin: round; stroke-linecap: butt}</style>
 </defs>
 <g id="figure_1">
  <g id="patch_1">
   <path d="M 0 97.301563 
L 132.876236 97.301563 
L 132.876236 0 
L 0 0 
L 0 97.301563 
z
" style="fill: none"/>
  </g>
  <g id="axes_1">
   <g id="patch_2">
    <path d="M 40.775937 62.64 
L 124.475938 62.64 
L 124.475938 7.2 
L 40.775937 7.2 
L 40.775937 62.64 
z
" style="fill: none"/>
   </g>
   <g id="matplotlib.axis_1">
    <g id="xtick_1">
     <g id="line2d_1">
      <defs>
       <path id="me2a62f1672" d="M 0 0 
L 0 3.5 
" style="stroke: #000000; stroke-width: 1.5"/>
      </defs>
      <g>
       <use xlink:href="#me2a62f1672" x="80.623545" y="62.64" style="stroke: #000000; stroke-width: 1.5"/>
      </g>
     </g>
     <g id="text_1">
      <text style="font-size: 9px; font-family: 'Arial', sans-serif; text-anchor: middle" x="80.623545" y="76.082031" transform="rotate(-0 80.623545 76.082031)">10</text>
     </g>
    </g>
    <g id="xtick_2">
     <g id="line2d_2">
      <g>
       <use xlink:href="#me2a62f1672" x="120.671392" y="62.64" style="stroke: #000000; stroke-width: 1.5"/>
      </g>
     </g>
     <g id="text_2">
      <text style="font-size: 9px; font-family: 'Arial', sans-serif; text-anchor: middle" x="120.671392" y="76.082031" transform="rotate(-0 120.671392 76.082031)">20</text>
     </g>
    </g>
    <g id="text_3">
     <text style="font-size: 9px; font-family: 'Arial', sans-serif; text-anchor: middle" x="82.625937" y="88.312813" transform="rotate(-0 82.625937 88.312813)">Num. eval.</text>
    </g>
   </g>
   <g id="matplotlib.axis_2">
    <g id="ytick_1">
     <g id="line2d_3">
      <defs>
       <path id="ma679cb3b40" d="M 0 0 
L -3.5 0 
" style="stroke: #000000; stroke-width: 1.5"/>
      </defs>
      <g>
       <use xlink:href="#ma679cb3b40" x="40.775937" y="38.420513" style="stroke: #000000; stroke-width: 1.5"/>
      </g>
     </g>
     <g id="text_4">
      <!-- $\mathdefault{10^{1}}$ -->
      <g transform="translate(19.645937 43.061138)">
       <text>
        <tspan x="0" y="-0.199438" style="font-size: 9px; font-family: 'Arial'">1</tspan>
        <tspan x="5.005371" y="-0.199438" style="font-size: 9px; font-family: 'Arial'">0</tspan>
        <tspan x="10.167553" y="-6.471875" style="font-size: 6.3px; font-family: 'Arial'">1</tspan>
       </text>
      </g>
     </g>
    </g>
    <g id="ytick_2">
     <g id="line2d_4">
      <defs>
       <path id="mf2f32d4953" d="M 0 0 
L -2 0 
" style="stroke: #000000; stroke-width: 1.5"/>
      </defs>
      <g>
       <use xlink:href="#mf2f32d4953" x="40.775937" y="58.577168" style="stroke: #000000; stroke-width: 1.5"/>
      </g>
     </g>
    </g>
    <g id="ytick_3">
     <g id="line2d_5">
      <g>
       <use xlink:href="#mf2f32d4953" x="40.775937" y="53.760856" style="stroke: #000000; stroke-width: 1.5"/>
      </g>
     </g>
    </g>
    <g id="ytick_4">
     <g id="line2d_6">
      <g>
       <use xlink:href="#mf2f32d4953" x="40.775937" y="50.025035" style="stroke: #000000; stroke-width: 1.5"/>
      </g>
     </g>
    </g>
    <g id="ytick_5">
     <g id="line2d_7">
      <g>
       <use xlink:href="#mf2f32d4953" x="40.775937" y="46.972646" style="stroke: #000000; stroke-width: 1.5"/>
      </g>
     </g>
    </g>
    <g id="ytick_6">
     <g id="line2d_8">
      <g>
       <use xlink:href="#mf2f32d4953" x="40.775937" y="44.391889" style="stroke: #000000; stroke-width: 1.5"/>
      </g>
     </g>
    </g>
    <g id="ytick_7">
     <g id="line2d_9">
      <g>
       <use xlink:href="#mf2f32d4953" x="40.775937" y="42.156335" style="stroke: #000000; stroke-width: 1.5"/>
      </g>
     </g>
    </g>
    <g id="ytick_8">
     <g id="line2d_10">
      <g>
       <use xlink:href="#mf2f32d4953" x="40.775937" y="40.184436" style="stroke: #000000; stroke-width: 1.5"/>
      </g>
     </g>
    </g>
    <g id="ytick_9">
     <g id="line2d_11">
      <g>
       <use xlink:href="#mf2f32d4953" x="40.775937" y="26.815992" style="stroke: #000000; stroke-width: 1.5"/>
      </g>
     </g>
    </g>
    <g id="ytick_10">
     <g id="line2d_12">
      <g>
       <use xlink:href="#mf2f32d4953" x="40.775937" y="20.027782" style="stroke: #000000; stroke-width: 1.5"/>
      </g>
     </g>
    </g>
    <g id="ytick_11">
     <g id="line2d_13">
      <g>
       <use xlink:href="#mf2f32d4953" x="40.775937" y="15.21147" style="stroke: #000000; stroke-width: 1.5"/>
      </g>
     </g>
    </g>
    <g id="ytick_12">
     <g id="line2d_14">
      <g>
       <use xlink:href="#mf2f32d4953" x="40.775937" y="11.475649" style="stroke: #000000; stroke-width: 1.5"/>
      </g>
     </g>
    </g>
    <g id="ytick_13">
     <g id="line2d_15">
      <g>
       <use xlink:href="#mf2f32d4953" x="40.775937" y="8.423261" style="stroke: #000000; stroke-width: 1.5"/>
      </g>
     </g>
    </g>
    <g id="text_5">
     <text style="font-size: 9px; font-family: 'Arial', sans-serif; text-anchor: middle" x="13.751719" y="34.92" transform="rotate(-90 13.751719 34.92)">Time (sec)</text>
    </g>
   </g>
   <g id="LineCollection_1">
    <path d="M 44.580483 60.12 
L 44.580483 59.161828 
" clip-path="url(#p99a8e8a432)" style="fill: none; stroke: #1f77b4; stroke-width: 1.5"/>
    <path d="M 48.585268 48.532414 
L 48.585268 47.625163 
" clip-path="url(#p99a8e8a432)" style="fill: none; stroke: #1f77b4; stroke-width: 1.5"/>
    <path d="M 52.590052 41.668852 
L 52.590052 41.004391 
" clip-path="url(#p99a8e8a432)" style="fill: none; stroke: #1f77b4; stroke-width: 1.5"/>
    <path d="M 56.594837 36.908722 
L 56.594837 36.320535 
" clip-path="url(#p99a8e8a432)" style="fill: none; stroke: #1f77b4; stroke-width: 1.5"/>
    <path d="M 60.599622 33.135281 
L 60.599622 32.620811 
" clip-path="url(#p99a8e8a432)" style="fill: none; stroke: #1f77b4; stroke-width: 1.5"/>
    <path d="M 64.604406 30.115547 
L 64.604406 29.629077 
" clip-path="url(#p99a8e8a432)" style="fill: none; stroke: #1f77b4; stroke-width: 1.5"/>
    <path d="M 68.609191 27.539042 
L 68.609191 27.056266 
" clip-path="url(#p99a8e8a432)" style="fill: none; stroke: #1f77b4; stroke-width: 1.5"/>
    <path d="M 72.613976 25.3054 
L 72.613976 24.886086 
" clip-path="url(#p99a8e8a432)" style="fill: none; stroke: #1f77b4; stroke-width: 1.5"/>
    <path d="M 76.61876 23.328075 
L 76.61876 22.973774 
" clip-path="url(#p99a8e8a432)" style="fill: none; stroke: #1f77b4; stroke-width: 1.5"/>
    <path d="M 80.623545 21.553713 
L 80.623545 21.22083 
" clip-path="url(#p99a8e8a432)" style="fill: none; stroke: #1f77b4; stroke-width: 1.5"/>
    <path d="M 84.62833 19.94251 
L 84.62833 19.646151 
" clip-path="url(#p99a8e8a432)" style="fill: none; stroke: #1f77b4; stroke-width: 1.5"/>
    <path d="M 88.633115 18.490009 
L 88.633115 18.195486 
" clip-path="url(#p99a8e8a432)" style="fill: none; stroke: #1f77b4; stroke-width: 1.5"/>
    <path d="M 92.637899 17.145118 
L 92.637899 16.86703 
" clip-path="url(#p99a8e8a432)" style="fill: none; stroke: #1f77b4; stroke-width: 1.5"/>
    <path d="M 96.642684 15.928119 
L 96.642684 15.650948 
" clip-path="url(#p99a8e8a432)" style="fill: none; stroke: #1f77b4; stroke-width: 1.5"/>
    <path d="M 100.647469 14.755896 
L 100.647469 14.508325 
" clip-path="url(#p99a8e8a432)" style="fill: none; stroke: #1f77b4; stroke-width: 1.5"/>
    <path d="M 104.652253 13.678999 
L 104.652253 13.446939 
" clip-path="url(#p99a8e8a432)" style="fill: none; stroke: #1f77b4; stroke-width: 1.5"/>
    <path d="M 108.657038 12.65477 
L 108.657038 12.431405 
" clip-path="url(#p99a8e8a432)" style="fill: none; stroke: #1f77b4; stroke-width: 1.5"/>
    <path d="M 112.661823 11.70081 
L 112.661823 11.470862 
" clip-path="url(#p99a8e8a432)" style="fill: none; stroke: #1f77b4; stroke-width: 1.5"/>
    <path d="M 116.666607 10.791371 
L 116.666607 10.558233 
" clip-path="url(#p99a8e8a432)" style="fill: none; stroke: #1f77b4; stroke-width: 1.5"/>
    <path d="M 120.671392 9.937635 
L 120.671392 9.72 
" clip-path="url(#p99a8e8a432)" style="fill: none; stroke: #1f77b4; stroke-width: 1.5"/>
   </g>
   <g id="LineCollection_2">
    <path d="M 44.580483 56.620688 
L 44.580483 50.139597 
" clip-path="url(#p99a8e8a432)" style="fill: none; stroke: #ff7f0e; stroke-width: 1.5"/>
    <path d="M 48.585268 54.612959 
L 48.585268 48.721787 
" clip-path="url(#p99a8e8a432)" style="fill: none; stroke: #ff7f0e; stroke-width: 1.5"/>
    <path d="M 52.590052 52.848314 
L 52.590052 47.430435 
" clip-path="url(#p99a8e8a432)" style="fill: none; stroke: #ff7f0e; stroke-width: 1.5"/>
    <path d="M 56.594837 51.239225 
L 56.594837 46.238829 
" clip-path="url(#p99a8e8a432)" style="fill: none; stroke: #ff7f0e; stroke-width: 1.5"/>
    <path d="M 60.599622 49.790899 
L 60.599622 45.11181 
" clip-path="url(#p99a8e8a432)" style="fill: none; stroke: #ff7f0e; stroke-width: 1.5"/>
    <path d="M 64.604406 48.462137 
L 64.604406 44.080112 
" clip-path="url(#p99a8e8a432)" style="fill: none; stroke: #ff7f0e; stroke-width: 1.5"/>
    <path d="M 68.609191 47.233933 
L 68.609191 43.091278 
" clip-path="url(#p99a8e8a432)" style="fill: none; stroke: #ff7f0e; stroke-width: 1.5"/>
    <path d="M 72.613976 46.096776 
L 72.613976 42.152809 
" clip-path="url(#p99a8e8a432)" style="fill: none; stroke: #ff7f0e; stroke-width: 1.5"/>
    <path d="M 76.61876 45.017997 
L 76.61876 41.262457 
" clip-path="url(#p99a8e8a432)" style="fill: none; stroke: #ff7f0e; stroke-width: 1.5"/>
    <path d="M 80.623545 43.962283 
L 80.623545 40.415238 
" clip-path="url(#p99a8e8a432)" style="fill: none; stroke: #ff7f0e; stroke-width: 1.5"/>
    <path d="M 84.62833 42.986598 
L 84.62833 39.612204 
" clip-path="url(#p99a8e8a432)" style="fill: none; stroke: #ff7f0e; stroke-width: 1.5"/>
    <path d="M 88.633115 42.060418 
L 88.633115 38.85561 
" clip-path="url(#p99a8e8a432)" style="fill: none; stroke: #ff7f0e; stroke-width: 1.5"/>
    <path d="M 92.637899 41.191444 
L 92.637899 38.129053 
" clip-path="url(#p99a8e8a432)" style="fill: none; stroke: #ff7f0e; stroke-width: 1.5"/>
    <path d="M 96.642684 40.36982 
L 96.642684 37.418218 
" clip-path="url(#p99a8e8a432)" style="fill: none; stroke: #ff7f0e; stroke-width: 1.5"/>
    <path d="M 100.647469 39.584369 
L 100.647469 36.738301 
" clip-path="url(#p99a8e8a432)" style="fill: none; stroke: #ff7f0e; stroke-width: 1.5"/>
    <path d="M 104.652253 38.801508 
L 104.652253 36.108639 
" clip-path="url(#p99a8e8a432)" style="fill: none; stroke: #ff7f0e; stroke-width: 1.5"/>
    <path d="M 108.657038 38.071751 
L 108.657038 35.480844 
" clip-path="url(#p99a8e8a432)" style="fill: none; stroke: #ff7f0e; stroke-width: 1.5"/>
    <path d="M 112.661823 37.38374 
L 112.661823 34.886806 
" clip-path="url(#p99a8e8a432)" style="fill: none; stroke: #ff7f0e; stroke-width: 1.5"/>
    <path d="M 116.666607 36.723679 
L 116.666607 34.303036 
" clip-path="url(#p99a8e8a432)" style="fill: none; stroke: #ff7f0e; stroke-width: 1.5"/>
    <path d="M 120.671392 36.076161 
L 120.671392 33.744935 
" clip-path="url(#p99a8e8a432)" style="fill: none; stroke: #ff7f0e; stroke-width: 1.5"/>
   </g>
   <g id="line2d_16">
    <path d="M 44.580483 59.63406 
L 48.585268 48.072644 
L 52.590052 41.333325 
L 56.594837 36.612046 
L 60.599622 32.87607 
L 64.604406 29.870545 
L 68.609191 27.295914 
L 72.613976 25.09443 
L 76.61876 23.149987 
L 80.623545 21.386444 
L 84.62833 19.793675 
L 88.633115 18.3421 
L 92.637899 17.005497 
L 96.642684 15.78896 
L 100.647469 14.631653 
L 104.652253 13.562567 
L 108.657038 12.542715 
L 112.661823 11.585441 
L 116.666607 10.674396 
L 120.671392 9.828464 
" clip-path="url(#p99a8e8a432)" style="fill: none; stroke: #1f77b4; stroke-width: 1.5; stroke-linecap: square"/>
    <defs>
     <path id="mb9396a58df" d="M 0 1.5 
C 0.397805 1.5 0.77937 1.341951 1.06066 1.06066 
C 1.341951 0.77937 1.5 0.397805 1.5 0 
C 1.5 -0.397805 1.341951 -0.77937 1.06066 -1.06066 
C 0.77937 -1.341951 0.397805 -1.5 0 -1.5 
C -0.397805 -1.5 -0.77937 -1.341951 -1.06066 -1.06066 
C -1.341951 -0.77937 -1.5 -0.397805 -1.5 0 
C -1.5 0.397805 -1.341951 0.77937 -1.06066 1.06066 
C -0.77937 1.341951 -0.397805 1.5 0 1.5 
z
" style="stroke: #1f77b4"/>
    </defs>
    <g clip-path="url(#p99a8e8a432)">
     <use xlink:href="#mb9396a58df" x="44.580483" y="59.63406" style="fill: #1f77b4; stroke: #1f77b4"/>
     <use xlink:href="#mb9396a58df" x="48.585268" y="48.072644" style="fill: #1f77b4; stroke: #1f77b4"/>
     <use xlink:href="#mb9396a58df" x="52.590052" y="41.333325" style="fill: #1f77b4; stroke: #1f77b4"/>
     <use xlink:href="#mb9396a58df" x="56.594837" y="36.612046" style="fill: #1f77b4; stroke: #1f77b4"/>
     <use xlink:href="#mb9396a58df" x="60.599622" y="32.87607" style="fill: #1f77b4; stroke: #1f77b4"/>
     <use xlink:href="#mb9396a58df" x="64.604406" y="29.870545" style="fill: #1f77b4; stroke: #1f77b4"/>
     <use xlink:href="#mb9396a58df" x="68.609191" y="27.295914" style="fill: #1f77b4; stroke: #1f77b4"/>
     <use xlink:href="#mb9396a58df" x="72.613976" y="25.09443" style="fill: #1f77b4; stroke: #1f77b4"/>
     <use xlink:href="#mb9396a58df" x="76.61876" y="23.149987" style="fill: #1f77b4; stroke: #1f77b4"/>
     <use xlink:href="#mb9396a58df" x="80.623545" y="21.386444" style="fill: #1f77b4; stroke: #1f77b4"/>
     <use xlink:href="#mb9396a58df" x="84.62833" y="19.793675" style="fill: #1f77b4; stroke: #1f77b4"/>
     <use xlink:href="#mb9396a58df" x="88.633115" y="18.3421" style="fill: #1f77b4; stroke: #1f77b4"/>
     <use xlink:href="#mb9396a58df" x="92.637899" y="17.005497" style="fill: #1f77b4; stroke: #1f77b4"/>
     <use xlink:href="#mb9396a58df" x="96.642684" y="15.78896" style="fill: #1f77b4; stroke: #1f77b4"/>
     <use xlink:href="#mb9396a58df" x="100.647469" y="14.631653" style="fill: #1f77b4; stroke: #1f77b4"/>
     <use xlink:href="#mb9396a58df" x="104.652253" y="13.562567" style="fill: #1f77b4; stroke: #1f77b4"/>
     <use xlink:href="#mb9396a58df" x="108.657038" y="12.542715" style="fill: #1f77b4; stroke: #1f77b4"/>
     <use xlink:href="#mb9396a58df" x="112.661823" y="11.585441" style="fill: #1f77b4; stroke: #1f77b4"/>
     <use xlink:href="#mb9396a58df" x="116.666607" y="10.674396" style="fill: #1f77b4; stroke: #1f77b4"/>
     <use xlink:href="#mb9396a58df" x="120.671392" y="9.828464" style="fill: #1f77b4; stroke: #1f77b4"/>
    </g>
   </g>
   <g id="line2d_17">
    <path d="M 44.580483 53.068461 
L 48.585268 51.409573 
L 52.590052 49.921161 
L 56.594837 48.553029 
L 60.599622 47.288417 
L 64.604406 46.128162 
L 68.609191 45.034797 
L 72.613976 44.008922 
L 76.61876 43.035141 
L 80.623545 42.094998 
L 84.62833 41.214529 
L 88.633115 40.381445 
L 92.637899 39.590325 
L 96.642684 38.829057 
L 100.647469 38.100929 
L 104.652253 37.400989 
L 108.657038 36.726227 
L 112.661823 36.088766 
L 116.666607 35.469646 
L 120.671392 34.870004 
" clip-path="url(#p99a8e8a432)" style="fill: none; stroke: #ff7f0e; stroke-width: 1.5; stroke-linecap: square"/>
    <defs>
     <path id="m25547e9854" d="M -1.5 1.5 
L 1.5 1.5 
L 1.5 -1.5 
L -1.5 -1.5 
z
" style="stroke: #ff7f0e; stroke-linejoin: miter"/>
    </defs>
    <g clip-path="url(#p99a8e8a432)">
     <use xlink:href="#m25547e9854" x="44.580483" y="53.068461" style="fill: #ff7f0e; stroke: #ff7f0e; stroke-linejoin: miter"/>
     <use xlink:href="#m25547e9854" x="48.585268" y="51.409573" style="fill: #ff7f0e; stroke: #ff7f0e; stroke-linejoin: miter"/>
     <use xlink:href="#m25547e9854" x="52.590052" y="49.921161" style="fill: #ff7f0e; stroke: #ff7f0e; stroke-linejoin: miter"/>
     <use xlink:href="#m25547e9854" x="56.594837" y="48.553029" style="fill: #ff7f0e; stroke: #ff7f0e; stroke-linejoin: miter"/>
     <use xlink:href="#m25547e9854" x="60.599622" y="47.288417" style="fill: #ff7f0e; stroke: #ff7f0e; stroke-linejoin: miter"/>
     <use xlink:href="#m25547e9854" x="64.604406" y="46.128162" style="fill: #ff7f0e; stroke: #ff7f0e; stroke-linejoin: miter"/>
     <use xlink:href="#m25547e9854" x="68.609191" y="45.034797" style="fill: #ff7f0e; stroke: #ff7f0e; stroke-linejoin: miter"/>
     <use xlink:href="#m25547e9854" x="72.613976" y="44.008922" style="fill: #ff7f0e; stroke: #ff7f0e; stroke-linejoin: miter"/>
     <use xlink:href="#m25547e9854" x="76.61876" y="43.035141" style="fill: #ff7f0e; stroke: #ff7f0e; stroke-linejoin: miter"/>
     <use xlink:href="#m25547e9854" x="80.623545" y="42.094998" style="fill: #ff7f0e; stroke: #ff7f0e; stroke-linejoin: miter"/>
     <use xlink:href="#m25547e9854" x="84.62833" y="41.214529" style="fill: #ff7f0e; stroke: #ff7f0e; stroke-linejoin: miter"/>
     <use xlink:href="#m25547e9854" x="88.633115" y="40.381445" style="fill: #ff7f0e; stroke: #ff7f0e; stroke-linejoin: miter"/>
     <use xlink:href="#m25547e9854" x="92.637899" y="39.590325" style="fill: #ff7f0e; stroke: #ff7f0e; stroke-linejoin: miter"/>
     <use xlink:href="#m25547e9854" x="96.642684" y="38.829057" style="fill: #ff7f0e; stroke: #ff7f0e; stroke-linejoin: miter"/>
     <use xlink:href="#m25547e9854" x="100.647469" y="38.100929" style="fill: #ff7f0e; stroke: #ff7f0e; stroke-linejoin: miter"/>
     <use xlink:href="#m25547e9854" x="104.652253" y="37.400989" style="fill: #ff7f0e; stroke: #ff7f0e; stroke-linejoin: miter"/>
     <use xlink:href="#m25547e9854" x="108.657038" y="36.726227" style="fill: #ff7f0e; stroke: #ff7f0e; stroke-linejoin: miter"/>
     <use xlink:href="#m25547e9854" x="112.661823" y="36.088766" style="fill: #ff7f0e; stroke: #ff7f0e; stroke-linejoin: miter"/>
     <use xlink:href="#m25547e9854" x="116.666607" y="35.469646" style="fill: #ff7f0e; stroke: #ff7f0e; stroke-linejoin: miter"/>
     <use xlink:href="#m25547e9854" x="120.671392" y="34.870004" style="fill: #ff7f0e; stroke: #ff7f0e; stroke-linejoin: miter"/>
    </g>
   </g>
   <g id="patch_3">
    <path d="M 40.775937 62.64 
L 40.775937 7.2 
" style="fill: none; stroke: #000000; stroke-width: 1.5; stroke-linejoin: miter; stroke-linecap: square"/>
   </g>
   <g id="patch_4">
    <path d="M 40.775937 62.64 
L 124.475937 62.64 
" style="fill: none; stroke: #000000; stroke-width: 1.5; stroke-linejoin: miter; stroke-linecap: square"/>
   </g>
  </g>
 </g>
 <defs>
  <clipPath id="p99a8e8a432">
   <rect x="40.775937" y="7.2" width="83.7" height="55.44"/>
  </clipPath>
 </defs>
</svg>
