<?xml version="1.0" encoding="utf-8" standalone="no"?>
<!DOCTYPE svg PUBLIC "-//W3C//DTD SVG 1.1//EN"
  "http://www.w3.org/Graphics/SVG/1.1/DTD/svg11.dtd">
<svg xmlns:xlink="http://www.w3.org/1999/xlink" width="115.583906pt" height="68.453437pt" viewBox="0 0 115.583906 68.453437" xmlns="http://www.w3.org/2000/svg" version="1.1">
 <metadata>
  <rdf:RDF xmlns:dc="http://purl.org/dc/elements/1.1/" xmlns:cc="http://creativecommons.org/ns#" xmlns:rdf="http://www.w3.org/1999/02/22-rdf-syntax-ns#">
   <cc:Work>
    <dc:type rdf:resource="http://purl.org/dc/dcmitype/StillImage"/>
    <dc:date>2025-04-23T15:07:04.201363</dc:date>
    <dc:format>image/svg+xml</dc:format>
    <dc:creator>
     <cc:Agent>
      <dc:title>Matplotlib v3.10.0, https://matplotlib.org/</dc:title>
     </cc:Agent>
    </dc:creator>
   </cc:Work>
  </rdf:RDF>
 </metadata>
 <defs>
  <style type="text/css">*{stroke-linejoin: round; stroke-linecap: butt}</style>
 </defs>
 <g id="figure_1">
  <g id="patch_1">
   <path d="M 0 68.453437 
L 115.583906 68.453437 
L 115.583906 -0 
L 0 -0 
L 0 68.453437 
z
" style="fill: none"/>
  </g>
  <g id="axes_1">
   <g id="legend_1">
    <g id="line2d_1">
     <path d="M 10.8 14.092031 
L 19.8 14.092031 
L 28.8 14.092031 
" style="fill: none; stroke: #1f77b4; stroke-width: 1.5; stroke-linecap: square"/>
     <defs>
      <path id="m50c8d8179c" d="M 0 1.5 
C 0.397805 1.5 0.77937 1.341951 1.06066 1.06066 
C 1.341951 0.77937 1.5 0.397805 1.5 0 
C 1.5 -0.397805 1.341951 -0.77937 1.06066 -1.06066 
C 0.77937 -1.341951 0.397805 -1.5 0 -1.5 
C -0.397805 -1.5 -0.77937 -1.341951 -1.06066 -1.06066 
C -1.341951 -0.77937 -1.5 -0.397805 -1.5 0 
C -1.5 0.397805 -1.341951 0.77937 -1.06066 1.06066 
C -0.77937 1.341951 -0.397805 1.5 0 1.5 
z
" style="stroke: #1f77b4"/>
     </defs>
     <g>
      <use xlink:href="#m50c8d8179c" x="19.8" y="14.092031" style="fill: #1f77b4; stroke: #1f77b4"/>
     </g>
    </g>
    <g id="text_1">
     <text style="font-size: 9px; font-family: 'Arial', sans-serif; text-anchor: start" x="36" y="17.242031" transform="rotate(-0 36 17.242031)">NPE</text>
    </g>
    <g id="line2d_2">
     <path d="M 10.8 26.822812 
L 19.8 26.822812 
L 28.8 26.822812 
" style="fill: none; stroke: #f2a900; stroke-width: 1.5; stroke-linecap: square"/>
     <defs>
      <path id="m4ac2374fda" d="M -1.5 1.5 
L 1.5 1.5 
L 1.5 -1.5 
L -1.5 -1.5 
z
" style="stroke: #f2a900; stroke-linejoin: miter"/>
     </defs>
     <g>
      <use xlink:href="#m4ac2374fda" x="19.8" y="26.822812" style="fill: #f2a900; stroke: #f2a900; stroke-linejoin: miter"/>
     </g>
    </g>
    <g id="text_2">
     <text style="font-size: 9px; font-family: 'Arial', sans-serif; text-anchor: start" x="36" y="29.972812" transform="rotate(-0 36 29.972812)">NPE-PF</text>
    </g>
    <g id="line2d_3">
     <path d="M 10.8 39.663281 
L 19.8 39.663281 
L 28.8 39.663281 
" style="fill: none; stroke: #808080; stroke-width: 1.5; stroke-linecap: square"/>
    </g>
    <g id="text_3">
     <text style="font-size: 9px; font-family: 'Arial', sans-serif; text-anchor: start" x="36" y="42.813281" transform="rotate(-0 36 42.813281)">scale (noise)=1.0</text>
    </g>
    <g id="line2d_4">
     <path d="M 10.8 52.609219 
L 19.8 52.609219 
L 28.8 52.609219 
" style="fill: none; stroke-dasharray: 5.55,2.4; stroke-dashoffset: 0; stroke: #808080; stroke-width: 1.5"/>
    </g>
    <g id="text_4">
     <text style="font-size: 9px; font-family: 'Arial', sans-serif; text-anchor: start" x="36" y="55.759219" transform="rotate(-0 36 55.759219)">scale (noise)=2.0</text>
    </g>
   </g>
  </g>
 </g>
</svg>
