<?xml version="1.0" encoding="utf-8" standalone="no"?>
<!DOCTYPE svg PUBLIC "-//W3C//DTD SVG 1.1//EN"
  "http://www.w3.org/Graphics/SVG/1.1/DTD/svg11.dtd">
<svg xmlns:xlink="http://www.w3.org/1999/xlink" width="246.962109pt" height="128.482594pt" viewBox="0 0 246.962109 128.482594" xmlns="http://www.w3.org/2000/svg" version="1.1">
 <metadata>
  <rdf:RDF xmlns:dc="http://purl.org/dc/elements/1.1/" xmlns:cc="http://creativecommons.org/ns#" xmlns:rdf="http://www.w3.org/1999/02/22-rdf-syntax-ns#">
   <cc:Work>
    <dc:type rdf:resource="http://purl.org/dc/dcmitype/StillImage"/>
    <dc:date>2025-03-27T17:13:38.102063</dc:date>
    <dc:format>image/svg+xml</dc:format>
    <dc:creator>
     <cc:Agent>
      <dc:title>Matplotlib v3.10.0, https://matplotlib.org/</dc:title>
     </cc:Agent>
    </dc:creator>
   </cc:Work>
  </rdf:RDF>
 </metadata>
 <defs>
  <style type="text/css">*{stroke-linejoin: round; stroke-linecap: butt}</style>
 </defs>
 <g id="figure_1">
  <g id="patch_1">
   <path d="M 0 128.482594 
L 246.962109 128.482594 
L 246.962109 0 
L 0 0 
z
" style="fill: #ffffff"/>
  </g>
  <g id="axes_1">
   <g id="patch_2">
    <path d="M 12.204844 38.051812 
L 48.587344 38.051812 
L 48.587344 7.2 
L 12.204844 7.2 
z
" style="fill: #ffffff"/>
   </g>
   <g id="matplotlib.axis_1">
    <g id="xtick_1">
     <g id="line2d_1">
      <defs>
       <path id="m087d730135" d="M 0 0 
L 0 3.5 
" style="stroke: #000000; stroke-width: 1.5"/>
      </defs>
      <g>
       <use xlink:href="#m087d730135" x="12.204844" y="38.051812" style="stroke: #000000; stroke-width: 1.5"/>
      </g>
     </g>
     <g id="text_1">
      <text style="font-size: 9px; font-family: 'Arial', sans-serif; text-anchor: middle" x="12.204844" y="51.493844" transform="rotate(-0 12.204844 51.493844)">0</text>
     </g>
    </g>
    <g id="xtick_2">
     <g id="line2d_2">
      <g>
       <use xlink:href="#m087d730135" x="48.587344" y="38.051812" style="stroke: #000000; stroke-width: 1.5"/>
      </g>
     </g>
     <g id="text_2">
      <text style="font-size: 9px; font-family: 'Arial', sans-serif; text-anchor: middle" x="48.587344" y="51.493844" transform="rotate(-0 48.587344 51.493844)">80</text>
     </g>
    </g>
    <g id="text_3">
     <!-- $g_{Na}$ -->
     <g transform="translate(23.556094 54.723375)">
      <text>
       <tspan x="0" y="-0.234375" style="font-size: 9px; font-family: 'Arial'">g</tspan>
       <tspan x="5.162182" y="2.453812" style="font-size: 6.3px; font-family: 'Arial'">N</tspan>
       <tspan x="9.71184" y="2.453812" style="font-size: 6.3px; font-family: 'Arial'">a</tspan>
      </text>
     </g>
    </g>
   </g>
   <g id="line2d_3">
    <path d="M 11.762417 38.051318 
L 12.525278 37.985723 
L 12.906708 37.727325 
L 13.288138 37.031381 
L 13.860283 35.158786 
L 14.623144 31.909545 
L 15.386004 27.248065 
L 16.72101 17.389344 
L 17.293155 15.277806 
L 17.8653 12.706151 
L 18.056015 12.367408 
L 18.246731 12.341969 
L 18.628161 12.748773 
L 19.200306 13.633812 
L 19.581736 14.692299 
L 20.344597 17.127952 
L 20.726027 17.603421 
L 21.107457 17.787746 
L 21.298172 17.793071 
L 21.679602 17.467581 
L 22.061032 17.147887 
L 22.823893 17.465962 
L 23.205323 17.003903 
L 23.396038 16.959437 
L 23.777468 17.459615 
L 24.158899 18.411336 
L 26.066049 24.373713 
L 26.256765 24.490072 
L 26.44748 24.755795 
L 27.019625 26.705178 
L 27.401055 27.608299 
L 27.59177 27.723751 
L 27.9732 27.726452 
L 28.354631 28.165678 
L 28.736061 28.616407 
L 28.926776 28.679283 
L 29.308206 28.459625 
L 29.689636 28.213053 
L 29.880351 28.318733 
L 31.978217 31.282945 
L 32.550363 31.934012 
L 32.931793 32.347067 
L 33.313223 32.291232 
L 33.503938 32.27391 
L 33.885368 32.638923 
L 34.457514 33.283304 
L 35.029659 33.451999 
L 35.792519 33.517978 
L 36.55538 33.382554 
L 37.31824 32.900421 
L 38.462531 33.107555 
L 38.843961 33.407242 
L 39.225391 33.949725 
L 39.606821 34.049931 
L 39.988251 34.004586 
L 40.751112 34.339393 
L 41.323257 33.987311 
L 41.513972 34.026581 
L 41.895402 34.477948 
L 42.467548 35.206508 
L 43.039693 35.434004 
L 43.421123 35.403826 
L 44.183984 34.951344 
L 44.756129 35.317294 
L 45.709704 35.246586 
L 46.28185 35.693721 
L 46.66328 35.549397 
L 47.04471 35.468734 
L 48.189001 36.332517 
L 48.570431 37.002405 
L 48.951861 37.720609 
L 49.333291 38.005049 
L 49.714721 38.0491 
L 49.714721 38.0491 
" clip-path="url(#p7555801215)" style="fill: none; stroke: #1f77b2; stroke-opacity: 0.9; stroke-width: 1.5; stroke-linecap: square"/>
   </g>
   <g id="line2d_4">
    <path d="M 16.764374 38.051204 
L 16.863005 37.625865 
L 16.883311 37.677985 
L 17.022555 13.408031 
L 17.042861 9.770984 
L 17.10378 24.153715 
L 17.112483 23.803455 
L 17.118285 24.219726 
L 17.243024 37.862168 
L 17.254627 37.833266 
L 17.341655 38.051204 
L 17.341655 38.051204 
" clip-path="url(#p7555801215)" style="fill: none; stroke: #f2a900; stroke-opacity: 0.9; stroke-width: 1.5; stroke-linecap: square"/>
   </g>
   <g id="line2d_5">
    <path d="M 17.111336 38.051812 
L 17.111336 7.2 
" clip-path="url(#p7555801215)" style="fill: none; stroke-dasharray: 5.55,2.4; stroke-dashoffset: 0; stroke: #000000; stroke-opacity: 0.5; stroke-width: 1.5"/>
   </g>
   <g id="patch_3">
    <path d="M 12.204844 38.051812 
L 48.587344 38.051812 
" style="fill: none; stroke: #000000; stroke-width: 1.5; stroke-linejoin: miter; stroke-linecap: square"/>
   </g>
  </g>
  <g id="axes_2">
   <g id="patch_4">
    <path d="M 73.427344 38.051812 
L 109.809844 38.051812 
L 109.809844 7.2 
L 73.427344 7.2 
z
" style="fill: #ffffff"/>
   </g>
   <g id="matplotlib.axis_2">
    <g id="xtick_3">
     <g id="line2d_6">
      <g>
       <use xlink:href="#m087d730135" x="73.427344" y="38.051812" style="stroke: #000000; stroke-width: 1.5"/>
      </g>
     </g>
     <g id="text_4">
      <text style="font-size: 9px; font-family: 'Arial', sans-serif; text-anchor: middle" x="73.427344" y="51.493844" transform="rotate(-0 73.427344 51.493844)">0</text>
     </g>
    </g>
    <g id="xtick_4">
     <g id="line2d_7">
      <g>
       <use xlink:href="#m087d730135" x="109.809844" y="38.051812" style="stroke: #000000; stroke-width: 1.5"/>
      </g>
     </g>
     <g id="text_5">
      <text style="font-size: 9px; font-family: 'Arial', sans-serif; text-anchor: middle" x="109.809844" y="51.493844" transform="rotate(-0 109.809844 51.493844)">15</text>
     </g>
    </g>
    <g id="text_6">
     <!-- $g_K$ -->
     <g transform="translate(86.668594 54.813375)">
      <text>
       <tspan x="0" y="-0.234375" style="font-size: 9px; font-family: 'Arial'">g</tspan>
       <tspan x="5.162182" y="2.453812" style="font-size: 6.3px; font-family: 'Arial'">K</tspan>
      </text>
     </g>
    </g>
   </g>
   <g id="line2d_8">
    <path d="M 72.743668 38.050877 
L 73.097548 38.01492 
L 73.274488 37.916503 
L 73.628368 37.277435 
L 73.982248 35.880263 
L 74.336128 33.573045 
L 74.690007 30.114921 
L 75.043887 24.219916 
L 75.574707 14.505593 
L 75.928587 12.341969 
L 76.105527 12.392682 
L 76.813287 14.150294 
L 77.167167 17.027052 
L 77.697987 21.259888 
L 77.874927 21.615044 
L 78.936567 21.19987 
L 79.290447 20.829031 
L 79.644327 20.746634 
L 79.821267 20.37156 
L 80.352086 18.332792 
L 80.529026 18.403523 
L 81.059846 19.003532 
L 81.236786 18.632619 
L 81.590666 17.133498 
L 81.767606 16.95577 
L 81.944546 17.393634 
L 83.006186 22.095128 
L 83.537006 23.875844 
L 83.713946 24.004122 
L 84.067826 23.846433 
L 84.244766 24.053725 
L 84.598646 25.531559 
L 84.952526 26.966238 
L 85.129466 26.872392 
L 85.483346 26.26405 
L 85.660286 26.288107 
L 86.191105 26.702621 
L 86.721925 27.412585 
L 86.898865 27.567894 
L 87.252745 28.128004 
L 87.606625 28.144055 
L 87.783565 28.383108 
L 88.491325 30.165068 
L 89.022145 30.362394 
L 89.199085 30.390482 
L 89.376025 30.68897 
L 89.906845 32.396987 
L 90.437665 32.677286 
L 91.322365 34.28632 
L 91.676245 35.224476 
L 91.853184 35.226683 
L 92.207064 34.791263 
L 92.914824 34.980707 
L 93.622584 35.215057 
L 94.153404 35.730529 
L 94.507284 35.641252 
L 95.568924 36.25807 
L 96.099744 36.816075 
L 96.453624 36.71715 
L 96.807504 36.585007 
L 97.515264 36.933656 
L 97.869143 37.073025 
L 98.223023 37.270504 
L 99.284663 37.405008 
L 100.346303 37.843429 
L 101.761823 37.679407 
L 102.292643 37.725227 
L 102.646523 37.757716 
L 103.177343 37.939758 
L 103.885102 37.951714 
L 104.592862 37.779723 
L 106.716142 38.01441 
L 107.954722 38.051367 
L 107.954722 38.051367 
" clip-path="url(#p7aeb883630)" style="fill: none; stroke: #1f77b2; stroke-opacity: 0.9; stroke-width: 1.5; stroke-linecap: square"/>
   </g>
   <g id="line2d_9">
    <path d="M 78.299945 38.051203 
L 78.458624 37.828827 
L 78.508732 37.881253 
L 78.692465 35.547171 
L 79.051578 14.507441 
L 79.084984 14.676601 
L 79.11839 10.931482 
L 79.126742 9.770984 
L 79.151796 14.264092 
L 79.210257 11.235143 
L 79.419043 31.61905 
L 79.602776 37.398356 
L 79.611127 37.417537 
L 79.619479 37.228015 
L 79.62783 37.023442 
L 79.702994 37.669675 
L 79.870023 38.041144 
L 79.96189 38.051233 
L 79.96189 38.051233 
" clip-path="url(#p7aeb883630)" style="fill: none; stroke: #f2a900; stroke-opacity: 0.9; stroke-width: 1.5; stroke-linecap: square"/>
   </g>
   <g id="line2d_10">
    <path d="M 79.328724 38.051812 
L 79.328724 7.2 
" clip-path="url(#p7aeb883630)" style="fill: none; stroke-dasharray: 5.55,2.4; stroke-dashoffset: 0; stroke: #000000; stroke-opacity: 0.5; stroke-width: 1.5"/>
   </g>
   <g id="patch_5">
    <path d="M 73.427344 38.051812 
L 109.809844 38.051812 
" style="fill: none; stroke: #000000; stroke-width: 1.5; stroke-linejoin: miter; stroke-linecap: square"/>
   </g>
  </g>
  <g id="axes_3">
   <g id="patch_6">
    <path d="M 134.649844 38.051812 
L 171.032344 38.051812 
L 171.032344 7.2 
L 134.649844 7.2 
z
" style="fill: #ffffff"/>
   </g>
   <g id="matplotlib.axis_3">
    <g id="xtick_5">
     <g id="line2d_11">
      <g>
       <use xlink:href="#m087d730135" x="134.649844" y="38.051812" style="stroke: #000000; stroke-width: 1.5"/>
      </g>
     </g>
     <g id="text_7">
      <text style="font-size: 9px; font-family: 'Arial', sans-serif; text-anchor: middle" x="134.649844" y="51.493844" transform="rotate(-0 134.649844 51.493844)">0.00</text>
     </g>
    </g>
    <g id="xtick_6">
     <g id="line2d_12">
      <g>
       <use xlink:href="#m087d730135" x="171.032344" y="38.051812" style="stroke: #000000; stroke-width: 1.5"/>
      </g>
     </g>
     <g id="text_8">
      <text style="font-size: 9px; font-family: 'Arial', sans-serif; text-anchor: middle" x="171.032344" y="51.493844" transform="rotate(-0 171.032344 51.493844)">0.05</text>
     </g>
    </g>
    <g id="text_9">
     <!-- $g_l$ -->
     <g transform="translate(149.331094 54.813375)">
      <text>
       <tspan x="0" y="-0.234375" style="font-size: 9px; font-family: 'Arial'">g</tspan>
       <tspan x="5.162182" y="2.453812" style="font-size: 6.3px; font-family: 'Arial'">l</tspan>
      </text>
     </g>
    </g>
   </g>
   <g id="line2d_13">
    <path d="M 134.132478 38.027597 
L 134.380485 37.285388 
L 134.628492 31.71544 
L 135.124506 13.600067 
L 135.372513 12.341969 
L 135.62052 13.449323 
L 137.852584 27.911464 
L 138.348599 29.771742 
L 138.844613 31.395539 
L 139.836641 32.793307 
L 140.084649 33.360883 
L 140.332656 33.640072 
L 140.580663 33.593348 
L 140.82867 33.90832 
L 141.324684 34.743984 
L 141.572691 34.879162 
L 142.068706 34.931094 
L 142.56472 35.314001 
L 143.060734 35.349969 
L 144.052763 36.071803 
L 144.796784 35.919009 
L 145.044791 36.055396 
L 145.540805 36.544182 
L 145.788813 36.465841 
L 146.532834 36.597478 
L 147.276855 36.770157 
L 148.020877 37.064034 
L 148.764898 37.311411 
L 149.260912 37.291796 
L 149.756927 37.437097 
L 150.252941 37.482853 
L 150.748955 37.354736 
L 151.244969 37.603683 
L 151.988991 37.408425 
L 152.485005 37.640937 
L 153.973048 37.749985 
L 154.717069 37.782756 
L 155.461091 37.975921 
L 157.445148 37.942249 
L 157.941162 37.948911 
L 158.437176 37.929901 
L 161.909276 38.032709 
L 164.14134 38.051812 
L 183.485896 38.051592 
L 183.485896 38.051592 
" clip-path="url(#pee647e9641)" style="fill: none; stroke: #1f77b2; stroke-opacity: 0.9; stroke-width: 1.5; stroke-linecap: square"/>
   </g>
   <g id="line2d_14">
    <path d="M 134.199796 38.038687 
L 134.311126 37.958785 
L 134.422456 37.591924 
L 134.533787 36.44038 
L 134.756447 30.176826 
L 135.313099 12.0573 
L 135.53576 9.793683 
L 135.64709 9.770984 
L 135.869751 10.441983 
L 136.092412 12.457736 
L 136.537733 18.131865 
L 136.983055 20.797856 
L 138.096359 26.873347 
L 138.319019 27.382951 
L 138.54168 27.120683 
L 138.65301 27.228822 
L 138.875671 28.52294 
L 139.209662 30.394034 
L 139.432323 30.709407 
L 139.877645 31.061172 
L 140.322966 31.964549 
L 140.545627 31.852116 
L 140.768287 32.306419 
L 141.213609 33.440793 
L 141.324939 33.487822 
L 141.5476 33.230351 
L 141.770261 32.87515 
L 141.992922 33.130847 
L 142.215582 33.352688 
L 142.438243 33.513604 
L 143.106225 34.493321 
L 143.440216 34.096111 
L 143.662877 34.281882 
L 144.108199 34.778585 
L 144.330859 34.726593 
L 144.66485 35.262002 
L 145.221502 35.322255 
L 145.555493 35.795143 
L 145.889484 35.664194 
L 146.112145 35.602678 
L 146.334806 35.554073 
L 146.780127 36.003337 
L 147.002788 35.906543 
L 147.67077 36.403433 
L 147.893431 36.58307 
L 148.227422 36.544023 
L 148.672744 36.987142 
L 149.006735 36.988149 
L 149.229396 37.219875 
L 149.563387 37.611195 
L 151.010682 37.699542 
L 151.344673 37.862038 
L 152.123985 37.642661 
L 152.457976 37.825118 
L 152.791967 37.925877 
L 155.129905 38.019384 
L 156.354539 38.051515 
L 156.354539 38.051515 
" clip-path="url(#pee647e9641)" style="fill: none; stroke: #f2a900; stroke-opacity: 0.9; stroke-width: 1.5; stroke-linecap: square"/>
   </g>
   <g id="line2d_15">
    <path d="M 135.998599 38.051812 
L 135.998599 7.2 
" clip-path="url(#pee647e9641)" style="fill: none; stroke-dasharray: 5.55,2.4; stroke-dashoffset: 0; stroke: #000000; stroke-opacity: 0.5; stroke-width: 1.5"/>
   </g>
   <g id="patch_7">
    <path d="M 134.649844 38.051812 
L 171.032344 38.051812 
" style="fill: none; stroke: #000000; stroke-width: 1.5; stroke-linejoin: miter; stroke-linecap: square"/>
   </g>
  </g>
  <g id="axes_4">
   <g id="patch_8">
    <path d="M 195.872344 38.051812 
L 232.254844 38.051812 
L 232.254844 7.2 
L 195.872344 7.2 
z
" style="fill: #ffffff"/>
   </g>
   <g id="matplotlib.axis_4">
    <g id="xtick_7">
     <g id="line2d_16">
      <g>
       <use xlink:href="#m087d730135" x="195.872344" y="38.051812" style="stroke: #000000; stroke-width: 1.5"/>
      </g>
     </g>
     <g id="text_10">
      <text style="font-size: 9px; font-family: 'Arial', sans-serif; text-anchor: middle" x="195.872344" y="51.493844" transform="rotate(-0 195.872344 51.493844)">0.0</text>
     </g>
    </g>
    <g id="xtick_8">
     <g id="line2d_17">
      <g>
       <use xlink:href="#m087d730135" x="232.254844" y="38.051812" style="stroke: #000000; stroke-width: 1.5"/>
      </g>
     </g>
     <g id="text_11">
      <text style="font-size: 9px; font-family: 'Arial', sans-serif; text-anchor: middle" x="232.254844" y="51.493844" transform="rotate(-0 232.254844 51.493844)">0.6</text>
     </g>
    </g>
    <g id="text_12">
     <!-- $g_M$ -->
     <g transform="translate(208.618594 54.813375)">
      <text>
       <tspan x="0" y="-0.234375" style="font-size: 9px; font-family: 'Arial'">g</tspan>
       <tspan x="5.162182" y="2.453812" style="font-size: 6.3px; font-family: 'Arial'">M</tspan>
      </text>
     </g>
    </g>
   </g>
   <g id="line2d_18">
    <path d="M 195.430245 38.050926 
L 195.617011 38.02941 
L 195.990543 37.656793 
L 196.364076 37.307733 
L 196.737608 37.281316 
L 197.11114 36.798845 
L 197.297906 36.787485 
L 197.484672 36.970302 
L 197.671438 36.991725 
L 198.044971 36.337541 
L 198.418503 36.22592 
L 198.605269 35.917994 
L 198.978801 34.831072 
L 199.165568 34.609851 
L 199.352334 34.646953 
L 199.5391 34.394552 
L 200.659697 29.39476 
L 201.593527 20.451517 
L 202.153826 13.66443 
L 202.340592 12.922838 
L 202.714124 13.016736 
L 202.90089 12.341969 
L 203.274423 13.64469 
L 203.461189 14.422814 
L 204.021487 18.372462 
L 204.581786 24.577867 
L 204.955318 26.382015 
L 205.515616 29.794498 
L 206.262681 32.972877 
L 206.636213 33.798666 
L 206.822979 34.353245 
L 207.383278 34.797196 
L 207.75681 35.69461 
L 208.317108 35.95401 
L 208.690641 36.010911 
L 208.877407 36.169062 
L 209.250939 37.002693 
L 209.624471 36.892429 
L 209.811237 36.878558 
L 210.371536 37.224052 
L 210.558302 37.050294 
L 210.745068 37.042524 
L 211.1186 37.509711 
L 211.492133 37.225159 
L 211.865665 37.363621 
L 212.425963 37.519946 
L 212.799496 37.417597 
L 213.173028 37.562974 
L 213.733326 37.649615 
L 213.920092 37.497589 
L 214.293625 37.719427 
L 214.667157 37.727221 
L 215.040689 37.805517 
L 215.97452 37.876904 
L 216.348052 37.799908 
L 217.281883 37.852629 
L 217.842181 37.854698 
L 218.589246 37.888357 
L 218.776012 37.828686 
L 219.33631 37.932763 
L 221.951036 37.965756 
L 223.258399 38.024903 
L 224.005464 38.034307 
L 226.059891 37.913238 
L 226.433424 38.034036 
L 227.367254 37.988537 
L 227.927553 38.039163 
L 228.674617 37.988096 
L 229.98198 38.049858 
L 232.596706 38.051375 
L 232.596706 38.051375 
" clip-path="url(#pb539de09c9)" style="fill: none; stroke: #1f77b2; stroke-opacity: 0.9; stroke-width: 1.5; stroke-linecap: square"/>
   </g>
   <g id="line2d_19">
    <path d="M 196.96836 38.051448 
L 197.736925 37.923469 
L 197.890638 37.836797 
L 198.005923 37.913365 
L 198.044351 37.864343 
L 198.159636 37.67864 
L 198.198064 37.715398 
L 198.274921 37.741194 
L 198.50549 37.426249 
L 198.620775 37.59389 
L 198.659203 37.548105 
L 199.043486 36.8138 
L 199.274055 36.195909 
L 199.735194 35.067643 
L 199.773622 35.115483 
L 199.812051 35.12452 
L 199.965764 34.221575 
L 200.004192 34.394209 
L 200.081049 34.77892 
L 200.119477 34.762587 
L 200.695901 32.79366 
L 200.888042 32.062943 
L 200.964898 32.043096 
L 201.15704 31.706397 
L 201.310753 31.903405 
L 201.695035 30.471678 
L 202.002461 26.972605 
L 202.194602 25.355741 
L 202.386744 24.6889 
L 202.924739 11.768829 
L 202.963167 11.808765 
L 203.001596 12.006377 
L 203.040024 11.842867 
L 203.155309 9.770984 
L 203.193737 10.349672 
L 203.309022 13.665224 
L 203.731733 35.513763 
L 203.962302 37.704906 
L 204.192872 38.01317 
L 204.538726 38.042173 
L 204.615582 38.051442 
L 204.615582 38.051442 
" clip-path="url(#pb539de09c9)" style="fill: none; stroke: #f2a900; stroke-opacity: 0.9; stroke-width: 1.5; stroke-linecap: square"/>
   </g>
   <g id="line2d_20">
    <path d="M 203.230463 38.051812 
L 203.230463 7.2 
" clip-path="url(#pb539de09c9)" style="fill: none; stroke-dasharray: 5.55,2.4; stroke-dashoffset: 0; stroke: #000000; stroke-opacity: 0.5; stroke-width: 1.5"/>
   </g>
   <g id="patch_9">
    <path d="M 195.872344 38.051812 
L 232.254844 38.051812 
" style="fill: none; stroke: #000000; stroke-width: 1.5; stroke-linejoin: miter; stroke-linecap: square"/>
   </g>
  </g>
  <g id="axes_5">
   <g id="patch_10">
    <path d="M 12.204844 100.871812 
L 48.587344 100.871812 
L 48.587344 70.02 
L 12.204844 70.02 
z
" style="fill: #ffffff"/>
   </g>
   <g id="matplotlib.axis_5">
    <g id="xtick_9">
     <g id="line2d_21">
      <g>
       <use xlink:href="#m087d730135" x="12.204844" y="100.871812" style="stroke: #000000; stroke-width: 1.5"/>
      </g>
     </g>
     <g id="text_13">
      <text style="font-size: 9px; font-family: 'Arial', sans-serif; text-anchor: middle" x="12.204844" y="114.313844" transform="rotate(-0 12.204844 114.313844)">50</text>
     </g>
    </g>
    <g id="xtick_10">
     <g id="line2d_22">
      <g>
       <use xlink:href="#m087d730135" x="48.587344" y="100.871812" style="stroke: #000000; stroke-width: 1.5"/>
      </g>
     </g>
     <g id="text_14">
      <text style="font-size: 9px; font-family: 'Arial', sans-serif; text-anchor: middle" x="48.587344" y="114.313844" transform="rotate(-0 48.587344 114.313844)">3000</text>
     </g>
    </g>
    <g id="text_15">
     <!-- $\tau_{max}$ -->
     <g transform="translate(22.341094 117.543375)">
      <text>
       <tspan x="0" y="-0.328125" style="font-size: 9px; font-family: 'Arial'">τ</tspan>
       <tspan x="3.711987" y="2.360062" style="font-size: 6.3px; font-family: 'Arial'">m</tspan>
       <tspan x="8.959936" y="2.360062" style="font-size: 6.3px; font-family: 'Arial'">a</tspan>
       <tspan x="12.463696" y="2.360062" style="font-size: 6.3px; font-family: 'Arial'">x</tspan>
      </text>
     </g>
    </g>
   </g>
   <g id="line2d_23">
    <path d="M 11.312568 100.87125 
L 12.280672 100.791686 
L 13.636019 100.376324 
L 14.216882 99.953515 
L 15.572229 98.562781 
L 16.153092 98.514811 
L 16.540334 98.430516 
L 17.121197 98.052117 
L 17.508439 97.574703 
L 18.670164 95.402449 
L 19.83189 94.319138 
L 20.412753 93.98508 
L 20.993616 93.98906 
L 21.380858 94.083098 
L 22.155342 94.734247 
L 22.348963 94.565357 
L 22.929826 93.406877 
L 23.510689 92.471373 
L 23.897931 92.1627 
L 25.059656 91.870169 
L 26.802245 91.07521 
L 27.189487 90.176811 
L 27.77035 88.740969 
L 28.738455 87.96047 
L 29.125697 88.080356 
L 29.512939 88.143598 
L 30.093801 87.771656 
L 30.674664 87.080625 
L 31.061906 86.807388 
L 31.255527 86.935295 
L 31.83639 87.557178 
L 33.385358 86.98345 
L 33.7726 86.904079 
L 34.159842 87.261874 
L 34.934326 88.478822 
L 35.515189 89.152633 
L 36.096051 89.982999 
L 36.483293 90.145805 
L 36.676914 90.053185 
L 37.064156 89.478736 
L 37.645019 87.69153 
L 38.032261 86.616526 
L 39.193987 84.425159 
L 39.968471 82.464251 
L 40.162092 82.209476 
L 40.549334 82.179464 
L 40.742955 82.169847 
L 40.936576 82.001364 
L 41.71106 80.777563 
L 41.904681 80.708283 
L 42.098302 80.770889 
L 42.485543 81.335101 
L 43.066406 82.485531 
L 43.453648 83.090095 
L 44.228132 84.926843 
L 44.421753 84.983032 
L 44.615374 84.722288 
L 45.196237 83.609693 
L 45.7771 83.55413 
L 46.164342 82.770901 
L 46.745205 80.99465 
L 47.132447 78.652143 
L 47.519689 75.879196 
L 47.71331 75.161969 
L 47.906931 75.529154 
L 48.100552 77.439166 
L 48.487793 85.829108 
L 49.068656 98.073032 
L 49.455898 100.475583 
L 49.84314 100.845037 
L 49.84314 100.845037 
" clip-path="url(#pc6b794f7af)" style="fill: none; stroke: #1f77b2; stroke-opacity: 0.9; stroke-width: 1.5; stroke-linecap: square"/>
   </g>
   <g id="line2d_24">
    <path d="M 12.115337 100.870725 
L 12.428539 100.759176 
L 12.58514 100.646851 
L 12.846142 100.340739 
L 13.263745 99.771729 
L 13.576948 98.769756 
L 13.89015 97.247313 
L 14.151152 95.739484 
L 14.359954 95.125473 
L 14.568755 94.06693 
L 14.673156 94.220613 
L 14.777557 94.56129 
L 15.090759 92.356354 
L 15.14296 92.182823 
L 15.299561 93.039751 
L 15.560563 91.45104 
L 15.664964 90.980131 
L 15.717164 91.022625 
L 15.873765 91.574318 
L 15.925966 91.482037 
L 16.50017 84.047084 
L 16.708972 79.602919 
L 16.917773 77.507283 
L 16.969974 77.659282 
L 17.022174 77.389686 
L 17.335377 72.590984 
L 17.387577 72.752501 
L 17.544178 75.295167 
L 17.596379 74.877624 
L 17.75298 77.233862 
L 18.640387 96.052276 
L 18.901389 98.74208 
L 19.05799 99.341264 
L 19.162391 99.384049 
L 19.684395 100.666191 
L 19.840996 100.401165 
L 19.893196 100.472274 
L 20.049797 100.719489 
L 20.258599 100.753242 
L 20.363 100.795605 
L 20.519601 100.790579 
L 20.832803 100.822094 
L 20.989405 100.841437 
L 21.302607 100.867524 
L 21.824611 100.832022 
L 22.190014 100.867356 
L 22.503216 100.871314 
L 22.503216 100.871314 
" clip-path="url(#pc6b794f7af)" style="fill: none; stroke: #f2a900; stroke-opacity: 0.9; stroke-width: 1.5; stroke-linecap: square"/>
   </g>
   <g id="line2d_25">
    <path d="M 18.070845 100.871812 
L 18.070845 70.02 
" clip-path="url(#pc6b794f7af)" style="fill: none; stroke-dasharray: 5.55,2.4; stroke-dashoffset: 0; stroke: #000000; stroke-opacity: 0.5; stroke-width: 1.5"/>
   </g>
   <g id="patch_11">
    <path d="M 12.204844 100.871812 
L 48.587344 100.871812 
" style="fill: none; stroke: #000000; stroke-width: 1.5; stroke-linejoin: miter; stroke-linecap: square"/>
   </g>
  </g>
  <g id="axes_6">
   <g id="patch_12">
    <path d="M 73.427344 100.871812 
L 109.809844 100.871812 
L 109.809844 70.02 
L 73.427344 70.02 
z
" style="fill: #ffffff"/>
   </g>
   <g id="matplotlib.axis_6">
    <g id="xtick_11">
     <g id="line2d_26">
      <g>
       <use xlink:href="#m087d730135" x="73.427344" y="100.871812" style="stroke: #000000; stroke-width: 1.5"/>
      </g>
     </g>
     <g id="text_16">
      <text style="font-size: 9px; font-family: 'Arial', sans-serif; text-anchor: middle" x="73.427344" y="114.313844" transform="rotate(-0 73.427344 114.313844)">40</text>
     </g>
    </g>
    <g id="xtick_12">
     <g id="line2d_27">
      <g>
       <use xlink:href="#m087d730135" x="109.809844" y="100.871812" style="stroke: #000000; stroke-width: 1.5"/>
      </g>
     </g>
     <g id="text_17">
      <text style="font-size: 9px; font-family: 'Arial', sans-serif; text-anchor: middle" x="109.809844" y="114.313844" transform="rotate(-0 109.809844 114.313844)">90</text>
     </g>
    </g>
    <g id="text_18">
     <!-- $V_T$ -->
     <g transform="translate(86.353594 118.582594)">
      <text>
       <tspan x="0" y="-0.5625" style="font-size: 9px; font-family: 'Arial'">V</tspan>
       <tspan x="6.159741" y="2.125687" style="font-size: 6.3px; font-family: 'Arial'">T</tspan>
      </text>
     </g>
    </g>
   </g>
   <g id="line2d_28">
    <path d="M 73.298664 100.871056 
L 74.583487 100.824973 
L 74.950579 100.777446 
L 75.317671 100.691911 
L 75.86831 100.747755 
L 76.235402 100.50664 
L 76.78604 100.662827 
L 77.336679 100.635408 
L 77.703771 100.440968 
L 78.070863 100.454768 
L 78.254409 100.431709 
L 78.621502 100.041617 
L 78.988594 100.31016 
L 79.17214 100.231299 
L 79.355686 99.994022 
L 80.273417 100.013738 
L 80.640509 99.759922 
L 80.824055 99.905296 
L 81.191148 99.777746 
L 81.374694 99.842101 
L 81.741786 99.626641 
L 82.292425 99.013512 
L 82.475971 99.190412 
L 82.659517 99.145038 
L 82.843063 99.286825 
L 83.026609 99.160889 
L 83.210155 98.775552 
L 83.393701 98.757468 
L 83.577248 98.540452 
L 84.311432 96.34919 
L 85.045617 91.295107 
L 85.596255 84.605344 
L 85.963347 82.657625 
L 86.513986 76.821861 
L 86.697532 76.09632 
L 87.064624 75.507103 
L 87.24817 75.227657 
L 87.431716 75.161969 
L 87.798809 75.406115 
L 87.982355 76.478461 
L 88.349447 80.075866 
L 88.532993 80.87789 
L 88.716539 80.790789 
L 88.900086 80.859382 
L 90.184909 90.268633 
L 90.368455 90.144061 
L 91.469732 94.789484 
L 92.02037 95.69909 
L 92.754555 97.958281 
L 92.938101 97.781469 
L 93.305193 98.368197 
L 93.488739 98.635376 
L 93.672285 99.135997 
L 94.222924 99.567723 
L 94.590016 99.353413 
L 94.957108 99.930389 
L 95.140654 99.82251 
L 95.691293 100.018108 
L 96.058385 100.261666 
L 96.425477 100.487475 
L 96.976116 100.36312 
L 97.526754 100.701958 
L 98.260939 100.705227 
L 99.362216 100.694576 
L 99.729308 100.69326 
L 100.0964 100.757819 
L 100.463492 100.862862 
L 101.014131 100.846355 
L 104.685054 100.805884 
L 105.235692 100.836366 
L 105.78633 100.820487 
L 106.336969 100.870171 
L 109.824346 100.871287 
L 109.824346 100.871287 
" clip-path="url(#pd1216dcb8e)" style="fill: none; stroke: #1f77b2; stroke-opacity: 0.9; stroke-width: 1.5; stroke-linecap: square"/>
   </g>
   <g id="line2d_29">
    <path d="M 89.268496 100.871387 
L 89.377154 100.747045 
L 89.477455 99.24632 
L 89.669697 76.959494 
L 89.686414 72.590984 
L 89.769997 79.806236 
L 90.079256 96.594106 
L 90.087615 96.255175 
L 90.095973 95.93981 
L 90.16284 97.610144 
L 90.346723 99.885129 
L 90.355082 99.878711 
L 90.371799 99.95294 
L 90.555682 100.806058 
L 90.697774 100.739518 
L 90.706133 100.792709 
L 90.739566 100.631587 
L 90.831508 100.867252 
L 90.931808 100.871387 
L 90.931808 100.871387 
" clip-path="url(#pd1216dcb8e)" style="fill: none; stroke: #f2a900; stroke-opacity: 0.9; stroke-width: 1.5; stroke-linecap: square"/>
   </g>
   <g id="line2d_30">
    <path d="M 89.667037 100.871812 
L 89.667037 70.02 
" clip-path="url(#pd1216dcb8e)" style="fill: none; stroke-dasharray: 5.55,2.4; stroke-dashoffset: 0; stroke: #000000; stroke-opacity: 0.5; stroke-width: 1.5"/>
   </g>
   <g id="patch_13">
    <path d="M 73.427344 100.871812 
L 109.809844 100.871812 
" style="fill: none; stroke: #000000; stroke-width: 1.5; stroke-linejoin: miter; stroke-linecap: square"/>
   </g>
  </g>
  <g id="axes_7">
   <g id="patch_14">
    <path d="M 134.649844 100.871812 
L 171.032344 100.871812 
L 171.032344 70.02 
L 134.649844 70.02 
z
" style="fill: #ffffff"/>
   </g>
   <g id="matplotlib.axis_7">
    <g id="xtick_13">
     <g id="line2d_31">
      <g>
       <use xlink:href="#m087d730135" x="134.649844" y="100.871812" style="stroke: #000000; stroke-width: 1.5"/>
      </g>
     </g>
     <g id="text_19">
      <text style="font-size: 9px; font-family: 'Arial', sans-serif; text-anchor: middle" x="134.649844" y="114.313844" transform="rotate(-0 134.649844 114.313844)">0.0</text>
     </g>
    </g>
    <g id="xtick_14">
     <g id="line2d_32">
      <g>
       <use xlink:href="#m087d730135" x="171.032344" y="100.871812" style="stroke: #000000; stroke-width: 1.5"/>
      </g>
     </g>
     <g id="text_20">
      <text style="font-size: 9px; font-family: 'Arial', sans-serif; text-anchor: middle" x="171.032344" y="114.313844" transform="rotate(-0 171.032344 114.313844)">0.2</text>
     </g>
    </g>
    <g id="text_21">
     <!-- $\sigma$ -->
     <g transform="translate(150.051094 118.544625)">
      <text>
       <tspan x="0" y="-0.234375" style="font-size: 9px; font-family: 'Arial'">σ</tspan>
      </text>
     </g>
    </g>
   </g>
   <g id="line2d_33">
    <path d="M 133.528167 100.855969 
L 133.825228 100.706572 
L 133.973759 100.432814 
L 134.12229 99.843432 
L 134.419351 96.931581 
L 134.864943 87.483175 
L 135.310535 78.176845 
L 135.607597 75.430185 
L 135.756128 75.161969 
L 135.904658 75.435949 
L 136.35025 77.564197 
L 137.389966 82.683262 
L 137.538496 82.774081 
L 137.835558 82.495373 
L 138.28115 81.732598 
L 139.172334 79.38878 
L 140.063519 76.504316 
L 140.212049 76.513697 
L 140.509111 77.085389 
L 140.806172 77.765137 
L 141.103234 77.94386 
L 141.400295 77.975495 
L 141.697357 78.424222 
L 142.588541 80.48024 
L 143.628256 82.492991 
L 144.073848 83.410598 
L 144.222379 83.34748 
L 144.667971 82.743918 
L 144.816502 82.827635 
L 145.262094 83.564622 
L 145.410625 83.508869 
L 145.707686 82.698066 
L 146.004748 81.894053 
L 146.153278 81.853125 
L 146.747401 82.542674 
L 147.192994 82.173614 
L 147.341524 82.281239 
L 147.935647 83.237083 
L 148.084178 83.067055 
L 148.52977 81.582335 
L 148.826832 80.989825 
L 148.975362 81.111697 
L 149.718016 82.817706 
L 150.163608 82.764393 
L 150.6092 82.711555 
L 150.906262 82.196492 
L 151.203323 81.48999 
L 151.351854 81.354301 
L 151.500385 81.435149 
L 152.243038 82.584042 
L 152.5401 82.411054 
L 152.985692 82.139566 
L 153.282753 82.301867 
L 154.025407 83.246892 
L 154.322468 84.053666 
L 154.916591 86.082565 
L 155.065122 86.031517 
L 155.362184 85.672471 
L 155.510714 85.725078 
L 156.104837 87.037748 
L 156.253368 86.948821 
L 156.550429 86.013821 
L 157.293083 83.041301 
L 157.590144 82.638231 
L 157.887206 82.318056 
L 158.184267 81.583371 
L 158.62986 79.485275 
L 159.075452 77.250446 
L 159.669575 75.742613 
L 159.818105 75.709037 
L 159.966636 76.108538 
L 160.263698 78.197598 
L 160.70929 81.683789 
L 160.85782 82.165675 
L 161.006351 82.176096 
L 161.303413 81.463051 
L 161.451943 81.551759 
L 161.600474 82.588093 
L 161.897536 87.987262 
L 162.343128 97.459454 
L 162.640189 100.114345 
L 162.937251 100.772744 
L 163.085781 100.842589 
L 163.085781 100.842589 
" clip-path="url(#p23b2a84c43)" style="fill: none; stroke: #1f77b2; stroke-opacity: 0.9; stroke-width: 1.5; stroke-linecap: square"/>
   </g>
   <g id="line2d_34">
    <path d="M 134.149642 100.871175 
L 135.422264 100.74893 
L 138.108909 99.765223 
L 138.674519 98.935685 
L 139.098726 98.146418 
L 139.381531 98.088269 
L 139.664336 97.969226 
L 139.947141 97.39607 
L 140.936957 94.762206 
L 141.785372 91.444664 
L 142.068177 90.853963 
L 142.209579 90.741809 
L 142.350982 90.322025 
L 143.057994 86.418699 
L 143.340798 85.249972 
L 144.04781 80.673017 
L 144.189213 80.398187 
L 144.330615 79.799112 
L 144.754822 75.583275 
L 144.896225 75.744684 
L 145.037627 76.193167 
L 145.17903 76.157092 
L 145.461835 75.653234 
L 145.744639 76.496053 
L 145.886042 76.347137 
L 146.310249 74.662745 
L 146.593054 74.78332 
L 147.017261 75.100058 
L 147.158663 74.903222 
L 147.582871 72.590984 
L 147.724273 72.772605 
L 148.14848 74.930588 
L 148.289883 75.095689 
L 148.431285 75.521066 
L 148.71409 77.089771 
L 148.855492 77.174147 
L 149.138297 76.877842 
L 149.421102 77.344076 
L 149.986712 77.361543 
L 150.128114 77.865494 
L 150.693724 81.762201 
L 150.835126 82.348558 
L 150.976528 82.440409 
L 151.259333 81.726288 
L 151.400736 81.975457 
L 151.824943 83.780196 
L 151.966345 83.632431 
L 152.24915 82.670333 
L 152.390552 82.689403 
L 153.097565 86.087585 
L 153.521772 85.207516 
L 153.804577 86.022736 
L 155.077198 91.63651 
L 155.218601 91.637412 
L 155.501405 91.41154 
L 155.642808 91.5638 
L 155.925613 92.683303 
L 156.208417 93.987063 
L 156.491222 93.863793 
L 156.632625 94.216611 
L 156.91543 95.353862 
L 157.056832 95.416322 
L 157.198234 95.348459 
L 157.339637 95.539633 
L 157.905246 97.244166 
L 158.612258 98.416295 
L 158.753661 98.391965 
L 159.036466 98.160212 
L 159.177868 98.296563 
L 159.602075 99.122415 
L 160.026282 99.786991 
L 160.309087 100.00423 
L 160.591892 99.96054 
L 162.005916 100.850223 
L 162.288721 100.87099 
L 162.288721 100.87099 
" clip-path="url(#p23b2a84c43)" style="fill: none; stroke: #f2a900; stroke-opacity: 0.9; stroke-width: 1.5; stroke-linecap: square"/>
   </g>
   <g id="line2d_35">
    <path d="M 139.462362 100.871812 
L 139.462362 70.02 
" clip-path="url(#p23b2a84c43)" style="fill: none; stroke-dasharray: 5.55,2.4; stroke-dashoffset: 0; stroke: #000000; stroke-opacity: 0.5; stroke-width: 1.5"/>
   </g>
   <g id="patch_15">
    <path d="M 134.649844 100.871812 
L 171.032344 100.871812 
" style="fill: none; stroke: #000000; stroke-width: 1.5; stroke-linejoin: miter; stroke-linecap: square"/>
   </g>
  </g>
  <g id="axes_8">
   <g id="patch_16">
    <path d="M 195.872344 100.871812 
L 232.254844 100.871812 
L 232.254844 70.02 
L 195.872344 70.02 
z
" style="fill: #ffffff"/>
   </g>
   <g id="matplotlib.axis_8">
    <g id="xtick_15">
     <g id="line2d_36">
      <g>
       <use xlink:href="#m087d730135" x="195.872344" y="100.871812" style="stroke: #000000; stroke-width: 1.5"/>
      </g>
     </g>
     <g id="text_22">
      <text style="font-size: 9px; font-family: 'Arial', sans-serif; text-anchor: middle" x="195.872344" y="114.313844" transform="rotate(-0 195.872344 114.313844)">35</text>
     </g>
    </g>
    <g id="xtick_16">
     <g id="line2d_37">
      <g>
       <use xlink:href="#m087d730135" x="232.254844" y="100.871812" style="stroke: #000000; stroke-width: 1.5"/>
      </g>
     </g>
     <g id="text_23">
      <text style="font-size: 9px; font-family: 'Arial', sans-serif; text-anchor: middle" x="232.254844" y="114.313844" transform="rotate(-0 232.254844 114.313844)">100</text>
     </g>
    </g>
    <g id="text_24">
     <!-- $E_l$ -->
     <g transform="translate(210.058594 118.582594)">
      <text>
       <tspan x="0" y="-0.5625" style="font-size: 9px; font-family: 'Arial'">E</tspan>
       <tspan x="6.159741" y="2.125687" style="font-size: 6.3px; font-family: 'Arial'">l</tspan>
      </text>
     </g>
    </g>
   </g>
   <g id="line2d_38">
    <path d="M 195.798624 100.870642 
L 196.343548 100.803285 
L 196.706831 100.557847 
L 197.251755 99.839843 
L 197.796679 99.172832 
L 198.159962 99.162824 
L 198.704886 99.394035 
L 199.431452 99.868821 
L 200.884583 100.116564 
L 201.79279 99.859122 
L 202.156072 99.450481 
L 202.882638 98.302436 
L 203.245921 98.21442 
L 204.154128 98.120416 
L 204.699052 98.017068 
L 205.7889 98.384308 
L 206.333824 98.186647 
L 206.878749 97.914016 
L 207.968597 97.967043 
L 208.513521 97.886517 
L 209.240087 97.861087 
L 209.603369 97.617413 
L 210.148294 97.131827 
L 211.056501 97.180292 
L 211.601425 96.707892 
L 211.964708 96.760126 
L 212.509632 96.956593 
L 213.236197 96.997227 
L 213.962763 96.872385 
L 215.234253 97.124248 
L 215.597535 97.117459 
L 216.14246 96.746183 
L 216.505742 96.399238 
L 216.869025 95.731351 
L 217.413949 94.61068 
L 218.322156 93.334006 
L 218.86708 92.082718 
L 219.230363 91.903176 
L 219.956929 91.60819 
L 220.683494 90.705755 
L 221.046777 90.6624 
L 221.228418 90.478492 
L 221.591701 89.541115 
L 221.954984 87.707668 
L 222.499908 82.788895 
L 223.226474 75.553762 
L 223.408115 75.161969 
L 223.589757 76.252112 
L 223.953039 83.023578 
L 224.497964 94.821113 
L 224.861246 97.854011 
L 225.224529 98.834287 
L 225.769453 99.510029 
L 226.496019 100.09236 
L 227.404226 100.361177 
L 228.675716 100.633457 
L 229.22064 100.751056 
L 231.945261 100.871611 
L 231.945261 100.871611 
" clip-path="url(#p2ad059f581)" style="fill: none; stroke: #1f77b2; stroke-opacity: 0.9; stroke-width: 1.5; stroke-linecap: square"/>
   </g>
   <g id="line2d_39">
    <path d="M 194.923812 100.870126 
L 195.384269 100.792821 
L 195.691241 100.502668 
L 196.765643 99.007217 
L 197.072615 99.052903 
L 198.607474 99.762033 
L 199.067932 99.93597 
L 199.681876 100.175471 
L 200.142334 100.184172 
L 201.063249 99.99359 
L 203.058567 99.872516 
L 203.67251 99.987576 
L 204.286454 99.987769 
L 204.746912 100.026496 
L 205.9748 99.581028 
L 206.742229 99.617172 
L 207.356173 99.610843 
L 208.584061 99.406368 
L 209.044519 99.202707 
L 209.965434 99.026694 
L 210.425892 98.913532 
L 210.88635 98.728977 
L 211.346808 98.519419 
L 212.881667 98.267991 
L 213.342125 98.007411 
L 214.263041 97.363162 
L 214.570013 97.327151 
L 215.03047 97.40054 
L 215.337442 96.968175 
L 215.7979 96.22303 
L 216.104872 96.137167 
L 216.56533 96.071356 
L 216.872302 95.883788 
L 218.253675 94.339441 
L 219.021105 92.451543 
L 219.942021 90.885302 
L 221.169908 87.792953 
L 221.47688 86.578157 
L 222.551282 79.792943 
L 223.318711 72.590984 
L 223.472197 73.91417 
L 223.779169 82.140411 
L 224.239627 96.426877 
L 224.546599 100.005427 
L 224.853571 100.771644 
L 225.314029 100.870058 
L 225.467515 100.87145 
L 225.467515 100.87145 
" clip-path="url(#p2ad059f581)" style="fill: none; stroke: #f2a900; stroke-opacity: 0.9; stroke-width: 1.5; stroke-linecap: square"/>
   </g>
   <g id="line2d_40">
    <path d="M 214.883798 100.871812 
L 214.883798 70.02 
" clip-path="url(#p2ad059f581)" style="fill: none; stroke-dasharray: 5.55,2.4; stroke-dashoffset: 0; stroke: #000000; stroke-opacity: 0.5; stroke-width: 1.5"/>
   </g>
   <g id="patch_17">
    <path d="M 195.872344 100.871812 
L 232.254844 100.871812 
" style="fill: none; stroke: #000000; stroke-width: 1.5; stroke-linejoin: miter; stroke-linecap: square"/>
   </g>
  </g>
 </g>
 <defs>
  <clipPath id="p7555801215">
   <rect x="12.204844" y="7.2" width="36.3825" height="30.851812"/>
  </clipPath>
  <clipPath id="p7aeb883630">
   <rect x="73.427344" y="7.2" width="36.3825" height="30.851812"/>
  </clipPath>
  <clipPath id="pee647e9641">
   <rect x="134.649844" y="7.2" width="36.3825" height="30.851812"/>
  </clipPath>
  <clipPath id="pb539de09c9">
   <rect x="195.872344" y="7.2" width="36.3825" height="30.851812"/>
  </clipPath>
  <clipPath id="pc6b794f7af">
   <rect x="12.204844" y="70.02" width="36.3825" height="30.851812"/>
  </clipPath>
  <clipPath id="pd1216dcb8e">
   <rect x="73.427344" y="70.02" width="36.3825" height="30.851812"/>
  </clipPath>
  <clipPath id="p23b2a84c43">
   <rect x="134.649844" y="70.02" width="36.3825" height="30.851812"/>
  </clipPath>
  <clipPath id="p2ad059f581">
   <rect x="195.872344" y="70.02" width="36.3825" height="30.851812"/>
  </clipPath>
 </defs>
</svg>
