<?xml version="1.0" encoding="utf-8" standalone="no"?>
<!DOCTYPE svg PUBLIC "-//W3C//DTD SVG 1.1//EN"
  "http://www.w3.org/Graphics/SVG/1.1/DTD/svg11.dtd">
<svg xmlns:xlink="http://www.w3.org/1999/xlink" width="241.512891pt" height="58.752pt" viewBox="0 0 241.512891 58.752" xmlns="http://www.w3.org/2000/svg" version="1.1">
 <metadata>
  <rdf:RDF xmlns:dc="http://purl.org/dc/elements/1.1/" xmlns:cc="http://creativecommons.org/ns#" xmlns:rdf="http://www.w3.org/1999/02/22-rdf-syntax-ns#">
   <cc:Work>
    <dc:type rdf:resource="http://purl.org/dc/dcmitype/StillImage"/>
    <dc:date>2025-10-10T14:33:56.534410</dc:date>
    <dc:format>image/svg+xml</dc:format>
    <dc:creator>
     <cc:Agent>
      <dc:title>Matplotlib v3.10.0, https://matplotlib.org/</dc:title>
     </cc:Agent>
    </dc:creator>
   </cc:Work>
  </rdf:RDF>
 </metadata>
 <defs>
  <style type="text/css">*{stroke-linejoin: round; stroke-linecap: butt}</style>
 </defs>
 <g id="figure_1">
  <g id="patch_1">
   <path d="M 0 58.752 
L 241.512891 58.752 
L 241.512891 0 
L 0 0 
z
" style="fill: #ffffff"/>
  </g>
  <g id="axes_1">
   <g id="patch_2">
    <path d="M 7.2 51.552 
L 55.721739 51.552 
L 55.721739 7.2 
L 7.2 7.2 
z
" style="fill: #ffffff"/>
   </g>
   <g id="matplotlib.axis_1"/>
   <g id="matplotlib.axis_2"/>
   <g id="line2d_1">
    <path d="M 9.405534 45.217165 
L 10.386325 45.135635 
L 10.475156 45.094873 
L 10.486716 45.160094 
L 10.497668 45.119329 
L 10.501319 45.160094 
L 10.520788 45.094873 
L 10.608403 45.111176 
L 14.108709 45.021496 
L 14.188413 44.997037 
L 14.148257 45.045955 
L 14.219443 45.0378 
L 14.269943 45.013343 
L 14.301582 45.070414 
L 14.330786 45.0378 
L 15.230656 45.119329 
L 15.323138 45.151943 
L 15.292716 45.086718 
L 15.341391 45.135635 
L 15.403451 45.103026 
L 15.440565 45.160094 
L 15.452125 45.143788 
L 15.488023 45.111176 
L 15.488631 45.168247 
L 15.563468 45.143788 
L 15.643781 45.160094 
L 15.657775 44.923659 
L 15.658384 44.923659 
L 15.666293 44.825826 
L 15.837262 43.187082 
L 15.837871 43.195235 
L 15.838479 43.211541 
L 15.92366 42.534847 
L 15.924268 42.543 
L 15.939479 42.453318 
L 16.073334 41.523882 
L 16.073942 41.548341 
L 16.169466 40.985788 
L 16.171291 41.0184 
L 16.29967 40.292788 
L 16.300279 40.300941 
L 16.490109 39.241059 
L 16.490718 39.249213 
L 16.564338 38.751883 
L 16.564947 38.768189 
L 16.707319 37.488177 
L 16.707928 37.512635 
L 16.765729 35.710836 
L 16.777289 15.287718 
L 16.856994 38.857872 
L 16.873421 38.825259 
L 16.87768 38.841566 
L 16.962252 38.727425 
L 16.98233 38.768189 
L 16.982939 38.751883 
L 17.088198 38.874177 
L 17.089414 38.866024 
L 17.476985 38.760035 
L 17.602322 38.523601 
L 17.484895 38.768189 
L 17.604756 38.531753 
L 17.605364 38.54806 
L 17.698454 38.311625 
L 17.708189 38.336083 
L 17.825616 38.099647 
L 17.827442 38.115953 
L 17.82805 38.124107 
L 17.910188 37.8306 
L 17.916881 37.8306 
L 17.918098 37.846906 
L 18.092718 36.950082 
L 18.093326 36.966389 
L 18.172422 36.118482 
L 18.190675 34.634647 
L 18.203452 15.410012 
L 18.298368 38.490988 
L 18.298976 38.46653 
L 18.393891 39.118765 
L 18.395717 39.10246 
L 18.490632 39.461189 
L 18.491849 39.420425 
L 18.607451 39.722082 
L 18.609885 39.689471 
L 18.706017 39.811765 
L 18.71271 39.795459 
L 18.800324 39.828071 
L 18.717577 39.779153 
L 18.825269 39.811765 
L 18.929311 39.746541 
L 18.850823 39.828071 
L 18.940263 39.754694 
L 18.945739 39.762847 
L 19.027877 39.648706 
L 19.044305 39.656859 
L 19.163557 39.534565 
L 19.050389 39.673165 
L 19.164166 39.542719 
L 19.172075 39.559024 
L 19.263948 39.387812 
L 19.332093 39.281824 
L 19.333918 39.29813 
L 19.458647 39.069848 
L 19.465339 39.086154 
L 19.560863 38.874177 
L 19.56208 38.874177 
L 19.599194 38.768189 
L 19.730007 38.499142 
L 19.730615 38.515447 
L 19.829181 38.287165 
L 19.83344 38.295319 
L 19.834657 38.319777 
L 19.974596 37.895825 
L 19.975205 37.920283 
L 20.071337 37.586013 
L 20.07803 37.594165 
L 20.10906 37.512635 
L 20.232571 36.787024 
L 20.23318 36.795177 
L 20.311059 34.748788 
L 20.323836 15.57307 
L 20.418751 38.450224 
L 20.41936 38.442072 
L 20.487504 38.996472 
L 20.489938 38.988318 
L 20.505149 39.078 
L 20.626835 39.542719 
L 20.627443 39.51826 
L 20.726009 39.771 
L 20.732094 39.762847 
L 20.831268 39.868835 
L 20.736353 39.754694 
L 20.848912 39.844376 
L 20.961472 39.811765 
L 20.892111 39.885141 
L 20.962081 39.819918 
L 20.98946 39.836224 
L 21.054562 39.730235 
L 21.07099 39.771 
L 21.189026 39.656859 
L 21.081942 39.779153 
L 21.189634 39.665012 
L 21.206062 39.681318 
L 21.282724 39.567176 
L 21.293676 39.583482 
L 21.409886 39.420425 
L 21.301585 39.599788 
L 21.410495 39.428576 
L 21.470121 39.347047 
L 21.581464 39.175835 
L 21.583898 39.200294 
L 21.6995 39.012776 
L 21.825445 38.8008 
L 21.702542 39.037235 
L 21.826053 38.808954 
L 21.829095 38.825259 
L 21.920969 38.637741 
L 21.926444 38.6622 
L 22.043263 38.409459 
L 22.054215 38.442072 
L 22.139395 38.238247 
L 22.148522 38.254554 
L 22.267166 37.936589 
L 22.2696 37.9692 
L 22.360865 37.71646 
L 22.36269 37.732766 
L 22.50993 37.210977 
L 22.510539 37.219129 
L 22.511147 37.243588 
L 22.608496 36.876707 
L 22.612755 36.884859 
L 22.615189 36.893012 
L 22.725923 34.015024 
L 22.7387 15.703518 
L 22.833616 38.107801 
L 22.839092 38.205636 
L 22.999109 39.526413 
L 23.02223 39.624247 
L 23.148175 40.023741 
L 23.157301 39.999282 
L 23.229705 40.105271 
L 23.255259 40.064506 
L 23.331921 40.113424 
L 23.264385 40.056353 
L 23.365993 40.088965 
L 23.420752 40.040047 
L 23.408583 40.105271 
L 23.477945 40.056353 
L 23.49924 40.080812 
L 23.559474 39.982976 
L 23.587462 39.999282 
L 23.668384 39.828071 
L 23.709149 39.852529 
L 23.717667 39.885141 
L 23.806498 39.705776 
L 23.815016 39.713929 
L 23.820492 39.722082 
L 23.912973 39.559024 
L 23.916624 39.591635 
L 24.032834 39.387812 
L 24.128358 39.29813 
L 24.244568 39.053541 
L 24.245177 39.069848 
L 24.281074 38.972012 
L 24.401544 38.702965 
L 24.405803 38.735577 
L 24.497067 38.531753 
L 24.50011 38.539907 
L 24.614495 38.319777 
L 24.618145 38.336083 
L 24.618754 38.352389 
L 24.717928 38.107801 
L 24.72097 38.115953 
L 24.772687 38.009965 
L 24.901674 37.77353 
L 24.9035 37.797989 
L 25.003891 37.455565 
L 25.005108 37.463719 
L 25.025186 37.365882 
L 25.157215 36.746259 
L 25.031879 37.382189 
L 25.158432 36.762565 
L 25.160258 36.795177 
L 25.238745 36.371224 
L 25.240571 36.387529 
L 25.24483 36.403836 
L 25.336094 31.332706 
L 25.347046 15.858423 
L 25.44257 38.075188 
L 25.583726 39.289977 
L 25.584943 39.273672 
L 25.666473 39.624247 
L 25.670123 39.616094 
L 25.799111 39.917753 
L 25.802761 39.901447 
L 25.80337 39.885141 
L 25.909237 40.007435 
L 25.910454 39.982976 
L 26.141049 39.885141 
L 26.145308 39.901447 
L 26.254826 39.779153 
L 26.367994 39.681318 
L 26.481162 39.534565 
L 26.481771 39.559024 
L 26.541397 39.453035 
L 26.665517 39.257366 
L 26.543831 39.461189 
L 26.666125 39.273672 
L 26.666734 39.281824 
L 26.763475 39.10246 
L 26.7653 39.110613 
L 26.816408 39.012776 
L 26.931402 38.784494 
L 26.932618 38.808954 
L 26.935661 38.817107 
L 27.050654 38.60513 
L 27.051871 38.637741 
L 27.153479 38.433918 
L 27.158955 38.458377 
L 27.169298 38.474682 
L 27.250828 38.2464 
L 27.254479 38.2464 
L 27.325665 38.148566 
L 27.443092 37.952894 
L 27.330533 38.164872 
L 27.443701 37.961048 
L 27.511237 37.863212 
L 27.628664 37.577859 
L 27.631098 37.594165 
L 27.724796 37.382189 
L 27.731489 37.390341 
L 27.844657 37.113142 
L 27.848308 37.162059 
L 27.970603 36.811482 
L 27.971819 36.819636 
L 28.01441 36.713648 
L 28.116626 36.248929 
L 28.017452 36.7218 
L 28.136096 36.281541 
L 28.136704 36.289694 
L 28.190855 35.531471 
L 28.208499 32.547494 
L 28.220668 15.939953 
L 28.315583 37.797989 
L 28.320451 37.903977 
L 28.57295 39.795459 
L 28.573558 39.787306 
L 28.661781 40.023741 
L 28.66604 40.023741 
L 28.765214 40.154188 
L 28.667257 40.007435 
L 28.781033 40.137882 
L 28.889334 40.121576 
L 28.840051 40.178647 
L 28.892376 40.129729 
L 28.908804 40.162341 
L 28.984249 40.080812 
L 29.003111 40.154188 
L 29.080382 40.056353 
L 29.115062 40.080812 
L 29.129664 40.113424 
L 29.222754 39.974824 
L 29.223971 39.991129 
L 29.230664 40.007435 
L 29.324971 39.893294 
L 29.32923 39.917753 
L 29.436314 39.803612 
L 29.332272 39.925906 
L 29.447874 39.819918 
L 29.519061 39.730235 
L 29.632229 39.550871 
L 29.632837 39.559024 
L 29.697331 39.461189 
L 29.812325 39.241059 
L 29.815975 39.273672 
L 29.935228 39.069848 
L 29.935836 39.094306 
L 30.040486 38.898636 
L 30.042312 38.923095 
L 30.161564 38.654048 
L 30.162781 38.6622 
L 30.216931 38.564366 
L 30.335576 38.344235 
L 30.339226 38.376848 
L 30.440834 38.13226 
L 30.442051 38.13226 
L 30.446919 38.148566 
L 30.575906 37.814295 
L 30.576514 37.846906 
L 30.679339 37.545248 
L 30.681773 37.5534 
L 30.684815 37.561554 
L 30.774255 37.325118 
L 30.77608 37.333272 
L 30.947658 36.52613 
L 30.949483 36.542436 
L 31.005459 35.841283 
L 31.006675 35.841283 
L 31.020061 32.767624 
L 31.031621 15.882881 
L 31.127145 37.781682 
L 31.127753 37.781682 
L 31.269518 39.159529 
L 31.27256 39.135071 
L 31.429535 39.746541 
L 31.485511 39.844376 
L 31.593203 39.982976 
L 31.600505 39.950365 
L 31.647354 39.982976 
L 31.700896 39.925906 
L 31.711239 39.942212 
L 31.814672 39.917753 
L 31.72645 39.974824 
L 31.823799 39.925906 
L 31.824407 39.942212 
L 31.916889 39.819918 
L 31.930883 39.836224 
L 32.032491 39.746541 
L 31.947311 39.844376 
L 32.046485 39.754694 
L 32.047093 39.779153 
L 32.145051 39.624247 
L 32.154786 39.640553 
L 32.270388 39.485648 
L 32.156611 39.648706 
L 32.270996 39.501954 
L 32.356176 39.395966 
L 32.480296 39.183989 
L 32.481513 39.208448 
L 32.491857 39.2166 
L 32.577645 39.012776 
L 32.578254 39.012776 
L 32.709675 38.735577 
L 32.714543 38.751883 
L 32.813717 38.54806 
L 32.814325 38.580672 
L 32.934186 38.344235 
L 32.937228 38.360542 
L 33.024234 38.148566 
L 33.030927 38.156718 
L 33.033361 38.164872 
L 33.163565 37.871365 
L 33.232926 37.765376 
L 33.23536 37.781682 
L 33.363131 37.496329 
L 33.371649 37.520789 
L 33.465955 37.186519 
L 33.466564 37.202824 
L 33.61563 36.681035 
L 33.468389 37.210977 
L 33.616238 36.689189 
L 33.633274 36.5832 
L 33.737316 28.397647 
L 33.747051 15.939953 
L 33.843791 37.77353 
L 33.8444 37.765376 
L 33.899767 38.499142 
L 33.900984 38.490988 
L 34.109067 39.787306 
L 34.148007 39.893294 
L 34.26726 40.072659 
L 34.150441 39.860682 
L 34.271519 40.056353 
L 34.701071 39.974824 
L 34.702897 39.982976 
L 34.814848 39.811765 
L 34.830667 39.828071 
L 34.909155 39.681318 
L 34.916456 39.689471 
L 35.025365 39.526413 
L 34.918281 39.697624 
L 35.032666 39.550871 
L 35.157395 39.371507 
L 35.221889 39.273672 
L 35.337491 39.118765 
L 35.230407 39.289977 
L 35.338099 39.135071 
L 35.419629 39.029082 
L 35.540098 38.857872 
L 35.423279 39.061695 
L 35.541924 38.88233 
L 35.547399 38.890482 
L 35.639881 38.711119 
L 35.641706 38.743729 
L 35.76035 38.490988 
L 35.760959 38.531753 
L 35.865001 38.327929 
L 35.86926 38.352389 
L 35.870477 38.368694 
L 35.986078 38.124107 
L 35.995813 38.156718 
L 36.087687 37.928435 
L 36.09012 37.944742 
L 36.215457 37.724612 
L 36.217282 37.732766 
L 36.26474 37.634929 
L 36.374866 37.480025 
L 36.267174 37.643082 
L 36.380342 37.504483 
L 36.383384 37.528942 
L 36.487426 37.341425 
L 36.620673 37.015306 
L 36.630407 37.047919 
L 36.717413 36.795177 
L 36.727756 36.803329 
L 36.73019 36.844094 
L 36.822672 36.379377 
L 36.839099 36.395682 
L 36.977213 33.142659 
L 36.98999 16.168235 
L 37.084297 37.406647 
L 37.084906 37.406647 
L 37.225453 38.996472 
L 37.226062 38.988318 
L 37.30029 39.412272 
L 37.306375 39.404118 
L 37.449965 39.876988 
L 37.451181 39.868835 
L 37.453615 39.852529 
L 37.551573 39.974824 
L 37.558265 39.942212 
L 37.668391 40.023741 
L 37.670825 39.999282 
L 37.695162 40.015588 
L 37.757831 39.942212 
L 37.780343 39.966671 
L 37.891077 39.868835 
L 37.799204 39.974824 
L 37.89412 39.885141 
L 37.894728 39.901447 
L 37.998161 39.746541 
L 37.999987 39.746541 
L 38.013981 39.771 
L 38.079691 39.673165 
L 38.107679 39.697624 
L 38.243968 39.599788 
L 38.35166 39.477495 
L 38.268305 39.624247 
L 38.358353 39.4938 
L 38.365045 39.51826 
L 38.458744 39.347047 
L 38.460569 39.37966 
L 38.577388 39.200294 
L 38.577996 39.208448 
L 38.683864 39.10246 
L 38.802508 38.898636 
L 38.812851 38.923095 
L 38.904116 38.768189 
L 38.908375 38.768189 
L 38.986254 38.678506 
L 39.099422 38.417613 
L 39.103681 38.425765 
L 39.105507 38.450224 
L 39.202856 38.254554 
L 39.208331 38.27086 
L 39.320283 38.026272 
L 39.327584 38.034424 
L 39.335494 38.042577 
L 39.420674 37.797989 
L 39.422499 37.814295 
L 39.545403 37.496329 
L 39.546011 37.528942 
L 39.650053 37.210977 
L 39.65127 37.227282 
L 39.812504 36.534282 
L 39.813112 36.558741 
L 39.903769 35.751601 
L 39.917763 29.963012 
L 39.928106 15.9318 
L 40.024238 37.8306 
L 40.19034 39.314436 
L 40.190948 39.29813 
L 40.284647 39.738388 
L 40.285864 39.722082 
L 40.415459 39.982976 
L 40.420935 39.958518 
L 40.514634 40.088965 
L 40.522543 40.072659 
L 40.585212 39.868835 
L 40.635103 40.129729 
L 40.679519 40.146035 
L 40.748271 40.072659 
L 40.759223 40.113424 
L 40.851705 39.966671 
L 40.854747 39.974824 
L 40.967307 39.844376 
L 40.859614 39.991129 
L 40.970349 39.852529 
L 41.036668 39.762847 
L 41.151662 39.550871 
L 41.038493 39.771 
L 41.15227 39.575329 
L 41.217981 39.469341 
L 41.221631 39.501954 
L 41.345751 39.241059 
L 41.350619 39.265518 
L 41.445534 39.10246 
L 41.446751 39.110613 
L 41.561744 38.923095 
L 41.450401 39.135071 
L 41.564178 38.939401 
L 41.679172 38.776342 
L 41.566612 38.947553 
L 41.686473 38.792648 
L 41.74975 38.702965 
L 41.862918 38.499142 
L 41.865352 38.515447 
L 41.996773 38.213789 
L 41.99799 38.230095 
L 41.999815 38.2464 
L 42.092905 38.034424 
L 42.096556 38.058882 
L 42.158007 37.952894 
L 42.159832 37.9692 
L 42.286386 37.724612 
L 42.287603 37.732766 
L 42.376434 37.455565 
L 42.378868 37.471871 
L 42.566265 36.452753 
L 42.595469 36.346765 
L 42.64171 32.914376 
L 42.653879 16.013329 
L 42.749403 37.71646 
L 42.924022 39.444883 
L 42.927065 39.412272 
L 43.020763 39.811765 
L 43.02198 39.787306 
L 43.138799 40.015588 
L 43.220328 39.974824 
L 43.214853 40.0482 
L 43.250142 39.999282 
L 43.282388 40.031894 
L 43.343232 39.942212 
L 43.359659 39.974824 
L 43.46005 39.925906 
L 43.471002 39.958518 
L 43.471611 39.966671 
L 43.567134 39.811765 
L 43.572002 39.819918 
L 43.658399 39.738388 
L 43.771567 39.599788 
L 43.777043 39.616094 
L 43.865874 39.420425 
L 43.876218 39.444883 
L 43.984518 39.249213 
L 43.877434 39.453035 
L 43.993645 39.273672 
L 44.105596 39.10246 
L 44.116548 39.118765 
L 44.206596 39.037235 
L 44.316114 38.898636 
L 44.319156 38.914942 
L 44.32524 38.923095 
L 44.452402 38.621435 
L 44.508986 38.515447 
L 44.634932 38.287165 
L 44.510203 38.523601 
L 44.636148 38.303471 
L 44.637974 38.319777 
L 44.731672 38.091495 
L 44.732889 38.107801 
L 44.855184 37.928435 
L 44.745058 38.115953 
L 44.856401 37.936589 
L 44.857618 37.9692 
L 44.948882 37.757225 
L 44.954358 37.765376 
L 45.071177 37.471871 
L 45.075436 37.480025 
L 45.076044 37.504483 
L 45.179478 37.243588 
L 45.180695 37.259894 
L 45.25249 37.162059 
L 45.183128 37.276201 
L 45.297513 37.186519 
L 45.298122 37.194672 
L 45.381477 36.950082 
L 45.390603 36.950082 
L 45.393037 36.966389 
L 45.516549 36.550589 
L 45.660747 33.705212 
L 45.674133 16.151928 
L 45.768439 37.365882 
L 45.944276 39.135071 
L 45.944885 39.118765 
L 45.959487 39.208448 
L 46.093342 40.129729 
L 46.101251 40.219412 
L 46.247275 41.629871 
L 46.434672 42.665294 
L 46.43528 42.648988 
L 46.530804 43.048482 
L 46.531412 43.048482 
L 46.563051 43.130012 
L 46.678044 43.521355 
L 46.680478 43.488743 
L 46.728544 43.594731 
L 46.729761 43.586576 
L 46.859965 43.871929 
L 46.863008 43.847471 
L 46.965224 44.026837 
L 46.965833 43.994226 
L 47.085085 44.157284 
L 46.967049 43.986071 
L 47.087519 44.132826 
L 47.175133 44.222506 
L 47.288301 44.336647 
L 47.485433 44.434482 
L 47.537758 44.393718 
L 47.597993 44.475247 
L 47.59921 44.442635 
L 47.679523 44.53232 
L 47.706294 44.516012 
L 48.411466 44.613849 
L 48.510032 44.638308 
L 48.427893 44.58939 
L 48.522809 44.622 
L 49.137933 44.703529 
L 49.144017 44.679071 
L 49.249276 44.736141 
L 49.358793 44.695378 
L 49.274221 44.744294 
L 49.361227 44.711682 
L 51.541237 44.622 
L 51.624592 44.581235 
L 51.549147 44.638308 
L 51.651972 44.613849 
L 53.429808 44.711682 
L 53.430417 44.72799 
L 53.476049 44.654612 
L 53.516206 44.711682 
" clip-path="url(#p454b92b214)" style="fill: none; stroke: #000000; stroke-width: 0.5; stroke-linecap: square"/>
   </g>
  </g>
  <g id="axes_2">
   <g id="patch_3">
    <path d="M 65.426087 51.552 
L 113.947826 51.552 
L 113.947826 7.2 
L 65.426087 7.2 
z
" style="fill: #ffffff"/>
   </g>
   <g id="matplotlib.axis_3"/>
   <g id="matplotlib.axis_4"/>
   <g id="line2d_2">
    <path d="M 67.631621 42.950649 
L 67.680295 42.909882 
L 67.727753 42.975106 
L 67.742964 42.942494 
L 67.744789 42.9588 
L 67.839096 42.860965 
L 67.850047 42.893576 
L 67.859782 42.918035 
L 67.970517 42.763129 
L 68.07395 42.8202 
L 67.988161 42.746824 
L 68.082468 42.803894 
L 68.097679 42.779435 
L 68.171908 42.836506 
L 68.192594 42.803894 
L 68.239444 42.844661 
L 68.275949 42.771282 
L 68.303937 42.8202 
L 68.407371 42.754976 
L 68.308805 42.828353 
L 68.415889 42.779435 
L 68.416497 42.795741 
L 68.482208 42.722365 
L 68.526015 42.754976 
L 69.170344 42.836506 
L 69.172777 42.8202 
L 69.281687 42.86912 
L 71.923496 42.771282 
L 71.924104 42.754976 
L 71.995899 42.8202 
L 72.034231 42.771282 
L 72.14314 42.812047 
L 72.05005 42.746824 
L 72.146182 42.795741 
L 72.252657 42.852812 
L 72.151658 42.787588 
L 72.260567 42.844661 
L 72.294031 42.860965 
L 72.373127 42.803894 
L 72.447356 42.852812 
L 72.384079 42.795741 
L 72.485687 42.8202 
L 73.800507 42.918035 
L 73.831537 42.934341 
L 73.887513 42.290259 
L 73.888121 42.290259 
L 74.236752 39.110613 
L 74.248921 39.012776 
L 74.394945 38.042577 
L 74.395553 38.058882 
L 74.39677 38.067036 
L 74.639534 33.860118 
L 74.651703 19.59247 
L 74.738708 38.588825 
L 74.746618 38.539907 
L 74.74966 38.556212 
L 74.839708 38.319777 
L 74.841533 38.319777 
L 74.903593 38.221941 
L 75.017978 38.026272 
L 75.019195 38.034424 
L 75.019804 38.058882 
L 75.111677 37.797989 
L 75.123845 37.797989 
L 75.274736 37.259894 
L 75.27717 37.268047 
L 75.362351 36.950082 
L 75.362959 36.950082 
L 75.383037 36.844094 
L 75.52176 36.077718 
L 75.522977 36.11033 
L 75.601464 34.822166 
L 75.6185 19.127752 
L 75.695163 37.577859 
L 75.831451 38.254554 
L 75.949487 38.368694 
L 75.834493 38.2464 
L 75.950095 38.360542 
L 76.055354 38.254554 
L 75.953138 38.376848 
L 76.066914 38.287165 
L 76.125932 38.197482 
L 76.242751 37.9692 
L 76.248227 37.993659 
L 76.337666 37.749072 
L 76.338883 37.781682 
L 76.46422 37.390341 
L 76.512286 37.284353 
L 76.641274 36.778872 
L 76.641882 36.811482 
L 76.741665 36.281541 
L 76.742882 36.297848 
L 76.744098 36.314154 
L 76.814676 34.267765 
L 76.829279 19.1196 
L 76.921152 37.471871 
L 76.92176 37.471871 
L 76.936971 37.577859 
L 77.06535 38.075188 
L 77.065959 38.058882 
L 77.135928 38.148566 
L 77.238145 38.311625 
L 77.13897 38.13226 
L 77.250313 38.279013 
L 77.253356 38.2464 
L 77.345229 38.352389 
L 77.359223 38.303471 
L 77.390253 38.336083 
L 77.462048 38.197482 
L 77.463264 38.213789 
L 77.580083 38.009965 
L 77.464481 38.221941 
L 77.5813 38.018118 
L 77.581909 38.042577 
L 77.684125 37.797989 
L 77.686559 37.797989 
L 77.819197 37.480025 
L 77.690209 37.814295 
L 77.820414 37.496329 
L 77.821022 37.504483 
L 77.903769 37.227282 
L 77.912895 37.259894 
L 78.032148 36.933776 
L 78.206768 35.996188 
L 78.212244 36.012494 
L 78.231105 35.914659 
L 78.303508 26.351259 
L 78.313852 19.135905 
L 78.405725 37.186519 
L 78.40755 37.186519 
L 78.408767 37.178365 
L 78.589471 38.13226 
L 78.630844 38.230095 
L 78.744013 38.385 
L 78.638754 38.221941 
L 78.747055 38.368694 
L 78.777476 38.417613 
L 78.855964 38.336083 
L 78.857789 38.360542 
L 78.973391 38.262706 
L 78.976433 38.27086 
L 79.091427 38.058882 
L 79.104812 38.075188 
L 79.1833 37.920283 
L 79.193643 37.961048 
L 79.308029 37.732766 
L 79.308637 37.749072 
L 79.425456 37.488177 
L 79.42789 37.512635 
L 79.524022 37.170213 
L 79.52463 37.178365 
L 79.525847 37.186519 
L 79.649359 36.787024 
L 79.649967 36.803329 
L 79.746708 36.420142 
L 79.779563 36.330459 
L 79.907334 35.661918 
L 79.907942 35.678224 
L 79.95905 34.145471 
L 79.974869 19.241894 
L 80.063092 37.325118 
L 80.0637 37.325118 
L 80.194513 38.115953 
L 80.217025 38.221941 
L 80.336886 38.499142 
L 80.337495 38.490988 
L 80.338103 38.46653 
L 80.442753 38.556212 
L 80.448229 38.490988 
L 80.481693 38.564366 
L 80.557747 38.46653 
L 80.559572 38.490988 
L 80.65753 38.360542 
L 80.568699 38.507295 
L 80.679433 38.376848 
L 80.74271 38.295319 
L 80.854053 38.091495 
L 80.856487 38.115953 
L 80.974522 37.871365 
L 80.976348 37.879519 
L 81.042667 37.77353 
L 81.056052 37.789836 
L 81.168004 37.561554 
L 81.168612 37.586013 
L 81.274479 37.4148 
L 81.275087 37.422954 
L 81.278738 37.447412 
L 81.404683 37.178365 
L 81.408942 37.202824 
L 81.502641 36.835942 
L 81.638321 36.460907 
L 81.503858 36.844094 
L 81.640755 36.469059 
L 81.641363 36.493518 
L 81.744188 36.159247 
L 81.745405 36.175554 
L 81.819634 35.727141 
L 81.822676 35.727141 
L 81.884736 31.495765 
L 81.897513 19.168517 
L 81.99182 37.210977 
L 82.178608 38.230095 
L 82.180433 38.205636 
L 82.276566 38.499142 
L 82.280216 38.482836 
L 82.334975 38.572518 
L 82.342885 38.613282 
L 82.439017 38.482836 
L 82.444493 38.507295 
L 82.456053 38.515447 
L 82.558878 38.376848 
L 82.564354 38.409459 
L 82.661094 38.27086 
L 82.663528 38.287165 
L 82.664745 38.295319 
L 82.780955 38.107801 
L 82.847274 38.001813 
L 82.849708 38.009965 
L 82.982346 37.675695 
L 82.985997 37.700153 
L 83.08152 37.480025 
L 83.085779 37.480025 
L 83.149665 37.374036 
L 83.2677 37.039765 
L 83.152098 37.382189 
L 83.268309 37.047919 
L 83.277435 37.072376 
L 83.364441 36.835942 
L 83.371742 36.852247 
L 83.376001 36.860401 
L 83.503772 36.566895 
L 83.517766 36.591354 
L 83.589561 36.395682 
L 83.603555 36.411988 
L 83.638235 36.322307 
L 83.759313 35.77606 
L 83.639452 36.330459 
L 83.761747 35.784212 
L 83.762355 35.816825 
L 83.860921 35.156436 
L 83.886475 33.460624 
L 83.901686 19.388647 
L 83.992951 36.909318 
L 84.188866 38.148566 
L 84.195558 38.140412 
L 84.196167 38.13226 
L 84.281347 38.417613 
L 84.286215 38.409459 
L 84.403642 38.572518 
L 84.289865 38.393154 
L 84.407901 38.556212 
L 84.484563 38.54806 
L 84.513768 38.613282 
L 84.516202 38.588825 
L 84.524111 38.60513 
L 84.611117 38.474682 
L 84.62146 38.523601 
L 84.738279 38.368694 
L 84.861791 38.181176 
L 84.749231 38.376848 
L 84.862399 38.197482 
L 84.965224 38.091495 
L 85.084477 37.797989 
L 85.085694 37.822447 
L 85.091778 37.838754 
L 85.181826 37.659388 
L 85.191561 37.692001 
L 85.19582 37.708307 
L 85.304729 37.537094 
L 85.422156 37.325118 
L 85.423373 37.333272 
L 85.487258 37.259894 
L 85.601644 36.982695 
L 85.613812 37.015306 
L 85.700209 36.697341 
L 85.705685 36.705494 
L 85.819462 36.387529 
L 85.708727 36.7218 
L 85.827372 36.411988 
L 85.829805 36.428294 
L 85.927763 36.200012 
L 85.930805 36.208165 
L 85.969745 36.102176 
L 85.972787 36.118482 
L 86.155316 32.139847 
L 86.16931 19.527247 
L 86.261183 36.787024 
L 86.2624 36.778872 
L 86.484478 38.262706 
L 86.525851 38.368694 
L 86.643278 38.613282 
L 86.653622 38.596976 
L 86.661531 38.564366 
L 86.713248 38.637741 
L 86.764356 38.588825 
L 86.808163 38.629589 
L 86.856229 38.539907 
L 86.873874 38.54806 
L 86.985217 38.442072 
L 86.881783 38.564366 
L 86.98765 38.46653 
L 87.050319 38.360542 
L 87.172005 38.164872 
L 87.174439 38.18933 
L 87.181132 38.205636 
L 87.277264 38.042577 
L 87.280914 38.075188 
L 87.397733 37.871365 
L 87.398342 37.887671 
L 87.399558 37.903977 
L 87.501775 37.683847 
L 87.502383 37.700153 
L 87.502992 37.708307 
L 87.596082 37.480025 
L 87.597299 37.496329 
L 87.713509 37.243588 
L 87.714118 37.268047 
L 87.853448 36.852247 
L 87.723852 37.276201 
L 87.855274 36.868553 
L 87.886304 36.770719 
L 88.004339 36.436447 
L 88.008598 36.460907 
L 88.029285 36.363072 
L 88.168007 35.621153 
L 88.168616 35.629307 
L 88.21364 34.748788 
L 88.224592 24.973412 
L 88.233718 19.290811 
L 88.326808 37.121294 
L 88.335326 37.219129 
L 88.46553 37.993659 
L 88.466139 37.9692 
L 88.565313 38.376848 
L 88.567138 38.368694 
L 88.569572 38.344235 
L 88.663879 38.564366 
L 88.756969 38.6622 
L 88.86527 38.68666 
L 88.824505 38.629589 
L 88.867095 38.654048 
L 88.979655 38.580672 
L 88.980263 38.588825 
L 89.060576 38.490988 
L 89.064227 38.499142 
L 89.176787 38.336083 
L 89.19504 38.376848 
L 89.280829 38.205636 
L 89.283262 38.221941 
L 89.296039 38.238247 
L 89.407382 38.042577 
L 89.420159 38.075188 
L 89.494996 37.863212 
L 89.50534 37.871365 
L 89.620942 37.643082 
L 89.62155 37.651236 
L 89.671442 37.5534 
L 89.790694 37.30066 
L 89.791303 37.308812 
L 89.798604 37.316966 
L 89.884393 37.088683 
L 89.886826 37.113142 
L 90.003645 36.909318 
L 89.889868 37.121294 
L 90.004862 36.925625 
L 90.111946 36.819636 
L 90.244584 36.534282 
L 90.26953 36.436447 
L 90.394867 36.036953 
L 90.413728 36.069566 
L 90.484914 35.77606 
L 90.48674 35.77606 
L 90.511077 35.686376 
L 90.629721 35.27873 
L 90.639456 35.205353 
L 90.698474 21.777458 
L 90.704558 19.486482 
L 90.789739 36.795177 
L 90.790347 36.787024 
L 91.019117 38.360542 
L 91.048322 38.46653 
L 91.158448 38.702965 
L 91.052581 38.458377 
L 91.167574 38.68666 
L 91.1694 38.6622 
L 91.28561 38.792648 
L 91.359839 38.743729 
L 91.303863 38.8008 
L 91.397562 38.768189 
L 91.434676 38.784494 
L 91.499778 38.694813 
L 91.504645 38.727425 
L 91.618422 38.572518 
L 91.620856 38.580672 
L 91.696301 38.482836 
L 91.699952 38.490988 
L 91.813729 38.311625 
L 91.907427 38.205636 
L 91.909252 38.221941 
L 92.037023 37.961048 
L 92.133155 37.85506 
L 92.260926 37.602318 
L 92.262143 37.618624 
L 92.312034 37.520789 
L 92.43007 37.276201 
L 92.314468 37.528942 
L 92.431895 37.284353 
L 92.505515 37.178365 
L 92.507341 37.194672 
L 92.633894 36.94193 
L 92.636936 36.966389 
L 92.736111 36.787024 
L 92.739153 36.795177 
L 92.857189 36.575047 
L 92.741587 36.819636 
L 92.863273 36.615812 
L 92.865707 36.640271 
L 92.945411 36.330459 
L 92.953321 36.354919 
L 93.065881 36.183706 
L 92.960014 36.371224 
L 93.066489 36.216319 
L 93.222247 29.954859 
L 93.234416 19.413105 
L 93.328115 36.999 
L 93.328723 36.990847 
L 93.343934 37.096835 
L 93.486915 38.018118 
L 93.48874 38.001813 
L 93.489349 37.993659 
L 93.572096 38.368694 
L 93.574529 38.327929 
L 93.689523 38.596976 
L 93.690131 38.588825 
L 93.712643 38.564366 
L 93.805733 38.654048 
L 93.822161 38.68666 
L 93.916468 38.637741 
L 93.924986 38.6622 
L 93.988263 38.580672 
L 94.025377 38.588825 
L 94.140371 38.425765 
L 94.235286 38.327929 
L 94.349671 38.164872 
L 94.23772 38.336083 
L 94.350888 38.173025 
L 94.351496 38.197482 
L 94.446412 38.009965 
L 94.457972 38.026272 
L 94.535851 37.936589 
L 94.651453 37.724612 
L 94.673356 37.749072 
L 94.7342 37.675695 
L 94.761579 37.708307 
L 94.871097 37.545248 
L 94.877181 37.569707 
L 94.898476 37.618624 
L 94.979398 37.520789 
L 94.985482 37.545248 
L 95.094391 37.374036 
L 95.007994 37.569707 
L 95.101692 37.406647 
L 95.231897 37.121294 
L 95.232505 37.1376 
L 95.233113 37.153907 
L 95.332896 36.860401 
L 95.373661 36.754413 
L 95.511775 36.346765 
L 95.375486 36.770719 
L 95.514817 36.354919 
L 95.519685 36.379377 
L 95.592696 36.224471 
L 95.619467 36.265235 
L 95.752105 35.686376 
L 95.756973 35.702682 
L 95.813557 35.025989 
L 95.84337 29.539059 
L 95.85493 19.421259 
L 95.94802 37.047919 
L 95.949237 37.047919 
L 95.963231 37.1376 
L 96.094652 37.977354 
L 96.095261 37.9692 
L 96.179833 38.303471 
L 96.181658 38.303471 
L 96.299694 38.556212 
L 96.301519 38.54806 
L 96.311254 38.523601 
L 96.400085 38.637741 
L 96.406169 38.629589 
L 96.427464 38.60513 
L 96.518121 38.68666 
L 96.613644 38.613282 
L 96.630072 38.637741 
L 96.644066 38.68666 
L 96.734722 38.54806 
L 96.735331 38.556212 
L 96.841806 38.442072 
L 96.736548 38.564366 
L 96.849107 38.46653 
L 96.855192 38.482836 
L 96.948282 38.352389 
L 96.956191 38.368694 
L 97.072402 38.156718 
L 97.074227 38.173025 
L 97.076052 38.181176 
L 97.167925 38.001813 
L 97.172793 38.009965 
L 97.29022 37.806141 
L 97.290829 37.814295 
L 97.351672 37.724612 
L 97.440503 37.610472 
L 97.464232 37.659388 
L 97.581659 37.480025 
L 97.587743 37.496329 
L 97.668665 37.398495 
L 97.783658 37.153907 
L 97.787917 37.170213 
L 97.859712 37.072376 
L 97.974097 36.893012 
L 97.974706 36.909318 
L 97.989308 36.950082 
L 98.068404 36.762565 
L 98.076314 36.787024 
L 98.080573 36.811482 
L 98.211994 36.452753 
L 98.212602 36.469059 
L 98.312385 36.167401 
L 98.386005 36.069566 
L 98.5083 35.702682 
L 98.4073 36.118482 
L 98.510125 35.710836 
L 98.556974 35.629307 
L 98.679269 35.009683 
L 98.679878 35.025989 
L 98.708474 33.110047 
L 98.723685 19.706611 
L 98.813733 36.60766 
L 98.814949 36.60766 
L 99.058322 38.385 
L 99.05893 38.376848 
L 99.147153 38.645895 
L 99.149587 38.637741 
L 99.261538 38.808954 
L 99.263972 38.792648 
L 99.327249 38.760035 
L 99.352803 38.833413 
L 99.374098 38.792648 
L 99.394176 38.833413 
L 99.436766 38.735577 
L 99.483616 38.760035 
L 99.598609 38.6622 
L 99.509778 38.776342 
L 99.601043 38.678506 
L 99.655193 38.68666 
L 99.702042 38.580672 
L 99.704476 38.588825 
L 99.81947 38.442072 
L 99.706301 38.60513 
L 99.820078 38.450224 
L 99.821295 38.46653 
L 99.919861 38.254554 
L 99.92412 38.262706 
L 100.045198 38.075188 
L 99.93203 38.279013 
L 100.047632 38.083342 
L 100.04824 38.115953 
L 100.142547 37.952894 
L 100.156541 37.993659 
L 100.267275 37.85506 
L 100.174794 38.009965 
L 100.272143 37.863212 
L 100.285528 37.895825 
L 100.374968 37.708307 
L 100.377401 37.732766 
L 100.495437 37.537094 
L 100.511256 37.5534 
L 100.588527 37.406647 
L 100.602521 37.447412 
L 100.705346 37.349576 
L 100.621382 37.471871 
L 100.715081 37.382189 
L 100.715689 37.406647 
L 100.820948 37.186519 
L 100.938984 37.039765 
L 100.830074 37.243588 
L 100.942026 37.056071 
L 101.115429 36.958236 
L 101.216428 36.860401 
L 101.22738 36.884859 
L 101.347241 36.795177 
L 101.449458 36.623965 
L 101.374012 36.811482 
L 101.461626 36.648425 
L 101.507867 36.689189 
L 101.567493 36.5832 
L 101.568102 36.5832 
L 101.572361 36.550589 
L 101.658758 36.640271 
L 101.678836 36.599506 
L 101.798697 36.338613 
L 101.800523 36.371224 
L 101.87536 36.045107 
L 101.904564 36.085872 
L 102.020166 35.727141 
L 102.039636 35.743447 
L 102.143069 35.77606 
L 102.082835 35.69453 
L 102.150979 35.751601 
L 102.261714 35.645612 
L 102.225208 35.759754 
L 102.264756 35.661918 
L 102.379749 35.735295 
L 102.335942 35.564082 
L 102.380358 35.718988 
L 102.438767 35.824976 
L 102.440592 35.808671 
L 102.56958 36.102176 
L 102.584182 36.085872 
L 102.666929 36.330459 
L 102.672405 36.322307 
L 102.760019 36.550589 
L 102.796525 36.509825 
L 102.814169 36.460907 
L 102.899958 36.599506 
L 102.904217 36.599506 
L 102.908476 36.575047 
L 103.002175 36.729954 
L 103.007651 36.705494 
L 103.074578 36.770719 
L 103.059976 36.697341 
L 103.118994 36.738107 
L 103.146981 36.689189 
L 103.211475 36.884859 
L 103.224861 36.868553 
L 103.243722 36.901166 
L 103.319776 36.754413 
L 103.330728 36.795177 
L 103.334378 36.803329 
L 103.445113 36.697341 
L 103.643461 36.795177 
L 103.645287 36.787024 
L 103.758455 36.917472 
L 103.770624 36.876707 
L 103.86128 36.982695 
L 103.866147 36.950082 
L 103.953153 37.072376 
L 103.979924 37.039765 
L 103.998785 37.015306 
L 104.081532 37.145754 
L 104.087008 37.104989 
L 104.114387 37.088683 
L 104.198959 37.153907 
L 104.26467 37.047919 
L 104.266495 37.039765 
L 104.313953 37.85506 
L 104.471537 39.730235 
L 104.683271 41.083624 
L 104.683879 41.075471 
L 104.762975 41.491271 
L 104.765409 41.466812 
L 104.913258 41.955988 
L 104.9163 41.947835 
L 105.003914 42.225035 
L 105.004523 42.225035 
L 105.044679 42.322871 
L 105.162715 42.600071 
L 105.163323 42.567459 
L 105.260672 42.754976 
L 105.270407 42.746824 
L 105.388443 42.860965 
L 105.281967 42.730518 
L 105.389051 42.844661 
L 105.398786 42.836506 
L 105.488226 42.966953 
L 105.49431 42.926188 
L 105.61052 43.056637 
L 105.49796 42.918035 
L 105.613562 43.032178 
L 105.622081 43.015871 
L 105.690833 43.113706 
L 105.718821 43.105553 
L 105.722472 43.089247 
L 105.83564 43.211541 
L 105.841724 43.162624 
L 105.917778 43.227847 
L 105.946374 43.211541 
L 106.260934 43.301226 
L 106.261542 43.325684 
L 106.327253 43.252308 
L 106.371668 43.293071 
L 107.27093 43.399059 
L 107.28249 43.423518 
L 107.317171 43.341988 
L 107.381664 43.390906 
L 107.390791 43.341988 
L 107.481447 43.415365 
L 107.492399 43.382755 
L 108.655111 43.488743 
L 108.701352 43.513202 
L 108.668497 43.447976 
L 108.764629 43.464284 
L 111.609046 43.366447 
L 111.679016 43.350141 
L 111.703353 43.407214 
L 111.719172 43.3746 
L 111.7356 43.415365 
L 111.72404 43.358296 
L 111.742292 43.382755 
" clip-path="url(#pd4b656ff9a)" style="fill: none; stroke: #000000; stroke-width: 0.5; stroke-linecap: square"/>
   </g>
  </g>
  <g id="axes_3">
   <g id="patch_4">
    <path d="M 123.652174 51.552 
L 172.173913 51.552 
L 172.173913 7.2 
L 123.652174 7.2 
z
" style="fill: #ffffff"/>
   </g>
   <g id="matplotlib.axis_5"/>
   <g id="matplotlib.axis_6"/>
   <g id="line2d_3">
    <path d="M 125.857708 42.624529 
L 125.858924 42.648988 
L 125.899081 42.591918 
L 125.967834 42.600071 
L 126.059707 42.551153 
L 125.972093 42.616376 
L 126.080393 42.583765 
L 129.326984 42.6816 
L 129.327592 42.697906 
L 129.341586 42.648988 
L 129.43711 42.673447 
L 129.531417 42.616376 
L 129.440152 42.6816 
L 129.550886 42.640835 
L 129.581308 42.673447 
L 129.619639 42.608224 
L 129.661013 42.624529 
L 129.765054 42.591918 
L 129.668922 42.648988 
L 129.771139 42.624529 
L 129.813729 42.640835 
L 129.774181 42.591918 
L 129.881265 42.624529 
L 129.889174 42.583765 
L 129.966445 42.665294 
L 129.990782 42.648988 
L 130.054059 42.657141 
L 130.094216 42.583765 
L 130.097866 42.600071 
L 130.158101 42.559306 
L 130.11186 42.624529 
L 130.209209 42.600071 
L 131.167489 42.697906 
L 131.168097 42.714212 
L 131.232591 42.648988 
L 131.277615 42.697906 
L 131.287958 42.657141 
L 131.361578 42.738671 
L 131.388349 42.714212 
L 131.48509 42.689753 
L 131.49665 42.738671 
L 131.499084 42.722365 
L 132.096564 42.640835 
L 132.227985 40.716741 
L 132.468924 36.363072 
L 132.479267 16.844928 
L 132.577833 39.999282 
L 132.582092 39.974824 
L 132.627116 40.162341 
L 132.686134 40.072659 
L 132.821205 39.722082 
L 132.823031 39.730235 
L 132.849802 39.624247 
L 133.004952 39.029082 
L 133.00556 39.037235 
L 133.081006 38.596976 
L 133.084048 38.596976 
L 133.23433 32.571953 
L 133.243457 17.073211 
L 133.342631 38.833413 
L 133.349932 38.939401 
L 133.478311 39.526413 
L 133.481962 39.501954 
L 133.618859 39.412272 
L 133.725943 39.069848 
L 133.62251 39.420425 
L 133.737503 39.10246 
L 133.741154 39.118765 
L 133.910298 38.27086 
L 133.910906 38.279013 
L 133.971749 37.610472 
L 133.972358 37.610472 
L 133.991828 34.879236 
L 134.003388 17.171046 
L 134.100737 38.352389 
L 134.2352 39.37966 
L 134.237025 39.371507 
L 134.411037 39.289977 
L 134.52603 38.955707 
L 134.527856 38.980166 
L 134.530898 38.988318 
L 134.612428 38.654048 
L 134.614253 38.670354 
L 134.740198 37.85506 
L 134.792523 36.069566 
L 134.8053 17.244424 
L 134.901433 38.018118 
L 135.043197 39.249213 
L 135.043806 39.224754 
L 135.147847 39.355201 
L 135.152106 39.330742 
L 135.223293 39.232907 
L 135.340112 38.972012 
L 135.34072 38.980166 
L 135.342545 38.988318 
L 135.467882 38.54806 
L 135.48431 38.482836 
L 135.609038 37.374036 
L 135.63155 34.602035 
L 135.643111 17.374871 
L 135.739851 37.765376 
L 135.74046 37.765376 
L 135.885875 39.159529 
L 135.890742 39.151377 
L 135.970447 39.338895 
L 135.985049 39.322588 
L 136.018513 39.371507 
L 136.086049 39.273672 
L 136.093958 39.29813 
L 136.211386 39.053541 
L 136.213819 39.061695 
L 136.249717 38.972012 
L 136.370186 38.507295 
L 136.372011 38.515447 
L 136.4073 38.409459 
L 136.595914 35.123824 
L 136.608083 17.423787 
L 136.704823 37.708307 
L 136.709691 37.806141 
L 136.853281 39.143225 
L 136.853889 39.135071 
L 136.892829 39.241059 
L 136.990178 39.395966 
L 137.013298 39.371507 
L 137.130725 39.265518 
L 137.019991 39.387812 
L 137.131334 39.281824 
L 137.133159 39.289977 
L 137.226858 39.078 
L 137.227466 39.078 
L 137.237201 39.086154 
L 137.349761 38.768189 
L 137.371664 38.678506 
L 137.498218 38.034424 
L 137.500652 38.042577 
L 137.568188 37.520789 
L 137.569405 37.520789 
L 137.610169 32.645329 
L 137.621121 17.497165 
L 137.71847 37.732766 
L 137.864494 39.167683 
L 137.872403 39.143225 
L 137.946024 39.306282 
L 137.970361 39.289977 
L 137.974011 39.29813 
L 138.069535 39.183989 
L 138.074403 39.200294 
L 138.191222 38.996472 
L 138.192438 39.012776 
L 138.194264 39.02093 
L 138.288571 38.808954 
L 138.340896 38.719271 
L 138.465624 38.124107 
L 138.466233 38.140412 
L 138.590353 35.025989 
L 138.60313 17.4564 
L 138.699262 37.447412 
L 138.69987 37.43926 
L 138.745503 38.311625 
L 138.746111 38.311625 
L 138.879966 39.224754 
L 138.880574 39.200294 
L 138.959062 39.314436 
L 138.989484 39.281824 
L 139.004086 39.314436 
L 139.075881 39.200294 
L 139.095351 39.208448 
L 139.217037 38.996472 
L 139.098393 39.224754 
L 139.221296 39.012776 
L 139.25841 38.914942 
L 139.263886 38.931247 
L 139.38253 38.54806 
L 139.384356 38.556212 
L 139.461626 38.156718 
L 139.463452 38.164872 
L 139.591222 26.669224 
L 139.59974 17.586846 
L 139.697698 37.422954 
L 139.837029 38.980166 
L 139.837637 38.972012 
L 139.961757 39.289977 
L 139.970275 39.265518 
L 140.088311 39.167683 
L 140.10413 39.200294 
L 140.186877 39.029082 
L 140.188702 39.037235 
L 140.304912 38.760035 
L 140.306129 38.768189 
L 140.349328 38.6622 
L 140.490484 38.238247 
L 140.362713 38.678506 
L 140.491701 38.2464 
L 140.509954 38.148566 
L 140.645634 32.302906 
L 140.657194 17.619459 
L 140.753935 37.520789 
L 140.759411 37.626777 
L 140.906651 39.10246 
L 140.912127 39.086154 
L 141.000958 39.281824 
L 141.005217 39.249213 
L 141.091614 39.355201 
L 141.117777 39.330742 
L 141.235204 39.183989 
L 141.131162 39.363353 
L 141.238855 39.200294 
L 141.299698 39.10246 
L 141.419559 38.866024 
L 141.421384 38.88233 
L 141.51204 38.613282 
L 141.567408 38.507295 
L 141.732901 37.757225 
L 141.733509 37.781682 
L 141.810172 36.501672 
L 141.825383 17.57054 
L 141.916647 37.455565 
L 142.096135 39.29813 
L 142.101002 39.281824 
L 142.164279 39.428576 
L 142.205044 39.347047 
L 142.218429 39.387812 
L 142.313345 39.281824 
L 142.313953 39.29813 
L 142.434422 39.135071 
L 142.355326 39.306282 
L 142.435639 39.159529 
L 142.473362 39.053541 
L 142.592006 38.792648 
L 142.484314 39.061695 
L 142.592615 38.808954 
L 142.600524 38.825259 
L 142.69544 38.588825 
L 142.697873 38.596976 
L 142.781228 38.303471 
L 142.784879 38.303471 
L 142.926035 31.960482 
L 142.936987 17.611305 
L 143.033119 37.651236 
L 143.034336 37.651236 
L 143.170016 39.012776 
L 143.170625 39.004625 
L 143.278925 39.232907 
L 143.174884 38.996472 
L 143.28866 39.208448 
L 143.290486 39.183989 
L 143.322124 39.265518 
L 143.398178 39.249213 
L 143.448678 39.151377 
L 143.563063 39.012776 
L 143.450503 39.159529 
L 143.563671 39.037235 
L 143.56428 39.045389 
L 143.662237 38.890482 
L 143.665279 38.906788 
L 143.80096 38.564366 
L 143.676231 38.914942 
L 143.801568 38.572518 
L 143.804002 38.596976 
L 143.88614 38.327929 
L 143.895266 38.344235 
L 144.021212 37.920283 
L 144.02182 37.928435 
L 144.046157 37.8306 
L 144.152024 27.337765 
L 144.161151 17.733599 
L 144.2585 37.602318 
L 144.497614 39.330742 
L 144.498222 39.322588 
L 144.49883 39.314436 
L 144.573667 39.477495 
L 144.602264 39.420425 
L 144.709348 39.330742 
L 144.825558 39.10246 
L 144.826166 39.118765 
L 144.922299 38.906788 
L 144.928991 38.914942 
L 145.04216 38.670354 
L 144.937509 38.923095 
L 145.048852 38.678506 
L 145.056154 38.711119 
L 145.139509 38.417613 
L 145.141334 38.425765 
L 145.162629 38.319777 
L 145.302568 37.545248 
L 145.303177 37.5534 
L 145.349418 36.7218 
L 145.359152 27.264388 
L 145.368279 17.668375 
L 145.465628 37.667542 
L 145.637206 39.29813 
L 145.639639 39.289977 
L 145.722386 39.395966 
L 145.741856 39.371507 
L 145.7595 39.412272 
L 145.849548 39.306282 
L 145.851982 39.338895 
L 145.954807 39.241059 
L 146.067975 39.029082 
L 146.070409 39.045389 
L 146.133077 38.939401 
L 146.134903 38.955707 
L 146.254155 38.654048 
L 146.264498 38.68666 
L 146.353329 38.417613 
L 146.360022 38.450224 
L 146.479275 37.944742 
L 146.479883 37.952894 
L 146.498745 37.85506 
L 146.643551 31.389776 
L 146.654503 17.749906 
L 146.751244 37.71646 
L 146.917954 39.2166 
L 146.990966 39.314436 
L 147.088923 39.37966 
L 146.994008 39.306282 
L 147.102309 39.355201 
L 147.138814 39.37966 
L 147.214868 39.289977 
L 147.216694 39.29813 
L 147.337772 39.118765 
L 147.33838 39.135071 
L 147.437554 38.890482 
L 147.440596 38.898636 
L 147.491096 38.8008 
L 147.614608 38.409459 
L 147.616433 38.417613 
L 147.621909 38.425765 
L 147.706481 38.156718 
L 147.708306 38.164872 
L 147.71865 38.173025 
L 147.858589 34.699871 
L 147.871366 17.611305 
L 147.96689 37.700153 
L 147.967498 37.692001 
L 148.118998 39.330742 
L 148.119606 39.322588 
L 148.212696 39.550871 
L 148.213913 39.550871 
L 148.32769 39.673165 
L 148.330732 39.648706 
L 148.426255 39.567176 
L 148.352027 39.656859 
L 148.442683 39.599788 
L 148.561327 39.363353 
L 148.561936 39.37966 
L 148.572279 39.420425 
L 148.659285 39.241059 
L 148.663544 39.257366 
L 148.779146 38.972012 
L 148.780971 38.980166 
L 148.783405 38.996472 
L 148.874061 38.743729 
L 148.874669 38.751883 
L 148.875886 38.768189 
L 149.000006 38.556212 
L 149.004265 38.572518 
L 149.08397 38.230095 
L 149.087012 38.230095 
L 149.292053 34.178082 
L 149.304222 17.65207 
L 149.400354 37.724612 
L 149.567673 39.232907 
L 149.570107 39.192142 
L 149.669889 39.428576 
L 149.671715 39.412272 
L 149.749594 39.469341 
L 149.67354 39.404118 
L 149.783058 39.428576 
L 149.86763 39.322588 
L 149.869455 39.330742 
L 149.994183 39.118765 
L 150.002701 39.151377 
L 150.073888 38.939401 
L 150.101876 38.980166 
L 150.216261 38.8008 
L 150.216869 38.825259 
L 150.336122 38.702965 
L 150.219911 38.833413 
L 150.33673 38.711119 
L 150.348899 38.719271 
L 150.427995 38.482836 
L 150.432254 38.499142 
L 150.564892 38.164872 
L 150.567326 38.173025 
L 150.568543 38.18933 
L 150.659199 37.724612 
L 150.661633 37.732766 
L 150.703006 37.634929 
L 150.808873 31.968635 
L 150.819825 17.741753 
L 150.917174 37.594165 
L 150.918391 37.586013 
L 150.964631 38.442072 
L 150.96524 38.442072 
L 151.141077 39.306282 
L 151.144727 39.29813 
L 151.231124 39.469341 
L 151.241468 39.444883 
L 151.253028 39.501954 
L 151.322389 39.37966 
L 151.350985 39.420425 
L 151.453202 39.371507 
L 151.371672 39.461189 
L 151.462937 39.412272 
L 151.511611 39.306282 
L 151.627822 39.10246 
L 151.517087 39.314436 
L 151.629039 39.126919 
L 151.669195 39.037235 
L 151.787231 38.760035 
L 151.788448 38.792648 
L 151.871194 38.539907 
L 151.882754 38.564366 
L 151.997748 38.319777 
L 151.887622 38.580672 
L 151.999573 38.336083 
L 152.019043 38.230095 
L 152.148639 37.675695 
L 152.150464 37.683847 
L 152.16385 37.577859 
L 152.165067 37.586013 
L 152.216175 35.865741 
L 152.230169 17.676528 
L 152.325084 37.781682 
L 152.496662 39.404118 
L 152.500921 39.387812 
L 152.592186 39.542719 
L 152.599487 39.51826 
L 152.767414 39.412272 
L 152.868413 39.289977 
L 152.810004 39.420425 
L 152.881799 39.322588 
L 152.974281 39.224754 
L 153.072238 39.053541 
L 152.976106 39.241059 
L 153.091099 39.069848 
L 153.100226 39.086154 
L 153.192707 38.96386 
L 153.198183 38.972012 
L 153.283972 38.890482 
L 153.399574 38.637741 
L 153.405658 38.654048 
L 153.492056 38.425765 
L 153.495098 38.450224 
L 153.610091 38.124107 
L 153.611308 38.13226 
L 153.611917 38.156718 
L 153.708657 37.586013 
L 153.709874 37.594165 
L 153.768284 36.901166 
L 153.779235 31.495765 
L 153.790187 17.725447 
L 153.886928 37.8306 
L 154.030518 39.159529 
L 154.031126 39.151377 
L 154.110222 39.444883 
L 154.119957 39.444883 
L 154.192969 39.485648 
L 154.183842 39.420425 
L 154.229475 39.428576 
L 154.337775 39.338895 
L 154.231908 39.461189 
L 154.345077 39.363353 
L 154.387058 39.395966 
L 154.447293 39.249213 
L 154.449118 39.265518 
L 154.58054 38.955707 
L 154.450944 39.273672 
L 154.582973 38.96386 
L 154.594533 38.972012 
L 154.638949 38.874177 
L 154.68884 38.914942 
L 154.8014 38.768189 
L 154.803225 38.776342 
L 154.856767 38.678506 
L 154.98393 38.2464 
L 154.992448 38.27086 
L 155.138471 37.659388 
L 155.13908 37.667542 
L 155.216959 37.259894 
L 155.217567 37.259894 
L 155.258941 28.112294 
L 155.268067 17.864046 
L 155.366025 37.463719 
L 155.521175 39.241059 
L 155.556464 39.322588 
L 155.654421 39.501954 
L 155.67024 39.477495 
L 155.708571 39.51826 
L 155.765156 39.428576 
L 155.779758 39.444883 
L 155.951944 39.338895 
L 156.057811 39.208448 
L 156.069371 39.257366 
L 156.072413 39.273672 
L 156.160636 39.069848 
L 156.167329 39.078 
L 156.22513 38.972012 
L 156.343774 38.841566 
L 156.226955 38.980166 
L 156.345599 38.849718 
L 156.346208 38.857872 
L 156.436864 38.588825 
L 156.437472 38.596976 
L 156.571936 38.254554 
L 156.439298 38.613282 
L 156.572544 38.27086 
L 156.573153 38.279013 
L 156.658333 37.952894 
L 156.661984 37.977354 
L 156.808616 31.919718 
L 156.819567 17.815128 
L 156.916916 37.594165 
L 157.168807 39.567176 
L 157.173674 39.550871 
L 157.17915 39.526413 
L 157.243036 39.656859 
L 157.280758 39.640553 
L 157.360463 39.713929 
L 157.300228 39.616094 
L 157.394535 39.689471 
L 157.507095 39.534565 
L 157.397577 39.705776 
L 157.510745 39.542719 
L 157.511962 39.559024 
L 157.615396 39.37966 
L 157.735257 39.151377 
L 157.617829 39.387812 
L 157.741341 39.183989 
L 157.742558 39.208448 
L 157.840515 39.078 
L 157.845383 39.086154 
L 157.967677 38.890482 
L 157.85025 39.094306 
L 157.97072 38.898636 
L 158.026087 38.792648 
L 158.167851 38.327929 
L 158.171502 38.336083 
L 158.209833 38.230095 
L 158.211658 38.238247 
L 158.425218 34.332988 
L 158.437387 17.676528 
L 158.53291 38.026272 
L 158.533519 38.026272 
L 158.670416 39.428576 
L 158.6765 39.420425 
L 158.759247 39.689471 
L 158.764114 39.665012 
L 158.873632 39.738388 
L 158.806704 39.656859 
L 158.876674 39.722082 
L 158.917439 39.779153 
L 158.988017 39.705776 
L 158.992276 39.730235 
L 159.089017 39.583482 
L 159.094493 39.591635 
L 159.165071 39.4938 
L 159.278847 39.363353 
L 159.186974 39.510106 
L 159.280673 39.371507 
L 159.406009 39.118765 
L 159.410268 39.126919 
L 159.47172 39.02093 
L 159.472937 39.029082 
L 159.612876 38.621435 
L 159.622003 38.645895 
L 159.705966 38.376848 
L 159.716918 38.385 
L 159.858682 37.814295 
L 159.860508 37.822447 
L 159.934736 37.365882 
L 159.935953 37.365882 
L 159.991929 35.417329 
L 160.004706 17.855893 
L 160.100838 37.71646 
L 160.349687 39.607941 
L 160.35212 39.591635 
L 160.667896 39.4938 
L 160.776197 39.355201 
L 160.781673 39.371507 
L 160.911269 39.273672 
L 161.031738 39.012776 
L 161.046949 39.061695 
L 161.125437 38.841566 
L 161.130304 38.866024 
L 161.208183 38.760035 
L 161.243472 38.768189 
L 161.24834 38.8008 
L 161.323785 38.613282 
L 161.345689 38.645895 
L 161.409574 38.54806 
L 161.530044 38.2464 
L 161.53126 38.254554 
L 161.576893 38.156718 
L 161.701621 37.781682 
L 161.746037 37.675695 
L 161.862856 29.873329 
L 161.872591 17.692834 
L 161.96994 37.838754 
L 161.970548 37.838754 
L 162.204186 39.4938 
L 162.204794 39.477495 
L 162.305185 39.648706 
L 162.309444 39.648706 
L 162.516919 39.559024 
L 162.517528 39.526413 
L 162.603925 40.822729 
L 162.616702 40.928718 
L 162.619136 40.920565 
L 162.759684 41.792929 
L 162.782804 41.898918 
L 162.932478 42.420706 
L 162.940388 42.396247 
L 163.015833 42.591918 
L 163.031044 42.591918 
L 163.077893 42.689753 
L 163.193495 42.893576 
L 163.195929 42.877271 
L 163.318832 43.032178 
L 163.322483 43.024024 
L 163.415573 43.154471 
L 163.422265 43.138167 
L 163.536042 43.244155 
L 163.425916 43.130012 
L 163.539084 43.219696 
L 163.548211 43.211541 
L 163.63765 43.301226 
L 163.64556 43.284918 
L 163.863987 43.382755 
L 163.946125 43.431673 
L 163.921788 43.350141 
L 163.97533 43.399059 
L 165.942389 43.488743 
L 165.942997 43.513202 
L 165.993497 43.439826 
L 166.053123 43.480588 
L 166.163858 43.447976 
L 166.067725 43.496894 
L 166.166291 43.456129 
L 166.211924 43.505047 
L 166.169333 43.447976 
L 166.278851 43.480588 
L 166.362815 43.447976 
L 166.313532 43.513202 
L 166.390803 43.472435 
L 169.205406 43.3746 
L 169.284502 43.358296 
L 169.311273 43.423518 
L 169.314924 43.407214 
L 169.968379 43.399059 
L 169.968379 43.399059 
" clip-path="url(#p94526e4b72)" style="fill: none; stroke: #000000; stroke-width: 0.5; stroke-linecap: square"/>
   </g>
  </g>
  <g id="axes_4"/>
  <g id="text_1">
   <text style="font-size: 9px; font-family: 'Arial', sans-serif" transform="translate(199.545469 24.010031)">Real</text>
   <text style="font-size: 9px; font-family: 'Arial', sans-serif" transform="translate(183.287109 33.529219)">observations</text>
  </g>
 </g>
 <defs>
  <clipPath id="p454b92b214">
   <rect x="7.2" y="7.2" width="48.521739" height="44.352"/>
  </clipPath>
  <clipPath id="pd4b656ff9a">
   <rect x="65.426087" y="7.2" width="48.521739" height="44.352"/>
  </clipPath>
  <clipPath id="p94526e4b72">
   <rect x="123.652174" y="7.2" width="48.521739" height="44.352"/>
  </clipPath>
 </defs>
</svg>
