<?xml version="1.0" encoding="utf-8" standalone="no"?>
<!DOCTYPE svg PUBLIC "-//W3C//DTD SVG 1.1//EN"
  "http://www.w3.org/Graphics/SVG/1.1/DTD/svg11.dtd">
<svg xmlns:xlink="http://www.w3.org/1999/xlink" width="269.743776pt" height="84.486375pt" viewBox="0 0 269.743776 84.486375" xmlns="http://www.w3.org/2000/svg" version="1.1">
 <metadata>
  <rdf:RDF xmlns:dc="http://purl.org/dc/elements/1.1/" xmlns:cc="http://creativecommons.org/ns#" xmlns:rdf="http://www.w3.org/1999/02/22-rdf-syntax-ns#">
   <cc:Work>
    <dc:type rdf:resource="http://purl.org/dc/dcmitype/StillImage"/>
    <dc:date>2025-10-10T14:37:20.971388</dc:date>
    <dc:format>image/svg+xml</dc:format>
    <dc:creator>
     <cc:Agent>
      <dc:title>Matplotlib v3.10.0, https://matplotlib.org/</dc:title>
     </cc:Agent>
    </dc:creator>
   </cc:Work>
  </rdf:RDF>
 </metadata>
 <defs>
  <style type="text/css">*{stroke-linejoin: round; stroke-linecap: butt}</style>
 </defs>
 <g id="figure_1">
  <g id="patch_1">
   <path d="M 0 84.486375 
L 269.743776 84.486375 
L 269.743776 0 
L 0 0 
z
" style="fill: #ffffff"/>
  </g>
  <g id="axes_1">
   <g id="patch_2">
    <path d="M 23.435625 57.824812 
L 66.377292 57.824812 
L 66.377292 22.48125 
L 23.435625 22.48125 
z
" style="fill: #ffffff"/>
   </g>
   <g id="matplotlib.axis_1">
    <g id="xtick_1">
     <g id="line2d_1">
      <defs>
       <path id="m3ad261b550" d="M 0 0 
L 0 3.5 
" style="stroke: #000000; stroke-width: 1.5"/>
      </defs>
      <g>
       <use xlink:href="#m3ad261b550" x="23.435625" y="57.824812" style="stroke: #000000; stroke-width: 1.5"/>
      </g>
     </g>
     <g id="text_1">
      <text style="font-size: 9px; font-family: 'Arial', sans-serif; text-anchor: middle" x="23.435625" y="71.266844" transform="rotate(-0 23.435625 71.266844)">0</text>
     </g>
    </g>
    <g id="xtick_2">
     <g id="line2d_2">
      <g>
       <use xlink:href="#m3ad261b550" x="66.377292" y="57.824812" style="stroke: #000000; stroke-width: 1.5"/>
      </g>
     </g>
     <g id="text_2">
      <text style="font-size: 9px; font-family: 'Arial', sans-serif; text-anchor: middle" x="66.377292" y="71.266844" transform="rotate(-0 66.377292 71.266844)">1</text>
     </g>
    </g>
    <g id="text_3">
     <!-- $\alpha$ -->
     <g transform="translate(42.296458 75.497625)">
      <text>
       <tspan x="0" y="-0.234375" style="font-size: 9px; font-family: 'Arial'">α</tspan>
      </text>
     </g>
    </g>
   </g>
   <g id="matplotlib.axis_2">
    <g id="ytick_1">
     <g id="line2d_3">
      <defs>
       <path id="m36d1773cd1" d="M 0 0 
L -3.5 0 
" style="stroke: #000000; stroke-width: 1.5"/>
      </defs>
      <g>
       <use xlink:href="#m36d1773cd1" x="23.435625" y="57.824812" style="stroke: #000000; stroke-width: 1.5"/>
      </g>
     </g>
     <g id="text_4">
      <text style="font-size: 9px; font-family: 'Arial', sans-serif; text-anchor: end" x="16.435625" y="61.045828" transform="rotate(-0 16.435625 61.045828)">0</text>
     </g>
    </g>
    <g id="ytick_2">
     <g id="line2d_4">
      <g>
       <use xlink:href="#m36d1773cd1" x="23.435625" y="22.48125" style="stroke: #000000; stroke-width: 1.5"/>
      </g>
     </g>
     <g id="text_5">
      <text style="font-size: 9px; font-family: 'Arial', sans-serif; text-anchor: end" x="16.435625" y="25.702266" transform="rotate(-0 16.435625 25.702266)">1</text>
     </g>
    </g>
    <g id="text_6">
     <text style="font-size: 9px; font-family: 'Arial', sans-serif; text-anchor: middle" x="13.642031" y="40.153031" transform="rotate(-90 13.642031 40.153031)">ECP</text>
    </g>
   </g>
   <g id="line2d_5">
    <path d="M 23.435625 57.824812 
L 24.867014 56.41107 
L 26.298403 55.704199 
L 27.729792 54.997327 
L 29.161181 53.937021 
L 30.592569 53.583585 
L 32.023958 52.169842 
L 33.455347 50.7561 
L 34.886736 48.282051 
L 36.318125 47.221744 
L 37.749514 45.454566 
L 39.180903 44.747694 
L 40.612292 44.040823 
L 42.043681 43.333952 
L 43.475069 42.980516 
L 44.906458 42.273645 
L 46.337847 41.566774 
L 47.769236 39.799596 
L 49.200625 39.799596 
L 50.632014 38.385853 
L 52.063403 37.678982 
L 53.494792 35.204932 
L 54.926181 34.498061 
L 56.357569 33.437754 
L 57.788958 32.377447 
L 59.220347 30.610269 
L 60.651736 29.903398 
L 62.083125 26.369042 
L 63.514514 24.248428 
L 64.945903 23.541557 
L 66.377292 22.48125 
" clip-path="url(#p0c15473366)" style="fill: none; stroke: #f2a900; stroke-opacity: 0.8; stroke-width: 0.7; stroke-linecap: square"/>
   </g>
   <g id="line2d_6">
    <path d="M 23.435625 57.824812 
L 24.867014 55.704199 
L 26.298403 54.997327 
L 27.729792 54.643892 
L 29.161181 54.290456 
L 30.592569 53.583585 
L 32.023958 53.230149 
L 33.455347 51.462971 
L 34.886736 50.402664 
L 36.318125 49.695793 
L 37.749514 48.988922 
L 39.180903 47.928615 
L 40.612292 46.868308 
L 42.043681 45.10113 
L 43.475069 43.687387 
L 44.906458 42.627081 
L 46.337847 40.859902 
L 47.769236 39.44616 
L 49.200625 39.44616 
L 50.632014 38.032417 
L 52.063403 37.678982 
L 53.494792 36.972111 
L 54.926181 35.911804 
L 56.357569 34.851497 
L 57.788958 33.437754 
L 59.220347 32.377447 
L 60.651736 30.963705 
L 62.083125 30.256834 
L 63.514514 28.13622 
L 64.945903 27.429349 
L 66.377292 22.48125 
" clip-path="url(#p0c15473366)" style="fill: none; stroke: #f2a900; stroke-opacity: 0.8; stroke-width: 0.7; stroke-linecap: square"/>
   </g>
   <g id="line2d_7">
    <path d="M 23.435625 57.824812 
L 24.867014 55.704199 
L 26.298403 54.997327 
L 27.729792 54.290456 
L 29.161181 52.876714 
L 30.592569 52.523278 
L 32.023958 51.816407 
L 33.455347 50.402664 
L 34.886736 48.988922 
L 36.318125 47.928615 
L 37.749514 46.868308 
L 39.180903 46.161437 
L 40.612292 44.747694 
L 42.043681 42.980516 
L 43.475069 41.566774 
L 44.906458 40.506467 
L 46.337847 39.092724 
L 47.769236 36.972111 
L 49.200625 34.851497 
L 50.632014 33.79119 
L 52.063403 32.730883 
L 53.494792 30.963705 
L 54.926181 29.903398 
L 56.357569 29.196527 
L 57.788958 27.782784 
L 59.220347 27.075913 
L 60.651736 26.722477 
L 62.083125 24.601864 
L 63.514514 23.894992 
L 64.945903 23.541557 
L 66.377292 22.48125 
" clip-path="url(#p0c15473366)" style="fill: none; stroke: #f2a900; stroke-opacity: 0.8; stroke-width: 0.7; stroke-linecap: square"/>
   </g>
   <g id="line2d_8">
    <path d="M 23.435625 57.824812 
L 24.867014 55.350763 
L 26.298403 54.643892 
L 27.729792 53.937021 
L 29.161181 53.583585 
L 30.592569 53.230149 
L 32.023958 51.816407 
L 33.455347 51.109536 
L 34.886736 51.109536 
L 36.318125 50.049229 
L 37.749514 49.695793 
L 39.180903 48.988922 
L 40.612292 48.635486 
L 42.043681 46.514872 
L 43.475069 45.808001 
L 44.906458 44.040823 
L 46.337847 40.859902 
L 47.769236 40.153031 
L 49.200625 38.032417 
L 50.632014 37.325546 
L 52.063403 36.265239 
L 53.494792 34.498061 
L 54.926181 32.377447 
L 56.357569 31.670576 
L 57.788958 30.256834 
L 59.220347 28.843091 
L 60.651736 27.075913 
L 62.083125 27.075913 
L 63.514514 24.601864 
L 64.945903 23.894992 
L 66.377292 22.48125 
" clip-path="url(#p0c15473366)" style="fill: none; stroke: #f2a900; stroke-opacity: 0.8; stroke-width: 0.7; stroke-linecap: square"/>
   </g>
   <g id="line2d_9">
    <path d="M 23.435625 57.824812 
L 24.867014 55.704199 
L 26.298403 54.997327 
L 27.729792 54.290456 
L 29.161181 53.583585 
L 30.592569 51.816407 
L 32.023958 51.462971 
L 33.455347 49.695793 
L 34.886736 48.988922 
L 36.318125 47.575179 
L 37.749514 46.161437 
L 39.180903 45.10113 
L 40.612292 44.747694 
L 42.043681 43.687387 
L 43.475069 42.980516 
L 44.906458 41.566774 
L 46.337847 40.153031 
L 47.769236 38.032417 
L 49.200625 36.972111 
L 50.632014 36.618675 
L 52.063403 35.558368 
L 53.494792 33.79119 
L 54.926181 32.024012 
L 56.357569 30.963705 
L 57.788958 29.549962 
L 59.220347 29.196527 
L 60.651736 27.429349 
L 62.083125 24.955299 
L 63.514514 24.248428 
L 64.945903 23.894992 
L 66.377292 22.48125 
" clip-path="url(#p0c15473366)" style="fill: none; stroke: #f2a900; stroke-opacity: 0.8; stroke-width: 0.7; stroke-linecap: square"/>
   </g>
   <g id="line2d_10">
    <path d="M 23.435625 57.824812 
L 24.867014 54.290456 
L 26.298403 52.876714 
L 27.729792 50.7561 
L 29.161181 48.282051 
L 30.592569 47.221744 
L 32.023958 45.454566 
L 33.455347 43.333952 
L 34.886736 40.859902 
L 36.318125 39.799596 
L 37.749514 38.032417 
L 39.180903 36.265239 
L 40.612292 35.558368 
L 42.043681 34.851497 
L 43.475069 33.437754 
L 44.906458 32.024012 
L 46.337847 30.610269 
L 47.769236 29.549962 
L 49.200625 28.489656 
L 50.632014 28.13622 
L 52.063403 27.429349 
L 53.494792 26.369042 
L 54.926181 25.308735 
L 56.357569 24.955299 
L 57.788958 24.601864 
L 59.220347 24.248428 
L 60.651736 23.541557 
L 62.083125 23.541557 
L 63.514514 23.541557 
L 64.945903 22.834686 
L 66.377292 22.48125 
" clip-path="url(#p0c15473366)" style="fill: none; stroke: #1f77b4; stroke-opacity: 0.8; stroke-width: 0.7; stroke-linecap: square"/>
   </g>
   <g id="line2d_11">
    <path d="M 23.435625 57.824812 
L 24.867014 51.462971 
L 26.298403 48.988922 
L 27.729792 47.928615 
L 29.161181 47.221744 
L 30.592569 45.454566 
L 32.023958 43.333952 
L 33.455347 41.213338 
L 34.886736 40.153031 
L 36.318125 39.092724 
L 37.749514 38.032417 
L 39.180903 36.972111 
L 40.612292 35.911804 
L 42.043681 34.498061 
L 43.475069 33.437754 
L 44.906458 32.377447 
L 46.337847 30.963705 
L 47.769236 29.903398 
L 49.200625 29.903398 
L 50.632014 28.489656 
L 52.063403 27.782784 
L 53.494792 26.722477 
L 54.926181 26.369042 
L 56.357569 25.662171 
L 57.788958 25.662171 
L 59.220347 25.662171 
L 60.651736 24.601864 
L 62.083125 24.248428 
L 63.514514 23.541557 
L 64.945903 23.188121 
L 66.377292 22.48125 
" clip-path="url(#p0c15473366)" style="fill: none; stroke: #1f77b4; stroke-opacity: 0.8; stroke-width: 0.7; stroke-linecap: square"/>
   </g>
   <g id="line2d_12">
    <path d="M 23.435625 57.824812 
L 24.867014 51.109536 
L 26.298403 48.988922 
L 27.729792 47.221744 
L 29.161181 45.454566 
L 30.592569 43.333952 
L 32.023958 42.627081 
L 33.455347 41.920209 
L 34.886736 39.799596 
L 36.318125 39.092724 
L 37.749514 37.678982 
L 39.180903 36.265239 
L 40.612292 34.851497 
L 42.043681 33.084319 
L 43.475069 32.377447 
L 44.906458 31.670576 
L 46.337847 30.963705 
L 47.769236 30.610269 
L 49.200625 29.903398 
L 50.632014 29.196527 
L 52.063403 29.196527 
L 53.494792 29.196527 
L 54.926181 27.782784 
L 56.357569 27.429349 
L 57.788958 26.722477 
L 59.220347 24.955299 
L 60.651736 24.248428 
L 62.083125 23.894992 
L 63.514514 23.541557 
L 64.945903 22.834686 
L 66.377292 22.48125 
" clip-path="url(#p0c15473366)" style="fill: none; stroke: #1f77b4; stroke-opacity: 0.8; stroke-width: 0.7; stroke-linecap: square"/>
   </g>
   <g id="line2d_13">
    <path d="M 23.435625 57.824812 
L 24.867014 55.350763 
L 26.298403 52.169842 
L 27.729792 48.988922 
L 29.161181 47.575179 
L 30.592569 44.747694 
L 32.023958 43.687387 
L 33.455347 41.566774 
L 34.886736 40.153031 
L 36.318125 39.092724 
L 37.749514 37.325546 
L 39.180903 36.618675 
L 40.612292 36.265239 
L 42.043681 34.498061 
L 43.475069 33.79119 
L 44.906458 33.084319 
L 46.337847 32.377447 
L 47.769236 31.670576 
L 49.200625 30.963705 
L 50.632014 29.903398 
L 52.063403 29.196527 
L 53.494792 28.13622 
L 54.926181 27.075913 
L 56.357569 26.369042 
L 57.788958 25.662171 
L 59.220347 24.601864 
L 60.651736 24.248428 
L 62.083125 23.894992 
L 63.514514 23.894992 
L 64.945903 22.834686 
L 66.377292 22.48125 
" clip-path="url(#p0c15473366)" style="fill: none; stroke: #1f77b4; stroke-opacity: 0.8; stroke-width: 0.7; stroke-linecap: square"/>
   </g>
   <g id="line2d_14">
    <path d="M 23.435625 57.824812 
L 24.867014 52.523278 
L 26.298403 48.282051 
L 27.729792 46.868308 
L 29.161181 44.040823 
L 30.592569 42.627081 
L 32.023958 42.273645 
L 33.455347 41.920209 
L 34.886736 40.153031 
L 36.318125 39.44616 
L 37.749514 37.678982 
L 39.180903 36.618675 
L 40.612292 35.204932 
L 42.043681 34.851497 
L 43.475069 33.084319 
L 44.906458 32.730883 
L 46.337847 32.377447 
L 47.769236 30.256834 
L 49.200625 29.549962 
L 50.632014 29.196527 
L 52.063403 28.489656 
L 53.494792 28.13622 
L 54.926181 27.075913 
L 56.357569 26.015606 
L 57.788958 25.308735 
L 59.220347 24.955299 
L 60.651736 24.955299 
L 62.083125 23.541557 
L 63.514514 23.541557 
L 64.945903 23.541557 
L 66.377292 22.48125 
" clip-path="url(#p0c15473366)" style="fill: none; stroke: #1f77b4; stroke-opacity: 0.8; stroke-width: 0.7; stroke-linecap: square"/>
   </g>
   <g id="line2d_15">
    <path d="M 23.435625 57.824812 
L 23.869379 57.467807 
L 24.303133 57.110801 
L 24.736888 56.753795 
L 25.170642 56.39679 
L 25.604396 56.039784 
L 26.03815 55.682778 
L 26.471904 55.325773 
L 26.905659 54.968767 
L 27.339413 54.611761 
L 27.773167 54.254756 
L 28.206921 53.89775 
L 28.640676 53.540744 
L 29.07443 53.183739 
L 29.508184 52.826733 
L 29.941938 52.469727 
L 30.375692 52.112722 
L 30.809447 51.755716 
L 31.243201 51.39871 
L 31.676955 51.041705 
L 32.110709 50.684699 
L 32.544463 50.327693 
L 32.978218 49.970687 
L 33.411972 49.613682 
L 33.845726 49.256676 
L 34.27948 48.89967 
L 34.713234 48.542665 
L 35.146989 48.185659 
L 35.580743 47.828653 
L 36.014497 47.471648 
L 36.448251 47.114642 
L 36.882005 46.757636 
L 37.31576 46.400631 
L 37.749514 46.043625 
L 38.183268 45.686619 
L 38.617022 45.329614 
L 39.050777 44.972608 
L 39.484531 44.615602 
L 39.918285 44.258597 
L 40.352039 43.901591 
L 40.785793 43.544585 
L 41.219548 43.18758 
L 41.653302 42.830574 
L 42.087056 42.473568 
L 42.52081 42.116562 
L 42.954564 41.759557 
L 43.388319 41.402551 
L 43.822073 41.045545 
L 44.255827 40.68854 
L 44.689581 40.331534 
L 45.123335 39.974528 
L 45.55709 39.617523 
L 45.990844 39.260517 
L 46.424598 38.903511 
L 46.858352 38.546506 
L 47.292106 38.1895 
L 47.725861 37.832494 
L 48.159615 37.475489 
L 48.593369 37.118483 
L 49.027123 36.761477 
L 49.460878 36.404472 
L 49.894632 36.047466 
L 50.328386 35.69046 
L 50.76214 35.333455 
L 51.195894 34.976449 
L 51.629649 34.619443 
L 52.063403 34.262437 
L 52.497157 33.905432 
L 52.930911 33.548426 
L 53.364665 33.19142 
L 53.79842 32.834415 
L 54.232174 32.477409 
L 54.665928 32.120403 
L 55.099682 31.763398 
L 55.533436 31.406392 
L 55.967191 31.049386 
L 56.400945 30.692381 
L 56.834699 30.335375 
L 57.268453 29.978369 
L 57.702207 29.621364 
L 58.135962 29.264358 
L 58.569716 28.907352 
L 59.00347 28.550347 
L 59.437224 28.193341 
L 59.870979 27.836335 
L 60.304733 27.47933 
L 60.738487 27.122324 
L 61.172241 26.765318 
L 61.605995 26.408312 
L 62.03975 26.051307 
L 62.473504 25.694301 
L 62.907258 25.337295 
L 63.341012 24.98029 
L 63.774766 24.623284 
L 64.208521 24.266278 
L 64.642275 23.909273 
L 65.076029 23.552267 
L 65.509783 23.195261 
L 65.943537 22.838256 
L 66.377292 22.48125 
" clip-path="url(#p0c15473366)" style="fill: none; stroke-dasharray: 5.55,2.4; stroke-dashoffset: 0; stroke: #000000; stroke-opacity: 0.25; stroke-width: 1.5"/>
   </g>
   <g id="patch_3">
    <path d="M 23.435625 57.824812 
L 23.435625 22.48125 
" style="fill: none; stroke: #000000; stroke-width: 1.5; stroke-linejoin: miter; stroke-linecap: square"/>
   </g>
   <g id="patch_4">
    <path d="M 23.435625 57.824812 
L 66.377292 57.824812 
" style="fill: none; stroke: #000000; stroke-width: 1.5; stroke-linejoin: miter; stroke-linecap: square"/>
   </g>
   <g id="text_7">
    <!-- $10^3$ sim. -->
    <g transform="translate(28.346458 16.48125)">
     <text>
      <tspan x="0" y="-0.199438" style="font-size: 9px; font-family: 'Arial'">1</tspan>
      <tspan x="5.005371" y="-0.199438" style="font-size: 9px; font-family: 'Arial'">0</tspan>
      <tspan x="14.119344" y="-0.199438" style="font-size: 9px; font-family: 'Arial'"> </tspan>
      <tspan x="16.619832" y="-0.199438" style="font-size: 9px; font-family: 'Arial'">s</tspan>
      <tspan x="21.119832" y="-0.199438" style="font-size: 9px; font-family: 'Arial'">i</tspan>
      <tspan x="23.119344" y="-0.199438" style="font-size: 9px; font-family: 'Arial'">m</tspan>
      <tspan x="30.616414" y="-0.199438" style="font-size: 9px; font-family: 'Arial'">.</tspan>
      <tspan x="10.167553" y="-6.471875" style="font-size: 6.3px; font-family: 'Arial'">3</tspan>
     </text>
    </g>
   </g>
  </g>
  <g id="axes_2">
   <g id="patch_5">
    <path d="M 82.072292 57.824812 
L 125.013958 57.824812 
L 125.013958 22.48125 
L 82.072292 22.48125 
z
" style="fill: #ffffff"/>
   </g>
   <g id="matplotlib.axis_3">
    <g id="xtick_3">
     <g id="line2d_16">
      <g>
       <use xlink:href="#m3ad261b550" x="82.072292" y="57.824812" style="stroke: #000000; stroke-width: 1.5"/>
      </g>
     </g>
     <g id="text_8">
      <text style="font-size: 9px; font-family: 'Arial', sans-serif; text-anchor: middle" x="82.072292" y="71.266844" transform="rotate(-0 82.072292 71.266844)">0</text>
     </g>
    </g>
    <g id="xtick_4">
     <g id="line2d_17">
      <g>
       <use xlink:href="#m3ad261b550" x="125.013958" y="57.824812" style="stroke: #000000; stroke-width: 1.5"/>
      </g>
     </g>
     <g id="text_9">
      <text style="font-size: 9px; font-family: 'Arial', sans-serif; text-anchor: middle" x="125.013958" y="71.266844" transform="rotate(-0 125.013958 71.266844)">1</text>
     </g>
    </g>
    <g id="text_10">
     <!-- $\alpha$ -->
     <g transform="translate(100.933125 75.497625)">
      <text>
       <tspan x="0" y="-0.234375" style="font-size: 9px; font-family: 'Arial'">α</tspan>
      </text>
     </g>
    </g>
   </g>
   <g id="matplotlib.axis_4">
    <g id="ytick_3">
     <g id="line2d_18">
      <g>
       <use xlink:href="#m36d1773cd1" x="82.072292" y="57.824812" style="stroke: #000000; stroke-width: 1.5"/>
      </g>
     </g>
    </g>
    <g id="ytick_4">
     <g id="line2d_19">
      <g>
       <use xlink:href="#m36d1773cd1" x="82.072292" y="22.48125" style="stroke: #000000; stroke-width: 1.5"/>
      </g>
     </g>
    </g>
   </g>
   <g id="line2d_20">
    <path d="M 82.072292 57.824812 
L 83.503681 56.764506 
L 84.935069 56.057634 
L 86.366458 56.057634 
L 87.797847 54.997327 
L 89.229236 54.290456 
L 90.660625 53.583585 
L 92.092014 52.876714 
L 93.523403 52.523278 
L 94.954792 51.109536 
L 96.386181 50.7561 
L 97.817569 50.402664 
L 99.248958 48.635486 
L 100.680347 48.282051 
L 102.111736 47.575179 
L 103.543125 46.868308 
L 104.974514 46.161437 
L 106.405903 44.747694 
L 107.837292 44.040823 
L 109.268681 42.627081 
L 110.700069 41.920209 
L 112.131458 41.566774 
L 113.562847 38.385853 
L 114.994236 36.265239 
L 116.425625 34.498061 
L 117.857014 33.084319 
L 119.288403 31.670576 
L 120.719792 30.610269 
L 122.151181 28.13622 
L 123.582569 26.369042 
L 125.013958 22.48125 
" clip-path="url(#p0551d24b23)" style="fill: none; stroke: #f2a900; stroke-opacity: 0.8; stroke-width: 0.7; stroke-linecap: square"/>
   </g>
   <g id="line2d_21">
    <path d="M 82.072292 57.824812 
L 83.503681 57.117941 
L 84.935069 57.117941 
L 86.366458 55.704199 
L 87.797847 55.350763 
L 89.229236 55.350763 
L 90.660625 54.643892 
L 92.092014 53.583585 
L 93.523403 53.583585 
L 94.954792 53.230149 
L 96.386181 51.109536 
L 97.817569 50.402664 
L 99.248958 49.695793 
L 100.680347 49.695793 
L 102.111736 48.635486 
L 103.543125 47.928615 
L 104.974514 47.221744 
L 106.405903 47.221744 
L 107.837292 45.808001 
L 109.268681 44.747694 
L 110.700069 43.687387 
L 112.131458 42.273645 
L 113.562847 40.859902 
L 114.994236 39.799596 
L 116.425625 39.44616 
L 117.857014 36.972111 
L 119.288403 35.558368 
L 120.719792 32.024012 
L 122.151181 29.196527 
L 123.582569 27.429349 
L 125.013958 22.48125 
" clip-path="url(#p0551d24b23)" style="fill: none; stroke: #f2a900; stroke-opacity: 0.8; stroke-width: 0.7; stroke-linecap: square"/>
   </g>
   <g id="line2d_22">
    <path d="M 82.072292 57.824812 
L 83.503681 56.057634 
L 84.935069 56.057634 
L 86.366458 56.057634 
L 87.797847 55.704199 
L 89.229236 55.350763 
L 90.660625 54.997327 
L 92.092014 54.643892 
L 93.523403 54.290456 
L 94.954792 53.230149 
L 96.386181 52.876714 
L 97.817569 51.462971 
L 99.248958 50.7561 
L 100.680347 49.695793 
L 102.111736 49.342357 
L 103.543125 48.988922 
L 104.974514 47.575179 
L 106.405903 45.454566 
L 107.837292 45.10113 
L 109.268681 43.687387 
L 110.700069 42.627081 
L 112.131458 42.627081 
L 113.562847 39.799596 
L 114.994236 38.385853 
L 116.425625 36.972111 
L 117.857014 35.911804 
L 119.288403 33.79119 
L 120.719792 32.024012 
L 122.151181 27.782784 
L 123.582569 25.308735 
L 125.013958 22.48125 
" clip-path="url(#p0551d24b23)" style="fill: none; stroke: #f2a900; stroke-opacity: 0.8; stroke-width: 0.7; stroke-linecap: square"/>
   </g>
   <g id="line2d_23">
    <path d="M 82.072292 57.824812 
L 83.503681 56.41107 
L 84.935069 55.704199 
L 86.366458 55.704199 
L 87.797847 54.643892 
L 89.229236 52.876714 
L 90.660625 52.523278 
L 92.092014 51.816407 
L 93.523403 51.462971 
L 94.954792 51.109536 
L 96.386181 48.988922 
L 97.817569 47.928615 
L 99.248958 46.868308 
L 100.680347 46.514872 
L 102.111736 45.454566 
L 103.543125 45.454566 
L 104.974514 44.040823 
L 106.405903 43.333952 
L 107.837292 41.920209 
L 109.268681 41.566774 
L 110.700069 40.153031 
L 112.131458 39.092724 
L 113.562847 38.385853 
L 114.994236 36.618675 
L 116.425625 34.851497 
L 117.857014 32.730883 
L 119.288403 29.549962 
L 120.719792 27.075913 
L 122.151181 26.015606 
L 123.582569 23.894992 
L 125.013958 22.48125 
" clip-path="url(#p0551d24b23)" style="fill: none; stroke: #f2a900; stroke-opacity: 0.8; stroke-width: 0.7; stroke-linecap: square"/>
   </g>
   <g id="line2d_24">
    <path d="M 82.072292 57.824812 
L 83.503681 56.41107 
L 84.935069 56.41107 
L 86.366458 55.704199 
L 87.797847 55.350763 
L 89.229236 54.997327 
L 90.660625 54.290456 
L 92.092014 53.937021 
L 93.523403 53.230149 
L 94.954792 52.523278 
L 96.386181 50.402664 
L 97.817569 48.988922 
L 99.248958 48.282051 
L 100.680347 47.221744 
L 102.111736 47.221744 
L 103.543125 46.161437 
L 104.974514 44.394259 
L 106.405903 43.687387 
L 107.837292 41.920209 
L 109.268681 40.506467 
L 110.700069 39.092724 
L 112.131458 38.739289 
L 113.562847 38.032417 
L 114.994236 36.618675 
L 116.425625 34.851497 
L 117.857014 32.730883 
L 119.288403 32.024012 
L 120.719792 30.256834 
L 122.151181 28.13622 
L 123.582569 25.662171 
L 125.013958 22.48125 
" clip-path="url(#p0551d24b23)" style="fill: none; stroke: #f2a900; stroke-opacity: 0.8; stroke-width: 0.7; stroke-linecap: square"/>
   </g>
   <g id="line2d_25">
    <path d="M 82.072292 57.824812 
L 83.503681 55.350763 
L 84.935069 53.230149 
L 86.366458 50.7561 
L 87.797847 48.635486 
L 89.229236 47.575179 
L 90.660625 46.514872 
L 92.092014 45.10113 
L 93.523403 43.687387 
L 94.954792 40.859902 
L 96.386181 39.44616 
L 97.817569 38.385853 
L 99.248958 37.678982 
L 100.680347 36.265239 
L 102.111736 35.911804 
L 103.543125 35.558368 
L 104.974514 34.144626 
L 106.405903 33.79119 
L 107.837292 32.377447 
L 109.268681 31.670576 
L 110.700069 30.963705 
L 112.131458 30.256834 
L 113.562847 28.843091 
L 114.994236 28.843091 
L 116.425625 27.075913 
L 117.857014 26.369042 
L 119.288403 24.955299 
L 120.719792 24.248428 
L 122.151181 23.188121 
L 123.582569 22.834686 
L 125.013958 22.48125 
" clip-path="url(#p0551d24b23)" style="fill: none; stroke: #1f77b4; stroke-opacity: 0.8; stroke-width: 0.7; stroke-linecap: square"/>
   </g>
   <g id="line2d_26">
    <path d="M 82.072292 57.824812 
L 83.503681 56.41107 
L 84.935069 55.350763 
L 86.366458 52.876714 
L 87.797847 51.816407 
L 89.229236 50.402664 
L 90.660625 50.049229 
L 92.092014 47.928615 
L 93.523403 45.808001 
L 94.954792 43.687387 
L 96.386181 42.980516 
L 97.817569 41.920209 
L 99.248958 40.506467 
L 100.680347 39.092724 
L 102.111736 38.385853 
L 103.543125 37.678982 
L 104.974514 35.558368 
L 106.405903 34.144626 
L 107.837292 33.79119 
L 109.268681 33.084319 
L 110.700069 32.024012 
L 112.131458 29.549962 
L 113.562847 29.196527 
L 114.994236 28.843091 
L 116.425625 28.489656 
L 117.857014 27.429349 
L 119.288403 27.075913 
L 120.719792 24.955299 
L 122.151181 23.894992 
L 123.582569 23.541557 
L 125.013958 22.48125 
" clip-path="url(#p0551d24b23)" style="fill: none; stroke: #1f77b4; stroke-opacity: 0.8; stroke-width: 0.7; stroke-linecap: square"/>
   </g>
   <g id="line2d_27">
    <path d="M 82.072292 57.824812 
L 83.503681 55.350763 
L 84.935069 54.290456 
L 86.366458 53.583585 
L 87.797847 53.230149 
L 89.229236 51.816407 
L 90.660625 50.049229 
L 92.092014 48.282051 
L 93.523403 46.514872 
L 94.954792 45.808001 
L 96.386181 45.10113 
L 97.817569 44.747694 
L 99.248958 42.627081 
L 100.680347 40.859902 
L 102.111736 39.799596 
L 103.543125 38.739289 
L 104.974514 36.618675 
L 106.405903 34.498061 
L 107.837292 34.498061 
L 109.268681 34.498061 
L 110.700069 33.437754 
L 112.131458 32.024012 
L 113.562847 31.317141 
L 114.994236 30.256834 
L 116.425625 29.196527 
L 117.857014 27.782784 
L 119.288403 26.369042 
L 120.719792 24.955299 
L 122.151181 23.894992 
L 123.582569 23.188121 
L 125.013958 22.48125 
" clip-path="url(#p0551d24b23)" style="fill: none; stroke: #1f77b4; stroke-opacity: 0.8; stroke-width: 0.7; stroke-linecap: square"/>
   </g>
   <g id="line2d_28">
    <path d="M 82.072292 57.824812 
L 83.503681 54.290456 
L 84.935069 52.523278 
L 86.366458 50.402664 
L 87.797847 48.635486 
L 89.229236 47.928615 
L 90.660625 47.221744 
L 92.092014 46.514872 
L 93.523403 45.454566 
L 94.954792 44.747694 
L 96.386181 43.333952 
L 97.817569 42.273645 
L 99.248958 41.213338 
L 100.680347 39.799596 
L 102.111736 37.678982 
L 103.543125 34.498061 
L 104.974514 32.730883 
L 106.405903 31.670576 
L 107.837292 30.963705 
L 109.268681 29.903398 
L 110.700069 29.549962 
L 112.131458 29.196527 
L 113.562847 29.196527 
L 114.994236 28.13622 
L 116.425625 27.075913 
L 117.857014 26.015606 
L 119.288403 26.015606 
L 120.719792 25.662171 
L 122.151181 24.955299 
L 123.582569 23.541557 
L 125.013958 22.48125 
" clip-path="url(#p0551d24b23)" style="fill: none; stroke: #1f77b4; stroke-opacity: 0.8; stroke-width: 0.7; stroke-linecap: square"/>
   </g>
   <g id="line2d_29">
    <path d="M 82.072292 57.824812 
L 83.503681 53.937021 
L 84.935069 53.937021 
L 86.366458 53.230149 
L 87.797847 51.109536 
L 89.229236 50.402664 
L 90.660625 49.695793 
L 92.092014 48.282051 
L 93.523403 47.575179 
L 94.954792 46.868308 
L 96.386181 45.808001 
L 97.817569 44.747694 
L 99.248958 43.687387 
L 100.680347 40.859902 
L 102.111736 39.092724 
L 103.543125 38.385853 
L 104.974514 35.558368 
L 106.405903 34.498061 
L 107.837292 33.437754 
L 109.268681 32.024012 
L 110.700069 31.670576 
L 112.131458 30.610269 
L 113.562847 29.196527 
L 114.994236 28.13622 
L 116.425625 27.782784 
L 117.857014 26.369042 
L 119.288403 26.015606 
L 120.719792 24.955299 
L 122.151181 23.894992 
L 123.582569 23.188121 
L 125.013958 22.48125 
" clip-path="url(#p0551d24b23)" style="fill: none; stroke: #1f77b4; stroke-opacity: 0.8; stroke-width: 0.7; stroke-linecap: square"/>
   </g>
   <g id="line2d_30">
    <path d="M 82.072292 57.824812 
L 82.506046 57.467807 
L 82.9398 57.110801 
L 83.373554 56.753795 
L 83.807309 56.39679 
L 84.241063 56.039784 
L 84.674817 55.682778 
L 85.108571 55.325773 
L 85.542325 54.968767 
L 85.97608 54.611761 
L 86.409834 54.254756 
L 86.843588 53.89775 
L 87.277342 53.540744 
L 87.711096 53.183739 
L 88.144851 52.826733 
L 88.578605 52.469727 
L 89.012359 52.112722 
L 89.446113 51.755716 
L 89.879867 51.39871 
L 90.313622 51.041705 
L 90.747376 50.684699 
L 91.18113 50.327693 
L 91.614884 49.970687 
L 92.048638 49.613682 
L 92.482393 49.256676 
L 92.916147 48.89967 
L 93.349901 48.542665 
L 93.783655 48.185659 
L 94.21741 47.828653 
L 94.651164 47.471648 
L 95.084918 47.114642 
L 95.518672 46.757636 
L 95.952426 46.400631 
L 96.386181 46.043625 
L 96.819935 45.686619 
L 97.253689 45.329614 
L 97.687443 44.972608 
L 98.121197 44.615602 
L 98.554952 44.258597 
L 98.988706 43.901591 
L 99.42246 43.544585 
L 99.856214 43.18758 
L 100.289968 42.830574 
L 100.723723 42.473568 
L 101.157477 42.116562 
L 101.591231 41.759557 
L 102.024985 41.402551 
L 102.458739 41.045545 
L 102.892494 40.68854 
L 103.326248 40.331534 
L 103.760002 39.974528 
L 104.193756 39.617523 
L 104.627511 39.260517 
L 105.061265 38.903511 
L 105.495019 38.546506 
L 105.928773 38.1895 
L 106.362527 37.832494 
L 106.796282 37.475489 
L 107.230036 37.118483 
L 107.66379 36.761477 
L 108.097544 36.404472 
L 108.531298 36.047466 
L 108.965053 35.69046 
L 109.398807 35.333455 
L 109.832561 34.976449 
L 110.266315 34.619443 
L 110.700069 34.262437 
L 111.133824 33.905432 
L 111.567578 33.548426 
L 112.001332 33.19142 
L 112.435086 32.834415 
L 112.86884 32.477409 
L 113.302595 32.120403 
L 113.736349 31.763398 
L 114.170103 31.406392 
L 114.603857 31.049386 
L 115.037612 30.692381 
L 115.471366 30.335375 
L 115.90512 29.978369 
L 116.338874 29.621364 
L 116.772628 29.264358 
L 117.206383 28.907352 
L 117.640137 28.550347 
L 118.073891 28.193341 
L 118.507645 27.836335 
L 118.941399 27.47933 
L 119.375154 27.122324 
L 119.808908 26.765318 
L 120.242662 26.408312 
L 120.676416 26.051307 
L 121.11017 25.694301 
L 121.543925 25.337295 
L 121.977679 24.98029 
L 122.411433 24.623284 
L 122.845187 24.266278 
L 123.278941 23.909273 
L 123.712696 23.552267 
L 124.14645 23.195261 
L 124.580204 22.838256 
L 125.013958 22.48125 
" clip-path="url(#p0551d24b23)" style="fill: none; stroke-dasharray: 5.55,2.4; stroke-dashoffset: 0; stroke: #000000; stroke-opacity: 0.25; stroke-width: 1.5"/>
   </g>
   <g id="patch_6">
    <path d="M 82.072292 57.824812 
L 82.072292 22.48125 
" style="fill: none; stroke: #000000; stroke-width: 1.5; stroke-linejoin: miter; stroke-linecap: square"/>
   </g>
   <g id="patch_7">
    <path d="M 82.072292 57.824812 
L 125.013958 57.824812 
" style="fill: none; stroke: #000000; stroke-width: 1.5; stroke-linejoin: miter; stroke-linecap: square"/>
   </g>
   <g id="text_11">
    <!-- $10^4$ sim. -->
    <g transform="translate(86.983125 16.48125)">
     <text>
      <tspan x="0" y="-0.221312" style="font-size: 9px; font-family: 'Arial'">1</tspan>
      <tspan x="5.005371" y="-0.221312" style="font-size: 9px; font-family: 'Arial'">0</tspan>
      <tspan x="14.119344" y="-0.221312" style="font-size: 9px; font-family: 'Arial'"> </tspan>
      <tspan x="16.619832" y="-0.221312" style="font-size: 9px; font-family: 'Arial'">s</tspan>
      <tspan x="21.119832" y="-0.221312" style="font-size: 9px; font-family: 'Arial'">i</tspan>
      <tspan x="23.119344" y="-0.221312" style="font-size: 9px; font-family: 'Arial'">m</tspan>
      <tspan x="30.616414" y="-0.221312" style="font-size: 9px; font-family: 'Arial'">.</tspan>
      <tspan x="10.167553" y="-6.49375" style="font-size: 6.3px; font-family: 'Arial'">4</tspan>
     </text>
    </g>
   </g>
  </g>
  <g id="axes_3">
   <g id="patch_8">
    <path d="M 140.708958 57.824812 
L 183.650625 57.824812 
L 183.650625 22.48125 
L 140.708958 22.48125 
z
" style="fill: #ffffff"/>
   </g>
   <g id="matplotlib.axis_5">
    <g id="xtick_5">
     <g id="line2d_31">
      <g>
       <use xlink:href="#m3ad261b550" x="140.708958" y="57.824812" style="stroke: #000000; stroke-width: 1.5"/>
      </g>
     </g>
     <g id="text_12">
      <text style="font-size: 9px; font-family: 'Arial', sans-serif; text-anchor: middle" x="140.708958" y="71.266844" transform="rotate(-0 140.708958 71.266844)">0</text>
     </g>
    </g>
    <g id="xtick_6">
     <g id="line2d_32">
      <g>
       <use xlink:href="#m3ad261b550" x="183.650625" y="57.824812" style="stroke: #000000; stroke-width: 1.5"/>
      </g>
     </g>
     <g id="text_13">
      <text style="font-size: 9px; font-family: 'Arial', sans-serif; text-anchor: middle" x="183.650625" y="71.266844" transform="rotate(-0 183.650625 71.266844)">1</text>
     </g>
    </g>
    <g id="text_14">
     <!-- $\alpha$ -->
     <g transform="translate(159.569792 75.497625)">
      <text>
       <tspan x="0" y="-0.234375" style="font-size: 9px; font-family: 'Arial'">α</tspan>
      </text>
     </g>
    </g>
   </g>
   <g id="matplotlib.axis_6">
    <g id="ytick_5">
     <g id="line2d_33">
      <g>
       <use xlink:href="#m36d1773cd1" x="140.708958" y="57.824812" style="stroke: #000000; stroke-width: 1.5"/>
      </g>
     </g>
    </g>
    <g id="ytick_6">
     <g id="line2d_34">
      <g>
       <use xlink:href="#m36d1773cd1" x="140.708958" y="22.48125" style="stroke: #000000; stroke-width: 1.5"/>
      </g>
     </g>
    </g>
   </g>
   <g id="line2d_35">
    <path d="M 140.708958 57.824812 
L 142.140347 55.704199 
L 143.571736 54.997327 
L 145.003125 54.997327 
L 146.434514 54.643892 
L 147.865903 53.937021 
L 149.297292 53.230149 
L 150.728681 51.816407 
L 152.160069 51.462971 
L 153.591458 50.7561 
L 155.022847 49.342357 
L 156.454236 47.928615 
L 157.885625 47.575179 
L 159.317014 46.868308 
L 160.748403 46.514872 
L 162.179792 46.161437 
L 163.611181 44.747694 
L 165.042569 42.980516 
L 166.473958 42.273645 
L 167.905347 41.566774 
L 169.336736 40.506467 
L 170.768125 39.44616 
L 172.199514 37.325546 
L 173.630903 35.204932 
L 175.062292 34.144626 
L 176.493681 32.377447 
L 177.925069 29.903398 
L 179.356458 26.369042 
L 180.787847 25.308735 
L 182.219236 24.601864 
L 183.650625 22.48125 
" clip-path="url(#p599174643e)" style="fill: none; stroke: #f2a900; stroke-opacity: 0.8; stroke-width: 0.7; stroke-linecap: square"/>
   </g>
   <g id="line2d_36">
    <path d="M 140.708958 57.824812 
L 142.140347 56.057634 
L 143.571736 54.997327 
L 145.003125 54.997327 
L 146.434514 53.583585 
L 147.865903 52.876714 
L 149.297292 52.169842 
L 150.728681 50.7561 
L 152.160069 50.7561 
L 153.591458 48.988922 
L 155.022847 47.928615 
L 156.454236 47.221744 
L 157.885625 46.514872 
L 159.317014 46.161437 
L 160.748403 45.808001 
L 162.179792 42.273645 
L 163.611181 41.213338 
L 165.042569 40.506467 
L 166.473958 39.799596 
L 167.905347 38.385853 
L 169.336736 36.972111 
L 170.768125 35.911804 
L 172.199514 35.204932 
L 173.630903 34.144626 
L 175.062292 33.437754 
L 176.493681 31.670576 
L 177.925069 29.196527 
L 179.356458 28.489656 
L 180.787847 26.369042 
L 182.219236 25.662171 
L 183.650625 22.48125 
" clip-path="url(#p599174643e)" style="fill: none; stroke: #f2a900; stroke-opacity: 0.8; stroke-width: 0.7; stroke-linecap: square"/>
   </g>
   <g id="line2d_37">
    <path d="M 140.708958 57.824812 
L 142.140347 56.057634 
L 143.571736 55.704199 
L 145.003125 55.350763 
L 146.434514 54.290456 
L 147.865903 52.876714 
L 149.297292 51.816407 
L 150.728681 51.109536 
L 152.160069 50.7561 
L 153.591458 49.342357 
L 155.022847 47.221744 
L 156.454236 46.868308 
L 157.885625 46.161437 
L 159.317014 44.747694 
L 160.748403 44.040823 
L 162.179792 43.333952 
L 163.611181 42.273645 
L 165.042569 41.566774 
L 166.473958 40.153031 
L 167.905347 39.44616 
L 169.336736 38.739289 
L 170.768125 38.032417 
L 172.199514 36.265239 
L 173.630903 35.558368 
L 175.062292 34.144626 
L 176.493681 33.79119 
L 177.925069 31.317141 
L 179.356458 30.256834 
L 180.787847 28.13622 
L 182.219236 26.369042 
L 183.650625 22.48125 
" clip-path="url(#p599174643e)" style="fill: none; stroke: #f2a900; stroke-opacity: 0.8; stroke-width: 0.7; stroke-linecap: square"/>
   </g>
   <g id="line2d_38">
    <path d="M 140.708958 57.824812 
L 142.140347 56.41107 
L 143.571736 55.704199 
L 145.003125 54.290456 
L 146.434514 52.169842 
L 147.865903 52.169842 
L 149.297292 51.462971 
L 150.728681 51.109536 
L 152.160069 49.695793 
L 153.591458 48.282051 
L 155.022847 47.928615 
L 156.454236 47.575179 
L 157.885625 46.868308 
L 159.317014 46.514872 
L 160.748403 45.454566 
L 162.179792 44.394259 
L 163.611181 43.687387 
L 165.042569 41.920209 
L 166.473958 41.213338 
L 167.905347 39.799596 
L 169.336736 39.092724 
L 170.768125 37.325546 
L 172.199514 36.618675 
L 173.630903 34.851497 
L 175.062292 33.79119 
L 176.493681 32.730883 
L 177.925069 30.963705 
L 179.356458 28.843091 
L 180.787847 27.782784 
L 182.219236 25.308735 
L 183.650625 22.48125 
" clip-path="url(#p599174643e)" style="fill: none; stroke: #f2a900; stroke-opacity: 0.8; stroke-width: 0.7; stroke-linecap: square"/>
   </g>
   <g id="line2d_39">
    <path d="M 140.708958 57.824812 
L 142.140347 57.471377 
L 143.571736 56.764506 
L 145.003125 56.41107 
L 146.434514 55.704199 
L 147.865903 54.997327 
L 149.297292 54.290456 
L 150.728681 53.583585 
L 152.160069 52.523278 
L 153.591458 51.462971 
L 155.022847 50.049229 
L 156.454236 48.988922 
L 157.885625 48.282051 
L 159.317014 47.928615 
L 160.748403 47.575179 
L 162.179792 46.868308 
L 163.611181 46.161437 
L 165.042569 45.808001 
L 166.473958 44.040823 
L 167.905347 43.687387 
L 169.336736 42.273645 
L 170.768125 40.859902 
L 172.199514 37.325546 
L 173.630903 36.618675 
L 175.062292 35.558368 
L 176.493681 33.084319 
L 177.925069 30.963705 
L 179.356458 29.903398 
L 180.787847 28.489656 
L 182.219236 26.369042 
L 183.650625 22.48125 
" clip-path="url(#p599174643e)" style="fill: none; stroke: #f2a900; stroke-opacity: 0.8; stroke-width: 0.7; stroke-linecap: square"/>
   </g>
   <g id="line2d_40">
    <path d="M 140.708958 57.824812 
L 142.140347 55.704199 
L 143.571736 55.704199 
L 145.003125 55.350763 
L 146.434514 54.290456 
L 147.865903 52.169842 
L 149.297292 51.109536 
L 150.728681 50.402664 
L 152.160069 48.635486 
L 153.591458 48.282051 
L 155.022847 46.868308 
L 156.454236 45.454566 
L 157.885625 43.687387 
L 159.317014 42.273645 
L 160.748403 41.566774 
L 162.179792 41.213338 
L 163.611181 40.153031 
L 165.042569 38.739289 
L 166.473958 36.972111 
L 167.905347 36.618675 
L 169.336736 35.204932 
L 170.768125 33.437754 
L 172.199514 32.730883 
L 173.630903 30.963705 
L 175.062292 30.610269 
L 176.493681 28.843091 
L 177.925069 27.429349 
L 179.356458 25.662171 
L 180.787847 24.601864 
L 182.219236 24.248428 
L 183.650625 22.48125 
" clip-path="url(#p599174643e)" style="fill: none; stroke: #1f77b4; stroke-opacity: 0.8; stroke-width: 0.7; stroke-linecap: square"/>
   </g>
   <g id="line2d_41">
    <path d="M 140.708958 57.824812 
L 142.140347 56.057634 
L 143.571736 55.350763 
L 145.003125 54.997327 
L 146.434514 53.937021 
L 147.865903 53.230149 
L 149.297292 52.169842 
L 150.728681 50.7561 
L 152.160069 50.049229 
L 153.591458 49.342357 
L 155.022847 47.221744 
L 156.454236 46.161437 
L 157.885625 45.10113 
L 159.317014 44.394259 
L 160.748403 43.333952 
L 162.179792 42.627081 
L 163.611181 40.506467 
L 165.042569 36.972111 
L 166.473958 35.911804 
L 167.905347 34.498061 
L 169.336736 32.730883 
L 170.768125 31.317141 
L 172.199514 30.963705 
L 173.630903 30.256834 
L 175.062292 29.549962 
L 176.493681 28.843091 
L 177.925069 28.13622 
L 179.356458 26.722477 
L 180.787847 26.015606 
L 182.219236 24.248428 
L 183.650625 22.48125 
" clip-path="url(#p599174643e)" style="fill: none; stroke: #1f77b4; stroke-opacity: 0.8; stroke-width: 0.7; stroke-linecap: square"/>
   </g>
   <g id="line2d_42">
    <path d="M 140.708958 57.824812 
L 142.140347 54.997327 
L 143.571736 53.937021 
L 145.003125 52.523278 
L 146.434514 51.109536 
L 147.865903 50.402664 
L 149.297292 49.342357 
L 150.728681 47.928615 
L 152.160069 45.454566 
L 153.591458 45.10113 
L 155.022847 43.333952 
L 156.454236 42.273645 
L 157.885625 41.920209 
L 159.317014 39.799596 
L 160.748403 38.739289 
L 162.179792 38.385853 
L 163.611181 38.032417 
L 165.042569 36.618675 
L 166.473958 36.265239 
L 167.905347 35.558368 
L 169.336736 34.144626 
L 170.768125 33.084319 
L 172.199514 32.377447 
L 173.630903 31.317141 
L 175.062292 28.489656 
L 176.493681 26.722477 
L 177.925069 26.015606 
L 179.356458 25.662171 
L 180.787847 24.955299 
L 182.219236 23.541557 
L 183.650625 22.48125 
" clip-path="url(#p599174643e)" style="fill: none; stroke: #1f77b4; stroke-opacity: 0.8; stroke-width: 0.7; stroke-linecap: square"/>
   </g>
   <g id="line2d_43">
    <path d="M 140.708958 57.824812 
L 142.140347 55.350763 
L 143.571736 54.290456 
L 145.003125 53.583585 
L 146.434514 51.816407 
L 147.865903 50.402664 
L 149.297292 49.342357 
L 150.728681 48.635486 
L 152.160069 47.575179 
L 153.591458 46.868308 
L 155.022847 44.747694 
L 156.454236 44.040823 
L 157.885625 42.980516 
L 159.317014 41.566774 
L 160.748403 40.859902 
L 162.179792 40.859902 
L 163.611181 39.092724 
L 165.042569 38.739289 
L 166.473958 37.678982 
L 167.905347 37.325546 
L 169.336736 35.558368 
L 170.768125 33.79119 
L 172.199514 32.377447 
L 173.630903 30.963705 
L 175.062292 30.256834 
L 176.493681 29.196527 
L 177.925069 28.13622 
L 179.356458 26.369042 
L 180.787847 25.662171 
L 182.219236 24.955299 
L 183.650625 22.48125 
" clip-path="url(#p599174643e)" style="fill: none; stroke: #1f77b4; stroke-opacity: 0.8; stroke-width: 0.7; stroke-linecap: square"/>
   </g>
   <g id="line2d_44">
    <path d="M 140.708958 57.824812 
L 142.140347 55.350763 
L 143.571736 54.290456 
L 145.003125 53.583585 
L 146.434514 51.109536 
L 147.865903 50.049229 
L 149.297292 49.695793 
L 150.728681 47.221744 
L 152.160069 47.221744 
L 153.591458 46.161437 
L 155.022847 45.454566 
L 156.454236 44.747694 
L 157.885625 42.273645 
L 159.317014 40.506467 
L 160.748403 39.799596 
L 162.179792 37.678982 
L 163.611181 35.911804 
L 165.042569 34.851497 
L 166.473958 33.79119 
L 167.905347 31.670576 
L 169.336736 30.610269 
L 170.768125 29.903398 
L 172.199514 28.489656 
L 173.630903 28.13622 
L 175.062292 27.782784 
L 176.493681 26.722477 
L 177.925069 26.369042 
L 179.356458 25.308735 
L 180.787847 24.601864 
L 182.219236 24.248428 
L 183.650625 22.48125 
" clip-path="url(#p599174643e)" style="fill: none; stroke: #1f77b4; stroke-opacity: 0.8; stroke-width: 0.7; stroke-linecap: square"/>
   </g>
   <g id="line2d_45">
    <path d="M 140.708958 57.824812 
L 141.142713 57.467807 
L 141.576467 57.110801 
L 142.010221 56.753795 
L 142.443975 56.39679 
L 142.877729 56.039784 
L 143.311484 55.682778 
L 143.745238 55.325773 
L 144.178992 54.968767 
L 144.612746 54.611761 
L 145.0465 54.254756 
L 145.480255 53.89775 
L 145.914009 53.540744 
L 146.347763 53.183739 
L 146.781517 52.826733 
L 147.215271 52.469727 
L 147.649026 52.112722 
L 148.08278 51.755716 
L 148.516534 51.39871 
L 148.950288 51.041705 
L 149.384043 50.684699 
L 149.817797 50.327693 
L 150.251551 49.970687 
L 150.685305 49.613682 
L 151.119059 49.256676 
L 151.552814 48.89967 
L 151.986568 48.542665 
L 152.420322 48.185659 
L 152.854076 47.828653 
L 153.28783 47.471648 
L 153.721585 47.114642 
L 154.155339 46.757636 
L 154.589093 46.400631 
L 155.022847 46.043625 
L 155.456601 45.686619 
L 155.890356 45.329614 
L 156.32411 44.972608 
L 156.757864 44.615602 
L 157.191618 44.258597 
L 157.625372 43.901591 
L 158.059127 43.544585 
L 158.492881 43.18758 
L 158.926635 42.830574 
L 159.360389 42.473568 
L 159.794144 42.116562 
L 160.227898 41.759557 
L 160.661652 41.402551 
L 161.095406 41.045545 
L 161.52916 40.68854 
L 161.962915 40.331534 
L 162.396669 39.974528 
L 162.830423 39.617523 
L 163.264177 39.260517 
L 163.697931 38.903511 
L 164.131686 38.546506 
L 164.56544 38.1895 
L 164.999194 37.832494 
L 165.432948 37.475489 
L 165.866702 37.118483 
L 166.300457 36.761477 
L 166.734211 36.404472 
L 167.167965 36.047466 
L 167.601719 35.69046 
L 168.035473 35.333455 
L 168.469228 34.976449 
L 168.902982 34.619443 
L 169.336736 34.262437 
L 169.77049 33.905432 
L 170.204245 33.548426 
L 170.637999 33.19142 
L 171.071753 32.834415 
L 171.505507 32.477409 
L 171.939261 32.120403 
L 172.373016 31.763398 
L 172.80677 31.406392 
L 173.240524 31.049386 
L 173.674278 30.692381 
L 174.108032 30.335375 
L 174.541787 29.978369 
L 174.975541 29.621364 
L 175.409295 29.264358 
L 175.843049 28.907352 
L 176.276803 28.550347 
L 176.710558 28.193341 
L 177.144312 27.836335 
L 177.578066 27.47933 
L 178.01182 27.122324 
L 178.445574 26.765318 
L 178.879329 26.408312 
L 179.313083 26.051307 
L 179.746837 25.694301 
L 180.180591 25.337295 
L 180.614346 24.98029 
L 181.0481 24.623284 
L 181.481854 24.266278 
L 181.915608 23.909273 
L 182.349362 23.552267 
L 182.783117 23.195261 
L 183.216871 22.838256 
L 183.650625 22.48125 
" clip-path="url(#p599174643e)" style="fill: none; stroke-dasharray: 5.55,2.4; stroke-dashoffset: 0; stroke: #000000; stroke-opacity: 0.25; stroke-width: 1.5"/>
   </g>
   <g id="patch_9">
    <path d="M 140.708958 57.824812 
L 140.708958 22.48125 
" style="fill: none; stroke: #000000; stroke-width: 1.5; stroke-linejoin: miter; stroke-linecap: square"/>
   </g>
   <g id="patch_10">
    <path d="M 140.708958 57.824812 
L 183.650625 57.824812 
" style="fill: none; stroke: #000000; stroke-width: 1.5; stroke-linejoin: miter; stroke-linecap: square"/>
   </g>
   <g id="text_15">
    <!-- $10^5$ sim. -->
    <g transform="translate(145.619792 16.48125)">
     <text>
      <tspan x="0" y="-0.276" style="font-size: 9px; font-family: 'Arial'">1</tspan>
      <tspan x="5.005371" y="-0.276" style="font-size: 9px; font-family: 'Arial'">0</tspan>
      <tspan x="14.119344" y="-0.276" style="font-size: 9px; font-family: 'Arial'"> </tspan>
      <tspan x="16.619832" y="-0.276" style="font-size: 9px; font-family: 'Arial'">s</tspan>
      <tspan x="21.119832" y="-0.276" style="font-size: 9px; font-family: 'Arial'">i</tspan>
      <tspan x="23.119344" y="-0.276" style="font-size: 9px; font-family: 'Arial'">m</tspan>
      <tspan x="30.616414" y="-0.276" style="font-size: 9px; font-family: 'Arial'">.</tspan>
      <tspan x="10.167553" y="-6.548437" style="font-size: 6.3px; font-family: 'Arial'">5</tspan>
     </text>
    </g>
   </g>
   <g id="legend_1">
    <g id="line2d_46">
     <path d="M 194.240807 25.895569 
L 203.240807 25.895569 
L 212.240807 25.895569 
" style="fill: none; stroke: #1f77b4; stroke-opacity: 0.8; stroke-width: 0.7; stroke-linecap: square"/>
    </g>
    <g id="text_16">
     <text style="font-size: 9px; font-family: 'Arial', sans-serif; text-anchor: start" x="219.440807" y="29.045569" transform="rotate(-0 219.440807 29.045569)">NPE</text>
    </g>
    <g id="line2d_47">
     <path d="M 194.240807 38.62635 
L 203.240807 38.62635 
L 212.240807 38.62635 
" style="fill: none; stroke: #f2a900; stroke-opacity: 0.8; stroke-width: 0.7; stroke-linecap: square"/>
    </g>
    <g id="text_17">
     <text style="font-size: 9px; font-family: 'Arial', sans-serif; text-anchor: start" x="219.440807" y="41.77635" transform="rotate(-0 219.440807 41.77635)">NPE-PFN</text>
    </g>
   </g>
  </g>
 </g>
 <defs>
  <clipPath id="p0c15473366">
   <rect x="23.435625" y="22.48125" width="42.941667" height="35.343562"/>
  </clipPath>
  <clipPath id="p0551d24b23">
   <rect x="82.072292" y="22.48125" width="42.941667" height="35.343562"/>
  </clipPath>
  <clipPath id="p599174643e">
   <rect x="140.708958" y="22.48125" width="42.941667" height="35.343562"/>
  </clipPath>
 </defs>
</svg>
