<?xml version="1.0" encoding="utf-8" standalone="no"?>
<!DOCTYPE svg PUBLIC "-//W3C//DTD SVG 1.1//EN"
  "http://www.w3.org/Graphics/SVG/1.1/DTD/svg11.dtd">
<svg xmlns:xlink="http://www.w3.org/1999/xlink" width="241.501641pt" height="58.752pt" viewBox="0 0 241.501641 58.752" xmlns="http://www.w3.org/2000/svg" version="1.1">
 <metadata>
  <rdf:RDF xmlns:dc="http://purl.org/dc/elements/1.1/" xmlns:cc="http://creativecommons.org/ns#" xmlns:rdf="http://www.w3.org/1999/02/22-rdf-syntax-ns#">
   <cc:Work>
    <dc:type rdf:resource="http://purl.org/dc/dcmitype/StillImage"/>
    <dc:date>2025-10-10T14:36:34.962782</dc:date>
    <dc:format>image/svg+xml</dc:format>
    <dc:creator>
     <cc:Agent>
      <dc:title>Matplotlib v3.10.0, https://matplotlib.org/</dc:title>
     </cc:Agent>
    </dc:creator>
   </cc:Work>
  </rdf:RDF>
 </metadata>
 <defs>
  <style type="text/css">*{stroke-linejoin: round; stroke-linecap: butt}</style>
 </defs>
 <g id="figure_1">
  <g id="patch_1">
   <path d="M 0 58.752 
L 241.501641 58.752 
L 241.501641 0 
L 0 0 
z
" style="fill: #ffffff"/>
  </g>
  <g id="axes_1">
   <g id="patch_2">
    <path d="M 7.2 51.552 
L 55.721739 51.552 
L 55.721739 7.2 
L 7.2 7.2 
z
" style="fill: #ffffff"/>
   </g>
   <g id="matplotlib.axis_1"/>
   <g id="matplotlib.axis_2"/>
   <g id="line2d_1">
    <path d="M 9.405534 45.494365 
L 9.510792 45.453628 
L 9.524786 45.468718 
L 9.634912 45.480293 
L 9.638563 45.486837 
L 9.764508 45.508238 
L 9.765725 45.5066 
L 10.020658 45.504759 
L 10.021266 45.502111 
L 10.3845 45.439906 
L 10.469072 45.431099 
L 10.437433 45.42229 
L 10.494626 45.422254 
L 10.663161 45.424902 
L 10.664987 45.420929 
L 10.691149 45.399491 
L 10.777547 45.429154 
L 10.888889 45.428632 
L 10.896191 45.423312 
L 11.00875 45.418726 
L 10.913227 45.432756 
L 11.009967 45.41968 
L 11.551471 45.437605 
L 11.55208 45.434285 
L 11.668899 45.41416 
L 11.671332 45.418109 
L 15.653516 45.129379 
L 16.073334 41.777368 
L 16.394586 39.401663 
L 16.597193 37.907172 
L 16.794934 35.613806 
L 16.827789 30.687905 
L 16.841174 15.753273 
L 16.928789 39.794753 
L 17.850562 35.726803 
L 17.888285 31.684746 
L 17.902887 15.905041 
L 17.986242 39.868156 
L 18.013622 39.902028 
L 18.089067 39.82233 
L 18.091501 39.823553 
L 18.269771 39.668588 
L 18.27038 39.670155 
L 18.345825 39.562389 
L 18.347651 39.562384 
L 18.659776 39.168728 
L 18.932353 38.806067 
L 19.156864 38.436765 
L 19.404496 37.959693 
L 19.587634 37.579898 
L 19.590676 37.581614 
L 19.641784 37.480077 
L 19.64361 37.479245 
L 19.946 36.261042 
L 20.012319 34.362433 
L 20.030572 20.92028 
L 20.037873 15.981207 
L 20.129138 39.958891 
L 20.254475 40.027371 
L 20.255692 40.0251 
L 20.256909 40.028599 
L 21.086201 39.490678 
L 21.244393 39.265512 
L 21.24561 39.266687 
L 21.339917 39.111497 
L 21.695241 38.602149 
L 21.697066 38.604699 
L 21.698283 38.606498 
L 21.767035 38.493009 
L 21.915493 38.239423 
L 21.926444 38.236707 
L 21.974511 38.136515 
L 21.976336 38.140295 
L 22.136962 37.854291 
L 22.178944 37.780895 
L 22.171642 37.781734 
L 22.186853 37.755299 
L 22.592068 36.570756 
L 22.681508 35.085195 
L 22.705237 28.442085 
L 22.716797 15.961523 
L 22.80867 39.981902 
L 22.953477 40.021405 
L 22.954085 40.020566 
L 23.072729 40.018999 
L 23.226662 39.955059 
L 23.075771 40.024647 
L 23.232138 39.959779 
L 23.331921 39.913251 
L 23.252217 39.942382 
L 23.33253 39.909094 
L 23.492547 39.751303 
L 23.508975 39.736313 
L 23.531487 39.695006 
L 23.563734 39.667265 
L 23.718884 39.495036 
L 23.776685 39.459415 
L 23.720709 39.49041 
L 23.793721 39.41165 
L 23.925142 39.283328 
L 23.92575 39.283931 
L 24.036485 39.158537 
L 24.179466 38.966403 
L 24.181291 38.968645 
L 24.229966 38.859385 
L 24.428923 38.596902 
L 24.429531 38.598261 
L 24.43014 38.600097 
L 24.511061 38.492695 
L 24.51167 38.492899 
L 24.512278 38.493267 
L 24.552435 38.407181 
L 24.561561 38.393817 
L 24.741048 38.118378 
L 24.741657 38.118931 
L 24.837181 37.934739 
L 24.989897 37.649199 
L 25.385986 35.948787 
L 25.433443 33.093364 
L 25.451696 15.968809 
L 25.521666 39.815009 
L 25.639702 40.027515 
L 25.645178 40.02218 
L 25.758346 40.017587 
L 25.660388 40.032541 
L 25.758954 40.018893 
L 25.762605 40.026342 
L 25.854478 39.945987 
L 25.855086 39.948159 
L 25.9932 39.907816 
L 25.859954 39.939429 
L 25.994417 39.90479 
L 26.150784 39.76569 
L 26.179989 39.749744 
L 26.231097 39.690926 
L 26.369211 39.569579 
L 26.370428 39.571831 
L 26.566951 39.399642 
L 26.568776 39.403179 
L 26.649089 39.298179 
L 26.655782 39.297218 
L 26.816408 39.043665 
L 27.947482 37.049188 
L 28.140963 35.472842 
L 28.171993 30.716527 
L 28.185379 15.960648 
L 28.272993 39.945084 
L 28.422059 40.008256 
L 28.423276 40.005107 
L 28.551655 39.983692 
L 28.554088 39.985275 
L 28.641702 39.939633 
L 28.594853 39.948716 
L 28.649612 39.93172 
L 28.77069 39.864855 
L 28.662998 39.934409 
L 28.771907 39.866934 
L 29.379121 39.246842 
L 29.587813 38.994179 
L 29.588422 38.995348 
L 29.58903 38.995961 
L 29.643181 38.896843 
L 29.792246 38.660231 
L 29.952872 38.429198 
L 29.960173 38.438706 
L 30.039269 38.326313 
L 30.041095 38.327894 
L 30.50837 37.541278 
L 30.509587 37.541908 
L 30.510195 37.545345 
L 30.588683 37.351948 
L 30.73714 36.859556 
L 30.894724 34.300891 
L 30.913585 19.236731 
L 30.91967 15.974913 
L 31.006675 39.941317 
L 31.392421 39.905705 
L 31.411891 39.914699 
L 31.525668 39.850902 
L 31.722191 39.717193 
L 31.723408 39.722446 
L 31.809805 39.628628 
L 31.81163 39.62985 
L 32.371387 38.938002 
L 32.376255 38.942445 
L 32.454742 38.805371 
L 32.603808 38.601054 
L 32.735838 38.371094 
L 32.90559 38.079572 
L 33.257872 37.293273 
L 33.533491 35.172785 
L 33.558437 29.072621 
L 33.569997 15.975293 
L 33.661262 39.986379 
L 33.899159 40.049994 
L 33.899767 40.047559 
L 34.048224 39.948975 
L 34.060393 39.967497 
L 34.085947 39.963453 
L 34.130363 39.913016 
L 34.154091 39.906035 
L 34.272736 39.816818 
L 34.276386 39.822376 
L 34.27882 39.82651 
L 34.364609 39.720277 
L 34.365217 39.721234 
L 35.146443 38.76113 
L 34.366434 39.722791 
L 35.152527 38.768705 
L 35.437882 38.308004 
L 35.579038 38.066498 
L 35.722628 37.813157 
L 35.768868 37.705873 
L 35.972693 37.233854 
L 36.013458 37.119254 
L 36.211198 35.615716 
L 36.245879 31.616336 
L 36.260481 15.961019 
L 36.343836 39.932411 
L 36.451529 40.013902 
L 36.46248 40.007397 
L 36.720455 39.930113 
L 36.869521 39.828523 
L 37.45179 39.234088 
L 37.601464 39.054089 
L 37.602681 39.055401 
L 37.603289 39.058092 
L 37.684211 38.950566 
L 37.69212 38.949893 
L 37.846662 38.743175 
L 38.233016 38.151835 
L 38.233624 38.152483 
L 38.293251 38.055069 
L 38.293859 38.054657 
L 38.498292 37.715933 
L 38.500726 37.716308 
L 38.551834 37.609598 
L 38.785472 36.989935 
L 38.932712 36.083553 
L 38.986254 33.6967 
L 39.006941 15.972846 
L 39.067175 39.568379 
L 39.188253 40.011107 
L 39.190079 40.008922 
L 39.320283 40.030261 
L 39.328192 40.014864 
L 39.441969 40.022582 
L 39.446837 40.026623 
L 39.455355 40.027537 
L 39.54236 39.963427 
L 39.543577 39.966428 
L 39.758354 39.797064 
L 39.546619 39.968176 
L 39.75957 39.798163 
L 39.766263 39.798517 
L 39.842925 39.720808 
L 39.849618 39.723048 
L 39.913504 39.697967 
L 39.873347 39.689967 
L 39.939058 39.654356 
L 40.161135 39.321996 
L 40.163569 39.322596 
L 40.304117 39.166692 
L 40.304725 39.167387 
L 40.35705 39.091301 
L 40.375911 39.082485 
L 40.545664 38.804367 
L 40.546272 38.806154 
L 40.617459 38.679273 
L 40.619892 38.678608 
L 40.69047 38.568246 
L 40.885169 38.256098 
L 40.947229 38.157004 
L 41.103595 37.862013 
L 41.622587 35.582964 
L 41.656051 31.606664 
L 41.670654 15.968242 
L 41.754617 39.94591 
L 41.862918 40.023833 
L 41.876912 40.008264 
L 41.999815 39.979102 
L 41.879954 40.011624 
L 42.002857 39.982225 
L 42.015026 39.983793 
L 42.105682 39.93615 
L 42.106899 39.937966 
L 42.176869 39.938956 
L 42.210332 39.897518 
L 42.212766 39.899282 
L 42.381302 39.772152 
L 42.398338 39.785471 
L 42.475 39.694256 
L 42.476217 39.695789 
L 42.608246 39.593754 
L 42.608855 39.594846 
L 42.61068 39.597818 
L 43.08769 39.045125 
L 43.230063 38.824586 
L 43.233106 38.827678 
L 43.657791 38.113126 
L 43.919416 37.615341 
L 43.920025 37.615774 
L 43.921242 37.618294 
L 43.966874 37.491813 
L 43.968699 37.491256 
L 44.164614 36.962068 
L 44.311246 35.831754 
L 44.351403 33.240618 
L 44.370264 15.970576 
L 44.438408 39.78671 
L 44.509595 40.021663 
L 44.564962 40.011668 
L 44.679956 39.982502 
L 44.691516 39.988619 
L 44.719504 39.994214 
L 44.78278 39.932515 
L 44.788865 39.933979 
L 44.881346 39.881073 
L 44.794949 39.925709 
L 44.883172 39.875971 
L 45.01946 39.853731 
L 45.111333 39.804049 
L 45.020677 39.85227 
L 45.116201 39.794553 
L 45.326718 39.590055 
L 45.327327 39.59126 
L 45.329152 39.595547 
L 45.412507 39.473082 
L 45.413724 39.472921 
L 46.063529 38.595833 
L 46.100035 38.821173 
L 46.159052 39.172642 
L 46.363485 40.312309 
L 46.364094 40.311621 
L 46.389648 40.446645 
L 46.6099 41.4616 
L 46.647623 41.615892 
L 47.016941 42.923497 
L 47.051621 43.033361 
L 47.378957 43.860494 
L 47.379566 43.858971 
L 47.444668 43.993893 
L 47.5913 44.24402 
L 47.720896 44.466764 
L 47.929588 44.758221 
L 48.763747 45.356552 
L 48.774091 45.344812 
L 48.861705 45.427242 
L 48.862313 45.426091 
L 48.997385 45.485306 
L 48.874482 45.416694 
L 49.001036 45.480684 
L 49.222505 45.528495 
L 49.22433 45.53664 
L 49.34054 45.559151 
L 49.226155 45.534593 
L 49.343583 45.555282 
L 49.422679 45.539156 
L 49.456142 45.571388 
L 49.66666 45.64605 
L 49.668485 45.642321 
L 49.7634 45.648012 
L 49.706816 45.660979 
L 49.776786 45.666214 
L 49.830328 45.683423 
L 49.886912 45.651764 
L 50.001297 45.660039 
L 49.904556 45.661985 
L 50.003122 45.66508 
L 50.145495 45.666774 
L 50.006164 45.659132 
L 50.150363 45.659252 
L 50.216073 45.648901 
L 50.260489 45.669834 
L 50.564096 45.664447 
L 50.717421 45.63761 
L 50.56653 45.667935 
L 50.718638 45.641319 
L 50.845191 45.652867 
L 50.726547 45.634629 
L 50.853101 45.644763 
L 50.986956 45.628503 
L 50.855535 45.640714 
L 50.988173 45.625066 
L 51.142714 45.60352 
L 51.143323 45.604797 
L 51.24919 45.611272 
L 51.269268 45.591846 
L 51.395213 45.592836 
L 51.271702 45.595645 
L 51.400081 45.598762 
L 51.406165 45.59296 
L 51.515074 45.588133 
L 51.661098 45.565381 
L 51.521159 45.597579 
L 51.661706 45.56641 
L 51.779134 45.573608 
L 51.667791 45.560641 
L 51.785218 45.559031 
L 51.899603 45.551545 
L 51.80773 45.576892 
L 51.90082 45.554078 
L 52.018856 45.587364 
L 52.026765 45.580363 
L 52.047452 45.589116 
L 52.099169 45.542434 
L 52.130199 45.54171 
L 52.203819 45.570009 
L 52.243367 45.549483 
L 52.61086 45.511505 
L 52.611468 45.513712 
L 52.619986 45.507329 
L 52.725853 45.517104 
L 52.918726 45.512208 
L 53.022768 45.496789 
L 52.926635 45.515481 
L 53.036153 45.507129 
L 53.165141 45.469607 
L 53.165749 45.468539 
L 53.210165 45.457063 
L 53.170616 45.472866 
L 53.277092 45.476849 
L 53.287435 45.484817 
L 53.376875 45.437175 
L 53.384176 45.444476 
L 53.482133 45.445983 
L 53.40973 45.456493 
L 53.497344 45.458765 
L 53.501603 45.46791 
L 53.516206 45.455694 
" clip-path="url(#p936491177a)" style="fill: none; stroke: #f2a900; stroke-width: 0.5; stroke-linecap: square"/>
   </g>
  </g>
  <g id="axes_2">
   <g id="patch_3">
    <path d="M 65.426087 51.552 
L 113.947826 51.552 
L 113.947826 7.2 
L 65.426087 7.2 
z
" style="fill: #ffffff"/>
   </g>
   <g id="matplotlib.axis_3"/>
   <g id="matplotlib.axis_4"/>
   <g id="line2d_2">
    <path d="M 67.631621 45.494365 
L 67.782512 45.154142 
L 67.78312 45.154663 
L 67.783728 45.156586 
L 67.860391 45.034688 
L 68.03136 44.784265 
L 67.867692 45.039655 
L 68.033185 44.78665 
L 68.041703 44.789847 
L 68.100113 44.689444 
L 68.100721 44.68946 
L 68.763303 43.714238 
L 68.76452 43.715742 
L 68.774255 43.715367 
L 68.830839 43.624588 
L 68.832056 43.624748 
L 69.018236 43.464599 
L 69.022495 43.469136 
L 69.023103 43.470536 
L 69.103416 43.381225 
L 69.106458 43.383592 
L 69.382078 43.188911 
L 69.384512 43.192259 
L 69.38512 43.196497 
L 69.488553 43.137102 
L 69.502547 43.149254 
L 69.574951 43.093805 
L 69.59442 43.105407 
L 69.730709 42.994131 
L 69.731926 42.995664 
L 69.733751 43.001568 
L 69.941835 42.846512 
L 70.046485 42.82002 
L 69.987467 42.814379 
L 70.048919 42.812249 
L 70.167563 42.757767 
L 70.28499 42.692078 
L 70.288641 42.674931 
L 70.411544 42.593841 
L 70.413978 42.595378 
L 70.519236 42.56437 
L 70.525321 42.548781 
L 71.581558 42.245592 
L 71.626581 42.268197 
L 71.690467 42.225097 
L 71.820063 42.17986 
L 71.916195 42.182955 
L 71.866912 42.159497 
L 71.931406 42.171963 
L 72.059785 42.193247 
L 72.060393 42.193823 
L 72.073779 42.205751 
L 72.142531 42.159016 
L 72.169911 42.176061 
L 72.276995 42.156145 
L 72.182079 42.187422 
L 72.291597 42.172515 
L 72.566 42.172061 
L 72.566608 42.174236 
L 72.60859 42.196312 
L 72.575735 42.158091 
L 72.673692 42.144336 
L 72.751571 42.146453 
L 72.675517 42.145768 
L 72.778342 42.182105 
L 72.812414 42.176414 
L 72.892119 42.198133 
L 73.024757 42.182653 
L 73.025365 42.184241 
L 73.288208 42.263915 
L 73.290033 42.258644 
L 73.451267 42.206188 
L 73.464044 42.22542 
L 73.494466 42.204823 
L 73.577213 42.22737 
L 73.690989 42.159885 
L 73.583297 42.230793 
L 73.710459 42.178667 
L 73.711068 42.18068 
L 73.801724 42.116032 
L 73.807808 42.118097 
L 73.922193 41.707015 
L 74.263523 39.297898 
L 74.933406 33.913526 
L 74.956527 22.020405 
L 74.96322 19.069289 
L 75.0484 38.91179 
L 75.076388 38.853253 
L 75.083081 38.808042 
L 75.606332 36.189014 
L 75.721934 34.107456 
L 75.745662 24.257705 
L 75.75418 19.125492 
L 75.837536 38.938853 
L 75.844228 38.924408 
L 75.8783 38.807668 
L 76.195902 37.359906 
L 76.220847 37.25118 
L 76.432582 36.150388 
L 76.560961 32.730489 
L 76.582256 19.151539 
L 76.644316 38.756322 
L 76.664394 38.967232 
L 76.750791 38.636592 
L 77.002682 37.64342 
L 77.04223 37.516095 
L 77.464481 34.880589 
L 77.498553 30.899784 
L 77.514373 19.163754 
L 77.594686 38.949279 
L 77.655529 38.786316 
L 78.103334 37.278335 
L 78.475086 35.831682 
L 78.559049 33.948106 
L 78.580953 24.188969 
L 78.589471 19.201277 
L 78.678302 39.01113 
L 78.67891 39.009262 
L 79.003204 38.062844 
L 79.443709 36.847344 
L 79.449793 36.850337 
L 79.52463 36.611145 
L 79.721762 35.447641 
L 79.777738 33.341542 
L 79.802683 19.221354 
L 79.853792 38.251465 
L 79.892731 39.009303 
L 79.972436 38.814858 
L 80.149489 38.312198 
L 80.150098 38.316037 
L 80.152531 38.318986 
L 80.220067 38.103758 
L 80.377043 37.762052 
L 80.706812 37.092932 
L 80.854053 36.743763 
L 80.854661 36.744041 
L 81.127239 35.316638 
L 81.180781 31.894411 
L 81.199034 19.261408 
L 81.271437 38.97051 
L 81.338973 38.967418 
L 81.366352 38.898295 
L 81.663875 38.193258 
L 81.673002 38.19803 
L 81.713158 38.099078 
L 81.716809 38.094413 
L 81.904206 37.736254 
L 82.163397 37.362659 
L 82.170699 37.376537 
L 82.253445 37.240889 
L 82.254054 37.242548 
L 82.649534 36.524463 
L 82.650143 36.527444 
L 82.939756 32.99855 
L 82.962268 19.294355 
L 83.01946 38.594274 
L 83.053533 39.033225 
L 83.136279 38.874219 
L 83.324285 38.503438 
L 83.331586 38.508988 
L 83.397905 38.37445 
L 83.573133 38.073232 
L 83.580434 38.076888 
L 84.863616 36.318487 
L 84.86605 36.319905 
L 85.064399 34.763146 
L 85.096645 30.961444 
L 85.112465 19.291868 
L 85.192169 39.053252 
L 85.210422 39.086032 
L 85.274916 38.977955 
L 85.414855 38.746592 
L 85.479957 38.662948 
L 85.438584 38.684242 
L 85.481174 38.659503 
L 85.61868 38.519939 
L 85.484216 38.665441 
L 85.619896 38.522015 
L 85.621722 38.527903 
L 85.675264 38.419594 
L 85.677089 38.421797 
L 85.822504 38.2061 
L 85.824938 38.210135 
L 85.905251 38.098063 
L 85.915594 38.097094 
L 85.973395 37.993096 
L 86.092648 37.870286 
L 86.096298 37.880375 
L 86.246581 37.757109 
L 86.25449 37.765342 
L 86.258141 37.77097 
L 86.326894 37.716253 
L 86.35184 37.709101 
L 86.480219 37.552731 
L 86.659097 37.388661 
L 86.661531 37.39114 
L 86.755838 37.322232 
L 86.757055 37.324015 
L 86.760097 37.325502 
L 86.908554 37.166808 
L 86.91038 37.172028 
L 87.002861 37.087454 
L 87.176873 36.882629 
L 87.005903 37.090327 
L 87.184174 36.888252 
L 87.293691 36.795237 
L 87.451884 36.55704 
L 87.467703 36.558204 
L 87.538889 36.45276 
L 87.773744 35.480951 
L 87.838238 33.152284 
L 87.861966 19.326888 
L 87.916117 38.471161 
L 87.968442 39.074918 
L 88.037803 38.976376 
L 88.165574 38.790696 
L 88.169833 38.795602 
L 88.172875 38.797316 
L 88.309772 38.654705 
L 88.320724 38.651065 
L 88.376091 38.569038 
L 88.382175 38.566134 
L 88.524548 38.463082 
L 88.530633 38.469012 
L 88.61703 38.359613 
L 88.618247 38.360943 
L 89.001558 37.975619 
L 88.619464 38.362045 
L 89.002775 37.978335 
L 89.019811 37.982176 
L 89.050841 37.919752 
L 89.084914 37.905115 
L 89.263792 37.813651 
L 89.266226 37.821485 
L 89.363575 37.750025 
L 89.610598 37.527941 
L 89.611815 37.534097 
L 89.728634 37.492867 
L 89.619116 37.515093 
L 89.729243 37.49191 
L 89.797387 37.431487 
L 89.847278 37.447615 
L 89.855188 37.453463 
L 89.925766 37.387829 
L 89.944019 37.390893 
L 90.077874 37.335854 
L 89.950712 37.403213 
L 90.080916 37.351525 
L 90.111337 37.34948 
L 90.164879 37.278547 
L 90.169138 37.287062 
L 91.124376 36.575399 
L 91.28561 36.194365 
L 91.350712 35.984509 
L 91.467531 34.62206 
L 91.497953 29.073061 
L 91.51073 19.330571 
L 91.597736 39.066867 
L 91.625115 39.068222 
L 91.690217 38.975602 
L 91.861795 38.7463 
L 91.864837 38.752394 
L 92.042499 38.604439 
L 91.88674 38.762441 
L 92.043107 38.60565 
L 92.266402 38.333786 
L 92.397823 38.259048 
L 92.287088 38.353156 
L 92.39904 38.260674 
L 92.414251 38.262463 
L 92.477527 38.184426 
L 92.479961 38.187102 
L 92.611991 38.083775 
L 92.791478 37.98913 
L 92.929592 37.92729 
L 92.804864 38.000348 
L 92.933851 37.931812 
L 92.935068 37.937131 
L 93.033025 37.860203 
L 93.033634 37.861851 
L 93.318988 37.673829 
L 93.319597 37.675103 
L 93.396259 37.701301 
L 93.328115 37.670471 
L 93.430331 37.665321 
L 93.569662 37.579146 
L 93.572096 37.585853 
L 93.634764 37.602224 
L 93.666402 37.534705 
L 93.671878 37.538338 
L 93.792956 37.475404 
L 93.67492 37.54427 
L 93.795998 37.481328 
L 93.898215 37.44977 
L 93.81851 37.452505 
L 93.901865 37.438981 
L 94.0126 37.370301 
L 94.022943 37.386667 
L 94.02416 37.390975 
L 94.120901 37.319479 
L 94.12516 37.322135 
L 94.273617 37.27128 
L 94.274834 37.272286 
L 94.276659 37.277327 
L 94.375834 37.203186 
L 94.499954 37.123749 
L 94.500562 37.128688 
L 94.60217 37.045099 
L 94.614339 37.057173 
L 94.701953 36.99524 
L 94.703778 36.998115 
L 94.849193 36.867973 
L 94.709254 37.002609 
L 94.860145 36.875967 
L 94.870488 36.887867 
L 94.950801 36.814051 
L 94.95506 36.816115 
L 95.079789 36.700671 
L 95.217294 36.579694 
L 95.406516 36.323826 
L 95.407733 36.324242 
L 95.408342 36.325225 
L 95.460667 36.199956 
L 95.527594 35.980759 
L 95.663883 33.404453 
L 95.689437 19.360039 
L 95.73872 38.158991 
L 95.79287 39.121667 
L 95.861015 39.042715 
L 96.033809 38.85231 
L 96.06058 38.846596 
L 96.113514 38.771639 
L 96.114122 38.772052 
L 96.428681 38.497169 
L 96.485874 38.470776 
L 96.450585 38.466709 
L 96.51447 38.428534 
L 96.63859 38.342544 
L 96.516295 38.432533 
L 96.6465 38.354765 
L 96.648325 38.36028 
L 96.703084 38.292191 
L 96.75115 38.302231 
L 96.873445 38.214844 
L 97.036504 38.125284 
L 97.043197 38.136755 
L 97.044414 38.142554 
L 97.091263 38.10068 
L 97.147847 38.101746 
L 97.301172 37.990485 
L 97.302389 37.994655 
L 97.308473 38.007626 
L 97.405214 37.938275 
L 97.408256 37.943961 
L 97.584701 37.885654 
L 97.68996 37.900064 
L 97.627291 37.92081 
L 97.694827 37.906265 
L 97.833549 37.860663 
L 97.8372 37.871184 
L 98.102476 37.718474 
L 98.103693 37.720989 
L 98.13959 37.771208 
L 98.206518 37.695804 
L 98.212602 37.702772 
L 98.356801 37.577185 
L 98.357409 37.579278 
L 98.474836 37.570661 
L 98.47727 37.578231 
L 98.504041 37.585113 
L 98.482137 37.568582 
L 98.582529 37.543951 
L 98.759582 37.464054 
L 98.868491 37.389597 
L 98.777835 37.46906 
L 98.886744 37.401523 
L 99.164189 37.295608 
L 99.169057 37.304126 
L 99.169665 37.309412 
L 99.274315 37.249059 
L 99.27614 37.252013 
L 99.428857 37.13217 
L 99.497001 37.147074 
L 99.434941 37.126897 
L 99.538983 37.114144 
L 99.661278 37.057056 
L 99.588874 37.13206 
L 99.663103 37.059095 
L 100.508823 36.451694 
L 100.640852 36.261447 
L 100.678575 36.15653 
L 100.872665 34.07651 
L 100.896393 24.854402 
L 100.90552 19.38119 
L 100.994351 39.128206 
L 100.994959 39.128084 
L 101.383747 38.727023 
L 101.001652 39.147467 
L 101.389831 38.7378 
L 101.39044 38.7393 
L 101.456759 38.64342 
L 101.470144 38.642026 
L 101.931944 38.218524 
L 102.051805 38.127944 
L 102.063973 38.137801 
L 102.191744 38.057232 
L 102.221557 38.090479 
L 102.314039 38.029946 
L 102.53064 37.929679 
L 102.531249 37.933013 
L 102.640158 37.903603 
L 102.553761 37.907008 
L 102.640766 37.902796 
L 102.760019 37.844952 
L 102.659628 37.91014 
L 102.764278 37.850659 
L 102.966277 37.751731 
L 102.968711 37.756672 
L 102.971753 37.762601 
L 103.058759 37.66881 
L 103.061801 37.67081 
L 103.126903 37.627977 
L 103.184704 37.652747 
L 103.251023 37.713096 
L 103.299698 37.669663 
L 103.395221 37.657849 
L 103.33742 37.701365 
L 103.412257 37.67918 
L 103.544896 37.642421 
L 103.546721 37.646361 
L 103.555239 37.647269 
L 103.610606 37.577373 
L 103.642853 37.585829 
L 103.752371 37.527051 
L 103.762106 37.532589 
L 103.94281 37.417252 
L 103.991484 37.437669 
L 104.038333 37.394405 
L 104.053544 37.406601 
L 104.063279 37.399889 
L 104.184357 37.408249 
L 104.243375 37.391374 
L 104.189833 37.411568 
L 104.290224 37.435461 
L 104.549416 39.210327 
L 104.61391 39.596281 
L 104.812258 40.630078 
L 105.151763 41.981107 
L 105.153588 41.979051 
L 105.212606 42.183126 
L 105.496135 42.978104 
L 105.499786 42.970206 
L 105.571581 43.157755 
L 105.794875 43.553761 
L 105.795483 43.551805 
L 105.870929 43.67924 
L 105.871537 43.678557 
L 106.148374 44.056795 
L 106.152024 44.052011 
L 106.153241 44.050066 
L 106.238422 44.132338 
L 106.239638 44.129452 
L 106.380795 44.225011 
L 106.38262 44.218904 
L 106.480577 44.300939 
L 106.483619 44.296651 
L 106.492137 44.289668 
L 106.525601 44.350098 
L 106.574276 44.360703 
L 107.391399 44.585379 
L 107.393833 44.576184 
L 107.39505 44.577642 
L 107.527688 44.58867 
L 107.5502 44.60973 
L 107.603133 44.570898 
L 107.637205 44.575533 
L 107.648766 44.554666 
L 107.705958 44.62405 
L 107.743681 44.606401 
L 107.768018 44.587936 
L 107.820952 44.650865 
L 107.85259 44.635812 
L 107.956024 44.654943 
L 107.87206 44.617878 
L 107.971234 44.63843 
L 108.120908 44.596721 
L 108.132469 44.609178 
L 108.186011 44.626624 
L 108.148288 44.594726 
L 108.245028 44.596724 
L 108.254155 44.600983 
L 108.36854 44.564635 
L 108.371582 44.570771 
L 108.383142 44.539679 
L 108.478058 44.552539 
L 108.5821 44.544087 
L 108.52004 44.565587 
L 108.588184 44.567592 
L 108.642334 44.584096 
L 108.661196 44.543093 
L 108.697093 44.544587 
L 108.883882 44.450839 
L 108.891183 44.463177 
L 108.904568 44.471796 
L 108.990965 44.414638 
L 108.992182 44.416359 
L 109.243465 44.371265 
L 108.993399 44.418506 
L 109.24529 44.3773 
L 109.245898 44.382228 
L 109.324386 44.33714 
L 109.352982 44.344388 
L 109.464934 44.348551 
L 109.430253 44.30238 
L 109.468584 44.345073 
L 109.606698 44.296417 
L 109.607307 44.299496 
L 109.693095 44.307297 
L 109.715607 44.273266 
L 109.804438 44.248518 
L 109.747246 44.297473 
L 109.830601 44.26343 
L 109.994269 44.222996 
L 109.998528 44.228794 
L 110.073973 44.248273 
L 110.011913 44.217089 
L 110.108654 44.215881 
L 111.598703 43.903004 
L 111.70822 43.89896 
L 111.635817 43.919453 
L 111.711871 43.902607 
L 111.727082 43.927998 
L 111.742292 43.909345 
" clip-path="url(#p6aec7ee5fa)" style="fill: none; stroke: #f2a900; stroke-width: 0.5; stroke-linecap: square"/>
   </g>
  </g>
  <g id="axes_3">
   <g id="patch_4">
    <path d="M 123.652174 51.552 
L 172.173913 51.552 
L 172.173913 7.2 
L 123.652174 7.2 
z
" style="fill: #ffffff"/>
   </g>
   <g id="matplotlib.axis_5"/>
   <g id="matplotlib.axis_6"/>
   <g id="line2d_3">
    <path d="M 125.857708 45.494365 
L 125.99643 45.26011 
L 125.997038 45.260696 
L 126.286652 45.007038 
L 126.41138 44.869195 
L 126.411989 44.870362 
L 126.414422 44.875939 
L 126.489868 44.719547 
L 126.490476 44.72306 
L 126.632241 44.484626 
L 126.664488 44.478648 
L 126.706469 44.392923 
L 126.71012 44.395435 
L 126.862836 44.200787 
L 126.864053 44.201443 
L 126.86527 44.204296 
L 126.938282 44.09913 
L 127.073354 43.963297 
L 127.07457 43.967846 
L 127.079438 43.977241 
L 127.160968 43.850234 
L 127.164618 43.856013 
L 127.357491 43.679661 
L 127.173745 43.870876 
L 127.360533 43.682531 
L 127.365401 43.69563 
L 127.45484 43.602575 
L 127.663532 43.440365 
L 127.666574 43.443048 
L 127.754797 43.385209 
L 127.669616 43.431641 
L 127.756622 43.368162 
L 127.864923 43.28075 
L 127.766965 43.377322 
L 127.8777 43.295034 
L 127.878917 43.296394 
L 128.135066 43.012682 
L 128.136283 43.019224 
L 128.235458 42.936761 
L 128.37418 42.850454 
L 128.242759 42.942317 
L 128.376005 42.857096 
L 128.376614 42.859504 
L 128.471529 42.784869 
L 128.621203 42.604794 
L 128.883437 42.359009 
L 128.994172 42.294509 
L 128.888913 42.360027 
L 129.003298 42.30563 
L 129.017292 42.316093 
L 129.09943 42.229524 
L 129.100039 42.233588 
L 129.214424 42.152293 
L 129.10734 42.235013 
L 129.224159 42.162697 
L 129.264924 42.165664 
L 129.31664 42.092785 
L 129.318466 42.09719 
L 129.431025 42.001193 
L 129.446236 42.010864 
L 129.785133 41.834557 
L 129.785741 41.83692 
L 129.83259 41.851723 
L 129.893433 41.802542 
L 129.894042 41.803694 
L 130.132547 41.646628 
L 130.141673 41.669772 
L 130.576702 41.505247 
L 130.653364 41.471934 
L 130.688045 41.501327 
L 130.826767 41.510319 
L 130.702647 41.487698 
L 130.827376 41.509282 
L 130.834677 41.525194 
L 130.947237 41.44841 
L 131.014773 41.509242 
L 130.96914 41.439654 
L 131.064664 41.461133 
L 131.254495 41.440974 
L 131.260579 41.454194 
L 131.374964 41.489566 
L 131.276398 41.432681 
L 131.376789 41.48447 
L 131.422422 41.454596 
L 131.483873 41.504274 
L 131.485698 41.50062 
L 131.573921 41.495673 
L 131.547758 41.478516 
L 131.595216 41.482544 
L 131.754625 41.421376 
L 131.596433 41.483843 
L 131.759493 41.431996 
L 131.995564 41.318095 
L 132.174443 40.662405 
L 132.437894 38.474806 
L 132.575399 35.52439 
L 132.596086 20.043199 
L 132.602779 17.430166 
L 132.684917 38.8487 
L 132.723248 39.031742 
L 132.796868 38.866237 
L 133.105951 36.522654 
L 133.133939 31.743028 
L 133.14915 17.875529 
L 133.236156 39.015299 
L 133.362709 39.267635 
L 133.477703 39.195722 
L 133.485004 39.198233 
L 133.485613 39.200626 
L 133.572618 39.095358 
L 133.573227 39.095902 
L 133.751497 38.716227 
L 133.752106 38.720178 
L 133.829985 38.501327 
L 133.830593 38.504149 
L 134.10743 35.802457 
L 134.127508 25.381589 
L 134.137851 17.679353 
L 134.229724 39.165506 
L 134.307604 39.37751 
L 134.350802 39.372671 
L 134.975053 38.763259 
L 135.354714 36.042175 
L 135.377226 26.61683 
L 135.388178 17.681317 
L 135.480659 39.176366 
L 135.593828 39.403837 
L 135.685092 39.347085 
L 135.809212 39.283451 
L 135.700303 39.359853 
L 135.812255 39.29411 
L 135.812863 39.296387 
L 135.898652 39.195359 
L 135.900477 39.195436 
L 136.031898 39.028009 
L 136.036766 39.029018 
L 136.044675 39.044108 
L 136.131073 38.940717 
L 136.272837 38.658569 
L 136.273446 38.661811 
L 136.424337 38.380212 
L 136.603215 37.294574 
L 136.650065 35.814962 
L 136.670751 24.490653 
L 136.680486 17.692747 
L 136.772359 39.149574 
L 136.898305 39.429613 
L 137.089961 39.434348 
L 137.092394 39.428871 
L 137.473881 39.045579 
L 137.669796 38.601984 
L 137.672229 38.611351 
L 137.674663 38.613774 
L 137.713603 38.487125 
L 137.71482 38.48742 
L 137.967927 35.822026 
L 137.988614 24.710012 
L 137.998349 17.682198 
L 138.090222 39.12833 
L 138.228944 39.393018 
L 138.365233 39.351275 
L 138.371317 39.357598 
L 138.411474 39.353484 
L 138.449196 39.278956 
L 138.723599 38.999115 
L 138.724207 39.002425 
L 138.724816 39.006026 
L 138.815472 38.89024 
L 138.817906 38.891501 
L 139.076489 38.188838 
L 139.240157 35.519607 
L 139.260236 21.205522 
L 139.267537 17.679303 
L 139.353934 39.071733 
L 139.47562 39.423725 
L 139.481096 39.414545 
L 139.796872 39.355202 
L 139.967233 39.127407 
L 139.96845 39.127375 
L 139.983661 39.084302 
L 140.026251 39.034586 
L 140.188094 38.710471 
L 140.18931 38.713237 
L 140.219732 38.697233 
L 140.240419 38.612121 
L 140.564713 35.888859 
L 140.585399 26.051637 
L 140.596351 17.68204 
L 140.688224 39.105118 
L 140.828163 39.404569 
L 140.833031 39.396373 
L 140.960193 39.457131 
L 140.960801 39.453272 
L 141.08553 39.343316 
L 140.964452 39.457475 
L 141.115951 39.367973 
L 141.118994 39.3754 
L 141.192614 39.298005 
L 141.211475 39.300749 
L 141.364192 39.051948 
L 141.3648 39.05447 
L 141.443896 38.911432 
L 141.618516 38.507631 
L 141.619124 38.507928 
L 141.619733 38.50955 
L 141.670841 38.331702 
L 141.724383 38.130099 
L 141.87284 36.38776 
L 141.899003 30.323268 
L 141.912997 17.679554 
L 142.002436 39.114946 
L 142.112562 39.418793 
L 142.13264 39.404693 
L 142.215996 39.438457 
L 142.133857 39.400577 
L 142.259194 39.383974 
L 142.379055 39.309871 
L 142.382706 39.320005 
L 142.383923 39.323541 
L 142.477013 39.225302 
L 142.624862 39.03133 
L 142.626078 39.03348 
L 142.795222 38.729666 
L 143.128643 37.493518 
L 143.19557 35.404528 
L 143.216865 19.207814 
L 143.222341 17.67951 
L 143.295353 38.786186 
L 143.417039 39.426041 
L 143.418256 39.422309 
L 143.512563 39.425573 
L 143.425557 39.431119 
L 143.52534 39.447666 
L 143.581316 39.463041 
L 143.544201 39.439827 
L 143.636075 39.435041 
L 143.73099 39.422213 
L 143.661629 39.384449 
L 143.74255 39.395659 
L 143.869712 39.318865 
L 143.872754 39.328003 
L 143.873363 39.328403 
L 143.912911 39.236264 
L 143.919604 39.226292 
L 144.113693 38.881386 
L 144.117952 38.887383 
L 144.313259 38.342226 
L 144.453198 37.636987 
L 144.520734 36.471352 
L 144.547505 31.730614 
L 144.562716 17.691222 
L 144.65033 39.084135 
L 144.737944 39.364494 
L 144.7781 39.328521 
L 144.83651 39.329736 
L 144.792703 39.345901 
L 144.883967 39.362975 
L 145.012955 39.321829 
L 145.013563 39.319608 
L 145.193659 39.134983 
L 145.021473 39.324118 
L 145.196701 39.13746 
L 145.19731 39.142901 
L 145.2904 38.983864 
L 145.291617 38.98732 
L 145.45711 38.652945 
L 145.457718 38.654996 
L 145.524646 38.491685 
L 145.525254 38.492013 
L 145.527688 38.494131 
L 145.772277 36.77625 
L 145.806958 32.559063 
L 145.823386 17.674245 
L 145.907958 39.090502 
L 146.027819 39.462457 
L 146.040596 39.451069 
L 146.066758 39.455709 
L 146.136728 39.390062 
L 146.140378 39.392723 
L 146.21339 39.354718 
L 146.256589 39.370706 
L 146.321083 39.370913 
L 146.355155 39.320877 
L 146.361239 39.326512 
L 146.365498 39.309368 
L 146.482317 39.248101 
L 146.611913 39.077315 
L 146.61313 39.080989 
L 146.802352 38.783606 
L 146.803569 38.786315 
L 146.813912 38.787829 
L 146.864412 38.631756 
L 146.866237 38.633807 
L 147.166802 35.829489 
L 147.186881 25.643416 
L 147.197224 17.674074 
L 147.289705 39.131199 
L 147.415651 39.436119 
L 147.421735 39.424885 
L 147.52456 39.401679 
L 147.427819 39.435858 
L 147.538554 39.416018 
L 147.573235 39.429171 
L 147.630427 39.35454 
L 147.632861 39.357285 
L 147.848246 39.087701 
L 147.849462 39.092093 
L 147.869541 39.098273 
L 147.927342 38.999754 
L 148.066064 38.787177 
L 148.067281 38.787665 
L 148.069106 38.793349 
L 148.149419 38.595532 
L 148.240684 38.347776 
L 148.462761 35.500009 
L 148.483448 20.353745 
L 148.490141 17.68616 
L 148.572887 39.059379 
L 148.695791 39.392628 
L 148.7037 39.38501 
L 148.829037 39.420865 
L 148.830254 39.418561 
L 148.950723 39.287778 
L 148.959241 39.294417 
L 149.248246 38.986272 
L 149.382101 38.715522 
L 149.384535 38.718075 
L 149.626691 37.746667 
L 149.680841 37.129345 
L 149.726473 34.011897 
L 149.745943 17.661214 
L 149.823214 38.89734 
L 149.952201 39.402778 
L 150.4572 39.179028 
L 150.630603 38.890539 
L 150.631819 38.893155 
L 150.699355 38.726709 
L 150.699964 38.726774 
L 150.74803 38.608783 
L 151.049203 36.008362 
L 151.071107 26.481359 
L 151.082059 17.684541 
L 151.173932 39.158239 
L 151.299877 39.390335 
L 151.304745 39.384753 
L 151.677713 39.214562 
L 152.2685 37.527908 
L 152.339687 35.090839 
L 152.364024 17.673439 
L 152.429734 38.508309 
L 152.548987 39.408691 
L 152.55568 39.400381 
L 152.628083 39.361694 
L 152.569065 39.406386 
L 152.674932 39.39181 
L 152.691968 39.398712 
L 152.765589 39.306694 
L 152.777149 39.313997 
L 152.925606 39.200143 
L 152.778366 39.314584 
L 152.926214 39.200977 
L 152.937166 39.201783 
L 153.011395 39.074196 
L 153.014437 39.078337 
L 153.090491 38.963487 
L 153.09475 38.973443 
L 153.096575 38.97862 
L 153.572977 36.7833 
L 153.609483 30.973109 
L 153.623477 17.692674 
L 153.712916 39.10565 
L 153.843729 39.373416 
L 153.958723 39.390647 
L 153.961765 39.384227 
L 154.122999 39.337757 
L 154.126041 39.347562 
L 154.147945 39.35657 
L 154.20818 39.256429 
L 154.214264 39.26396 
L 154.312221 39.225515 
L 154.215481 39.262555 
L 154.317089 39.214002 
L 154.318306 39.216355 
L 154.862852 37.725476 
L 154.943165 36.436103 
L 154.970544 30.169053 
L 154.98393 17.686096 
L 155.073977 39.157131 
L 155.18532 39.414132 
L 155.20114 39.377302 
L 155.355073 39.457804 
L 155.20479 39.374985 
L 155.358723 39.450412 
L 155.48406 39.368563 
L 155.363591 39.454977 
L 155.487711 39.370944 
L 155.488319 39.3759 
L 155.584451 39.250768 
L 155.595403 39.249827 
L 155.631301 39.197975 
L 155.674499 39.184313 
L 155.675716 39.185971 
L 156.201401 37.852021 
L 156.309702 35.379818 
L 156.335864 17.673794 
L 156.398533 38.255842 
L 156.519002 39.31001 
L 156.52387 39.30793 
L 156.657725 39.310428 
L 156.526912 39.319692 
L 156.658333 39.312538 
L 156.730128 39.331014 
L 156.665026 39.302443 
L 156.771501 39.303558 
L 156.940645 39.12594 
L 156.941254 39.13012 
L 157.034344 39.00226 
L 157.184626 38.696682 
L 157.18706 38.70529 
L 157.272849 38.469107 
L 157.514396 36.85313 
L 157.548468 34.087805 
L 157.567938 17.670092 
L 157.6446 38.86918 
L 157.779672 39.412064 
L 158.009051 39.427837 
L 158.009659 39.423652 
L 158.010876 39.423987 
L 158.148382 39.264885 
L 158.151424 39.271461 
L 158.175761 39.231648 
L 158.239038 39.200964 
L 158.38932 38.939497 
L 158.389929 38.940474 
L 158.390537 38.942878 
L 158.463549 38.782888 
L 158.464158 38.783796 
L 158.736126 37.831207 
L 158.820698 36.816711 
L 158.853554 33.999226 
L 158.873023 17.680448 
L 158.950294 38.895562 
L 159.084758 39.465797 
L 159.208269 39.568765 
L 159.212528 39.559828 
L 159.328739 39.458815 
L 159.227131 39.575698 
L 159.339082 39.467642 
L 159.3476 39.476887 
L 159.421829 39.356467 
L 159.426696 39.359747 
L 159.555075 39.261388 
L 159.5569 39.262644 
L 159.557509 39.263606 
L 159.635388 39.180448 
L 159.635997 39.182383 
L 159.837387 38.707942 
L 159.923785 38.478901 
L 160.168982 36.068981 
L 160.191494 27.046815 
L 160.203055 17.672649 
L 160.294928 39.135497 
L 160.377674 39.385168 
L 160.419048 39.354241 
L 160.521873 39.412015 
L 160.5383 39.399018 
L 160.669722 39.327026 
L 160.569939 39.412159 
L 160.671547 39.328061 
L 160.822438 39.203245 
L 160.987931 38.966366 
L 160.990365 38.96922 
L 161.371851 37.555396 
L 161.435128 36.311714 
L 161.460074 30.033533 
L 161.473459 17.695191 
L 161.563507 39.170865 
L 161.774633 39.46167 
L 161.778284 39.452095 
L 161.906054 39.365324 
L 161.781326 39.461851 
L 161.90788 39.37093 
L 161.91944 39.371157 
L 161.999753 39.291308 
L 162.131782 39.117561 
L 162.132391 39.117784 
L 162.389757 38.702823 
L 162.390366 38.704982 
L 162.457902 38.535576 
L 162.515703 38.425948 
L 162.553425 38.602415 
L 162.897798 40.343579 
L 163.37785 41.948486 
L 163.380892 41.944125 
L 163.722222 42.63774 
L 163.725264 42.625386 
L 163.725873 42.624455 
L 163.776981 42.747153 
L 163.958902 42.924214 
L 163.960727 42.92161 
L 164.839911 43.139375 
L 164.842344 43.130122 
L 164.873983 43.124681 
L 164.937868 43.178332 
L 164.94882 43.162434 
L 165.025482 43.163506 
L 165.048603 43.11128 
L 165.049211 43.115138 
L 165.187934 42.981214 
L 165.192193 42.994323 
L 165.432523 42.945503 
L 165.195235 43.004752 
L 165.43374 42.951471 
L 165.434957 42.954751 
L 165.525005 42.902669 
L 165.537782 42.908318 
L 165.667378 42.789156 
L 165.68563 42.818562 
L 166.013575 42.644592 
L 166.047039 42.679785 
L 166.098147 42.619461 
L 166.124918 42.633469 
L 166.606796 42.338749 
L 166.607404 42.341606 
L 166.683458 42.296402 
L 166.721181 42.305557 
L 166.761946 42.307158 
L 166.808186 42.265088 
L 166.831307 42.295511 
L 166.952993 42.192731 
L 166.954818 42.201423 
L 166.967596 42.205888 
L 167.031481 42.131683 
L 167.043649 42.132825 
L 167.354558 41.958257 
L 167.465292 41.886499 
L 167.476244 41.895235 
L 167.655123 41.774912 
L 167.767074 41.716574 
L 167.691021 41.814744 
L 167.773767 41.724045 
L 167.886935 41.745324 
L 167.890586 41.739713 
L 168.026875 41.65857 
L 168.140651 41.607256 
L 168.046344 41.67035 
L 168.153428 41.619148 
L 168.180199 41.626812 
L 168.238 41.584642 
L 168.263555 41.604139 
L 168.380373 41.555791 
L 168.269639 41.611775 
L 168.384632 41.567526 
L 168.498409 41.587085 
L 168.414446 41.561338 
L 168.500234 41.581534 
L 168.668161 41.521822 
L 168.671204 41.528282 
L 168.76551 41.47449 
L 168.770986 41.453193 
L 169.232177 41.410485 
L 169.233394 41.416253 
L 169.365424 41.384254 
L 169.474942 41.342439 
L 169.482243 41.355555 
L 169.491369 41.362935 
L 169.554646 41.289299 
L 169.587501 41.312118 
L 169.662338 41.273497 
L 169.592977 41.319005 
L 169.707971 41.302756 
L 169.734742 41.316599 
L 169.803495 41.251372 
L 169.810796 41.254691 
L 169.968379 41.267926 
L 169.968379 41.267926 
" clip-path="url(#p6d0ce6d652)" style="fill: none; stroke: #f2a900; stroke-width: 0.5; stroke-linecap: square"/>
   </g>
  </g>
  <g id="axes_4"/>
  <g id="text_1">
   <text style="font-size: 9px; font-family: 'Arial', sans-serif" transform="translate(183.298359 24.010031)">TSNPE-PFN</text>
   <text style="font-size: 9px; font-family: 'Arial', sans-serif" transform="translate(187.292109 33.529219)">predictives</text>
  </g>
 </g>
 <defs>
  <clipPath id="p936491177a">
   <rect x="7.2" y="7.2" width="48.521739" height="44.352"/>
  </clipPath>
  <clipPath id="p6aec7ee5fa">
   <rect x="65.426087" y="7.2" width="48.521739" height="44.352"/>
  </clipPath>
  <clipPath id="p6d0ce6d652">
   <rect x="123.652174" y="7.2" width="48.521739" height="44.352"/>
  </clipPath>
 </defs>
</svg>
