<?xml version="1.0" encoding="utf-8" standalone="no"?>
<!DOCTYPE svg PUBLIC "-//W3C//DTD SVG 1.1//EN"
  "http://www.w3.org/Graphics/SVG/1.1/DTD/svg11.dtd">
<svg xmlns:xlink="http://www.w3.org/1999/xlink" width="237.6pt" height="58.752pt" viewBox="0 0 237.6 58.752" xmlns="http://www.w3.org/2000/svg" version="1.1">
 <metadata>
  <rdf:RDF xmlns:dc="http://purl.org/dc/elements/1.1/" xmlns:cc="http://creativecommons.org/ns#" xmlns:rdf="http://www.w3.org/1999/02/22-rdf-syntax-ns#">
   <cc:Work>
    <dc:type rdf:resource="http://purl.org/dc/dcmitype/StillImage"/>
    <dc:date>2025-10-10T14:36:35.862887</dc:date>
    <dc:format>image/svg+xml</dc:format>
    <dc:creator>
     <cc:Agent>
      <dc:title>Matplotlib v3.10.0, https://matplotlib.org/</dc:title>
     </cc:Agent>
    </dc:creator>
   </cc:Work>
  </rdf:RDF>
 </metadata>
 <defs>
  <style type="text/css">*{stroke-linejoin: round; stroke-linecap: butt}</style>
 </defs>
 <g id="figure_1">
  <g id="patch_1">
   <path d="M 0 58.752 
L 237.6 58.752 
L 237.6 0 
L 0 0 
z
" style="fill: #ffffff"/>
  </g>
  <g id="axes_1">
   <g id="patch_2">
    <path d="M 7.2 51.552 
L 55.721739 51.552 
L 55.721739 7.2 
L 7.2 7.2 
z
" style="fill: #ffffff"/>
   </g>
   <g id="matplotlib.axis_1"/>
   <g id="matplotlib.axis_2"/>
   <g id="line2d_1">
    <path d="M 9.405534 45.494365 
L 9.510792 45.41955 
L 9.522352 45.447326 
L 9.8144 45.571869 
L 9.892279 45.596274 
L 9.840562 45.559717 
L 9.926959 45.583722 
L 9.965899 45.607023 
L 9.998754 45.533877 
L 10.021875 45.529619 
L 10.133826 45.452163 
L 10.034652 45.537149 
L 10.142953 45.457276 
L 10.290801 45.44186 
L 10.293235 45.453967 
L 10.326699 45.452228 
L 10.377807 45.413392 
L 10.399711 45.41949 
L 10.529915 45.430985 
L 10.437433 45.391814 
L 10.534782 45.42533 
L 10.609011 45.390525 
L 10.548168 45.438855 
L 10.649776 45.402038 
L 10.825004 45.409389 
L 10.827438 45.416701 
L 10.918094 45.435011 
L 10.877329 45.402985 
L 10.939998 45.428292 
L 11.034305 45.405943 
L 10.999016 45.441298 
L 11.051341 45.432798 
L 11.168768 45.41909 
L 11.065943 45.448643 
L 11.175461 45.444377 
L 11.302623 45.499432 
L 11.303231 45.487903 
L 11.305665 45.475057 
L 11.367725 45.526008 
L 11.413357 45.492114 
L 11.431002 45.526107 
L 11.448038 45.479289 
L 11.524092 45.487173 
L 11.631784 45.412592 
L 11.529568 45.49467 
L 11.643953 45.443224 
L 11.729742 45.465088 
L 11.668899 45.425458 
L 11.754687 45.440476 
L 11.869681 45.418067 
L 11.820398 45.472383 
L 11.870898 45.424232 
L 12.056469 45.445999 
L 12.06803 45.408887 
L 12.19215 45.367128 
L 12.077765 45.420748 
L 12.201885 45.384618 
L 12.273679 45.39172 
L 12.30045 45.354889 
L 12.312011 45.371173 
L 12.454384 45.270226 
L 12.461076 45.278112 
L 12.576678 45.334625 
L 12.577895 45.333911 
L 12.709316 45.263498 
L 12.709925 45.257164 
L 12.787196 45.272006 
L 12.736087 45.294211 
L 12.808491 45.308519 
L 12.81275 45.318855 
L 12.873593 45.258453 
L 12.908273 45.256345 
L 12.978852 45.222102 
L 12.913749 45.259334 
L 13.019008 45.261971 
L 13.099321 45.265695 
L 13.032393 45.242439 
L 13.129134 45.249701 
L 13.238043 45.181644 
L 13.245953 45.192465 
L 13.380416 45.265006 
L 13.388326 45.247783 
L 13.491151 45.191573 
L 13.400495 45.269277 
L 13.502103 45.22716 
L 14.328352 45.224881 
L 14.382503 45.261421 
L 14.349648 45.205686 
L 14.43787 45.213824 
L 14.516966 45.193631 
L 14.540695 45.238695 
L 14.547388 45.230123 
L 14.666032 45.280326 
L 14.667249 45.275813 
L 14.91123 45.333449 
L 14.970248 45.319687 
L 15.025615 45.372654 
L 15.140608 45.381209 
L 15.035958 45.399466 
L 15.142434 45.383307 
L 15.144259 45.390248 
L 15.203277 45.329695 
L 15.249518 45.344207 
L 15.328614 45.329108 
L 15.289674 45.362231 
L 15.359035 45.361658 
L 15.427788 45.349389 
L 15.363294 45.355028 
L 15.452125 45.299474 
L 15.56286 45.235762 
L 15.475854 45.302072 
L 15.567727 45.242835 
L 15.568944 45.243989 
L 15.755733 44.332627 
L 17.033439 35.595269 
L 17.116794 32.926331 
L 17.133221 10.661959 
L 17.191022 40.689571 
L 17.214143 40.81407 
L 17.290805 40.481377 
L 17.292631 40.485996 
L 17.514708 39.729136 
L 18.076899 37.941455 
L 18.077507 37.943294 
L 18.129224 37.746725 
L 18.284374 37.409189 
L 18.286199 37.4158 
L 18.33244 37.26039 
L 18.555126 36.685962 
L 18.559993 36.696528 
L 18.561819 36.705573 
L 18.640915 36.454699 
L 18.680463 36.348488 
L 18.986504 33.411323 
L 19.000498 18.427322 
L 19.005973 10.716079 
L 19.083244 40.89667 
L 19.104539 40.86755 
L 19.265774 40.540618 
L 19.267599 40.549644 
L 19.341219 40.387656 
L 19.34487 40.401325 
L 19.506104 40.087771 
L 19.543827 39.986021 
L 19.544435 39.982634 
L 22.460039 35.812969 
L 22.6304 33.678174 
L 22.646219 21.43379 
L 22.652912 10.739346 
L 22.741743 40.952464 
L 22.752086 40.927017 
L 22.805019 40.940065 
L 22.857345 40.880519 
L 26.234139 36.61058 
L 26.257868 36.613214 
L 26.354609 36.45772 
L 26.364343 36.469932 
L 26.479945 36.326279 
L 26.48603 36.328642 
L 26.573035 36.232101 
L 26.7148 35.954987 
L 26.579728 36.24535 
L 26.716017 35.956765 
L 26.718451 35.9576 
L 26.754956 35.842636 
L 26.756173 35.841994 
L 26.92045 33.745058 
L 26.936269 24.49267 
L 26.94357 10.735244 
L 27.037877 40.933294 
L 27.042136 40.932614 
L 27.045787 40.942697 
L 27.115148 40.892514 
L 27.147395 40.895158 
L 27.245961 40.781618 
L 27.270298 40.810496 
L 27.275165 40.820123 
L 27.315322 40.762379 
L 27.373123 40.763218 
L 27.499677 40.56168 
L 27.380424 40.769233 
L 27.500893 40.565651 
L 27.512454 40.588313 
L 27.556261 40.490694 
L 27.579381 40.491557 
L 27.694983 40.324352 
L 27.701067 40.335509 
L 27.747917 40.196611 
L 27.866561 40.05414 
L 27.872645 40.063369 
L 28.054566 39.877791 
L 28.062476 39.885559 
L 28.063084 39.88873 
L 28.148265 39.744954 
L 28.299764 39.501729 
L 30.004589 37.270079 
L 30.013715 37.28463 
L 30.06239 37.273594 
L 30.097679 37.203938 
L 30.208413 37.11153 
L 30.231534 37.135838 
L 30.342268 36.996578 
L 30.46578 36.842523 
L 30.365389 37.016757 
L 30.468822 36.84696 
L 30.536358 36.786783 
L 30.47734 36.824873 
L 30.545484 36.764534 
L 30.914802 36.190166 
L 30.54731 36.765624 
L 30.915411 36.195988 
L 30.916019 36.203622 
L 31.013368 36.03013 
L 31.252482 34.380783 
L 31.277427 30.084635 
L 31.287771 10.738751 
L 31.371126 40.918032 
L 31.379036 40.915212 
L 31.417975 40.917428 
L 31.476385 40.842206 
L 31.482469 40.846168 
L 31.733143 40.664864 
L 31.486728 40.850355 
L 31.735576 40.671508 
L 31.737402 40.682936 
L 31.82745 40.55058 
L 31.835359 40.557127 
L 31.860305 40.582824 
L 31.916889 40.475161 
L 32.046485 40.312563 
L 33.635708 37.969964 
L 33.640575 37.977553 
L 33.672822 38.012999 
L 33.742183 37.897059 
L 33.744009 37.902174 
L 33.868129 37.779648 
L 33.753743 37.904348 
L 33.870562 37.782434 
L 33.874821 37.795022 
L 34.168694 37.411766 
L 34.188164 37.416971 
L 34.242314 37.329933 
L 34.393813 37.136701 
L 34.401115 37.150922 
L 34.410849 37.172063 
L 34.472301 37.040173 
L 34.49603 37.054539 
L 34.620758 36.93126 
L 34.631102 36.934459 
L 34.719324 36.841651 
L 34.719933 36.845603 
L 34.846486 36.670721 
L 34.847703 36.674025 
L 34.933492 36.543479 
L 34.935317 36.544191 
L 35.131841 36.221151 
L 35.152527 36.219265 
L 35.199377 36.118237 
L 35.45796 34.654882 
L 35.490815 31.540772 
L 35.502984 10.737753 
L 35.577821 40.951798 
L 35.585122 40.935453 
L 35.588773 40.942687 
L 35.647182 40.8749 
L 35.68673 40.882822 
L 35.940446 40.571268 
L 35.953223 40.58687 
L 35.988512 40.599221 
L 36.05544 40.491299 
L 36.175909 40.277724 
L 36.203897 40.286926 
L 36.205722 40.298276 
L 36.293336 40.09749 
L 36.29577 40.097648 
L 36.297595 40.103208 
L 36.842142 39.343636 
L 36.845792 39.357105 
L 36.93584 39.199442 
L 36.943141 39.205396 
L 36.952268 39.229249 
L 37.078213 39.097068 
L 37.078821 39.098047 
L 37.150008 39.00404 
L 37.150616 39.004041 
L 37.273519 38.822779 
L 37.277778 38.827222 
L 37.299074 38.827902 
L 37.364784 38.678592 
L 37.365393 38.679301 
L 37.529669 38.450258 
L 37.530278 38.458412 
L 37.679343 38.311165 
L 37.557049 38.474132 
L 37.694554 38.324322 
L 37.695771 38.328991 
L 37.756006 38.193548 
L 37.788861 38.205021 
L 38.055962 37.877681 
L 37.79312 38.209577 
L 38.057788 37.882314 
L 38.059613 37.893224 
L 38.146619 37.808665 
L 38.148444 37.816415 
L 38.276214 37.676088 
L 38.156353 37.821335 
L 38.276823 37.678878 
L 38.277431 37.681133 
L 38.35957 37.570555 
L 38.362612 37.572494 
L 38.476997 37.453244 
L 38.492816 37.482255 
L 38.505593 37.489019 
L 38.573737 37.381357 
L 38.769044 37.153497 
L 38.769652 37.154904 
L 38.818327 37.16595 
L 38.865176 37.092724 
L 38.873086 37.109074 
L 39.016676 36.944548 
L 38.877953 37.117372 
L 39.018501 36.950113 
L 39.020326 36.960748 
L 39.11585 36.822519 
L 39.116458 36.824893 
L 39.236928 36.70404 
L 39.121326 36.829146 
L 39.240578 36.705105 
L 39.261873 36.720544 
L 39.316024 36.630391 
L 39.320891 36.628456 
L 39.426758 36.528517 
L 39.438927 36.531012 
L 39.447445 36.534262 
L 39.528975 36.383978 
L 39.530192 36.392146 
L 39.532017 36.396331 
L 39.965829 34.962115 
L 40.011461 32.29023 
L 40.025455 10.734599 
L 40.09725 40.913952 
L 40.193382 40.879601 
L 40.136189 40.876443 
L 40.199466 40.867307 
L 40.310201 40.800369 
L 40.318719 40.802514 
L 40.522543 40.546142 
L 40.69473 40.319189 
L 40.695946 40.320265 
L 40.919849 40.032738 
L 41.052487 39.842794 
L 41.053096 39.846957 
L 41.141318 39.683511 
L 41.148619 39.692562 
L 41.29586 39.466423 
L 41.96696 38.545587 
L 42.088038 38.390093 
L 42.092905 38.396976 
L 42.180519 38.301307 
L 42.181128 38.301443 
L 42.313157 38.090251 
L 42.313766 38.093744 
L 42.314982 38.096954 
L 42.919155 37.532492 
L 43.042666 37.411583 
L 43.043275 37.41444 
L 43.209985 37.242857 
L 43.068221 37.429919 
L 43.212419 37.248318 
L 43.213027 37.250936 
L 43.293949 37.114889 
L 43.295774 37.117072 
L 43.350533 37.009468 
L 43.359659 37.021532 
L 43.478303 36.841903 
L 43.628586 36.674686 
L 43.492297 36.849477 
L 43.629803 36.676178 
L 43.780085 36.460144 
L 43.632845 36.684487 
L 43.780694 36.461404 
L 43.942537 36.148997 
L 43.944362 36.150211 
L 43.946187 36.153924 
L 44.012506 36.028476 
L 44.164614 35.49557 
L 44.25527 34.152873 
L 44.275957 28.207142 
L 44.284475 10.733832 
L 44.366005 40.966656 
L 44.380607 40.93776 
L 44.433541 40.953499 
L 44.460312 40.885673 
L 44.482824 40.883927 
L 44.506553 40.902856 
L 44.558878 40.805905 
L 44.566179 40.802801 
L 44.693949 40.651141 
L 44.571655 40.808082 
L 44.695166 40.65181 
L 44.704293 40.664979 
L 44.782172 40.501308 
L 44.900816 40.320843 
L 44.787648 40.504714 
L 44.916027 40.32868 
L 45.024936 40.348127 
L 45.048057 40.292782 
L 45.169134 40.150857 
L 45.174002 40.161067 
L 45.309682 40.000817 
L 45.185562 40.166687 
L 45.312116 40.006808 
L 45.313333 40.011242 
L 45.382694 39.852826 
L 45.561573 39.562993 
L 45.393037 39.8567 
L 45.562181 39.565071 
L 45.56279 39.570181 
L 45.635193 39.420852 
L 45.658313 39.435107 
L 45.806771 39.192199 
L 45.807379 39.193791 
L 45.887692 39.09946 
L 45.889517 39.099213 
L 45.894993 39.101286 
L 46.017288 38.96562 
L 46.490648 41.27357 
L 46.045276 38.952514 
L 46.491256 41.271909 
L 46.492473 41.269838 
L 46.541147 41.476074 
L 47.551752 44.608828 
L 47.552969 44.605806 
L 47.56027 44.597403 
L 47.639975 44.750534 
L 47.640583 44.744744 
L 47.778697 44.985236 
L 47.78539 44.974363 
L 47.939323 45.211709 
L 47.944799 45.199214 
L 48.028154 45.312323 
L 48.040931 45.307999 
L 48.075003 45.297864 
L 48.104816 45.365452 
L 48.136455 45.364163 
L 48.25449 45.492694 
L 48.139497 45.35955 
L 48.264225 45.481169 
L 48.266051 45.475916 
L 48.330544 45.570574 
L 48.360966 45.572084 
L 48.485694 45.741773 
L 48.495429 45.732578 
L 48.621374 45.73152 
L 48.525242 45.776402 
L 48.628067 45.749652 
L 48.657272 45.773095 
L 48.735151 45.726703 
L 48.73941 45.74963 
L 48.791735 45.728369 
L 48.833109 45.810626 
L 48.839801 45.807704 
L 48.959662 45.866112 
L 48.960271 45.864854 
L 49.307685 45.95689 
L 49.324113 45.968406 
L 49.377046 45.919465 
L 49.414769 45.919186 
L 49.429371 45.90563 
L 49.479871 46.004573 
L 49.488389 46.002 
L 49.594865 46.057713 
L 49.541931 45.962104 
L 49.611292 46.051769 
L 49.645973 46.019871 
L 49.712292 46.085954 
L 49.719593 46.082285 
L 49.830328 46.108664 
L 49.755491 46.048486 
L 49.83337 46.097536 
L 49.922201 46.035596 
L 49.834587 46.100511 
L 49.94958 46.055613 
L 49.959924 46.086492 
L 50.057273 46.031285 
L 50.157055 45.995986 
L 50.081002 46.05636 
L 50.171049 46.010058 
L 50.283609 46.043294 
L 50.181393 45.998445 
L 50.28726 46.040343 
L 50.39982 46.064217 
L 50.293953 46.052666 
L 50.402862 46.072589 
L 50.416247 46.100502 
L 50.500819 46.021931 
L 50.505687 46.032726 
L 50.515422 46.045866 
L 50.647451 45.941494 
L 50.678481 45.984606 
L 50.757577 45.92673 
L 50.867095 45.963813 
L 50.77218 45.904497 
L 50.885348 45.93768 
L 50.990607 45.892628 
L 50.895083 45.947249 
L 51.003992 45.904484 
L 51.357491 45.825361 
L 51.358099 45.83007 
L 51.434762 45.862738 
L 51.380611 45.824459 
L 51.471267 45.840577 
L 51.578351 45.783212 
L 51.591737 45.806833 
L 51.594171 45.818813 
L 51.625809 45.763016 
L 51.700646 45.780444 
L 51.80773 45.804044 
L 51.752363 45.766784 
L 51.815031 45.802464 
L 51.986 45.807268 
L 51.990259 45.791161 
L 52.18009 45.768982 
L 52.018856 45.824649 
L 52.180698 45.77209 
L 52.222072 45.790544 
L 52.282915 45.726233 
L 52.284132 45.730281 
L 52.416161 45.630918 
L 52.297517 45.744643 
L 52.424071 45.654874 
L 52.54089 45.694473 
L 52.542715 45.693 
L 52.619986 45.675252 
L 52.655275 45.695163 
L 52.76966 45.723841 
L 52.695432 45.671367 
L 52.773311 45.722763 
L 52.887087 45.722709 
L 52.774528 45.72009 
L 52.892563 45.708507 
L 53.016683 45.660296 
L 52.894389 45.709046 
L 53.017292 45.665741 
L 53.039195 45.685741 
L 53.102472 45.598924 
L 53.124376 45.609201 
L 53.238152 45.635557 
L 53.209556 45.58564 
L 53.239369 45.63206 
L 53.351321 45.564627 
L 53.282568 45.642501 
L 53.364706 45.568736 
L 53.463272 45.592728 
L 53.376875 45.550492 
L 53.476657 45.573657 
L 53.482133 45.570296 
L 53.500995 45.613738 
L 53.516206 45.589946 
" clip-path="url(#pb0adf17bc9)" style="fill: none; stroke: #1f77b2; stroke-width: 0.5; stroke-linecap: square"/>
   </g>
  </g>
  <g id="axes_2">
   <g id="patch_3">
    <path d="M 65.426087 51.552 
L 113.947826 51.552 
L 113.947826 7.2 
L 65.426087 7.2 
z
" style="fill: #ffffff"/>
   </g>
   <g id="matplotlib.axis_3"/>
   <g id="matplotlib.axis_4"/>
   <g id="line2d_2">
    <path d="M 67.631621 45.494365 
L 67.77156 45.232939 
L 67.772777 45.235714 
L 67.850047 45.159335 
L 67.775819 45.228426 
L 67.851264 45.154186 
L 68.647701 44.1029 
L 68.649526 44.104838 
L 68.715845 43.996768 
L 68.728014 44.001302 
L 68.847267 43.877437 
L 68.85761 43.880747 
L 68.861261 43.88618 
L 68.917236 43.776508 
L 68.921495 43.78268 
L 68.947658 43.791119 
L 69.047441 43.694547 
L 69.071169 43.695088 
L 69.131404 43.613183 
L 69.144181 43.626394 
L 69.274385 43.496623 
L 69.289596 43.506277 
L 69.574342 43.317922 
L 69.590161 43.332152 
L 69.708197 43.230982 
L 69.797637 43.118042 
L 69.930275 43.015585 
L 69.955829 43.026112 
L 70.011196 42.965094 
L 70.030057 42.963001 
L 70.16087 42.90205 
L 70.044051 42.974044 
L 70.161479 42.904511 
L 70.995638 42.344118 
L 70.998072 42.349334 
L 71.038837 42.359116 
L 71.090553 42.293915 
L 71.096638 42.294231 
L 71.204938 42.220349 
L 71.107589 42.298311 
L 71.231709 42.228647 
L 71.273691 42.239424 
L 71.338185 42.191283 
L 71.46413 42.104697 
L 71.353396 42.200451 
L 71.464739 42.106359 
L 71.592509 42.111606 
L 71.492727 42.145207 
L 71.593118 42.117302 
L 71.626581 42.130352 
L 71.691684 42.068459 
L 71.694117 42.069086 
L 71.820063 42.002789 
L 71.822496 42.011212 
L 72.049441 41.988355 
L 72.051875 41.993557 
L 72.073779 41.998983 
L 72.142531 41.93719 
L 72.157134 41.952938 
L 72.257525 41.95907 
L 72.272127 41.933157 
L 72.374952 41.864487 
L 72.281862 41.937969 
L 72.398681 41.876501 
L 73.661785 41.865013 
L 73.79929 41.776425 
L 73.897248 41.561554 
L 75.237014 32.727378 
L 75.271086 28.723555 
L 75.282646 12.450611 
L 75.348965 39.791697 
L 75.367218 39.732783 
L 75.588687 38.842671 
L 75.893511 37.90646 
L 75.89412 37.908857 
L 75.958613 37.714511 
L 76.11133 37.273782 
L 76.147836 37.145282 
L 76.34801 36.560811 
L 76.348618 36.562207 
L 76.414329 36.435622 
L 76.416762 36.438631 
L 76.832929 35.682756 
L 76.837797 35.689631 
L 76.908983 35.556753 
L 76.910809 35.556547 
L 76.914459 35.558278 
L 77.081169 35.330274 
L 77.120109 35.322287 
L 77.160266 35.254051 
L 77.163308 35.254965 
L 77.306898 35.078782 
L 77.308114 35.082482 
L 77.384168 34.975099 
L 77.386602 34.977537 
L 77.51924 34.779469 
L 77.519849 34.782708 
L 77.697511 34.516661 
L 77.698727 34.522866 
L 77.700553 34.530564 
L 77.786342 34.391391 
L 78.002335 34.178617 
L 78.175738 33.99475 
L 78.180605 34.000299 
L 78.187298 34.012807 
L 78.257876 33.89284 
L 78.259701 33.893502 
L 78.476303 31.425034 
L 78.49273 16.895484 
L 78.497598 12.575389 
L 78.577911 39.885724 
L 78.591296 39.863703 
L 78.839536 39.58318 
L 78.842579 39.588025 
L 78.994686 39.420689 
L 79.146794 39.2049 
L 79.147403 39.205443 
L 79.148011 39.210877 
L 79.242926 39.063116 
L 79.388342 38.818513 
L 79.38895 38.818732 
L 79.390775 38.823335 
L 79.485082 38.712734 
L 79.671871 38.458335 
L 79.675521 38.465683 
L 79.755226 38.366452 
L 79.767394 38.369779 
L 79.910376 38.175346 
L 80.074652 37.984631 
L 80.075261 37.98742 
L 81.090733 36.966173 
L 81.0956 36.972875 
L 81.102293 36.973986 
L 81.176522 36.880664 
L 81.181389 36.881786 
L 81.297599 36.82889 
L 81.430237 36.739266 
L 81.301858 36.833734 
L 81.435713 36.742498 
L 81.438147 36.746608 
L 81.531237 36.679443 
L 81.538538 36.690479 
L 81.688212 36.555333 
L 81.545839 36.69416 
L 81.69308 36.565384 
L 81.778869 36.501085 
L 81.780694 36.494625 
L 81.962007 36.376986 
L 81.963223 36.381963 
L 81.993645 36.421756 
L 82.024067 36.344757 
L 82.067874 36.349815 
L 82.095861 36.325832 
L 82.170699 36.387315 
L 82.175566 36.378067 
L 82.260138 36.354763 
L 82.211463 36.352316 
L 82.277174 36.336524 
L 82.393993 36.297673 
L 82.394601 36.298168 
L 82.4883 36.197116 
L 82.547926 36.182815 
L 82.520547 36.214672 
L 82.598426 36.209516 
L 82.689691 36.23923 
L 82.606335 36.206411 
L 82.714028 36.226569 
L 82.715245 36.2304 
L 82.840582 36.142702 
L 82.844841 36.139563 
L 82.979912 36.172959 
L 83.093081 36.049913 
L 83.118635 36.096797 
L 83.214767 36.071188 
L 83.125936 36.086438 
L 83.222068 36.051281 
L 83.358357 36.014511 
L 83.235454 36.068349 
L 83.358965 36.017491 
L 83.468483 36.022831 
L 83.424067 35.991107 
L 83.472742 36.007059 
L 83.569482 35.965715 
L 83.485519 36.014657 
L 83.587735 35.988812 
L 83.661964 36.002621 
L 83.590778 35.983532 
L 83.700295 35.993369 
L 83.778783 35.962045 
L 83.815289 35.98361 
L 84.64884 35.875102 
L 84.650665 35.884939 
L 84.762008 35.958447 
L 84.773568 35.943628 
L 84.875176 35.963122 
L 84.832586 36.007554 
L 84.878827 35.977709 
L 84.988953 35.98645 
L 84.883694 35.967442 
L 84.99808 35.96757 
L 85.124633 35.911802 
L 85.002339 35.982073 
L 85.131934 35.922561 
L 85.430066 35.958542 
L 85.133151 35.919136 
L 85.433716 35.946794 
L 85.438584 35.940501 
L 85.504903 36.025364 
L 85.534716 36.014008 
L 85.621722 36.081392 
L 85.541409 36.010835 
L 85.659445 36.058475 
L 85.782348 36.010767 
L 85.78539 36.021218 
L 86.399906 36.030614 
L 86.400514 36.027454 
L 86.642061 35.999998 
L 86.405381 36.043398 
L 86.64267 36.005477 
L 86.747928 36.036082 
L 86.757055 36.024468 
L 86.878133 35.985325 
L 86.760097 36.028998 
L 86.880566 35.989773 
L 87.005903 35.998294 
L 87.016855 35.97964 
L 87.08865 35.944851 
L 87.035108 35.998222 
L 87.133065 35.957645 
L 87.303426 35.997606 
L 87.307685 35.987523 
L 87.426938 35.971376 
L 87.383131 36.021177 
L 87.427546 35.972348 
L 87.536456 36.03143 
L 87.434847 35.966662 
L 87.551058 36.015491 
L 87.636847 35.98101 
L 87.560793 36.035922 
L 87.671527 36.019607 
L 87.801732 36.065834 
L 87.67822 36.015678 
L 87.803557 36.058889 
L 87.987303 35.95706 
L 87.993388 35.966234 
L 88.110206 36.036242 
L 88.113249 36.030562 
L 88.165574 36.006744 
L 88.211814 36.064417 
L 88.222158 36.053243 
L 88.339585 36.094521 
L 88.229459 36.043004 
L 88.343236 36.082959 
L 88.389476 36.078775 
L 88.356013 36.093639 
L 88.441802 36.133206 
L 88.531849 36.175309 
L 88.444235 36.12636 
L 88.564705 36.143138 
L 88.661445 36.133641 
L 88.591476 36.177279 
L 88.678481 36.140596 
L 88.863445 36.123121 
L 88.681524 36.131115 
L 88.86892 36.109149 
L 88.966878 36.09817 
L 88.883523 36.134581 
L 88.980872 36.112219 
L 89.019811 36.13398 
L 89.050841 36.08963 
L 89.090998 36.098775 
L 89.189564 36.165158 
L 89.215726 36.147352 
L 89.298473 36.123914 
L 89.325852 36.164391 
L 89.459099 36.137965 
L 89.327678 36.158918 
L 89.459707 36.137211 
L 89.592954 36.060339 
L 89.596604 36.062145 
L 89.696996 36.08028 
L 89.602689 36.048439 
L 89.710381 36.0724 
L 89.792519 36.065086 
L 89.728634 36.09417 
L 89.81564 36.108261 
L 89.940977 36.116898 
L 89.942802 36.114897 
L 90.026765 36.099188 
L 89.963489 36.135985 
L 90.054145 36.111744 
L 90.086392 36.163599 
L 90.05597 36.109883 
L 90.165488 36.110348 
L 90.263445 36.134761 
L 90.281698 36.109384 
L 90.412511 36.139871 
L 90.286566 36.103919 
L 90.438674 36.101294 
L 91.166358 36.021934 
L 91.284393 35.964496 
L 91.288044 35.967882 
L 91.406688 35.955719 
L 91.290478 35.97188 
L 91.407905 35.963295 
L 91.432851 35.965389 
L 91.489435 35.902094 
L 91.51073 35.916122 
L 91.615988 35.901736 
L 91.547844 35.951641 
L 91.632416 35.921295 
L 91.733416 35.943571 
L 91.635458 35.919777 
L 91.745584 35.935543 
L 92.227462 36.024788 
L 91.74741 35.927671 
L 92.229287 36.017803 
L 92.351582 35.990636 
L 92.354016 35.992687 
L 92.466576 36.023461 
L 92.35645 35.988011 
L 92.474485 36.010095 
L 93.176007 36.039059 
L 93.272139 35.988915 
L 93.300127 36.026406 
L 93.416946 36.105956 
L 93.46562 36.051668 
L 93.493608 36.03145 
L 93.522204 36.071039 
L 93.574529 36.072388 
L 95.407733 36.028393 
L 95.48257 36.007781 
L 95.523335 36.034514 
L 95.642588 36.007966 
L 95.536721 36.011938 
L 95.648672 35.991703 
L 95.755756 35.98726 
L 95.65719 36.00905 
L 95.764274 35.998801 
L 95.886569 36.043748 
L 95.890219 36.033325 
L 95.982093 36.022259 
L 95.921858 36.06857 
L 95.999737 36.052009 
L 96.19626 36.115845 
L 96.201736 36.1072 
L 96.27779 36.070049 
L 96.314905 36.098191 
L 96.418946 36.131876 
L 96.44085 36.120116 
L 96.442675 36.122792 
L 96.583831 36.120141 
L 96.656843 36.168736 
L 96.603909 36.112347 
L 96.700042 36.143415 
L 96.703084 36.135291 
L 96.737156 36.19347 
L 96.810168 36.153281 
L 96.851541 36.204754 
L 96.926378 36.179421 
L 96.986613 36.147856 
L 96.933071 36.189962 
L 97.037721 36.186693 
L 97.137504 36.231841 
L 97.15454 36.223156 
L 97.275009 36.189377 
L 97.335853 36.202712 
L 97.299955 36.183161 
L 97.384527 36.174833 
L 97.405214 36.176892 
L 97.441111 36.224044 
L 97.483093 36.222328 
L 97.514731 36.240263 
L 97.563406 36.184473 
L 97.592611 36.204494 
L 97.593827 36.198049 
L 97.681442 36.273946 
L 97.691785 36.268318 
L 97.842676 36.291211 
L 97.693002 36.265228 
L 97.847543 36.283293 
L 98.007561 36.211456 
L 98.016079 36.2258 
L 98.050759 36.192774 
L 98.129856 36.234406 
L 98.295349 36.162593 
L 98.13959 36.279203 
L 98.308126 36.17974 
L 98.308734 36.181716 
L 98.362276 36.118074 
L 98.408517 36.131417 
L 98.409126 36.127519 
L 98.504041 36.179077 
L 98.514384 36.17147 
L 98.774793 36.114594 
L 98.515601 36.174304 
L 98.775401 36.116009 
L 98.779052 36.124802 
L 98.868491 36.060768 
L 98.882485 36.081344 
L 98.908648 36.092379 
L 98.999913 36.03069 
L 99.116123 36.06579 
L 99.117948 36.06537 
L 99.2299 36.040555 
L 99.122207 36.068634 
L 99.242677 36.047754 
L 99.48179 35.975273 
L 99.243894 36.052737 
L 99.496393 35.999084 
L 99.616862 36.021901 
L 99.526814 35.964177 
L 99.630248 36.001605 
L 99.709952 35.949912 
L 99.747066 35.985194 
L 99.864494 35.982476 
L 99.778096 36.023054 
L 99.865102 35.985433 
L 99.977662 35.986537 
L 99.891265 35.956033 
L 99.97827 35.985393 
L 99.980096 35.980216 
L 100.187571 35.950662 
L 100.269101 35.923815 
L 100.302564 35.937877 
L 100.402955 35.988227 
L 100.331769 35.927167 
L 100.419383 35.963456 
L 100.543503 35.949001 
L 100.554455 35.931414 
L 100.561148 35.918575 
L 100.6299 36.002478 
L 100.657888 35.989168 
L 100.780183 35.984234 
L 100.663364 35.994225 
L 100.788093 36.001185 
L 100.910387 36.081797 
L 100.938984 36.078493 
L 100.982182 36.145809 
L 100.998001 36.150566 
L 101.001652 36.157223 
L 101.098393 36.086717 
L 101.09961 36.088733 
L 101.218862 36.059716 
L 101.121513 36.115058 
L 101.229814 36.078758 
L 101.308301 36.144892 
L 101.234073 36.077894 
L 101.346024 36.113772 
L 101.468319 36.130944 
L 101.34785 36.111145 
L 101.470753 36.125484 
L 101.577228 36.05296 
L 101.590005 36.075342 
L 101.691613 36.078111 
L 101.605824 36.054602 
L 101.699523 36.04708 
L 101.745764 36.030451 
L 101.719601 36.063348 
L 101.810257 36.056067 
L 102.00313 36.063214 
L 102.009823 36.049832 
L 102.112648 36.018368 
L 102.126642 36.029227 
L 102.222774 36.071095 
L 102.183226 36.013279 
L 102.242852 36.050408 
L 102.335942 36.040166 
L 102.343852 36.07887 
L 102.351153 36.070872 
L 102.436333 36.061302 
L 102.377924 36.04992 
L 102.456412 36.035818 
L 102.587224 36.061431 
L 102.458845 36.041043 
L 102.58905 36.06681 
L 102.659628 36.094747 
L 102.604869 36.042466 
L 102.707694 36.073773 
L 102.836073 36.081669 
L 102.730206 36.104774 
L 102.836681 36.085578 
L 102.945591 36.070548 
L 102.905434 36.038 
L 102.946807 36.063793 
L 103.081879 35.980979 
L 103.088572 35.987336 
L 103.205999 36.054954 
L 103.126903 35.970784 
L 103.210258 36.05423 
L 103.383053 36.110035 
L 103.212692 36.049988 
L 103.384878 36.10634 
L 103.395221 36.103457 
L 103.459107 36.147851 
L 103.491962 36.136578 
L 104.255543 36.090961 
L 104.463627 37.409716 
L 105.421907 41.844092 
L 105.476057 41.984405 
L 105.621472 42.390786 
L 105.622689 42.388292 
L 105.94029 42.998035 
L 105.940899 42.996824 
L 105.941507 42.993634 
L 106.024862 43.139129 
L 106.027296 43.135146 
L 106.22747 43.391235 
L 106.228078 43.390166 
L 106.228687 43.38656 
L 106.327861 43.465827 
L 106.579752 43.65158 
L 106.333945 43.46123 
L 106.582185 43.647069 
L 106.582794 43.642974 
L 106.677101 43.743981 
L 106.679534 43.743807 
L 106.799395 43.829124 
L 106.804263 43.816142 
L 107.034858 43.747791 
L 107.044593 43.76916 
L 107.091442 43.835189 
L 107.163237 43.807804 
L 107.326905 43.876686 
L 107.327514 43.870382 
L 107.515519 43.809038 
L 107.519778 43.824587 
L 107.5502 43.83484 
L 107.603133 43.782235 
L 107.626862 43.794996 
L 107.753416 43.808138 
L 107.647549 43.756235 
L 107.75585 43.801763 
L 107.768018 43.775654 
L 107.820952 43.839598 
L 107.868409 43.80964 
L 107.956024 43.824642 
L 107.87206 43.794439 
L 107.980361 43.78863 
L 111.742292 42.457289 
L 111.742292 42.457289 
" clip-path="url(#p2669f50a3f)" style="fill: none; stroke: #1f77b2; stroke-width: 0.5; stroke-linecap: square"/>
   </g>
  </g>
  <g id="axes_3">
   <g id="patch_4">
    <path d="M 123.652174 51.552 
L 172.173913 51.552 
L 172.173913 7.2 
L 123.652174 7.2 
z
" style="fill: #ffffff"/>
   </g>
   <g id="matplotlib.axis_5"/>
   <g id="matplotlib.axis_6"/>
   <g id="line2d_3">
    <path d="M 125.857708 45.494365 
L 125.99643 45.219807 
L 125.997038 45.220467 
L 125.998255 45.223088 
L 126.25623 44.949132 
L 126.425374 44.746807 
L 126.26779 44.961356 
L 126.426591 44.749704 
L 126.427808 44.753038 
L 126.488651 44.61485 
L 126.64806 44.336922 
L 126.65597 44.344797 
L 126.753319 44.215052 
L 126.971746 43.937825 
L 126.976613 43.940114 
L 126.977221 43.944156 
L 127.061185 43.822144 
L 127.07092 43.824914 
L 127.292997 43.610321 
L 127.079438 43.833907 
L 127.293606 43.614201 
L 127.297256 43.630091 
L 127.383045 43.520647 
L 127.396431 43.521439 
L 127.400081 43.524743 
L 127.580785 43.377639 
L 127.581394 43.380915 
L 127.620942 43.319075 
L 127.682393 43.318298 
L 128.296301 42.814493 
L 128.417987 42.757093 
L 128.30056 42.826099 
L 128.420421 42.762011 
L 128.436848 42.776519 
L 128.496475 42.6916 
L 128.504993 42.690161 
L 128.792781 42.435529 
L 128.906558 42.308348 
L 128.798865 42.43691 
L 128.919943 42.312452 
L 129.017292 42.31044 
L 128.994172 42.281186 
L 129.031286 42.305627 
L 129.23937 42.152336 
L 129.242412 42.159921 
L 129.264924 42.184472 
L 129.325767 42.102229 
L 129.34402 42.110402 
L 129.412772 42.049719 
L 129.369574 42.065647 
L 129.421899 42.031596 
L 129.535676 42.015845 
L 129.443802 42.047262 
L 129.536893 42.017234 
L 129.634242 41.959426 
L 129.542368 42.002748 
L 129.63485 41.956129 
L 129.636675 41.96223 
L 130.178179 41.731429 
L 130.251799 41.763167 
L 130.186697 41.716659 
L 130.289522 41.730173 
L 130.369227 41.674532 
L 130.299866 41.747552 
L 130.409383 41.699038 
L 130.422769 41.665801 
L 130.551148 41.647063 
L 130.653364 41.567817 
L 130.667358 41.591457 
L 130.78296 41.629799 
L 130.784177 41.625568 
L 130.90343 41.557289 
L 130.834677 41.640081 
L 130.904038 41.558176 
L 131.014773 41.630067 
L 130.911339 41.556603 
L 131.024507 41.612595 
L 131.148627 41.568018 
L 131.152278 41.574471 
L 131.261796 41.579548 
L 131.185133 41.545344 
L 131.263621 41.571485 
L 131.337241 41.55881 
L 131.364012 41.606656 
L 131.370096 41.602489 
L 131.468662 41.588638 
L 131.374964 41.61559 
L 131.487524 41.631304 
L 131.488132 41.637182 
L 131.547758 41.602675 
L 131.596433 41.608366 
L 131.712035 41.537074 
L 131.715077 41.53813 
L 131.83433 41.557212 
L 131.720553 41.528759 
L 131.846498 41.54092 
L 131.965751 41.436111 
L 131.850757 41.541768 
L 131.971835 41.439335 
L 132.243804 40.177176 
L 132.515773 38.151679 
L 132.619206 37.422886 
L 132.813296 35.001706 
L 132.837025 29.388717 
L 132.848585 15.163973 
L 132.92403 40.496112 
L 132.939241 40.44345 
L 133.278746 38.457124 
L 133.279354 38.460759 
L 133.340806 38.159809 
L 133.446065 37.621097 
L 133.589046 36.75706 
L 133.718642 32.711612 
L 133.73507 15.173425 
L 133.808081 40.467104 
L 133.812949 40.474119 
L 133.854931 40.273602 
L 134.612428 35.098421 
L 134.63859 29.419495 
L 134.65015 15.195006 
L 134.723771 40.534685 
L 134.740807 40.496059 
L 134.97627 39.256014 
L 135.074836 38.76651 
L 135.566448 35.334588 
L 135.59687 31.425258 
L 135.610255 15.216218 
L 135.686918 40.500091 
L 135.694827 40.479769 
L 135.696653 40.481783 
L 135.721598 40.357966 
L 135.929073 39.204144 
L 136.425553 36.757223 
L 136.553324 34.489394 
L 136.572185 24.217652 
L 136.580703 15.231557 
L 136.659191 40.53751 
L 136.67501 40.47462 
L 137.539591 35.070511 
L 137.564537 30.020041 
L 137.576706 15.215695 
L 137.647892 40.530925 
L 137.666145 40.484161 
L 137.87362 39.419299 
L 138.300739 37.301709 
L 138.301348 37.302368 
L 138.479618 35.731273 
L 138.52525 32.040726 
L 138.539853 15.218429 
L 138.613473 40.513855 
L 138.619557 40.492286 
L 138.643895 40.401594 
L 138.64572 40.385711 
L 139.473187 35.065043 
L 139.498132 29.947974 
L 139.510301 15.234642 
L 139.588789 40.539332 
L 139.59974 40.492916 
L 139.94107 38.776075 
L 140.071883 38.139243 
L 140.470406 34.306904 
L 140.48805 22.699268 
L 140.49596 15.234559 
L 140.56958 40.559817 
L 140.590267 40.490927 
L 140.627989 40.33915 
L 140.848242 39.216495 
L 140.898741 38.984809 
L 141.431119 35.811305 
L 141.479185 32.381144 
L 141.495004 15.227495 
L 141.566191 40.527065 
L 141.571058 40.519141 
L 141.571667 40.520881 
L 141.619124 40.324983 
L 141.619733 40.325787 
L 142.432597 35.385799 
L 142.464844 31.346829 
L 142.47823 15.208585 
L 142.558542 40.540245 
L 142.562801 40.528411 
L 142.58653 40.390888 
L 143.134119 37.839158 
L 143.239377 37.277276 
L 143.46328 32.707138 
L 143.479708 15.225801 
L 143.552719 40.526906 
L 143.560629 40.532107 
L 143.591659 40.41741 
L 143.880056 39.060794 
L 143.914128 38.867558 
L 144.11491 37.867726 
L 144.169061 37.610973 
L 144.453198 33.656408 
L 144.473276 15.235505 
L 144.527427 40.28056 
L 144.546896 40.544461 
L 144.633902 40.139357 
L 145.368279 35.939019 
L 145.423646 32.571333 
L 145.439465 15.224725 
L 145.512477 40.539662 
L 145.513694 40.537745 
L 145.935337 38.509327 
L 146.137336 37.460971 
L 146.264498 36.730616 
L 146.403221 33.240145 
L 146.421474 15.226063 
L 146.485968 40.488315 
L 146.501178 40.552628 
L 146.574798 40.197798 
L 146.576624 40.198611 
L 146.859544 38.858605 
L 147.069453 37.829865 
L 147.070062 37.830327 
L 147.07067 37.832216 
L 147.115086 37.608265 
L 147.397398 34.100912 
L 147.415042 19.127681 
L 147.421127 15.230228 
L 147.492313 40.534829 
L 147.511175 40.489208 
L 148.372713 35.128518 
L 148.399484 29.452355 
L 148.411045 15.228253 
L 148.488315 40.528888 
L 148.501701 40.477804 
L 148.543683 40.291017 
L 149.267716 36.487619 
L 149.367499 33.891222 
L 149.389402 15.211834 
L 149.437468 39.970372 
L 149.461806 40.524956 
L 149.550028 40.102587 
L 149.550637 40.103508 
L 149.582275 39.954086 
L 149.887099 38.3782 
L 150.337339 34.588835 
L 150.356808 25.561268 
L 150.365935 15.228622 
L 150.439555 40.522763 
L 150.460242 40.440365 
L 150.525344 40.12191 
L 150.852072 38.505006 
L 150.917782 38.178375 
L 151.331516 34.056151 
L 151.349769 17.712444 
L 151.354636 15.219589 
L 151.428256 40.474541 
L 151.439816 40.462394 
L 151.441033 40.465411 
L 151.576105 39.847583 
L 151.833472 38.587657 
L 151.886405 38.338364 
L 152.312307 34.0733 
L 152.331777 16.647987 
L 152.335427 15.21815 
L 152.408439 40.546177 
L 152.410873 40.543426 
L 152.413307 40.546357 
L 152.469282 40.312612 
L 152.688318 39.163264 
L 152.751595 38.78796 
L 153.258418 34.865747 
L 153.28093 27.856874 
L 153.291273 15.221226 
L 153.361851 40.514654 
L 153.384363 40.454406 
L 153.618609 39.33755 
L 153.619218 39.339149 
L 153.663025 39.147866 
L 153.849205 38.196932 
L 153.891187 37.97629 
L 154.144294 36.624213 
L 154.233734 35.40671 
L 154.267197 31.207444 
L 154.280583 15.230283 
L 154.35542 40.492891 
L 154.365763 40.468781 
L 154.369414 40.461057 
L 154.390101 40.363463 
L 154.650509 39.107636 
L 154.651118 39.109622 
L 154.69675 38.881314 
L 155.240079 35.199124 
L 155.268067 30.478351 
L 155.280236 15.227114 
L 155.355073 40.560847 
L 155.368458 40.524618 
L 155.369067 40.525738 
L 155.401314 40.354794 
L 155.572283 39.488274 
L 155.5735 39.492864 
L 155.717698 38.83469 
L 155.905703 37.992787 
L 156.245816 35.36383 
L 156.27928 29.297473 
L 156.29084 15.226683 
L 156.365677 40.600645 
L 156.381497 40.54083 
L 156.665026 39.025994 
L 156.665634 39.02941 
L 156.730736 38.761539 
L 156.972284 37.543036 
L 157.19497 35.831766 
L 157.238777 33.771709 
L 157.260072 15.215733 
L 157.310571 40.138182 
L 157.336734 40.546995 
L 157.421914 40.158581 
L 157.800967 38.232722 
L 157.835648 38.079479 
L 158.14108 36.179512 
L 158.213484 32.834274 
L 158.23052 15.231921 
L 158.301098 40.521061 
L 158.305357 40.528592 
L 158.358899 40.300687 
L 158.559073 39.231329 
L 158.59132 39.095247 
L 159.158986 35.800345 
L 159.207052 32.659986 
L 159.22348 15.247344 
L 159.295275 40.507142 
L 159.296492 40.505053 
L 160.153163 35.211705 
L 160.18176 29.653118 
L 160.19332 15.21527 
L 160.26694 40.495922 
L 160.283976 40.445249 
L 160.381933 39.990015 
L 160.528565 39.267226 
L 160.762203 38.142446 
L 161.099274 36.096952 
L 161.160117 33.695883 
L 161.180804 15.22055 
L 161.234346 40.205133 
L 161.258075 40.479066 
L 161.340821 40.07842 
L 161.82635 37.81997 
L 162.023482 36.670233 
L 162.02409 36.671421 
L 162.058162 36.36101 
L 162.131174 34.923401 
L 162.154903 27.257783 
L 162.164638 15.217086 
L 162.245559 40.514861 
L 162.258336 40.472678 
L 162.454251 39.536919 
L 162.515703 39.293689 
L 162.585064 39.455859 
L 162.759075 39.903034 
L 162.759684 39.900818 
L 162.836346 40.038932 
L 163.023134 40.356606 
L 163.02496 40.35765 
L 163.057207 40.436307 
L 163.074851 40.453673 
L 163.078502 40.447917 
L 163.220875 40.620181 
L 163.23061 40.615262 
L 163.306663 40.741606 
L 163.309097 40.73592 
L 163.88224 41.322841 
L 163.88589 41.314825 
L 163.892583 41.292145 
L 163.936998 41.345022 
L 163.994799 41.334184 
L 164.104926 41.385766 
L 164.115269 41.372396 
L 164.118311 41.362069 
L 164.19619 41.433136 
L 164.216268 41.420231 
L 164.34769 41.490777 
L 164.356208 41.484518 
L 164.480328 41.499023 
L 164.365334 41.471455 
L 164.48702 41.48346 
L 164.744387 41.487797 
L 164.746212 41.498733 
L 164.856338 41.500724 
L 164.7742 41.478871 
L 164.860597 41.490765 
L 164.873983 41.481672 
L 164.937868 41.558144 
L 164.959772 41.536987 
L 165.025482 41.564129 
L 165.06503 41.488879 
L 165.243909 41.380582 
L 165.250602 41.392986 
L 165.317529 41.464364 
L 165.260337 41.380866 
L 165.364379 41.41663 
L 165.46842 41.446998 
L 165.368638 41.423696 
L 165.472679 41.455147 
L 165.502493 41.479464 
L 165.579763 41.421427 
L 165.580372 41.422779 
L 165.667378 41.374486 
L 165.582806 41.428062 
L 165.697799 41.404099 
L 165.881545 41.318108 
L 165.893106 41.351542 
L 165.942389 41.396639 
L 166.006274 41.365127 
L 166.182111 41.419124 
L 166.200972 41.389441 
L 166.303797 41.373679 
L 166.247213 41.421912 
L 166.312923 41.38316 
L 166.412098 41.381697 
L 166.346995 41.342546 
L 166.420007 41.35352 
L 166.421833 41.361977 
L 166.867813 41.344095 
L 166.868421 41.349486 
L 166.952993 41.271484 
L 166.973071 41.286364 
L 166.97368 41.288451 
L 167.064336 41.219519 
L 167.073463 41.233803 
L 167.178721 41.180955 
L 167.193324 41.189533 
L 167.29554 41.210409 
L 167.224354 41.154299 
L 167.305883 41.194465 
L 167.372202 41.147119 
L 167.314401 41.207983 
L 167.418443 41.180935 
L 167.6679 41.083814 
L 167.685545 41.129696 
L 167.786544 41.093896 
L 167.752472 41.050916 
L 167.787761 41.08695 
L 167.878417 41.10403 
L 167.820008 41.113893 
L 167.892411 41.123079 
L 167.98611 41.11648 
L 167.945953 41.06738 
L 168.006188 41.09322 
L 168.077983 41.047626 
L 168.124224 41.06077 
L 168.245302 41.087668 
L 168.127874 41.054776 
L 168.247735 41.085545 
L 168.365163 41.080116 
L 168.374289 41.07031 
L 168.374897 41.065877 
L 168.47103 41.130785 
L 168.478939 41.118682 
L 168.499626 41.13577 
L 168.551343 41.055371 
L 168.577505 41.055684 
L 168.582981 41.053012 
L 168.655993 41.113733 
L 168.682155 41.097768 
L 168.868335 40.982312 
L 168.899365 41.018001 
L 168.901191 41.017035 
L 169.028961 41.056966 
L 169.141521 41.045517 
L 169.101973 41.076467 
L 169.14213 41.046422 
L 169.264424 41.130426 
L 169.147605 41.044498 
L 169.273551 41.105257 
L 169.389153 41.063877 
L 169.286936 41.12173 
L 169.395845 41.073689 
L 169.491369 41.086476 
L 169.440261 41.062106 
L 169.507188 41.064393 
L 169.613055 41.017729 
L 169.510231 41.069798 
L 169.625833 41.03198 
L 169.748127 41.065594 
L 169.633742 41.020109 
L 169.756645 41.058752 
L 169.829049 40.992247 
L 169.762121 41.062152 
L 169.87103 41.018202 
L 169.968379 41.041844 
L 169.874073 41.027245 
L 169.968379 41.041844 
" clip-path="url(#p46b25dba63)" style="fill: none; stroke: #1f77b2; stroke-width: 0.5; stroke-linecap: square"/>
   </g>
  </g>
  <g id="axes_4"/>
  <g id="text_1">
   <text style="font-size: 9px; font-family: 'Arial', sans-serif" transform="translate(193.796719 24.010031)">TSNPE</text>
   <text style="font-size: 9px; font-family: 'Arial', sans-serif" transform="translate(187.292109 33.529219)">predictives</text>
  </g>
 </g>
 <defs>
  <clipPath id="pb0adf17bc9">
   <rect x="7.2" y="7.2" width="48.521739" height="44.352"/>
  </clipPath>
  <clipPath id="p2669f50a3f">
   <rect x="65.426087" y="7.2" width="48.521739" height="44.352"/>
  </clipPath>
  <clipPath id="p46b25dba63">
   <rect x="123.652174" y="7.2" width="48.521739" height="44.352"/>
  </clipPath>
 </defs>
</svg>
