<?xml version="1.0" encoding="utf-8" standalone="no"?>
<!DOCTYPE svg PUBLIC "-//W3C//DTD SVG 1.1//EN"
  "http://www.w3.org/Graphics/SVG/1.1/DTD/svg11.dtd">
<svg xmlns:xlink="http://www.w3.org/1999/xlink" width="318.401719pt" height="119.311497pt" viewBox="0 0 318.401719 119.311497" xmlns="http://www.w3.org/2000/svg" version="1.1">
 <metadata>
  <rdf:RDF xmlns:dc="http://purl.org/dc/elements/1.1/" xmlns:cc="http://creativecommons.org/ns#" xmlns:rdf="http://www.w3.org/1999/02/22-rdf-syntax-ns#">
   <cc:Work>
    <dc:type rdf:resource="http://purl.org/dc/dcmitype/StillImage"/>
    <dc:date>2025-04-06T18:19:57.780813</dc:date>
    <dc:format>image/svg+xml</dc:format>
    <dc:creator>
     <cc:Agent>
      <dc:title>Matplotlib v3.10.0, https://matplotlib.org/</dc:title>
     </cc:Agent>
    </dc:creator>
   </cc:Work>
  </rdf:RDF>
 </metadata>
 <defs>
  <style type="text/css">*{stroke-linejoin: round; stroke-linecap: butt}</style>
 </defs>
 <g id="figure_1">
  <g id="patch_1">
   <path d="M 0 119.311497 
L 318.401719 119.311497 
L 318.401719 0 
L 0 0 
z
" style="fill: #ffffff"/>
  </g>
  <g id="axes_1">
   <g id="patch_2">
    <path d="M 12.725859 37.922465 
L 47.600859 37.922465 
L 47.600859 20.038594 
L 12.725859 20.038594 
z
" style="fill: #ffffff"/>
   </g>
   <g id="matplotlib.axis_1">
    <g id="xtick_1">
     <g id="line2d_1">
      <defs>
       <path id="m247e7d0570" d="M 0 0 
L 0 3.5 
" style="stroke: #000000; stroke-width: 1.5"/>
      </defs>
      <g>
       <use xlink:href="#m247e7d0570" x="14.311087" y="37.922465" style="stroke: #000000; stroke-width: 1.5"/>
      </g>
     </g>
    </g>
    <g id="xtick_2">
     <g id="line2d_2">
      <g>
       <use xlink:href="#m247e7d0570" x="30.163359" y="37.922465" style="stroke: #000000; stroke-width: 1.5"/>
      </g>
     </g>
    </g>
    <g id="xtick_3">
     <g id="line2d_3">
      <g>
       <use xlink:href="#m247e7d0570" x="46.015632" y="37.922465" style="stroke: #000000; stroke-width: 1.5"/>
      </g>
     </g>
    </g>
   </g>
   <g id="matplotlib.axis_2"/>
   <g id="line2d_4">
    <path d="M 14.311087 37.109561 
L 14.631335 37.109561 
L 14.951583 37.109561 
L 15.27183 37.109561 
L 15.592078 37.109561 
L 15.912326 37.109561 
L 16.232574 37.109561 
L 16.552822 37.109561 
L 16.87307 37.109561 
L 17.193318 37.109561 
L 17.513566 37.109561 
L 17.833814 37.109561 
L 18.154062 37.109561 
L 18.47431 37.109561 
L 18.794558 37.109561 
L 19.114806 37.109561 
L 19.435054 37.109561 
L 19.755302 37.109561 
L 20.075549 37.109561 
L 20.395797 37.109561 
L 20.716045 37.109561 
L 21.036293 37.109561 
L 21.356541 37.109561 
L 21.676789 37.109561 
L 21.997037 37.109561 
L 22.317285 37.109561 
L 22.637533 37.109561 
L 22.957781 37.109561 
L 23.278029 37.109561 
L 23.598277 37.109517 
L 23.918525 37.106754 
L 24.238773 37.069584 
L 24.559021 36.902831 
L 24.879268 36.563363 
L 25.199516 36.187454 
L 25.519764 35.779519 
L 25.840012 35.088934 
L 26.16026 33.997491 
L 26.480508 32.337461 
L 26.800756 30.373271 
L 27.121004 28.578292 
L 27.441252 26.470495 
L 27.7615 24.398784 
L 28.081748 22.596896 
L 28.401996 21.342285 
L 28.722244 20.851497 
L 29.042492 20.859197 
L 29.36274 21.634531 
L 29.682987 23.267011 
L 30.003235 25.113154 
L 30.323483 26.614076 
L 30.643731 28.597636 
L 30.963979 30.838672 
L 31.284227 32.407291 
L 31.604475 33.970314 
L 31.924723 35.109729 
L 32.244971 35.782882 
L 32.565219 36.227452 
L 32.885467 36.60439 
L 33.205715 36.814892 
L 33.525963 36.939142 
L 33.846211 37.040778 
L 34.166459 37.076114 
L 34.486706 37.08578 
L 34.806954 37.105775 
L 35.127202 37.109455 
L 35.44745 37.109561 
L 35.767698 37.109561 
L 36.087946 37.109561 
L 36.408194 37.109561 
L 36.728442 37.109561 
L 37.04869 37.109561 
L 37.368938 37.109561 
L 37.689186 37.109561 
L 38.009434 37.109561 
L 38.329682 37.109561 
L 38.64993 37.109561 
L 38.970178 37.109561 
L 39.290425 37.109561 
L 39.610673 37.109561 
L 39.930921 37.109561 
L 40.251169 37.109561 
L 40.571417 37.109561 
L 40.891665 37.109561 
L 41.211913 37.109561 
L 41.532161 37.109561 
L 41.852409 37.109561 
L 42.172657 37.109561 
L 42.492905 37.109561 
L 42.813153 37.109561 
L 43.133401 37.109561 
L 43.453649 37.109561 
L 43.773897 37.109561 
L 44.094144 37.109561 
L 44.414392 37.109561 
L 44.73464 37.109561 
L 45.054888 37.109561 
L 45.375136 37.109561 
L 45.695384 37.109561 
L 46.015632 37.109561 
" clip-path="url(#p79899e79d3)" style="fill: none; stroke: #000000; stroke-width: 1.5; stroke-linecap: square"/>
   </g>
   <g id="line2d_5">
    <path d="M 14.311087 37.109561 
L 14.631335 37.109561 
L 14.951583 37.109561 
L 15.27183 37.109561 
L 15.592078 37.109561 
L 15.912326 37.109561 
L 16.232574 37.109561 
L 16.552822 37.109561 
L 16.87307 37.109561 
L 17.193318 37.109561 
L 17.513566 37.109561 
L 17.833814 37.109561 
L 18.154062 37.109561 
L 18.47431 37.109561 
L 18.794558 37.109561 
L 19.114806 37.109561 
L 19.435054 37.109561 
L 19.755302 37.109561 
L 20.075549 37.109561 
L 20.395797 37.109561 
L 20.716045 37.109561 
L 21.036293 37.109561 
L 21.356541 37.109561 
L 21.676789 37.10953 
L 21.997037 37.108777 
L 22.317285 37.102949 
L 22.637533 37.082556 
L 22.957781 37.040943 
L 23.278029 36.991599 
L 23.598277 36.911223 
L 23.918525 36.779126 
L 24.238773 36.575082 
L 24.559021 36.30937 
L 24.879268 35.996015 
L 25.199516 35.531164 
L 25.519764 34.736296 
L 25.840012 33.791809 
L 26.16026 32.952827 
L 26.480508 31.902217 
L 26.800756 30.689207 
L 27.121004 29.426175 
L 27.441252 28.171967 
L 27.7615 26.862879 
L 28.081748 25.526456 
L 28.401996 24.511856 
L 28.722244 24.065784 
L 29.042492 23.883925 
L 29.36274 23.771871 
L 29.682987 24.081849 
L 30.003235 24.720755 
L 30.323483 25.778386 
L 30.643731 27.296609 
L 30.963979 28.99847 
L 31.284227 30.670145 
L 31.604475 32.21381 
L 31.924723 33.497436 
L 32.244971 34.532959 
L 32.565219 35.333887 
L 32.885467 35.869816 
L 33.205715 36.283984 
L 33.525963 36.617661 
L 33.846211 36.836336 
L 34.166459 36.948284 
L 34.486706 37.003311 
L 34.806954 37.045024 
L 35.127202 37.071315 
L 35.44745 37.092024 
L 35.767698 37.105723 
L 36.087946 37.109262 
L 36.408194 37.109554 
L 36.728442 37.109561 
L 37.04869 37.109561 
L 37.368938 37.109561 
L 37.689186 37.109561 
L 38.009434 37.109561 
L 38.329682 37.109561 
L 38.64993 37.109561 
L 38.970178 37.109561 
L 39.290425 37.109561 
L 39.610673 37.109561 
L 39.930921 37.109561 
L 40.251169 37.109561 
L 40.571417 37.109561 
L 40.891665 37.109561 
L 41.211913 37.109561 
L 41.532161 37.109561 
L 41.852409 37.109561 
L 42.172657 37.109561 
L 42.492905 37.109561 
L 42.813153 37.109561 
L 43.133401 37.109561 
L 43.453649 37.109561 
L 43.773897 37.109561 
L 44.094144 37.109561 
L 44.414392 37.109561 
L 44.73464 37.109561 
L 45.054888 37.109561 
L 45.375136 37.109561 
L 45.695384 37.109561 
L 46.015632 37.109561 
" clip-path="url(#p79899e79d3)" style="fill: none; stroke: #f2a900; stroke-width: 1.5; stroke-linecap: square"/>
   </g>
   <g id="line2d_6">
    <path d="M 14.311087 37.075 
L 14.631335 37.067252 
L 14.951583 37.059531 
L 15.27183 37.050352 
L 15.592078 37.037127 
L 15.912326 37.01731 
L 16.232574 36.991017 
L 16.552822 36.961998 
L 16.87307 36.933816 
L 17.193318 36.904931 
L 17.513566 36.868977 
L 17.833814 36.820077 
L 18.154062 36.756391 
L 18.47431 36.677797 
L 18.794558 36.582378 
L 19.114806 36.467507 
L 19.435054 36.333277 
L 19.755302 36.182575 
L 20.075549 36.01769 
L 20.395797 35.838166 
L 20.716045 35.642193 
L 21.036293 35.429314 
L 21.356541 35.201189 
L 21.676789 34.959362 
L 21.997037 34.70255 
L 22.317285 34.425464 
L 22.637533 34.117842 
L 22.957781 33.767411 
L 23.278029 33.375372 
L 23.598277 32.975796 
L 23.918525 32.629197 
L 24.238773 32.379848 
L 24.559021 32.213487 
L 24.879268 32.063222 
L 25.199516 31.863581 
L 25.519764 31.59856 
L 25.840012 31.300009 
L 26.16026 31.01652 
L 26.480508 30.79403 
L 26.800756 30.666766 
L 27.121004 30.64396 
L 27.441252 30.708957 
L 27.7615 30.83742 
L 28.081748 31.007444 
L 28.401996 31.195195 
L 28.722244 31.380826 
L 29.042492 31.564035 
L 29.36274 31.758618 
L 29.682987 31.965902 
L 30.003235 32.169285 
L 30.323483 32.361661 
L 30.643731 32.561025 
L 30.963979 32.790843 
L 31.284227 33.05757 
L 31.604475 33.352747 
L 31.924723 33.666924 
L 32.244971 33.99327 
L 32.565219 34.321928 
L 32.885467 34.640244 
L 33.205715 34.939095 
L 33.525963 35.213172 
L 33.846211 35.456805 
L 34.166459 35.667273 
L 34.486706 35.85255 
L 34.806954 36.028006 
L 35.127202 36.201931 
L 35.44745 36.368331 
L 35.767698 36.515476 
L 36.087946 36.636755 
L 36.408194 36.731418 
L 36.728442 36.800887 
L 37.04869 36.84971 
L 37.368938 36.88734 
L 37.689186 36.923399 
L 38.009434 36.960566 
L 38.329682 36.994864 
L 38.64993 37.02269 
L 38.970178 37.044668 
L 39.290425 37.06274 
L 39.610673 37.076966 
L 39.930921 37.086481 
L 40.251169 37.091734 
L 40.571417 37.094626 
L 40.891665 37.097014 
L 41.211913 37.099482 
L 41.532161 37.101322 
L 41.852409 37.101759 
L 42.172657 37.101237 
L 42.492905 37.101227 
L 42.813153 37.102681 
L 43.133401 37.105106 
L 43.453649 37.107334 
L 43.773897 37.108706 
L 44.094144 37.109309 
L 44.414392 37.109504 
L 44.73464 37.109552 
L 45.054888 37.10956 
L 45.375136 37.109561 
L 45.695384 37.109561 
L 46.015632 37.109561 
" clip-path="url(#p79899e79d3)" style="fill: none; stroke: #1f77b4; stroke-width: 1.5; stroke-linecap: square"/>
   </g>
   <g id="line2d_7">
    <path d="M 14.311087 37.100979 
L 14.631335 37.095203 
L 14.951583 37.087107 
L 15.27183 37.076233 
L 15.592078 37.06347 
L 15.912326 37.050753 
L 16.232574 37.038511 
L 16.552822 37.023613 
L 16.87307 37.001021 
L 17.193318 36.968723 
L 17.513566 36.930444 
L 17.833814 36.891762 
L 18.154062 36.853687 
L 18.47431 36.810456 
L 18.794558 36.751874 
L 19.114806 36.66848 
L 19.435054 36.558766 
L 19.755302 36.432091 
L 20.075549 36.300915 
L 20.395797 36.168781 
L 20.716045 36.026177 
L 21.036293 35.858639 
L 21.356541 35.661815 
L 21.676789 35.447268 
L 21.997037 35.226782 
L 22.317285 34.993952 
L 22.637533 34.731344 
L 22.957781 34.432031 
L 23.278029 34.102174 
L 23.598277 33.746328 
L 23.918525 33.363616 
L 24.238773 32.958856 
L 24.559021 32.550963 
L 24.879268 32.169777 
L 25.199516 31.8426 
L 25.519764 31.580301 
L 25.840012 31.376735 
L 26.16026 31.215614 
L 26.480508 31.073636 
L 26.800756 30.931774 
L 27.121004 30.792159 
L 27.441252 30.670222 
L 27.7615 30.57307 
L 28.081748 30.505713 
L 28.401996 30.490178 
L 28.722244 30.557075 
L 29.042492 30.721148 
L 29.36274 30.969135 
L 29.682987 31.264461 
L 30.003235 31.569621 
L 30.323483 31.873199 
L 30.643731 32.18844 
L 30.963979 32.521707 
L 31.284227 32.854247 
L 31.604475 33.160604 
L 31.924723 33.435338 
L 32.244971 33.696279 
L 32.565219 33.966609 
L 32.885467 34.256878 
L 33.205715 34.561743 
L 33.525963 34.869006 
L 33.846211 35.167413 
L 34.166459 35.447237 
L 34.486706 35.699414 
L 34.806954 35.916721 
L 35.127202 36.096289 
L 35.44745 36.242975 
L 35.767698 36.368246 
L 36.087946 36.481843 
L 36.408194 36.586029 
L 36.728442 36.678859 
L 37.04869 36.758793 
L 37.368938 36.825015 
L 37.689186 36.877262 
L 38.009434 36.917541 
L 38.329682 36.950866 
L 38.64993 36.982375 
L 38.970178 37.013058 
L 39.290425 37.040092 
L 39.610673 37.061575 
L 39.930921 37.078205 
L 40.251169 37.090559 
L 40.571417 37.097975 
L 40.891665 37.100595 
L 41.211913 37.100692 
L 41.532161 37.101163 
L 41.852409 37.103185 
L 42.172657 37.105879 
L 42.492905 37.107964 
L 42.813153 37.109042 
L 43.133401 37.109435 
L 43.453649 37.109539 
L 43.773897 37.109558 
L 44.094144 37.109561 
L 44.414392 37.109561 
L 44.73464 37.109561 
L 45.054888 37.109561 
L 45.375136 37.109561 
L 45.695384 37.109561 
L 46.015632 37.109561 
" clip-path="url(#p79899e79d3)" style="fill: none; stroke: #d62728; stroke-width: 1.5; stroke-linecap: square"/>
   </g>
   <g id="patch_3">
    <path d="M 12.725859 37.922465 
L 47.600859 37.922465 
" style="fill: none; stroke: #000000; stroke-width: 1.5; stroke-linejoin: miter; stroke-linecap: square"/>
   </g>
   <g id="text_1">
    <!-- $\theta_1$ -->
    <g transform="translate(25.213359 14.038594)">
     <text>
      <tspan x="0" y="-0.09375" style="font-size: 9px; font-family: 'DejaVu Sans'">θ</tspan>
      <tspan x="5.59248" y="1.382812" style="font-size: 6.3px; font-family: 'DejaVu Sans'">1</tspan>
     </text>
    </g>
   </g>
  </g>
  <g id="axes_2">
   <g id="patch_4">
    <path d="M 61.550859 37.922465 
L 96.425859 37.922465 
L 96.425859 20.038594 
L 61.550859 20.038594 
z
" style="fill: #ffffff"/>
   </g>
   <g id="matplotlib.axis_3">
    <g id="xtick_4">
     <g id="line2d_8">
      <g>
       <use xlink:href="#m247e7d0570" x="63.136087" y="37.922465" style="stroke: #000000; stroke-width: 1.5"/>
      </g>
     </g>
    </g>
    <g id="xtick_5">
     <g id="line2d_9">
      <g>
       <use xlink:href="#m247e7d0570" x="78.988359" y="37.922465" style="stroke: #000000; stroke-width: 1.5"/>
      </g>
     </g>
    </g>
    <g id="xtick_6">
     <g id="line2d_10">
      <g>
       <use xlink:href="#m247e7d0570" x="94.840632" y="37.922465" style="stroke: #000000; stroke-width: 1.5"/>
      </g>
     </g>
    </g>
   </g>
   <g id="matplotlib.axis_4"/>
   <g id="line2d_11">
    <path d="M 63.136087 37.109561 
L 63.456335 37.109561 
L 63.776583 37.109561 
L 64.09683 37.109561 
L 64.417078 37.109561 
L 64.737326 37.109561 
L 65.057574 37.109561 
L 65.377822 37.109561 
L 65.69807 37.109561 
L 66.018318 37.109561 
L 66.338566 37.109561 
L 66.658814 37.109561 
L 66.979062 37.109561 
L 67.29931 37.109561 
L 67.619558 37.109561 
L 67.939806 37.109561 
L 68.260054 37.109561 
L 68.580302 37.109561 
L 68.900549 37.109561 
L 69.220797 37.109561 
L 69.541045 37.109561 
L 69.861293 37.109561 
L 70.181541 37.109561 
L 70.501789 37.109561 
L 70.822037 37.109561 
L 71.142285 37.109561 
L 71.462533 37.109561 
L 71.782781 37.109561 
L 72.103029 37.109561 
L 72.423277 37.109561 
L 72.743525 37.109561 
L 73.063773 37.109561 
L 73.384021 37.109561 
L 73.704268 37.109561 
L 74.024516 37.109561 
L 74.344764 37.109561 
L 74.665012 37.109561 
L 74.98526 37.109561 
L 75.305508 37.109561 
L 75.625756 37.109561 
L 75.946004 37.109561 
L 76.266252 37.109561 
L 76.5865 37.109561 
L 76.906748 37.109561 
L 77.226996 37.109561 
L 77.547244 37.109561 
L 77.867492 37.109561 
L 78.18774 37.109561 
L 78.507987 37.109561 
L 78.828235 37.109561 
L 79.148483 37.109559 
L 79.468731 37.109219 
L 79.788979 37.098875 
L 80.109227 37.025374 
L 80.429475 36.826396 
L 80.749723 36.446708 
L 81.069971 35.934223 
L 81.390219 35.374889 
L 81.710467 34.487306 
L 82.030715 33.15415 
L 82.350963 31.445786 
L 82.671211 29.304284 
L 82.991459 27.134272 
L 83.311706 25.015625 
L 83.631954 23.532963 
L 83.952202 22.272091 
L 84.27245 21.271864 
L 84.592698 20.851497 
L 84.912946 21.394355 
L 85.233194 22.271433 
L 85.553442 23.839551 
L 85.87369 25.790981 
L 86.193938 27.805021 
L 86.514186 29.682451 
L 86.834434 31.469805 
L 87.154682 33.02795 
L 87.47493 34.292774 
L 87.795178 35.104584 
L 88.115425 35.790461 
L 88.435673 36.326555 
L 88.755921 36.641155 
L 89.076169 36.785458 
L 89.396417 36.926868 
L 89.716665 37.034063 
L 90.036913 37.082465 
L 90.357161 37.079992 
L 90.677409 37.097653 
L 90.997657 37.108567 
L 91.317905 37.109546 
L 91.638153 37.109561 
L 91.958401 37.109561 
L 92.278649 37.109561 
L 92.598897 37.109561 
L 92.919144 37.109561 
L 93.239392 37.109561 
L 93.55964 37.109561 
L 93.879888 37.109561 
L 94.200136 37.109561 
L 94.520384 37.109561 
L 94.840632 37.109561 
" clip-path="url(#pa2075f1776)" style="fill: none; stroke: #000000; stroke-width: 1.5; stroke-linecap: square"/>
   </g>
   <g id="line2d_12">
    <path d="M 63.136087 37.109561 
L 63.456335 37.109561 
L 63.776583 37.109561 
L 64.09683 37.109561 
L 64.417078 37.109561 
L 64.737326 37.109561 
L 65.057574 37.109561 
L 65.377822 37.109561 
L 65.69807 37.109561 
L 66.018318 37.109561 
L 66.338566 37.109561 
L 66.658814 37.109561 
L 66.979062 37.109561 
L 67.29931 37.109561 
L 67.619558 37.109561 
L 67.939806 37.109561 
L 68.260054 37.109561 
L 68.580302 37.109561 
L 68.900549 37.109561 
L 69.220797 37.109561 
L 69.541045 37.109561 
L 69.861293 37.109561 
L 70.181541 37.109561 
L 70.501789 37.109561 
L 70.822037 37.109561 
L 71.142285 37.109561 
L 71.462533 37.109561 
L 71.782781 37.109561 
L 72.103029 37.109561 
L 72.423277 37.109561 
L 72.743525 37.109561 
L 73.063773 37.109561 
L 73.384021 37.109561 
L 73.704268 37.109561 
L 74.024516 37.109561 
L 74.344764 37.109561 
L 74.665012 37.109561 
L 74.98526 37.109561 
L 75.305508 37.109561 
L 75.625756 37.109561 
L 75.946004 37.109561 
L 76.266252 37.109561 
L 76.5865 37.109561 
L 76.906748 37.10953 
L 77.226996 37.108875 
L 77.547244 37.105095 
L 77.867492 37.100808 
L 78.18774 37.102487 
L 78.507987 37.094207 
L 78.828235 37.051689 
L 79.148483 36.969461 
L 79.468731 36.874506 
L 79.788979 36.745134 
L 80.109227 36.552693 
L 80.429475 36.256046 
L 80.749723 35.881653 
L 81.069971 35.380874 
L 81.390219 34.59414 
L 81.710467 33.516829 
L 82.030715 32.450192 
L 82.350963 31.503499 
L 82.671211 30.56392 
L 82.991459 29.3527 
L 83.311706 27.769038 
L 83.631954 26.430854 
L 83.952202 25.553269 
L 84.27245 24.849061 
L 84.592698 24.468388 
L 84.912946 24.222052 
L 85.233194 23.939063 
L 85.553442 24.135825 
L 85.87369 24.702084 
L 86.193938 25.633111 
L 86.514186 27.286835 
L 86.834434 29.093025 
L 87.154682 30.803151 
L 87.47493 32.356585 
L 87.795178 33.563602 
L 88.115425 34.44207 
L 88.435673 35.155018 
L 88.755921 35.757981 
L 89.076169 36.162049 
L 89.396417 36.498611 
L 89.716665 36.747076 
L 90.036913 36.869796 
L 90.357161 36.96255 
L 90.677409 37.017329 
L 90.997657 37.050425 
L 91.317905 37.07017 
L 91.638153 37.086313 
L 91.958401 37.10362 
L 92.278649 37.10906 
L 92.598897 37.109548 
L 92.919144 37.109561 
L 93.239392 37.109561 
L 93.55964 37.109561 
L 93.879888 37.109561 
L 94.200136 37.109561 
L 94.520384 37.109561 
L 94.840632 37.109561 
" clip-path="url(#pa2075f1776)" style="fill: none; stroke: #f2a900; stroke-width: 1.5; stroke-linecap: square"/>
   </g>
   <g id="line2d_13">
    <path d="M 63.136087 37.109561 
L 63.456335 37.109561 
L 63.776583 37.109561 
L 64.09683 37.109561 
L 64.417078 37.109561 
L 64.737326 37.109561 
L 65.057574 37.109561 
L 65.377822 37.109561 
L 65.69807 37.109561 
L 66.018318 37.109561 
L 66.338566 37.109561 
L 66.658814 37.109561 
L 66.979062 37.109556 
L 67.29931 37.109527 
L 67.619558 37.109409 
L 67.939806 37.109048 
L 68.260054 37.108246 
L 68.580302 37.106973 
L 68.900549 37.105562 
L 69.220797 37.1044 
L 69.541045 37.103189 
L 69.861293 37.100714 
L 70.181541 37.095577 
L 70.501789 37.087088 
L 70.822037 37.075696 
L 71.142285 37.062959 
L 71.462533 37.050419 
L 71.782781 37.037105 
L 72.103029 37.018222 
L 72.423277 36.988352 
L 72.743525 36.946963 
L 73.063773 36.898972 
L 73.384021 36.848717 
L 73.704268 36.795425 
L 74.024516 36.734748 
L 74.344764 36.660236 
L 74.665012 36.561792 
L 74.98526 36.428155 
L 75.305508 36.256146 
L 75.625756 36.056827 
L 75.946004 35.84841 
L 76.266252 35.641321 
L 76.5865 35.430456 
L 76.906748 35.199799 
L 77.226996 34.935979 
L 77.547244 34.644332 
L 77.867492 34.348216 
L 78.18774 34.060287 
L 78.507987 33.758331 
L 78.828235 33.406433 
L 79.148483 33.003734 
L 79.468731 32.601932 
L 79.788979 32.267358 
L 80.109227 32.025217 
L 80.429475 31.840626 
L 80.749723 31.649648 
L 81.069971 31.406503 
L 81.390219 31.111236 
L 81.710467 30.80647 
L 82.030715 30.549933 
L 82.350963 30.384423 
L 82.671211 30.327464 
L 82.991459 30.378591 
L 83.311706 30.527728 
L 83.631954 30.757574 
L 83.952202 31.041461 
L 84.27245 31.342564 
L 84.592698 31.622484 
L 84.912946 31.85741 
L 85.233194 32.050657 
L 85.553442 32.232603 
L 85.87369 32.442803 
L 86.193938 32.700327 
L 86.514186 32.988743 
L 86.834434 33.275364 
L 87.154682 33.545513 
L 87.47493 33.81503 
L 87.795178 34.107801 
L 88.115425 34.421817 
L 88.435673 34.724725 
L 88.755921 34.987611 
L 89.076169 35.212764 
L 89.396417 35.419807 
L 89.716665 35.616869 
L 90.036913 35.798227 
L 90.357161 35.961523 
L 90.677409 36.113596 
L 90.997657 36.261175 
L 91.317905 36.403409 
L 91.638153 36.533273 
L 91.958401 36.642874 
L 92.278649 36.727589 
L 92.598897 36.787992 
L 92.919144 36.830356 
L 93.239392 36.864746 
L 93.55964 36.89981 
L 93.879888 36.937838 
L 94.200136 36.975134 
L 94.520384 37.007196 
L 94.840632 37.032518 
" clip-path="url(#pa2075f1776)" style="fill: none; stroke: #1f77b4; stroke-width: 1.5; stroke-linecap: square"/>
   </g>
   <g id="line2d_14">
    <path d="M 63.136087 37.109561 
L 63.456335 37.109561 
L 63.776583 37.109561 
L 64.09683 37.109561 
L 64.417078 37.109561 
L 64.737326 37.109561 
L 65.057574 37.109561 
L 65.377822 37.109561 
L 65.69807 37.109561 
L 66.018318 37.109561 
L 66.338566 37.109561 
L 66.658814 37.109561 
L 66.979062 37.109561 
L 67.29931 37.109561 
L 67.619558 37.109561 
L 67.939806 37.109561 
L 68.260054 37.109561 
L 68.580302 37.109561 
L 68.900549 37.109561 
L 69.220797 37.109556 
L 69.541045 37.109523 
L 69.861293 37.109363 
L 70.181541 37.108769 
L 70.501789 37.107117 
L 70.822037 37.103633 
L 71.142285 37.097913 
L 71.462533 37.090132 
L 71.782781 37.080504 
L 72.103029 37.069018 
L 72.423277 37.055897 
L 72.743525 37.041061 
L 73.063773 37.022603 
L 73.384021 36.997378 
L 73.704268 36.963674 
L 74.024516 36.921729 
L 74.344764 36.871017 
L 74.665012 36.808645 
L 74.98526 36.731318 
L 75.305508 36.637063 
L 75.625756 36.524093 
L 75.946004 36.391072 
L 76.266252 36.240359 
L 76.5865 36.0778 
L 76.906748 35.906673 
L 77.226996 35.723804 
L 77.547244 35.523596 
L 77.867492 35.304851 
L 78.18774 35.072651 
L 78.507987 34.833398 
L 78.828235 34.585575 
L 79.148483 34.314205 
L 79.468731 33.998445 
L 79.788979 33.625853 
L 80.109227 33.196387 
L 80.429475 32.720084 
L 80.749723 32.226181 
L 81.069971 31.77277 
L 81.390219 31.427193 
L 81.710467 31.223794 
L 82.030715 31.139419 
L 82.350963 31.107517 
L 82.671211 31.06062 
L 82.991459 30.973199 
L 83.311706 30.866638 
L 83.631954 30.771074 
L 83.952202 30.694805 
L 84.27245 30.638048 
L 84.592698 30.620584 
L 84.912946 30.680649 
L 85.233194 30.848357 
L 85.553442 31.121322 
L 85.87369 31.460356 
L 86.193938 31.809276 
L 86.514186 32.128211 
L 86.834434 32.415799 
L 87.154682 32.698674 
L 87.47493 32.996273 
L 87.795178 33.300467 
L 88.115425 33.593073 
L 88.435673 33.871776 
L 88.755921 34.147388 
L 89.076169 34.42292 
L 89.396417 34.687936 
L 89.716665 34.933081 
L 90.036913 35.161699 
L 90.357161 35.383156 
L 90.677409 35.598414 
L 90.997657 35.797557 
L 91.317905 35.97092 
L 91.638153 36.118531 
L 91.958401 36.248625 
L 92.278649 36.369558 
L 92.598897 36.483153 
L 92.919144 36.584339 
L 93.239392 36.667746 
L 93.55964 36.735246 
L 93.879888 36.795048 
L 94.200136 36.852647 
L 94.520384 36.905348 
L 94.840632 36.94653 
" clip-path="url(#pa2075f1776)" style="fill: none; stroke: #d62728; stroke-width: 1.5; stroke-linecap: square"/>
   </g>
   <g id="patch_5">
    <path d="M 61.550859 37.922465 
L 96.425859 37.922465 
" style="fill: none; stroke: #000000; stroke-width: 1.5; stroke-linejoin: miter; stroke-linecap: square"/>
   </g>
   <g id="text_2">
    <!-- $\theta_2$ -->
    <g transform="translate(74.038359 14.038594)">
     <text>
      <tspan x="0" y="-0.09375" style="font-size: 9px; font-family: 'DejaVu Sans'">θ</tspan>
      <tspan x="5.59248" y="1.382812" style="font-size: 6.3px; font-family: 'DejaVu Sans'">2</tspan>
     </text>
    </g>
   </g>
  </g>
  <g id="axes_3">
   <g id="patch_6">
    <path d="M 12.725859 75.478594 
L 47.600859 75.478594 
L 47.600859 57.594723 
L 12.725859 57.594723 
z
" style="fill: #ffffff"/>
   </g>
   <g id="matplotlib.axis_5">
    <g id="xtick_7">
     <g id="line2d_15">
      <g>
       <use xlink:href="#m247e7d0570" x="14.311087" y="75.478594" style="stroke: #000000; stroke-width: 1.5"/>
      </g>
     </g>
     <g id="text_3">
      <text style="font-size: 9px; font-family: 'Arial', sans-serif; text-anchor: middle" x="14.311087" y="89.317188" transform="rotate(-0 14.311087 89.317188)">−1</text>
     </g>
    </g>
    <g id="xtick_8">
     <g id="line2d_16">
      <g>
       <use xlink:href="#m247e7d0570" x="30.163359" y="75.478594" style="stroke: #000000; stroke-width: 1.5"/>
      </g>
     </g>
     <g id="text_4">
      <text style="font-size: 9px; font-family: 'Arial', sans-serif; text-anchor: middle" x="30.163359" y="89.317188" transform="rotate(-0 30.163359 89.317188)">0</text>
     </g>
    </g>
    <g id="xtick_9">
     <g id="line2d_17">
      <g>
       <use xlink:href="#m247e7d0570" x="46.015632" y="75.478594" style="stroke: #000000; stroke-width: 1.5"/>
      </g>
     </g>
     <g id="text_5">
      <text style="font-size: 9px; font-family: 'Arial', sans-serif; text-anchor: middle" x="46.015632" y="89.317188" transform="rotate(-0 46.015632 89.317188)">1</text>
     </g>
    </g>
   </g>
   <g id="matplotlib.axis_6"/>
   <g id="line2d_18">
    <path d="M 14.311087 74.665691 
L 14.631335 74.665691 
L 14.951583 74.665691 
L 15.27183 74.665691 
L 15.592078 74.665691 
L 15.912326 74.665691 
L 16.232574 74.665691 
L 16.552822 74.665691 
L 16.87307 74.665691 
L 17.193318 74.665691 
L 17.513566 74.665691 
L 17.833814 74.665691 
L 18.154062 74.665691 
L 18.47431 74.665691 
L 18.794558 74.665691 
L 19.114806 74.665691 
L 19.435054 74.665691 
L 19.755302 74.665691 
L 20.075549 74.665691 
L 20.395797 74.665691 
L 20.716045 74.665691 
L 21.036293 74.665691 
L 21.356541 74.665691 
L 21.676789 74.665691 
L 21.997037 74.665691 
L 22.317285 74.665691 
L 22.637533 74.665691 
L 22.957781 74.665691 
L 23.278029 74.665691 
L 23.598277 74.665691 
L 23.918525 74.665691 
L 24.238773 74.665691 
L 24.559021 74.665691 
L 24.879268 74.665691 
L 25.199516 74.665691 
L 25.519764 74.665691 
L 25.840012 74.665691 
L 26.16026 74.665691 
L 26.480508 74.665691 
L 26.800756 74.665691 
L 27.121004 74.665691 
L 27.441252 74.665691 
L 27.7615 74.665691 
L 28.081748 74.665691 
L 28.401996 74.665691 
L 28.722244 74.665691 
L 29.042492 74.665691 
L 29.36274 74.665691 
L 29.682987 74.665691 
L 30.003235 74.665691 
L 30.323483 74.665691 
L 30.643731 74.665691 
L 30.963979 74.66569 
L 31.284227 74.665658 
L 31.604475 74.664079 
L 31.924723 74.64974 
L 32.244971 74.629051 
L 32.565219 74.60305 
L 32.885467 74.518863 
L 33.205715 74.379649 
L 33.525963 74.156643 
L 33.846211 73.838194 
L 34.166459 73.416934 
L 34.486706 72.77687 
L 34.806954 71.735247 
L 35.127202 70.240605 
L 35.44745 68.666654 
L 35.767698 66.73163 
L 36.087946 64.566472 
L 36.408194 63.169993 
L 36.728442 61.592795 
L 37.04869 59.912801 
L 37.368938 58.694591 
L 37.689186 58.407626 
L 38.009434 58.707287 
L 38.329682 59.487511 
L 38.64993 60.673327 
L 38.970178 62.558201 
L 39.290425 64.697704 
L 39.610673 66.562781 
L 39.930921 68.145537 
L 40.251169 69.899741 
L 40.571417 71.449629 
L 40.891665 72.510149 
L 41.211913 73.20051 
L 41.532161 73.64262 
L 41.852409 73.943035 
L 42.172657 74.270678 
L 42.492905 74.521056 
L 42.813153 74.635108 
L 43.133401 74.663289 
L 43.453649 74.665645 
L 43.773897 74.66569 
L 44.094144 74.665691 
L 44.414392 74.665691 
L 44.73464 74.665691 
L 45.054888 74.665691 
L 45.375136 74.665691 
L 45.695384 74.665691 
L 46.015632 74.665691 
" clip-path="url(#pcb99ab0709)" style="fill: none; stroke: #000000; stroke-width: 1.5; stroke-linecap: square"/>
   </g>
   <g id="line2d_19">
    <path d="M 14.311087 74.665691 
L 14.631335 74.665691 
L 14.951583 74.665691 
L 15.27183 74.665691 
L 15.592078 74.665691 
L 15.912326 74.665691 
L 16.232574 74.665691 
L 16.552822 74.665691 
L 16.87307 74.665691 
L 17.193318 74.665691 
L 17.513566 74.665691 
L 17.833814 74.665691 
L 18.154062 74.665691 
L 18.47431 74.665691 
L 18.794558 74.665691 
L 19.114806 74.665691 
L 19.435054 74.665691 
L 19.755302 74.665691 
L 20.075549 74.665691 
L 20.395797 74.665691 
L 20.716045 74.665691 
L 21.036293 74.665691 
L 21.356541 74.665691 
L 21.676789 74.665691 
L 21.997037 74.665691 
L 22.317285 74.665691 
L 22.637533 74.665691 
L 22.957781 74.665691 
L 23.278029 74.665691 
L 23.598277 74.665691 
L 23.918525 74.665691 
L 24.238773 74.665691 
L 24.559021 74.665691 
L 24.879268 74.665691 
L 25.199516 74.665691 
L 25.519764 74.665691 
L 25.840012 74.665691 
L 26.16026 74.665691 
L 26.480508 74.665691 
L 26.800756 74.665691 
L 27.121004 74.665691 
L 27.441252 74.665691 
L 27.7615 74.665691 
L 28.081748 74.665691 
L 28.401996 74.665691 
L 28.722244 74.665691 
L 29.042492 74.665691 
L 29.36274 74.665691 
L 29.682987 74.66569 
L 30.003235 74.665667 
L 30.323483 74.665164 
L 30.643731 74.661819 
L 30.963979 74.654624 
L 31.284227 74.641775 
L 31.604475 74.611303 
L 31.924723 74.566658 
L 32.244971 74.511764 
L 32.565219 74.430153 
L 32.885467 74.251864 
L 33.205715 73.924487 
L 33.525963 73.465038 
L 33.846211 72.876125 
L 34.166459 72.115542 
L 34.486706 71.002058 
L 34.806954 69.578267 
L 35.127202 68.048021 
L 35.44745 66.375423 
L 35.767698 64.928551 
L 36.087946 63.860211 
L 36.408194 62.862862 
L 36.728442 61.962972 
L 37.04869 61.278423 
L 37.368938 61.253272 
L 37.689186 61.588815 
L 38.009434 62.04041 
L 38.329682 62.781944 
L 38.64993 63.867076 
L 38.970178 65.03999 
L 39.290425 66.045509 
L 39.610673 67.118612 
L 39.930921 68.398058 
L 40.251169 69.591893 
L 40.571417 70.582501 
L 40.891665 71.392191 
L 41.211913 72.241342 
L 41.532161 72.94981 
L 41.852409 73.423545 
L 42.172657 73.74678 
L 42.492905 74.016726 
L 42.813153 74.234687 
L 43.133401 74.385308 
L 43.453649 74.499714 
L 43.773897 74.558843 
L 44.094144 74.595463 
L 44.414392 74.633465 
L 44.73464 74.654405 
L 45.054888 74.663255 
L 45.375136 74.665479 
L 45.695384 74.665684 
L 46.015632 74.66569 
" clip-path="url(#pcb99ab0709)" style="fill: none; stroke: #f2a900; stroke-width: 1.5; stroke-linecap: square"/>
   </g>
   <g id="line2d_20">
    <path d="M 14.311087 74.665691 
L 14.631335 74.665691 
L 14.951583 74.665691 
L 15.27183 74.665691 
L 15.592078 74.665691 
L 15.912326 74.66569 
L 16.232574 74.66569 
L 16.552822 74.665685 
L 16.87307 74.665664 
L 17.193318 74.66558 
L 17.513566 74.665331 
L 17.833814 74.664767 
L 18.154062 74.663813 
L 18.47431 74.662676 
L 18.794558 74.661865 
L 19.114806 74.661856 
L 19.435054 74.662653 
L 19.755302 74.66379 
L 20.075549 74.664751 
L 20.395797 74.665323 
L 20.716045 74.665577 
L 21.036293 74.665663 
L 21.356541 74.665685 
L 21.676789 74.66569 
L 21.997037 74.665689 
L 22.317285 74.66568 
L 22.637533 74.665637 
L 22.957781 74.665468 
L 23.278029 74.664964 
L 23.598277 74.663803 
L 23.918525 74.661768 
L 24.238773 74.65909 
L 24.559021 74.656472 
L 24.879268 74.654559 
L 25.199516 74.653405 
L 25.519764 74.652615 
L 25.840012 74.65173 
L 26.16026 74.650129 
L 26.480508 74.6467 
L 26.800756 74.640014 
L 27.121004 74.629052 
L 27.441252 74.613781 
L 27.7615 74.594638 
L 28.081748 74.570996 
L 28.401996 74.540839 
L 28.722244 74.503226 
L 29.042492 74.460518 
L 29.36274 74.415761 
L 29.682987 74.366655 
L 30.003235 74.30317 
L 30.323483 74.212474 
L 30.643731 74.087177 
L 30.963979 73.930229 
L 31.284227 73.753179 
L 31.604475 73.568833 
L 31.924723 73.382059 
L 32.244971 73.185164 
L 32.565219 72.964202 
L 32.885467 72.712578 
L 33.205715 72.436847 
L 33.525963 72.14742 
L 33.846211 71.847859 
L 34.166459 71.537707 
L 34.486706 71.22216 
L 34.806954 70.913594 
L 35.127202 70.625838 
L 35.44745 70.370339 
L 35.767698 70.152837 
L 36.087946 69.96684 
L 36.408194 69.792867 
L 36.728442 69.612304 
L 37.04869 69.423414 
L 37.368938 69.238472 
L 37.689186 69.066285 
L 38.009434 68.905289 
L 38.329682 68.753305 
L 38.64993 68.615191 
L 38.970178 68.499468 
L 39.290425 68.415348 
L 39.610673 68.377346 
L 39.930921 68.407789 
L 40.251169 68.526615 
L 40.571417 68.735416 
L 40.891665 69.01187 
L 41.211913 69.316866 
L 41.532161 69.605018 
L 41.852409 69.837658 
L 42.172657 70.001064 
L 42.492905 70.120135 
L 42.813153 70.25167 
L 43.133401 70.453711 
L 43.453649 70.747952 
L 43.773897 71.104429 
L 44.094144 71.464011 
L 44.414392 71.779722 
L 44.73464 72.040328 
L 45.054888 72.261832 
L 45.375136 72.465167 
L 45.695384 72.662236 
L 46.015632 72.854783 
" clip-path="url(#pcb99ab0709)" style="fill: none; stroke: #1f77b4; stroke-width: 1.5; stroke-linecap: square"/>
   </g>
   <g id="line2d_21">
    <path d="M 14.311087 74.665691 
L 14.631335 74.665691 
L 14.951583 74.665691 
L 15.27183 74.665691 
L 15.592078 74.665691 
L 15.912326 74.665691 
L 16.232574 74.665691 
L 16.552822 74.665691 
L 16.87307 74.665691 
L 17.193318 74.665691 
L 17.513566 74.665691 
L 17.833814 74.665691 
L 18.154062 74.665691 
L 18.47431 74.665691 
L 18.794558 74.665691 
L 19.114806 74.665691 
L 19.435054 74.665691 
L 19.755302 74.665691 
L 20.075549 74.665691 
L 20.395797 74.665691 
L 20.716045 74.665691 
L 21.036293 74.665691 
L 21.356541 74.665691 
L 21.676789 74.665691 
L 21.997037 74.665691 
L 22.317285 74.66569 
L 22.637533 74.665689 
L 22.957781 74.665678 
L 23.278029 74.665626 
L 23.598277 74.665435 
L 23.918525 74.664891 
L 24.238773 74.663712 
L 24.559021 74.661796 
L 24.879268 74.659515 
L 25.199516 74.657565 
L 25.519764 74.656114 
L 25.840012 74.653972 
L 26.16026 74.64885 
L 26.480508 74.638559 
L 26.800756 74.621777 
L 27.121004 74.598018 
L 27.441252 74.567972 
L 27.7615 74.53393 
L 28.081748 74.498333 
L 28.401996 74.461242 
L 28.722244 74.419846 
L 29.042492 74.369732 
L 29.36274 74.305478 
L 29.682987 74.221439 
L 30.003235 74.114666 
L 30.323483 73.987195 
L 30.643731 73.84358 
L 30.963979 73.685428 
L 31.284227 73.508549 
L 31.604475 73.304408 
L 31.924723 73.064513 
L 32.244971 72.788013 
L 32.565219 72.48811 
L 32.885467 72.186626 
L 33.205715 71.897579 
L 33.525963 71.61764 
L 33.846211 71.33366 
L 34.166459 71.036398 
L 34.486706 70.727553 
L 34.806954 70.419037 
L 35.127202 70.12689 
L 35.44745 69.860934 
L 35.767698 69.61635 
L 36.087946 69.376479 
L 36.408194 69.128057 
L 36.728442 68.877076 
L 37.04869 68.648962 
L 37.368938 68.470723 
L 37.689186 68.354753 
L 38.009434 68.302223 
L 38.329682 68.313732 
L 38.64993 68.384847 
L 38.970178 68.495885 
L 39.290425 68.619494 
L 39.610673 68.738226 
L 39.930921 68.849791 
L 40.251169 68.961908 
L 40.571417 69.086507 
L 40.891665 69.231289 
L 41.211913 69.395754 
L 41.532161 69.583358 
L 41.852409 69.812519 
L 42.172657 70.101659 
L 42.492905 70.44446 
L 42.813153 70.809993 
L 43.133401 71.166633 
L 43.453649 71.500882 
L 43.773897 71.815999 
L 44.094144 72.118262 
L 44.414392 72.405172 
L 44.73464 72.664315 
L 45.054888 72.883836 
L 45.375136 73.065801 
L 45.695384 73.227341 
L 46.015632 73.386085 
" clip-path="url(#pcb99ab0709)" style="fill: none; stroke: #d62728; stroke-width: 1.5; stroke-linecap: square"/>
   </g>
   <g id="patch_7">
    <path d="M 12.725859 75.478594 
L 47.600859 75.478594 
" style="fill: none; stroke: #000000; stroke-width: 1.5; stroke-linejoin: miter; stroke-linecap: square"/>
   </g>
   <g id="text_6">
    <!-- $\theta_3$ -->
    <g transform="translate(25.213359 51.594723)">
     <text>
      <tspan x="0" y="-0.09375" style="font-size: 9px; font-family: 'DejaVu Sans'">θ</tspan>
      <tspan x="5.59248" y="1.382812" style="font-size: 6.3px; font-family: 'DejaVu Sans'">3</tspan>
     </text>
    </g>
   </g>
  </g>
  <g id="axes_4">
   <g id="patch_8">
    <path d="M 61.550859 75.478594 
L 96.425859 75.478594 
L 96.425859 57.594723 
L 61.550859 57.594723 
z
" style="fill: #ffffff"/>
   </g>
   <g id="matplotlib.axis_7">
    <g id="xtick_10">
     <g id="line2d_22">
      <g>
       <use xlink:href="#m247e7d0570" x="63.136087" y="75.478594" style="stroke: #000000; stroke-width: 1.5"/>
      </g>
     </g>
     <g id="text_7">
      <text style="font-size: 9px; font-family: 'Arial', sans-serif; text-anchor: middle" x="63.136087" y="89.317188" transform="rotate(-0 63.136087 89.317188)">−1</text>
     </g>
    </g>
    <g id="xtick_11">
     <g id="line2d_23">
      <g>
       <use xlink:href="#m247e7d0570" x="78.988359" y="75.478594" style="stroke: #000000; stroke-width: 1.5"/>
      </g>
     </g>
     <g id="text_8">
      <text style="font-size: 9px; font-family: 'Arial', sans-serif; text-anchor: middle" x="78.988359" y="89.317188" transform="rotate(-0 78.988359 89.317188)">0</text>
     </g>
    </g>
    <g id="xtick_12">
     <g id="line2d_24">
      <g>
       <use xlink:href="#m247e7d0570" x="94.840632" y="75.478594" style="stroke: #000000; stroke-width: 1.5"/>
      </g>
     </g>
     <g id="text_9">
      <text style="font-size: 9px; font-family: 'Arial', sans-serif; text-anchor: middle" x="94.840632" y="89.317188" transform="rotate(-0 94.840632 89.317188)">1</text>
     </g>
    </g>
   </g>
   <g id="matplotlib.axis_8"/>
   <g id="line2d_25">
    <path d="M 63.136087 74.665064 
L 63.456335 74.65718 
L 63.776583 74.637585 
L 64.09683 74.631706 
L 64.417078 74.596375 
L 64.737326 74.518197 
L 65.057574 74.437703 
L 65.377822 74.306062 
L 65.69807 74.101202 
L 66.018318 73.817085 
L 66.338566 73.36341 
L 66.658814 72.841179 
L 66.979062 72.110984 
L 67.29931 70.952707 
L 67.619558 69.592042 
L 67.939806 68.216114 
L 68.260054 66.321653 
L 68.580302 64.432466 
L 68.900549 62.993176 
L 69.220797 61.746803 
L 69.541045 60.341587 
L 69.861293 58.916807 
L 70.181541 58.407626 
L 70.501789 58.835951 
L 70.822037 59.50059 
L 71.142285 60.52463 
L 71.462533 62.322794 
L 71.782781 64.229218 
L 72.103029 66.116574 
L 72.423277 67.922673 
L 72.743525 69.758428 
L 73.063773 71.207585 
L 73.384021 72.308446 
L 73.704268 73.131242 
L 74.024516 73.642304 
L 74.344764 73.985511 
L 74.665012 74.330913 
L 74.98526 74.553017 
L 75.305508 74.648075 
L 75.625756 74.664878 
L 75.946004 74.665681 
L 76.266252 74.66569 
L 76.5865 74.665691 
L 76.906748 74.665691 
L 77.226996 74.665691 
L 77.547244 74.665691 
L 77.867492 74.665691 
L 78.18774 74.665691 
L 78.507987 74.665691 
L 78.828235 74.665691 
L 79.148483 74.665691 
L 79.468731 74.665691 
L 79.788979 74.665691 
L 80.109227 74.665691 
L 80.429475 74.665691 
L 80.749723 74.665691 
L 81.069971 74.665691 
L 81.390219 74.665691 
L 81.710467 74.665691 
L 82.030715 74.665691 
L 82.350963 74.665691 
L 82.671211 74.665691 
L 82.991459 74.665691 
L 83.311706 74.665691 
L 83.631954 74.665691 
L 83.952202 74.665691 
L 84.27245 74.665691 
L 84.592698 74.665691 
L 84.912946 74.665691 
L 85.233194 74.665691 
L 85.553442 74.665691 
L 85.87369 74.665691 
L 86.193938 74.665691 
L 86.514186 74.665691 
L 86.834434 74.665691 
L 87.154682 74.665691 
L 87.47493 74.665691 
L 87.795178 74.665691 
L 88.115425 74.665691 
L 88.435673 74.665691 
L 88.755921 74.665691 
L 89.076169 74.665691 
L 89.396417 74.665691 
L 89.716665 74.665691 
L 90.036913 74.665691 
L 90.357161 74.665691 
L 90.677409 74.665691 
L 90.997657 74.665691 
L 91.317905 74.665691 
L 91.638153 74.665691 
L 91.958401 74.665691 
L 92.278649 74.665691 
L 92.598897 74.665691 
L 92.919144 74.665691 
L 93.239392 74.665691 
L 93.55964 74.665691 
L 93.879888 74.665691 
L 94.200136 74.665691 
L 94.520384 74.665691 
L 94.840632 74.665691 
" clip-path="url(#pdf38be9419)" style="fill: none; stroke: #000000; stroke-width: 1.5; stroke-linecap: square"/>
   </g>
   <g id="line2d_26">
    <path d="M 63.136087 74.62702 
L 63.456335 74.609076 
L 63.776583 74.568135 
L 64.09683 74.503308 
L 64.417078 74.447476 
L 64.737326 74.365759 
L 65.057574 74.192597 
L 65.377822 73.877954 
L 65.69807 73.445872 
L 66.018318 72.877565 
L 66.338566 72.165486 
L 66.658814 71.388847 
L 66.979062 70.341399 
L 67.29931 69.013701 
L 67.619558 67.438657 
L 67.939806 65.718062 
L 68.260054 64.577896 
L 68.580302 63.764098 
L 68.900549 62.493703 
L 69.220797 61.325467 
L 69.541045 61.295594 
L 69.861293 61.571935 
L 70.181541 61.470643 
L 70.501789 61.452454 
L 70.822037 62.066878 
L 71.142285 63.220241 
L 71.462533 64.697765 
L 71.782781 66.251721 
L 72.103029 67.725384 
L 72.423277 68.834442 
L 72.743525 69.704238 
L 73.063773 70.683709 
L 73.384021 71.724063 
L 73.704268 72.601108 
L 74.024516 73.198211 
L 74.344764 73.61016 
L 74.665012 73.885892 
L 74.98526 74.095261 
L 75.305508 74.290184 
L 75.625756 74.445779 
L 75.946004 74.538478 
L 76.266252 74.592509 
L 76.5865 74.632643 
L 76.906748 74.651189 
L 77.226996 74.660555 
L 77.547244 74.664883 
L 77.867492 74.665646 
L 78.18774 74.66569 
L 78.507987 74.665691 
L 78.828235 74.665691 
L 79.148483 74.665691 
L 79.468731 74.665691 
L 79.788979 74.665691 
L 80.109227 74.665691 
L 80.429475 74.665691 
L 80.749723 74.665691 
L 81.069971 74.665691 
L 81.390219 74.665691 
L 81.710467 74.665691 
L 82.030715 74.665691 
L 82.350963 74.665691 
L 82.671211 74.665691 
L 82.991459 74.665691 
L 83.311706 74.665691 
L 83.631954 74.665691 
L 83.952202 74.665691 
L 84.27245 74.665691 
L 84.592698 74.665691 
L 84.912946 74.665691 
L 85.233194 74.665691 
L 85.553442 74.665691 
L 85.87369 74.665691 
L 86.193938 74.665691 
L 86.514186 74.665691 
L 86.834434 74.665691 
L 87.154682 74.665691 
L 87.47493 74.665691 
L 87.795178 74.665691 
L 88.115425 74.665691 
L 88.435673 74.665691 
L 88.755921 74.665691 
L 89.076169 74.665691 
L 89.396417 74.665691 
L 89.716665 74.665691 
L 90.036913 74.665691 
L 90.357161 74.665691 
L 90.677409 74.665691 
L 90.997657 74.665691 
L 91.317905 74.665691 
L 91.638153 74.665691 
L 91.958401 74.665691 
L 92.278649 74.665691 
L 92.598897 74.665691 
L 92.919144 74.665691 
L 93.239392 74.665691 
L 93.55964 74.665691 
L 93.879888 74.665691 
L 94.200136 74.665691 
L 94.520384 74.665691 
L 94.840632 74.665691 
" clip-path="url(#pdf38be9419)" style="fill: none; stroke: #f2a900; stroke-width: 1.5; stroke-linecap: square"/>
   </g>
   <g id="line2d_27">
    <path d="M 63.136087 73.740618 
L 63.456335 73.620712 
L 63.776583 73.492741 
L 64.09683 73.35031 
L 64.417078 73.188663 
L 64.737326 73.006519 
L 65.057574 72.804606 
L 65.377822 72.581892 
L 65.69807 72.335286 
L 66.018318 72.065479 
L 66.338566 71.781726 
L 66.658814 71.496926 
L 66.979062 71.21831 
L 67.29931 70.948018 
L 67.619558 70.693154 
L 67.939806 70.467357 
L 68.260054 70.276153 
L 68.580302 70.102762 
L 68.900549 69.915541 
L 69.220797 69.695826 
L 69.541045 69.457086 
L 69.861293 69.229055 
L 70.181541 69.023183 
L 70.501789 68.823988 
L 70.822037 68.616727 
L 71.142285 68.411494 
L 71.462533 68.233782 
L 71.782781 68.10443 
L 72.103029 68.041029 
L 72.423277 68.067402 
L 72.743525 68.200851 
L 73.063773 68.427128 
L 73.384021 68.697573 
L 73.704268 68.95406 
L 74.024516 69.15827 
L 74.344764 69.308603 
L 74.665012 69.441221 
L 74.98526 69.612233 
L 75.305508 69.864872 
L 75.625756 70.20278 
L 75.946004 70.591559 
L 76.266252 70.985177 
L 76.5865 71.351329 
L 76.906748 71.678038 
L 77.226996 71.967595 
L 77.547244 72.23028 
L 77.867492 72.478993 
L 78.18774 72.722361 
L 78.507987 72.961198 
L 78.828235 73.192037 
L 79.148483 73.411722 
L 79.468731 73.616877 
L 79.788979 73.801898 
L 80.109227 73.961111 
L 80.429475 74.092262 
L 80.749723 74.196274 
L 81.069971 74.275639 
L 81.390219 74.335545 
L 81.710467 74.384756 
L 82.030715 74.431705 
L 82.350963 74.478867 
L 82.671211 74.522414 
L 82.991459 74.5576 
L 83.311706 74.583416 
L 83.631954 74.602278 
L 83.952202 74.616986 
L 84.27245 74.628905 
L 84.592698 74.638345 
L 84.912946 74.645637 
L 85.233194 74.651449 
L 85.553442 74.656228 
L 85.87369 74.659799 
L 86.193938 74.661757 
L 86.514186 74.662162 
L 86.834434 74.66176 
L 87.154682 74.661539 
L 87.47493 74.662053 
L 87.795178 74.663144 
L 88.115425 74.664278 
L 88.435673 74.665071 
L 88.755921 74.665476 
L 89.076169 74.665632 
L 89.396417 74.665678 
L 89.716665 74.665688 
L 90.036913 74.66569 
L 90.357161 74.66569 
L 90.677409 74.665691 
L 90.997657 74.665691 
L 91.317905 74.665691 
L 91.638153 74.665691 
L 91.958401 74.665691 
L 92.278649 74.665691 
L 92.598897 74.665691 
L 92.919144 74.665691 
L 93.239392 74.665691 
L 93.55964 74.665691 
L 93.879888 74.665691 
L 94.200136 74.665691 
L 94.520384 74.665691 
L 94.840632 74.665691 
" clip-path="url(#pdf38be9419)" style="fill: none; stroke: #1f77b4; stroke-width: 1.5; stroke-linecap: square"/>
   </g>
   <g id="line2d_28">
    <path d="M 63.136087 73.742488 
L 63.456335 73.593102 
L 63.776583 73.419306 
L 64.09683 73.232707 
L 64.417078 73.0392 
L 64.737326 72.833128 
L 65.057574 72.606357 
L 65.377822 72.359979 
L 65.69807 72.105683 
L 66.018318 71.856328 
L 66.338566 71.613687 
L 66.658814 71.364832 
L 66.979062 71.09484 
L 67.29931 70.804791 
L 67.619558 70.512239 
L 67.939806 70.231711 
L 68.260054 69.95821 
L 68.580302 69.670884 
L 68.900549 69.353226 
L 69.220797 69.015019 
L 69.541045 68.695581 
L 69.861293 68.437356 
L 70.181541 68.251734 
L 70.501789 68.115987 
L 70.822037 68.007632 
L 71.142285 67.934374 
L 71.462533 67.921616 
L 71.782781 67.977498 
L 72.103029 68.081573 
L 72.423277 68.20277 
L 72.743525 68.31997 
L 73.063773 68.431779 
L 73.384021 68.554969 
L 73.704268 68.711898 
L 74.024516 68.918456 
L 74.344764 69.183705 
L 74.665012 69.510894 
L 74.98526 69.890357 
L 75.305508 70.298403 
L 75.625756 70.711211 
L 75.946004 71.115285 
L 76.266252 71.501637 
L 76.5865 71.859481 
L 76.906748 72.182006 
L 77.226996 72.47335 
L 77.547244 72.745358 
L 77.867492 73.007656 
L 78.18774 73.260609 
L 78.507987 73.49657 
L 78.828235 73.706603 
L 79.148483 73.885039 
L 79.468731 74.030164 
L 79.788979 74.145534 
L 80.109227 74.240367 
L 80.429475 74.323976 
L 80.749723 74.398862 
L 81.069971 74.461382 
L 81.390219 74.508396 
L 81.710467 74.541266 
L 82.030715 74.564531 
L 82.350963 74.582924 
L 82.671211 74.599622 
L 82.991459 74.615868 
L 83.311706 74.631327 
L 83.631954 74.644733 
L 83.952202 74.654768 
L 84.27245 74.660973 
L 84.592698 74.664043 
L 84.912946 74.665233 
L 85.233194 74.665591 
L 85.553442 74.665674 
L 85.87369 74.665688 
L 86.193938 74.66569 
L 86.514186 74.665691 
L 86.834434 74.665691 
L 87.154682 74.665691 
L 87.47493 74.665691 
L 87.795178 74.665691 
L 88.115425 74.665691 
L 88.435673 74.665691 
L 88.755921 74.665691 
L 89.076169 74.665691 
L 89.396417 74.665691 
L 89.716665 74.665691 
L 90.036913 74.665691 
L 90.357161 74.665691 
L 90.677409 74.665691 
L 90.997657 74.665691 
L 91.317905 74.665691 
L 91.638153 74.665691 
L 91.958401 74.665691 
L 92.278649 74.665691 
L 92.598897 74.665691 
L 92.919144 74.665691 
L 93.239392 74.665691 
L 93.55964 74.665691 
L 93.879888 74.665691 
L 94.200136 74.665691 
L 94.520384 74.665691 
L 94.840632 74.665691 
" clip-path="url(#pdf38be9419)" style="fill: none; stroke: #d62728; stroke-width: 1.5; stroke-linecap: square"/>
   </g>
   <g id="patch_9">
    <path d="M 61.550859 75.478594 
L 96.425859 75.478594 
" style="fill: none; stroke: #000000; stroke-width: 1.5; stroke-linejoin: miter; stroke-linecap: square"/>
   </g>
   <g id="text_10">
    <!-- $\theta_4$ -->
    <g transform="translate(74.038359 51.594723)">
     <text>
      <tspan x="0" y="-0.09375" style="font-size: 9px; font-family: 'DejaVu Sans'">θ</tspan>
      <tspan x="5.59248" y="1.382812" style="font-size: 6.3px; font-family: 'DejaVu Sans'">4</tspan>
     </text>
    </g>
   </g>
   <g id="legend_1">
    <g id="line2d_29">
     <path d="M 10.8 103.489778 
L 19.8 103.489778 
L 28.8 103.489778 
" style="fill: none; stroke: #000000; stroke-width: 1.5; stroke-linecap: square"/>
    </g>
    <g id="text_11">
     <text style="font-size: 9px; font-family: 'Arial', sans-serif; text-anchor: start" x="36" y="106.639778" transform="rotate(-0 36 106.639778)">True</text>
    </g>
    <g id="line2d_30">
     <path d="M 73.110938 103.489778 
L 82.110938 103.489778 
L 91.110938 103.489778 
" style="fill: none; stroke: #f2a900; stroke-width: 1.5; stroke-linecap: square"/>
    </g>
    <g id="text_12">
     <text style="font-size: 9px; font-family: 'Arial', sans-serif; text-anchor: start" x="98.310938" y="106.639778" transform="rotate(-0 98.310938 106.639778)">TabPFN</text>
    </g>
    <g id="line2d_31">
     <path d="M 148.888125 103.489778 
L 157.888125 103.489778 
L 166.888125 103.489778 
" style="fill: none; stroke: #1f77b4; stroke-width: 1.5; stroke-linecap: square"/>
    </g>
    <g id="text_13">
     <text style="font-size: 9px; font-family: 'Arial', sans-serif; text-anchor: start" x="174.088125" y="106.639778" transform="rotate(-0 174.088125 106.639778)">NPE</text>
    </g>
    <g id="line2d_32">
     <path d="M 209.934844 103.489778 
L 218.934844 103.489778 
L 227.934844 103.489778 
" style="fill: none; stroke: #d62728; stroke-width: 1.5; stroke-linecap: square"/>
    </g>
    <g id="text_14">
     <text style="font-size: 9px; font-family: 'Arial', sans-serif; text-anchor: start" x="235.134844" y="106.639778" transform="rotate(-0 235.134844 106.639778)">TabPFN-Infomax</text>
    </g>
   </g>
  </g>
 </g>
 <defs>
  <clipPath id="p79899e79d3">
   <rect x="12.725859" y="20.038594" width="34.875" height="17.883871"/>
  </clipPath>
  <clipPath id="pa2075f1776">
   <rect x="61.550859" y="20.038594" width="34.875" height="17.883871"/>
  </clipPath>
  <clipPath id="pcb99ab0709">
   <rect x="12.725859" y="57.594723" width="34.875" height="17.883871"/>
  </clipPath>
  <clipPath id="pdf38be9419">
   <rect x="61.550859" y="57.594723" width="34.875" height="17.883871"/>
  </clipPath>
 </defs>
</svg>
