<?xml version="1.0" encoding="utf-8" standalone="no"?>
<!DOCTYPE svg PUBLIC "-//W3C//DTD SVG 1.1//EN"
  "http://www.w3.org/Graphics/SVG/1.1/DTD/svg11.dtd">
<svg xmlns:xlink="http://www.w3.org/1999/xlink" width="191.02272pt" height="114.892625pt" viewBox="0 0 191.02272 114.892625" xmlns="http://www.w3.org/2000/svg" version="1.1">
 <metadata>
  <rdf:RDF xmlns:dc="http://purl.org/dc/elements/1.1/" xmlns:cc="http://creativecommons.org/ns#" xmlns:rdf="http://www.w3.org/1999/02/22-rdf-syntax-ns#">
   <cc:Work>
    <dc:type rdf:resource="http://purl.org/dc/dcmitype/StillImage"/>
    <dc:date>2025-04-06T18:16:23.484240</dc:date>
    <dc:format>image/svg+xml</dc:format>
    <dc:creator>
     <cc:Agent>
      <dc:title>Matplotlib v3.10.0, https://matplotlib.org/</dc:title>
     </cc:Agent>
    </dc:creator>
   </cc:Work>
  </rdf:RDF>
 </metadata>
 <defs>
  <style type="text/css">*{stroke-linejoin: round; stroke-linecap: butt}</style>
 </defs>
 <g id="figure_1">
  <g id="patch_1">
   <path d="M 0 114.892625 
L 191.02272 114.892625 
L 191.02272 0 
L 0 0 
z
" style="fill: #ffffff"/>
  </g>
  <g id="axes_1">
   <g id="patch_2">
    <path d="M 41.223125 39.96 
L 180.723125 39.96 
L 180.723125 7.2 
L 41.223125 7.2 
z
" style="fill: #ffffff"/>
   </g>
   <g id="matplotlib.axis_1"/>
   <g id="matplotlib.axis_2">
    <g id="ytick_1">
     <g id="line2d_1">
      <defs>
       <path id="mcc5ba73de0" d="M 0 0 
L -3.5 0 
" style="stroke: #000000; stroke-width: 1.5"/>
      </defs>
      <g>
       <use xlink:href="#mcc5ba73de0" x="41.223125" y="34.791186" style="stroke: #000000; stroke-width: 1.5"/>
      </g>
     </g>
     <g id="text_1">
      <text style="font-size: 9px; font-family: 'Arial', sans-serif; text-anchor: end" x="34.223125" y="38.210483" transform="rotate(-0 34.223125 38.210483)">1.0</text>
     </g>
    </g>
    <g id="ytick_2">
     <g id="line2d_2">
      <g>
       <use xlink:href="#mcc5ba73de0" x="41.223125" y="17.751704" style="stroke: #000000; stroke-width: 1.5"/>
      </g>
     </g>
     <g id="text_2">
      <text style="font-size: 9px; font-family: 'Arial', sans-serif; text-anchor: end" x="34.223125" y="21.171001" transform="rotate(-0 34.223125 21.171001)">1.5</text>
     </g>
    </g>
    <g id="text_3">
     <text style="font-size: 9px; font-family: 'Arial', sans-serif; text-anchor: middle" x="14.038594" y="23.58" transform="rotate(-90 14.038594 23.58)">predator</text>
    </g>
   </g>
   <g id="line2d_3">
    <path d="M 47.564034 37.612097 
L 48.415163 38.258217 
L 49.266292 37.230393 
L 50.11742 34.834621 
L 50.968549 31.031425 
L 53.521935 17.294718 
L 54.373064 15.457273 
L 55.224193 16.794279 
L 56.075321 21.324211 
L 57.777579 32.554617 
L 58.628708 36.309615 
L 59.479836 38.097412 
L 60.330965 38.059903 
L 61.182094 36.434308 
L 62.033223 33.412173 
L 62.884351 29.2595 
L 64.586609 19.593728 
L 65.437738 16.23935 
L 66.288866 15.493754 
L 67.139995 18.29913 
L 69.693381 34.188152 
L 70.54451 37.205309 
L 71.395639 38.31039 
L 72.246767 37.683581 
L 73.097896 35.449852 
L 73.949025 31.889776 
L 76.502411 18.043373 
L 77.35354 15.585242 
L 78.204669 16.187203 
L 79.055797 20.153122 
L 80.758055 31.475866 
L 81.609184 35.557952 
L 82.460312 37.825914 
L 83.311441 38.190869 
L 84.16257 36.900293 
L 85.013699 34.176781 
L 85.864827 30.3175 
L 87.567085 20.552992 
L 88.418213 16.841555 
L 89.269342 15.449066 
L 90.120471 17.420746 
L 90.9716 22.288574 
L 92.673857 33.302415 
L 93.524986 36.69831 
L 94.376115 38.206893 
L 95.227243 37.984695 
L 96.078372 36.072215 
L 96.929501 32.723387 
L 98.631758 23.546503 
L 99.482887 18.91301 
L 100.334016 15.893019 
L 101.185145 15.737502 
L 102.036273 19.099805 
L 104.589659 34.931002 
L 105.440788 37.5554 
L 106.291917 38.277328 
L 107.143046 37.343348 
L 107.994174 34.915451 
L 108.845303 31.295201 
L 111.398689 17.510942 
L 112.249818 15.521306 
L 113.100947 16.73101 
L 113.952076 21.158297 
L 115.654333 32.463316 
L 116.505462 36.176283 
L 117.356591 38.024122 
L 118.207719 38.176847 
L 119.058848 36.524102 
L 119.909977 33.52741 
L 120.761105 29.585648 
L 122.463363 19.945539 
L 123.314492 16.366682 
L 124.16562 15.491426 
L 125.016749 18.174134 
L 125.867878 23.366806 
L 126.719007 29.322567 
L 127.570135 34.083579 
L 128.421264 37.142889 
L 129.272393 38.311004 
L 130.123522 37.676683 
L 130.97465 35.561945 
L 131.825779 32.151753 
L 134.379165 18.314852 
L 135.230294 15.615094 
L 136.081423 16.130182 
L 136.932551 20.059241 
L 138.634809 31.33958 
L 139.485938 35.541259 
L 140.337066 37.81115 
L 141.188195 38.219751 
L 142.039324 37.016341 
L 142.890453 34.320319 
L 143.741581 30.587724 
L 145.443839 20.96813 
L 146.294968 17.03806 
L 147.146096 15.470252 
L 147.997225 17.300999 
L 148.848354 22.224081 
L 149.699483 28.177799 
L 150.550611 33.260754 
L 151.40174 36.697682 
L 152.252869 38.15277 
L 153.103997 37.954862 
L 153.955126 36.23545 
L 154.806255 33.042543 
L 155.657384 28.87785 
L 157.359641 19.369699 
L 158.21077 16.05585 
L 159.061899 15.76795 
L 159.913027 19.017734 
L 161.615285 30.373161 
L 162.466414 34.808023 
L 163.317542 37.525697 
L 164.168671 38.322702 
L 165.0198 37.407361 
L 165.870929 35.10176 
L 166.722057 31.539245 
L 169.275443 17.822457 
L 170.126572 15.521688 
L 170.977701 16.6922 
L 171.82883 21.180621 
L 173.531087 32.39951 
L 174.382216 36.090403 
L 174.382216 36.090403 
" clip-path="url(#p39b838db0a)" style="fill: none; stroke: #1f77b4; stroke-width: 0.1; stroke-linecap: square"/>
   </g>
   <g id="line2d_4">
    <path d="M 47.564034 31.964186 
L 48.415163 32.624554 
L 49.266292 31.636059 
L 50.11742 29.09056 
L 50.968549 25.395263 
L 53.521935 11.585934 
L 54.373064 9.668059 
L 55.224193 11.06626 
L 56.075321 15.527928 
L 57.777579 26.903782 
L 58.628708 30.608682 
L 59.479836 32.411945 
L 60.330965 32.428338 
L 61.182094 30.825166 
L 62.033223 27.841653 
L 62.884351 23.5767 
L 64.586609 13.852846 
L 65.437738 10.482462 
L 66.288866 9.809971 
L 67.139995 12.527888 
L 69.693381 28.568679 
L 70.54451 31.604006 
L 71.395639 32.628868 
L 72.246767 32.012343 
L 73.097896 29.773792 
L 73.949025 26.219258 
L 74.800154 21.795769 
L 75.651282 16.658668 
L 76.502411 12.276812 
L 77.35354 9.825234 
L 78.204669 10.406123 
L 79.055797 14.320784 
L 80.758055 25.802783 
L 81.609184 29.988744 
L 82.460312 32.267592 
L 83.311441 32.596401 
L 84.16257 31.275949 
L 85.013699 28.513246 
L 85.864827 24.547856 
L 87.567085 14.864574 
L 88.418213 11.047783 
L 89.269342 9.654222 
L 90.120471 11.627957 
L 90.9716 16.476464 
L 92.673857 27.692318 
L 93.524986 31.115779 
L 94.376115 32.621426 
L 95.227243 32.300242 
L 96.078372 30.397313 
L 96.929501 27.067969 
L 97.78063 22.713352 
L 99.482887 13.148899 
L 100.334016 10.112589 
L 101.185145 10.028539 
L 102.036273 13.233761 
L 104.589659 29.188755 
L 105.440788 31.843488 
L 106.291917 32.631826 
L 107.143046 31.689977 
L 107.994174 29.266634 
L 108.845303 25.380528 
L 111.398689 11.647006 
L 112.249818 9.700527 
L 113.100947 10.959025 
L 113.952076 15.248186 
L 115.654333 26.614294 
L 116.505462 30.482346 
L 117.356591 32.404889 
L 118.207719 32.528755 
L 119.058848 30.88402 
L 119.909977 27.879743 
L 120.761105 23.670947 
L 122.463363 14.059824 
L 123.314492 10.528539 
L 124.16562 9.785027 
L 125.016749 12.260533 
L 125.867878 17.337736 
L 126.719007 23.336934 
L 127.570135 28.324082 
L 128.421264 31.463593 
L 129.272393 32.689831 
L 130.123522 32.047102 
L 130.97465 29.945442 
L 131.825779 26.374353 
L 134.379165 12.430404 
L 135.230294 9.84031 
L 136.081423 10.320688 
L 136.932551 14.031357 
L 138.634809 25.467182 
L 139.485938 29.768035 
L 140.337066 32.123136 
L 141.188195 32.613471 
L 142.039324 31.324597 
L 142.890453 28.653249 
L 143.741581 24.622176 
L 145.443839 14.925447 
L 146.294968 11.04953 
L 147.146096 9.63718 
L 147.997225 11.425903 
L 148.848354 16.045051 
L 150.550611 27.331777 
L 151.40174 30.931808 
L 152.252869 32.495313 
L 153.103997 32.333218 
L 153.955126 30.472762 
L 154.806255 27.149971 
L 155.657384 22.761814 
L 157.359641 13.130877 
L 158.21077 10.133905 
L 159.061899 10.053235 
L 159.913027 13.024776 
L 162.466414 28.85551 
L 163.317542 31.717765 
L 164.168671 32.684163 
L 165.0198 31.719544 
L 165.870929 29.249791 
L 166.722057 25.431013 
L 169.275443 11.747728 
L 170.126572 9.734164 
L 170.977701 10.851754 
L 171.82883 14.686387 
L 173.531087 26.156443 
L 174.382216 30.276952 
L 174.382216 30.276952 
" clip-path="url(#p39b838db0a)" style="fill: none; stroke: #1f77b4; stroke-width: 0.1; stroke-linecap: square"/>
   </g>
   <g id="line2d_5">
    <path d="M 47.564034 37.61178 
L 48.415163 38.380613 
L 49.266292 37.500881 
L 50.11742 34.89228 
L 50.968549 31.219748 
L 53.521935 17.269782 
L 54.373064 15.300296 
L 55.224193 16.421205 
L 56.075321 20.81102 
L 57.777579 32.305905 
L 58.628708 36.194613 
L 59.479836 38.132756 
L 60.330965 38.155803 
L 61.182094 36.730381 
L 62.033223 33.67865 
L 62.884351 29.536926 
L 64.586609 19.668673 
L 65.437738 16.100387 
L 66.288866 15.302576 
L 67.139995 17.817561 
L 69.693381 33.991339 
L 70.54451 37.189141 
L 71.395639 38.329795 
L 72.246767 37.758847 
L 73.097896 35.702399 
L 73.949025 32.169538 
L 76.502411 18.128235 
L 77.35354 15.42019 
L 78.204669 15.91748 
L 79.055797 19.655653 
L 80.758055 31.148828 
L 81.609184 35.483835 
L 82.460312 37.87495 
L 83.311441 38.319019 
L 84.16257 37.179327 
L 85.013699 34.456669 
L 85.864827 30.518047 
L 88.418213 16.814105 
L 89.269342 15.194935 
L 90.120471 16.953336 
L 90.9716 21.737073 
L 92.673857 33.064765 
L 93.524986 36.61997 
L 94.376115 38.229898 
L 95.227243 38.059153 
L 96.078372 36.28366 
L 96.929501 33.076665 
L 97.78063 28.757465 
L 99.482887 19.013773 
L 100.334016 15.811119 
L 101.185145 15.49672 
L 102.036273 18.552721 
L 104.589659 34.654872 
L 105.440788 37.435086 
L 106.291917 38.361818 
L 107.143046 37.537567 
L 107.994174 35.224981 
L 108.845303 31.485916 
L 111.398689 17.548484 
L 112.249818 15.335332 
L 113.100947 16.26522 
L 113.952076 20.517908 
L 115.654333 31.896772 
L 116.505462 35.93645 
L 117.356591 38.045182 
L 118.207719 38.270811 
L 119.058848 36.917463 
L 119.909977 33.940984 
L 120.761105 29.842241 
L 122.463363 20.034646 
L 123.314492 16.28795 
L 124.16562 15.241244 
L 125.016749 17.612249 
L 125.867878 22.76636 
L 126.719007 28.753573 
L 127.570135 33.825153 
L 128.421264 36.937857 
L 129.272393 38.305897 
L 130.123522 37.890841 
L 130.97465 35.821888 
L 131.825779 32.534004 
L 134.379165 18.400392 
L 135.230294 15.488278 
L 136.081423 15.751513 
L 136.932551 19.325893 
L 138.634809 30.882996 
L 139.485938 35.297542 
L 140.337066 37.768705 
L 141.188195 38.331158 
L 142.039324 37.311983 
L 142.890453 34.791202 
L 143.741581 30.920644 
L 146.294968 17.100935 
L 147.146096 15.188947 
L 147.997225 16.777095 
L 148.848354 21.477344 
L 150.550611 32.739788 
L 151.40174 36.435399 
L 152.252869 38.150595 
L 153.103997 38.169612 
L 153.955126 36.517785 
L 154.806255 33.445099 
L 155.657384 29.120407 
L 157.359641 19.373108 
L 158.21077 16.005795 
L 159.061899 15.384261 
L 159.913027 18.29672 
L 162.466414 34.353648 
L 163.317542 37.349021 
L 164.168671 38.410138 
L 165.0198 37.668484 
L 165.870929 35.377943 
L 166.722057 31.89999 
L 169.275443 17.786381 
L 170.126572 15.307451 
L 170.977701 16.133046 
L 171.82883 20.224927 
L 173.531087 31.665972 
L 174.382216 35.741511 
L 174.382216 35.741511 
" clip-path="url(#p39b838db0a)" style="fill: none; stroke: #f2a900; stroke-width: 0.1; stroke-linecap: square"/>
   </g>
   <g id="line2d_6">
    <path d="M 47.564034 31.952685 
L 48.415163 32.815533 
L 49.266292 31.847819 
L 50.11742 29.3629 
L 50.968549 25.563411 
L 53.521935 11.607758 
L 54.373064 9.450283 
L 55.224193 10.731893 
L 56.075321 15.167025 
L 57.777579 26.653453 
L 58.628708 30.500753 
L 59.479836 32.481988 
L 60.330965 32.617956 
L 61.182094 31.049093 
L 62.033223 28.046807 
L 62.884351 23.831831 
L 64.586609 13.969834 
L 65.437738 10.4041 
L 66.288866 9.538212 
L 67.139995 12.148749 
L 69.693381 28.344748 
L 70.54451 31.577315 
L 71.395639 32.726613 
L 72.246767 32.193268 
L 73.097896 30.046359 
L 73.949025 26.592519 
L 76.502411 12.442994 
L 77.35354 9.676172 
L 78.204669 10.150647 
L 79.055797 13.879983 
L 80.758055 25.542599 
L 81.609184 29.796997 
L 82.460312 32.264516 
L 83.311441 32.686808 
L 84.16257 31.483341 
L 85.013699 28.789104 
L 85.864827 24.875349 
L 88.418213 11.002003 
L 89.269342 9.486675 
L 90.120471 11.227603 
L 90.9716 15.911406 
L 91.822728 22.098898 
L 92.673857 27.447299 
L 93.524986 31.086387 
L 94.376115 32.592472 
L 95.227243 32.436499 
L 96.078372 30.571279 
L 96.929501 27.407994 
L 97.78063 23.092739 
L 99.482887 13.259676 
L 100.334016 10.073556 
L 101.185145 9.657655 
L 102.036273 12.832477 
L 104.589659 29.04031 
L 105.440788 31.857264 
L 106.291917 32.776976 
L 107.143046 31.969073 
L 107.994174 29.634037 
L 108.845303 25.905244 
L 111.398689 11.818396 
L 112.249818 9.517599 
L 113.100947 10.543481 
L 113.952076 14.759013 
L 115.654333 26.326017 
L 116.505462 30.365012 
L 117.356591 32.534796 
L 118.207719 32.65456 
L 119.058848 31.117238 
L 119.909977 28.309116 
L 120.761105 24.134758 
L 122.463363 14.269153 
L 123.314492 10.551614 
L 124.16562 9.499147 
L 125.016749 11.822345 
L 125.867878 16.940331 
L 126.719007 22.962787 
L 127.570135 28.063349 
L 128.421264 31.335546 
L 129.272393 32.705752 
L 130.123522 32.256026 
L 130.97465 30.262945 
L 131.825779 26.845557 
L 134.379165 12.744494 
L 135.230294 9.806323 
L 136.081423 10.016116 
L 136.932551 13.531951 
L 138.634809 25.161948 
L 139.485938 29.546136 
L 140.337066 32.069706 
L 141.188195 32.73889 
L 142.039324 31.634028 
L 142.890453 29.055947 
L 143.741581 25.181326 
L 146.294968 11.288529 
L 147.146096 9.53614 
L 147.997225 11.024493 
L 148.848354 15.581415 
L 150.550611 26.984443 
L 151.40174 30.783647 
L 152.252869 32.559111 
L 153.103997 32.492607 
L 153.955126 30.800954 
L 154.806255 27.656905 
L 155.657384 23.386659 
L 157.359641 13.507921 
L 158.21077 10.248472 
L 159.061899 9.675676 
L 159.913027 12.487088 
L 162.466414 28.71144 
L 163.317542 31.744724 
L 164.168671 32.7627 
L 165.0198 32.105964 
L 165.870929 29.796124 
L 166.722057 26.111731 
L 169.275443 12.010428 
L 170.126572 9.58028 
L 170.977701 10.3246 
L 171.82883 14.295767 
L 173.531087 25.854187 
L 174.382216 30.064433 
L 174.382216 30.064433 
" clip-path="url(#p39b838db0a)" style="fill: none; stroke: #f2a900; stroke-width: 0.1; stroke-linecap: square"/>
   </g>
   <g id="line2d_7">
    <path d="M 47.564034 37.592948 
L 48.415163 38.411263 
L 49.266292 37.56097 
L 50.11742 35.160218 
L 50.968549 31.593443 
L 53.521935 17.76925 
L 54.373064 15.732367 
L 55.224193 16.816197 
L 56.075321 20.937624 
L 57.777579 32.24903 
L 58.628708 36.172948 
L 59.479836 38.201058 
L 60.330965 38.304985 
L 61.182094 36.906955 
L 62.033223 34.00542 
L 62.884351 29.929464 
L 64.586609 20.281916 
L 65.437738 16.7353 
L 66.288866 15.643267 
L 67.139995 18.02434 
L 67.991124 23.134644 
L 68.842253 28.961063 
L 69.693381 33.904441 
L 70.54451 37.10231 
L 71.395639 38.396705 
L 72.246767 37.936693 
L 73.097896 35.958235 
L 73.949025 32.573094 
L 75.651282 23.252222 
L 76.502411 18.755075 
L 77.35354 15.879824 
L 78.204669 16.264038 
L 79.055797 19.741222 
L 80.758055 31.015886 
L 81.609184 35.390407 
L 82.460312 37.757178 
L 83.311441 38.407564 
L 84.16257 37.337313 
L 85.013699 34.795001 
L 85.864827 31.129758 
L 88.418213 17.410524 
L 89.269342 15.598287 
L 90.120471 17.219451 
L 90.9716 21.78751 
L 92.673857 32.973805 
L 93.524986 36.492977 
L 94.376115 38.241758 
L 95.227243 38.128921 
L 96.078372 36.562057 
L 96.929501 33.619821 
L 97.78063 29.419917 
L 99.482887 19.773369 
L 100.334016 16.414222 
L 101.185145 15.807434 
L 102.036273 18.675823 
L 104.589659 34.511895 
L 105.440788 37.354095 
L 106.291917 38.437578 
L 107.143046 37.753781 
L 107.994174 35.613013 
L 108.845303 32.178959 
L 111.398689 18.336529 
L 112.249818 15.759626 
L 113.100947 16.570231 
L 113.952076 20.60446 
L 115.654333 31.897105 
L 116.505462 35.78991 
L 117.356591 37.994244 
L 118.207719 38.34208 
L 119.058848 37.112215 
L 119.909977 34.54557 
L 120.761105 30.692667 
L 123.314492 17.069304 
L 124.16562 15.691603 
L 125.016749 17.71601 
L 125.867878 22.814147 
L 126.719007 28.635723 
L 127.570135 33.620678 
L 128.421264 36.868637 
L 129.272393 38.302749 
L 130.123522 38.019853 
L 130.97465 36.320239 
L 131.825779 33.295115 
L 132.676908 29.074338 
L 134.379165 19.393502 
L 135.230294 16.244469 
L 136.081423 16.002846 
L 136.932551 19.492839 
L 138.634809 30.803976 
L 139.485938 35.208097 
L 140.337066 37.643796 
L 141.188195 38.470909 
L 142.039324 37.596748 
L 142.890453 35.354214 
L 143.741581 31.798495 
L 144.59271 27.381848 
L 145.443839 22.376182 
L 146.294968 18.162145 
L 147.146096 15.757619 
L 147.997225 17.013213 
L 148.848354 21.599402 
L 150.550611 32.584741 
L 151.40174 36.344715 
L 152.252869 38.110993 
L 153.103997 38.272455 
L 153.955126 36.905424 
L 154.806255 34.194705 
L 155.657384 30.277537 
L 157.359641 20.815456 
L 158.21077 16.892824 
L 159.061899 15.811273 
L 159.913027 18.532615 
L 162.466414 34.222208 
L 163.317542 37.215689 
L 164.168671 38.339291 
L 165.0198 37.961448 
L 165.870929 36.115737 
L 166.722057 32.95903 
L 167.573186 28.787844 
L 169.275443 19.161223 
L 170.126572 16.092461 
L 170.977701 16.412264 
L 171.82883 20.493793 
L 173.531087 31.70093 
L 174.382216 35.626058 
L 174.382216 35.626058 
" clip-path="url(#p39b838db0a)" style="fill: none; stroke: #d62728; stroke-width: 0.1; stroke-linecap: square"/>
   </g>
   <g id="line2d_8">
    <path d="M 47.564034 31.979587 
L 48.415163 32.800331 
L 49.266292 31.899762 
L 50.11742 29.552725 
L 50.968549 25.826683 
L 53.521935 12.009778 
L 54.373064 9.901841 
L 55.224193 10.982596 
L 56.075321 15.220139 
L 57.777579 26.559596 
L 58.628708 30.496768 
L 59.479836 32.459412 
L 60.330965 32.698833 
L 61.182094 31.216883 
L 62.033223 28.241467 
L 62.884351 24.187489 
L 64.586609 14.477285 
L 65.437738 10.915389 
L 66.288866 9.87749 
L 67.139995 12.259136 
L 67.991124 17.275323 
L 68.842253 23.272409 
L 69.693381 28.312675 
L 70.54451 31.47459 
L 71.395639 32.790841 
L 72.246767 32.279523 
L 73.097896 30.254365 
L 73.949025 26.82533 
L 76.502411 12.886602 
L 77.35354 10.133535 
L 78.204669 10.306408 
L 79.055797 13.859634 
L 80.758055 25.283365 
L 81.609184 29.684522 
L 82.460312 32.168141 
L 83.311441 32.789444 
L 84.16257 31.677083 
L 85.013699 29.064755 
L 85.864827 25.264519 
L 87.567085 15.626006 
L 88.418213 11.552223 
L 89.269342 9.831657 
L 90.120471 11.273432 
L 90.9716 15.698924 
L 92.673857 27.052706 
L 93.524986 30.795034 
L 94.376115 32.615925 
L 95.227243 32.532806 
L 96.078372 30.881375 
L 96.929501 27.741353 
L 97.78063 23.456644 
L 99.482887 13.863473 
L 100.334016 10.591078 
L 101.185145 9.984688 
L 102.036273 12.719351 
L 102.887402 17.88597 
L 103.738531 23.757198 
L 104.589659 28.68631 
L 105.440788 31.745167 
L 106.291917 32.742908 
L 107.143046 32.08737 
L 107.994174 29.812829 
L 108.845303 26.226976 
L 111.398689 12.336446 
L 112.249818 9.994138 
L 113.100947 10.621457 
L 113.952076 14.371025 
L 115.654333 25.713704 
L 116.505462 30.017881 
L 117.356591 32.361318 
L 118.207719 32.685512 
L 119.058848 31.387311 
L 119.909977 28.558056 
L 120.761105 24.509242 
L 122.463363 14.880231 
L 123.314492 11.249016 
L 124.16562 9.844425 
L 125.016749 11.606393 
L 125.867878 16.235056 
L 127.570135 27.452662 
L 128.421264 31.091709 
L 129.272393 32.696562 
L 130.123522 32.451653 
L 130.97465 30.461623 
L 131.825779 27.117113 
L 134.379165 13.206225 
L 135.230294 10.341301 
L 136.081423 10.137634 
L 136.932551 13.03642 
L 137.78368 18.263554 
L 138.634809 24.182427 
L 139.485938 28.985304 
L 140.337066 31.895484 
L 141.188195 32.764947 
L 142.039324 31.77412 
L 142.890453 29.321352 
L 143.741581 25.547486 
L 145.443839 15.784647 
L 146.294968 11.801813 
L 147.146096 9.916377 
L 147.997225 10.877535 
L 148.848354 14.741138 
L 150.550611 26.106986 
L 151.40174 30.296416 
L 152.252869 32.452851 
L 153.103997 32.617099 
L 153.955126 31.078587 
L 154.806255 27.958747 
L 155.657384 23.703971 
L 157.359641 14.063805 
L 158.21077 10.818051 
L 159.061899 10.032642 
L 159.913027 11.887817 
L 160.764156 16.679399 
L 162.466414 27.691226 
L 163.317542 31.301014 
L 164.168671 32.76233 
L 165.0198 32.228299 
L 165.870929 30.021947 
L 166.722057 26.34236 
L 169.275443 12.591097 
L 170.126572 10.183777 
L 170.977701 10.345575 
L 171.82883 13.424814 
L 172.679958 18.569117 
L 173.531087 24.401422 
L 174.382216 29.281478 
L 174.382216 29.281478 
" clip-path="url(#p39b838db0a)" style="fill: none; stroke: #d62728; stroke-width: 0.1; stroke-linecap: square"/>
   </g>
   <g id="line2d_9">
    <defs>
     <path id="mdbf06ae1f3" d="M 0 0.25 
C 0.066301 0.25 0.129895 0.223658 0.176777 0.176777 
C 0.223658 0.129895 0.25 0.066301 0.25 0 
C 0.25 -0.066301 0.223658 -0.129895 0.176777 -0.176777 
C 0.129895 -0.223658 0.066301 -0.25 0 -0.25 
C -0.066301 -0.25 -0.129895 -0.223658 -0.176777 -0.176777 
C -0.223658 -0.129895 -0.25 -0.066301 -0.25 0 
C -0.25 0.066301 -0.223658 0.129895 -0.176777 0.176777 
C -0.129895 0.223658 -0.066301 0.25 0 0.25 
z
" style="stroke: #000000"/>
    </defs>
    <g clip-path="url(#p39b838db0a)">
     <use xlink:href="#mdbf06ae1f3" x="47.564034" y="35.091827" style="stroke: #000000"/>
     <use xlink:href="#mdbf06ae1f3" x="48.415163" y="32.682685" style="stroke: #000000"/>
     <use xlink:href="#mdbf06ae1f3" x="49.266292" y="31.511884" style="stroke: #000000"/>
     <use xlink:href="#mdbf06ae1f3" x="50.11742" y="30.718334" style="stroke: #000000"/>
     <use xlink:href="#mdbf06ae1f3" x="50.968549" y="27.638076" style="stroke: #000000"/>
     <use xlink:href="#mdbf06ae1f3" x="51.819678" y="24.965906" style="stroke: #000000"/>
     <use xlink:href="#mdbf06ae1f3" x="52.670807" y="18.842152" style="stroke: #000000"/>
     <use xlink:href="#mdbf06ae1f3" x="53.521935" y="15.136849" style="stroke: #000000"/>
     <use xlink:href="#mdbf06ae1f3" x="54.373064" y="13.985646" style="stroke: #000000"/>
     <use xlink:href="#mdbf06ae1f3" x="55.224193" y="12.013609" style="stroke: #000000"/>
     <use xlink:href="#mdbf06ae1f3" x="56.075321" y="18.442663" style="stroke: #000000"/>
     <use xlink:href="#mdbf06ae1f3" x="56.92645" y="22.425266" style="stroke: #000000"/>
     <use xlink:href="#mdbf06ae1f3" x="57.777579" y="30.306186" style="stroke: #000000"/>
     <use xlink:href="#mdbf06ae1f3" x="58.628708" y="32.740218" style="stroke: #000000"/>
     <use xlink:href="#mdbf06ae1f3" x="59.479836" y="37.206295" style="stroke: #000000"/>
     <use xlink:href="#mdbf06ae1f3" x="60.330965" y="37.030637" style="stroke: #000000"/>
     <use xlink:href="#mdbf06ae1f3" x="61.182094" y="35.467106" style="stroke: #000000"/>
     <use xlink:href="#mdbf06ae1f3" x="62.033223" y="33.138886" style="stroke: #000000"/>
     <use xlink:href="#mdbf06ae1f3" x="62.884351" y="27.040197" style="stroke: #000000"/>
     <use xlink:href="#mdbf06ae1f3" x="63.73548" y="19.645586" style="stroke: #000000"/>
     <use xlink:href="#mdbf06ae1f3" x="64.586609" y="19.266649" style="stroke: #000000"/>
     <use xlink:href="#mdbf06ae1f3" x="65.437738" y="13.232104" style="stroke: #000000"/>
     <use xlink:href="#mdbf06ae1f3" x="66.288866" y="14.756592" style="stroke: #000000"/>
     <use xlink:href="#mdbf06ae1f3" x="67.139995" y="14.020754" style="stroke: #000000"/>
     <use xlink:href="#mdbf06ae1f3" x="67.991124" y="21.579431" style="stroke: #000000"/>
     <use xlink:href="#mdbf06ae1f3" x="68.842253" y="27.091925" style="stroke: #000000"/>
     <use xlink:href="#mdbf06ae1f3" x="69.693381" y="34.674831" style="stroke: #000000"/>
     <use xlink:href="#mdbf06ae1f3" x="70.54451" y="34.983098" style="stroke: #000000"/>
     <use xlink:href="#mdbf06ae1f3" x="71.395639" y="33.766608" style="stroke: #000000"/>
     <use xlink:href="#mdbf06ae1f3" x="72.246767" y="34.289439" style="stroke: #000000"/>
     <use xlink:href="#mdbf06ae1f3" x="73.097896" y="30.627203" style="stroke: #000000"/>
     <use xlink:href="#mdbf06ae1f3" x="73.949025" y="27.144454" style="stroke: #000000"/>
     <use xlink:href="#mdbf06ae1f3" x="74.800154" y="25.232851" style="stroke: #000000"/>
     <use xlink:href="#mdbf06ae1f3" x="75.651282" y="18.679565" style="stroke: #000000"/>
     <use xlink:href="#mdbf06ae1f3" x="76.502411" y="14.318298" style="stroke: #000000"/>
     <use xlink:href="#mdbf06ae1f3" x="77.35354" y="9.417539" style="stroke: #000000"/>
     <use xlink:href="#mdbf06ae1f3" x="78.204669" y="8.689091" style="stroke: #000000"/>
     <use xlink:href="#mdbf06ae1f3" x="79.055797" y="18.855005" style="stroke: #000000"/>
     <use xlink:href="#mdbf06ae1f3" x="79.906926" y="21.124208" style="stroke: #000000"/>
     <use xlink:href="#mdbf06ae1f3" x="80.758055" y="30.133151" style="stroke: #000000"/>
     <use xlink:href="#mdbf06ae1f3" x="81.609184" y="35.468022" style="stroke: #000000"/>
     <use xlink:href="#mdbf06ae1f3" x="82.460312" y="34.831511" style="stroke: #000000"/>
     <use xlink:href="#mdbf06ae1f3" x="83.311441" y="34.953362" style="stroke: #000000"/>
     <use xlink:href="#mdbf06ae1f3" x="84.16257" y="36.786532" style="stroke: #000000"/>
     <use xlink:href="#mdbf06ae1f3" x="85.013699" y="31.956264" style="stroke: #000000"/>
     <use xlink:href="#mdbf06ae1f3" x="85.864827" y="27.440178" style="stroke: #000000"/>
     <use xlink:href="#mdbf06ae1f3" x="86.715956" y="21.938623" style="stroke: #000000"/>
     <use xlink:href="#mdbf06ae1f3" x="87.567085" y="18.162807" style="stroke: #000000"/>
     <use xlink:href="#mdbf06ae1f3" x="88.418213" y="14.614667" style="stroke: #000000"/>
     <use xlink:href="#mdbf06ae1f3" x="89.269342" y="14.312037" style="stroke: #000000"/>
     <use xlink:href="#mdbf06ae1f3" x="90.120471" y="13.473223" style="stroke: #000000"/>
     <use xlink:href="#mdbf06ae1f3" x="90.9716" y="19.424308" style="stroke: #000000"/>
     <use xlink:href="#mdbf06ae1f3" x="91.822728" y="25.826683" style="stroke: #000000"/>
     <use xlink:href="#mdbf06ae1f3" x="92.673857" y="29.756217" style="stroke: #000000"/>
     <use xlink:href="#mdbf06ae1f3" x="93.524986" y="36.295786" style="stroke: #000000"/>
     <use xlink:href="#mdbf06ae1f3" x="94.376115" y="35.804415" style="stroke: #000000"/>
     <use xlink:href="#mdbf06ae1f3" x="95.227243" y="34.178833" style="stroke: #000000"/>
     <use xlink:href="#mdbf06ae1f3" x="96.078372" y="33.810231" style="stroke: #000000"/>
     <use xlink:href="#mdbf06ae1f3" x="96.929501" y="27.610129" style="stroke: #000000"/>
     <use xlink:href="#mdbf06ae1f3" x="97.78063" y="23.334651" style="stroke: #000000"/>
     <use xlink:href="#mdbf06ae1f3" x="98.631758" y="22.597123" style="stroke: #000000"/>
     <use xlink:href="#mdbf06ae1f3" x="99.482887" y="18.316521" style="stroke: #000000"/>
     <use xlink:href="#mdbf06ae1f3" x="100.334016" y="13.055359" style="stroke: #000000"/>
     <use xlink:href="#mdbf06ae1f3" x="101.185145" y="11.83463" style="stroke: #000000"/>
     <use xlink:href="#mdbf06ae1f3" x="102.036273" y="13.070224" style="stroke: #000000"/>
     <use xlink:href="#mdbf06ae1f3" x="102.887402" y="20.23139" style="stroke: #000000"/>
     <use xlink:href="#mdbf06ae1f3" x="103.738531" y="28.291306" style="stroke: #000000"/>
     <use xlink:href="#mdbf06ae1f3" x="104.589659" y="35.826257" style="stroke: #000000"/>
     <use xlink:href="#mdbf06ae1f3" x="105.440788" y="35.386901" style="stroke: #000000"/>
     <use xlink:href="#mdbf06ae1f3" x="106.291917" y="37.167672" style="stroke: #000000"/>
     <use xlink:href="#mdbf06ae1f3" x="107.143046" y="33.896857" style="stroke: #000000"/>
     <use xlink:href="#mdbf06ae1f3" x="107.994174" y="32.196059" style="stroke: #000000"/>
     <use xlink:href="#mdbf06ae1f3" x="108.845303" y="30.034545" style="stroke: #000000"/>
     <use xlink:href="#mdbf06ae1f3" x="109.696432" y="23.390844" style="stroke: #000000"/>
     <use xlink:href="#mdbf06ae1f3" x="110.547561" y="17.734336" style="stroke: #000000"/>
     <use xlink:href="#mdbf06ae1f3" x="111.398689" y="12.298827" style="stroke: #000000"/>
     <use xlink:href="#mdbf06ae1f3" x="112.249818" y="10.207148" style="stroke: #000000"/>
     <use xlink:href="#mdbf06ae1f3" x="113.100947" y="11.961665" style="stroke: #000000"/>
     <use xlink:href="#mdbf06ae1f3" x="113.952076" y="20.078777" style="stroke: #000000"/>
     <use xlink:href="#mdbf06ae1f3" x="114.803204" y="25.317474" style="stroke: #000000"/>
     <use xlink:href="#mdbf06ae1f3" x="115.654333" y="28.584836" style="stroke: #000000"/>
     <use xlink:href="#mdbf06ae1f3" x="116.505462" y="30.279183" style="stroke: #000000"/>
     <use xlink:href="#mdbf06ae1f3" x="117.356591" y="35.482281" style="stroke: #000000"/>
     <use xlink:href="#mdbf06ae1f3" x="118.207719" y="34.662327" style="stroke: #000000"/>
     <use xlink:href="#mdbf06ae1f3" x="119.058848" y="32.152464" style="stroke: #000000"/>
     <use xlink:href="#mdbf06ae1f3" x="119.909977" y="29.201296" style="stroke: #000000"/>
     <use xlink:href="#mdbf06ae1f3" x="120.761105" y="26.737234" style="stroke: #000000"/>
     <use xlink:href="#mdbf06ae1f3" x="121.612234" y="22.979724" style="stroke: #000000"/>
     <use xlink:href="#mdbf06ae1f3" x="122.463363" y="15.154695" style="stroke: #000000"/>
     <use xlink:href="#mdbf06ae1f3" x="123.314492" y="16.042606" style="stroke: #000000"/>
     <use xlink:href="#mdbf06ae1f3" x="124.16562" y="13.336397" style="stroke: #000000"/>
     <use xlink:href="#mdbf06ae1f3" x="125.016749" y="15.559006" style="stroke: #000000"/>
     <use xlink:href="#mdbf06ae1f3" x="125.867878" y="18.032607" style="stroke: #000000"/>
     <use xlink:href="#mdbf06ae1f3" x="126.719007" y="25.884176" style="stroke: #000000"/>
     <use xlink:href="#mdbf06ae1f3" x="127.570135" y="30.647951" style="stroke: #000000"/>
     <use xlink:href="#mdbf06ae1f3" x="128.421264" y="34.662773" style="stroke: #000000"/>
     <use xlink:href="#mdbf06ae1f3" x="129.272393" y="36.891274" style="stroke: #000000"/>
     <use xlink:href="#mdbf06ae1f3" x="130.123522" y="36.219023" style="stroke: #000000"/>
     <use xlink:href="#mdbf06ae1f3" x="130.97465" y="35.746675" style="stroke: #000000"/>
     <use xlink:href="#mdbf06ae1f3" x="131.825779" y="28.505905" style="stroke: #000000"/>
     <use xlink:href="#mdbf06ae1f3" x="132.676908" y="24.954019" style="stroke: #000000"/>
     <use xlink:href="#mdbf06ae1f3" x="133.528037" y="20.295672" style="stroke: #000000"/>
     <use xlink:href="#mdbf06ae1f3" x="134.379165" y="15.092746" style="stroke: #000000"/>
     <use xlink:href="#mdbf06ae1f3" x="135.230294" y="15.297087" style="stroke: #000000"/>
     <use xlink:href="#mdbf06ae1f3" x="136.081423" y="14.109407" style="stroke: #000000"/>
     <use xlink:href="#mdbf06ae1f3" x="136.932551" y="16.718091" style="stroke: #000000"/>
     <use xlink:href="#mdbf06ae1f3" x="137.78368" y="24.500044" style="stroke: #000000"/>
     <use xlink:href="#mdbf06ae1f3" x="138.634809" y="27.139993" style="stroke: #000000"/>
     <use xlink:href="#mdbf06ae1f3" x="139.485938" y="31.456154" style="stroke: #000000"/>
     <use xlink:href="#mdbf06ae1f3" x="140.337066" y="32.326636" style="stroke: #000000"/>
     <use xlink:href="#mdbf06ae1f3" x="141.188195" y="34.042596" style="stroke: #000000"/>
     <use xlink:href="#mdbf06ae1f3" x="142.039324" y="36.15242" style="stroke: #000000"/>
     <use xlink:href="#mdbf06ae1f3" x="142.890453" y="32.493253" style="stroke: #000000"/>
     <use xlink:href="#mdbf06ae1f3" x="143.741581" y="28.373137" style="stroke: #000000"/>
     <use xlink:href="#mdbf06ae1f3" x="144.59271" y="21.942641" style="stroke: #000000"/>
     <use xlink:href="#mdbf06ae1f3" x="145.443839" y="18.758045" style="stroke: #000000"/>
     <use xlink:href="#mdbf06ae1f3" x="146.294968" y="11.753908" style="stroke: #000000"/>
     <use xlink:href="#mdbf06ae1f3" x="147.146096" y="12.136773" style="stroke: #000000"/>
     <use xlink:href="#mdbf06ae1f3" x="147.997225" y="13.461592" style="stroke: #000000"/>
     <use xlink:href="#mdbf06ae1f3" x="148.848354" y="19.33741" style="stroke: #000000"/>
     <use xlink:href="#mdbf06ae1f3" x="149.699483" y="27.033466" style="stroke: #000000"/>
     <use xlink:href="#mdbf06ae1f3" x="150.550611" y="31.531604" style="stroke: #000000"/>
     <use xlink:href="#mdbf06ae1f3" x="151.40174" y="30.862773" style="stroke: #000000"/>
     <use xlink:href="#mdbf06ae1f3" x="152.252869" y="34.511412" style="stroke: #000000"/>
     <use xlink:href="#mdbf06ae1f3" x="153.103997" y="34.901171" style="stroke: #000000"/>
     <use xlink:href="#mdbf06ae1f3" x="153.955126" y="35.196301" style="stroke: #000000"/>
     <use xlink:href="#mdbf06ae1f3" x="154.806255" y="30.679898" style="stroke: #000000"/>
     <use xlink:href="#mdbf06ae1f3" x="155.657384" y="26.986612" style="stroke: #000000"/>
     <use xlink:href="#mdbf06ae1f3" x="156.508512" y="20.00102" style="stroke: #000000"/>
     <use xlink:href="#mdbf06ae1f3" x="157.359641" y="14.56972" style="stroke: #000000"/>
     <use xlink:href="#mdbf06ae1f3" x="158.21077" y="16.711233" style="stroke: #000000"/>
     <use xlink:href="#mdbf06ae1f3" x="159.061899" y="14.270364" style="stroke: #000000"/>
     <use xlink:href="#mdbf06ae1f3" x="159.913027" y="14.121615" style="stroke: #000000"/>
     <use xlink:href="#mdbf06ae1f3" x="160.764156" y="23.685113" style="stroke: #000000"/>
     <use xlink:href="#mdbf06ae1f3" x="161.615285" y="28.629625" style="stroke: #000000"/>
     <use xlink:href="#mdbf06ae1f3" x="162.466414" y="30.333271" style="stroke: #000000"/>
     <use xlink:href="#mdbf06ae1f3" x="163.317542" y="34.481906" style="stroke: #000000"/>
     <use xlink:href="#mdbf06ae1f3" x="164.168671" y="33.328387" style="stroke: #000000"/>
     <use xlink:href="#mdbf06ae1f3" x="165.0198" y="35.493888" style="stroke: #000000"/>
     <use xlink:href="#mdbf06ae1f3" x="165.870929" y="32.211411" style="stroke: #000000"/>
     <use xlink:href="#mdbf06ae1f3" x="166.722057" y="29.739496" style="stroke: #000000"/>
     <use xlink:href="#mdbf06ae1f3" x="167.573186" y="24.414105" style="stroke: #000000"/>
     <use xlink:href="#mdbf06ae1f3" x="168.424315" y="17.499311" style="stroke: #000000"/>
     <use xlink:href="#mdbf06ae1f3" x="169.275443" y="14.598503" style="stroke: #000000"/>
     <use xlink:href="#mdbf06ae1f3" x="170.126572" y="12.745538" style="stroke: #000000"/>
     <use xlink:href="#mdbf06ae1f3" x="170.977701" y="15.976248" style="stroke: #000000"/>
     <use xlink:href="#mdbf06ae1f3" x="171.82883" y="16.734385" style="stroke: #000000"/>
     <use xlink:href="#mdbf06ae1f3" x="172.679958" y="21.643501" style="stroke: #000000"/>
     <use xlink:href="#mdbf06ae1f3" x="173.531087" y="29.311972" style="stroke: #000000"/>
     <use xlink:href="#mdbf06ae1f3" x="174.382216" y="31.0732" style="stroke: #000000"/>
    </g>
   </g>
   <g id="patch_3">
    <path d="M 41.223125 39.96 
L 41.223125 7.2 
" style="fill: none; stroke: #000000; stroke-width: 1.5; stroke-linejoin: miter; stroke-linecap: square"/>
   </g>
   <g id="patch_4">
    <path d="M 41.223125 39.96 
L 180.723125 39.96 
" style="fill: none; stroke: #000000; stroke-width: 1.5; stroke-linejoin: miter; stroke-linecap: square"/>
   </g>
  </g>
  <g id="axes_2">
   <g id="patch_5">
    <path d="M 41.223125 79.272 
L 180.723125 79.272 
L 180.723125 46.512 
L 41.223125 46.512 
z
" style="fill: #ffffff"/>
   </g>
   <g id="matplotlib.axis_3">
    <g id="xtick_1">
     <g id="line2d_10">
      <defs>
       <path id="m00d22f5c8d" d="M 0 0 
L 0 3.5 
" style="stroke: #000000; stroke-width: 1.5"/>
      </defs>
      <g>
       <use xlink:href="#m00d22f5c8d" x="47.564034" y="79.272" style="stroke: #000000; stroke-width: 1.5"/>
      </g>
     </g>
     <g id="text_4">
      <text style="font-size: 9px; font-family: 'Arial', sans-serif; text-anchor: middle" x="47.564034" y="93.110594" transform="rotate(-0 47.564034 93.110594)">0</text>
     </g>
    </g>
    <g id="xtick_2">
     <g id="line2d_11">
      <g>
       <use xlink:href="#m00d22f5c8d" x="90.120471" y="79.272" style="stroke: #000000; stroke-width: 1.5"/>
      </g>
     </g>
     <g id="text_5">
      <text style="font-size: 9px; font-family: 'Arial', sans-serif; text-anchor: middle" x="90.120471" y="93.110594" transform="rotate(-0 90.120471 93.110594)">50</text>
     </g>
    </g>
    <g id="xtick_3">
     <g id="line2d_12">
      <g>
       <use xlink:href="#m00d22f5c8d" x="132.676908" y="79.272" style="stroke: #000000; stroke-width: 1.5"/>
      </g>
     </g>
     <g id="text_6">
      <text style="font-size: 9px; font-family: 'Arial', sans-serif; text-anchor: middle" x="132.676908" y="93.110594" transform="rotate(-0 132.676908 93.110594)">100</text>
     </g>
    </g>
    <g id="xtick_4">
     <g id="line2d_13">
      <g>
       <use xlink:href="#m00d22f5c8d" x="175.233345" y="79.272" style="stroke: #000000; stroke-width: 1.5"/>
      </g>
     </g>
     <g id="text_7">
      <text style="font-size: 9px; font-family: 'Arial', sans-serif; text-anchor: middle" x="175.233345" y="93.110594" transform="rotate(-0 175.233345 93.110594)">150</text>
     </g>
    </g>
    <g id="text_8">
     <text style="font-size: 9px; font-family: 'Arial', sans-serif; text-anchor: middle" x="110.973125" y="105.820906" transform="rotate(-0 110.973125 105.820906)">time</text>
    </g>
   </g>
   <g id="matplotlib.axis_4">
    <g id="ytick_3">
     <g id="line2d_14">
      <g>
       <use xlink:href="#mcc5ba73de0" x="41.223125" y="79.272" style="stroke: #000000; stroke-width: 1.5"/>
      </g>
     </g>
     <g id="text_9">
      <text style="font-size: 9px; font-family: 'Arial', sans-serif; text-anchor: end" x="34.223125" y="82.691297" transform="rotate(-0 34.223125 82.691297)">0.5</text>
     </g>
    </g>
    <g id="ytick_4">
     <g id="line2d_15">
      <g>
       <use xlink:href="#mcc5ba73de0" x="41.223125" y="46.512" style="stroke: #000000; stroke-width: 1.5"/>
      </g>
     </g>
     <g id="text_10">
      <text style="font-size: 9px; font-family: 'Arial', sans-serif; text-anchor: end" x="34.223125" y="49.931297" transform="rotate(-0 34.223125 49.931297)">1.5</text>
     </g>
    </g>
    <g id="text_11">
     <text style="font-size: 9px; font-family: 'Arial', sans-serif; text-anchor: middle" x="14.038594" y="62.892" transform="rotate(-90 14.038594 62.892)">prey</text>
    </g>
   </g>
   <g id="line2d_16">
    <path d="M 47.564034 65.562682 
L 49.266292 72.61718 
L 50.11742 74.918346 
L 50.968549 76.298418 
L 51.819678 76.537679 
L 52.670807 75.533493 
L 53.521935 73.020876 
L 54.373064 69.398206 
L 55.224193 64.965123 
L 56.075321 61.294867 
L 56.92645 59.706758 
L 57.777579 60.550474 
L 58.628708 63.370446 
L 60.330965 70.630794 
L 61.182094 73.644282 
L 62.033223 75.62113 
L 62.884351 76.525015 
L 63.73548 76.285969 
L 64.586609 74.673683 
L 65.437738 71.740097 
L 67.139995 63.441342 
L 67.991124 60.351671 
L 68.842253 59.743507 
L 69.693381 61.488561 
L 71.395639 68.447306 
L 72.246767 71.908759 
L 73.097896 74.444741 
L 73.949025 76.080387 
L 74.800154 76.55598 
L 75.651282 75.862338 
L 76.502411 73.718221 
L 77.35354 70.262329 
L 79.055797 61.938362 
L 79.906926 59.905429 
L 80.758055 60.211869 
L 81.609184 62.683676 
L 84.16257 73.003404 
L 85.013699 75.329744 
L 85.864827 76.41347 
L 86.715956 76.489213 
L 87.567085 75.19211 
L 88.418213 72.496881 
L 90.9716 60.844238 
L 91.822728 59.728948 
L 92.673857 61.03427 
L 93.524986 64.053992 
L 95.227243 71.196843 
L 96.078372 73.962013 
L 96.929501 75.811939 
L 97.78063 76.516116 
L 98.631758 76.078264 
L 99.482887 74.251742 
L 100.334016 71.088323 
L 102.036273 62.720249 
L 102.887402 60.098581 
L 103.738531 59.943177 
L 104.589659 62.061582 
L 107.143046 72.357105 
L 107.994174 74.850236 
L 108.845303 76.273148 
L 109.696432 76.577709 
L 110.547561 75.54912 
L 111.398689 73.286864 
L 112.249818 69.548406 
L 113.952076 61.451356 
L 114.803204 59.713171 
L 115.654333 60.568536 
L 116.505462 63.318724 
L 118.207719 70.51598 
L 119.058848 73.495215 
L 119.909977 75.500236 
L 120.761105 76.548302 
L 121.612234 76.304336 
L 122.463363 74.775528 
L 123.314492 71.942222 
L 125.016749 63.626512 
L 125.867878 60.409157 
L 126.719007 59.719837 
L 127.570135 61.497614 
L 128.421264 64.695706 
L 130.123522 71.864549 
L 130.97465 74.403388 
L 131.825779 76.079537 
L 132.676908 76.550963 
L 133.528037 75.929287 
L 134.379165 73.853667 
L 135.230294 70.437513 
L 136.932551 62.113604 
L 137.78368 59.917636 
L 138.634809 60.227221 
L 139.485938 62.727685 
L 142.039324 72.881662 
L 142.890453 75.187142 
L 143.741581 76.468105 
L 144.59271 76.46968 
L 145.443839 75.288065 
L 146.294968 72.670167 
L 147.146096 68.880692 
L 147.997225 64.51889 
L 148.848354 61.048767 
L 149.699483 59.747998 
L 150.550611 61.016251 
L 151.40174 64.025655 
L 153.103997 71.188605 
L 153.955126 73.913215 
L 154.806255 75.80547 
L 155.657384 76.594269 
L 156.508512 76.141081 
L 157.359641 74.423856 
L 158.21077 71.397441 
L 159.913027 62.974191 
L 160.764156 60.163951 
L 161.615285 59.96707 
L 162.466414 62.015288 
L 165.0198 72.378336 
L 165.870929 74.869927 
L 166.722057 76.246846 
L 167.573186 76.534856 
L 168.424315 75.651474 
L 169.275443 73.444564 
L 170.126572 69.859094 
L 171.82883 61.67955 
L 172.679958 59.767954 
L 173.531087 60.567646 
L 174.382216 63.332461 
L 174.382216 63.332461 
" clip-path="url(#p6f6778ec6b)" style="fill: none; stroke: #1f77b4; stroke-width: 0.1; stroke-linecap: square"/>
   </g>
   <g id="line2d_17">
    <path d="M 47.564034 60.211612 
L 49.266292 67.072848 
L 50.11742 69.425494 
L 50.968549 70.734839 
L 51.819678 70.972531 
L 52.670807 70.020269 
L 53.521935 67.516281 
L 54.373064 63.87013 
L 55.224193 59.422152 
L 56.075321 55.69159 
L 56.92645 54.138349 
L 57.777579 55.113607 
L 58.628708 57.999179 
L 60.330965 65.233971 
L 61.182094 68.17725 
L 62.033223 70.065693 
L 62.884351 71.023397 
L 63.73548 70.776698 
L 64.586609 69.166583 
L 65.437738 66.250969 
L 67.139995 57.818649 
L 67.991124 54.762938 
L 68.842253 54.172785 
L 69.693381 56.034253 
L 71.395639 63.060061 
L 72.246767 66.400475 
L 73.097896 68.998267 
L 73.949025 70.599294 
L 74.800154 71.022241 
L 75.651282 70.349581 
L 76.502411 68.204093 
L 77.35354 64.755395 
L 79.055797 56.444957 
L 79.906926 54.275475 
L 80.758055 54.715325 
L 81.609184 57.239783 
L 83.311441 64.536411 
L 84.16257 67.516709 
L 85.013699 69.755316 
L 85.864827 70.89315 
L 86.715956 70.968288 
L 87.567085 69.605878 
L 88.418213 67.005982 
L 90.9716 55.332627 
L 91.822728 54.072337 
L 92.673857 55.456613 
L 94.376115 62.253754 
L 95.227243 65.708584 
L 96.078372 68.520284 
L 96.929501 70.317874 
L 97.78063 71.02698 
L 98.631758 70.556535 
L 99.482887 68.804418 
L 100.334016 65.552979 
L 102.036273 57.154616 
L 102.887402 54.509621 
L 103.738531 54.337819 
L 104.589659 56.51592 
L 107.143046 66.894388 
L 107.994174 69.339894 
L 108.845303 70.725523 
L 109.696432 71.040206 
L 110.547561 70.002551 
L 111.398689 67.633936 
L 112.249818 64.066079 
L 113.100947 59.615648 
L 113.952076 55.831134 
L 114.803204 54.103357 
L 115.654333 54.945843 
L 116.505462 57.747862 
L 118.207719 65.000583 
L 119.058848 67.987842 
L 119.909977 70.031288 
L 120.761105 71.033486 
L 121.612234 70.730689 
L 122.463363 69.242322 
L 123.314492 66.356269 
L 125.016749 57.900914 
L 125.867878 54.91248 
L 126.719007 54.149686 
L 127.570135 55.86629 
L 128.421264 59.136577 
L 130.123522 66.271052 
L 130.97465 68.843599 
L 131.825779 70.492927 
L 132.676908 70.982214 
L 133.528037 70.389304 
L 134.379165 68.255079 
L 135.230294 64.799753 
L 136.932551 56.536755 
L 137.78368 54.275628 
L 138.634809 54.576249 
L 139.485938 56.963182 
L 142.039324 67.402268 
L 142.890453 69.581216 
L 143.741581 70.831745 
L 144.59271 70.842008 
L 145.443839 69.763277 
L 146.294968 66.954203 
L 147.146096 63.135444 
L 147.997225 58.784429 
L 148.848354 55.326074 
L 149.699483 54.117408 
L 150.550611 55.305552 
L 151.40174 58.29909 
L 153.103997 65.508012 
L 153.955126 68.380412 
L 154.806255 70.252382 
L 155.657384 71.025701 
L 156.508512 70.51945 
L 157.359641 68.760516 
L 158.21077 65.646915 
L 159.913027 57.284662 
L 160.764156 54.5011 
L 161.615285 54.272456 
L 162.466414 56.253008 
L 165.0198 66.700906 
L 165.870929 69.168106 
L 166.722057 70.737303 
L 167.573186 71.005587 
L 168.424315 70.083576 
L 169.275443 67.647679 
L 170.126572 63.970203 
L 170.977701 59.614636 
L 171.82883 55.964871 
L 172.679958 54.151908 
L 173.531087 54.831324 
L 174.382216 57.486851 
L 174.382216 57.486851 
" clip-path="url(#p6f6778ec6b)" style="fill: none; stroke: #1f77b4; stroke-width: 0.1; stroke-linecap: square"/>
   </g>
   <g id="line2d_18">
    <path d="M 47.564034 65.571357 
L 48.415163 69.209071 
L 49.266292 72.35128 
L 50.11742 74.823606 
L 50.968549 76.212556 
L 51.819678 76.505906 
L 52.670807 75.510024 
L 53.521935 73.229499 
L 54.373064 69.617369 
L 56.075321 61.64748 
L 56.92645 59.965773 
L 57.777579 60.779285 
L 58.628708 63.430005 
L 60.330965 70.533081 
L 61.182094 73.465541 
L 62.033223 75.452786 
L 62.884351 76.521871 
L 63.73548 76.312024 
L 64.586609 74.80794 
L 65.437738 71.957208 
L 67.139995 63.74248 
L 67.991124 60.680189 
L 68.842253 59.95082 
L 69.693381 61.630437 
L 70.54451 64.745014 
L 72.246767 71.787285 
L 73.097896 74.300638 
L 73.949025 75.962408 
L 74.800154 76.546884 
L 75.651282 75.866597 
L 76.502411 73.876884 
L 77.35354 70.552282 
L 79.055797 62.298727 
L 79.906926 60.187336 
L 80.758055 60.349351 
L 81.609184 62.68557 
L 84.16257 72.861815 
L 85.013699 75.117821 
L 85.864827 76.388446 
L 86.715956 76.439465 
L 87.567085 75.261612 
L 88.418213 72.739558 
L 90.9716 61.217362 
L 91.822728 59.886418 
L 92.673857 61.016688 
L 93.524986 63.992598 
L 95.227243 71.076154 
L 96.078372 73.80827 
L 96.929501 75.740179 
L 97.78063 76.552604 
L 98.631758 76.116698 
L 99.482887 74.495785 
L 100.334016 71.409178 
L 102.036273 63.126279 
L 102.887402 60.373959 
L 103.738531 60.07898 
L 104.589659 62.100615 
L 107.994174 74.683503 
L 108.845303 76.183133 
L 109.696432 76.513144 
L 110.547561 75.628241 
L 111.398689 73.457234 
L 112.249818 69.922451 
L 113.100947 65.631891 
L 113.952076 61.947446 
L 114.803204 59.998781 
L 115.654333 60.612768 
L 116.505462 63.167937 
L 118.207719 70.302251 
L 119.058848 73.257303 
L 119.909977 75.341286 
L 120.761105 76.433775 
L 121.612234 76.36939 
L 122.463363 74.904322 
L 123.314492 72.219908 
L 125.867878 60.807286 
L 126.719007 59.94074 
L 127.570135 61.44572 
L 128.421264 64.495245 
L 130.123522 71.569869 
L 130.97465 74.207862 
L 131.825779 75.876737 
L 132.676908 76.486415 
L 133.528037 76.016953 
L 134.379165 74.053364 
L 135.230294 70.849865 
L 136.932551 62.656546 
L 137.78368 60.189738 
L 138.634809 60.218024 
L 139.485938 62.508574 
L 142.039324 72.665102 
L 142.890453 74.967862 
L 143.741581 76.313605 
L 144.59271 76.539318 
L 145.443839 75.37908 
L 146.294968 73.004333 
L 147.146096 69.333259 
L 147.997225 65.020412 
L 148.848354 61.414322 
L 149.699483 59.95107 
L 150.550611 60.944636 
L 151.40174 63.765164 
L 153.103997 70.847245 
L 153.955126 73.623293 
L 154.806255 75.594951 
L 155.657384 76.509958 
L 156.508512 76.186529 
L 157.359641 74.66441 
L 158.21077 71.72019 
L 159.913027 63.480938 
L 160.764156 60.536997 
L 161.615285 60.048585 
L 162.466414 61.867215 
L 164.168671 68.701312 
L 165.0198 72.059166 
L 165.870929 74.5799 
L 166.722057 76.128863 
L 167.573186 76.534053 
L 168.424315 75.842082 
L 169.275443 73.698115 
L 170.126572 70.198878 
L 171.82883 62.071927 
L 172.679958 60.054134 
L 173.531087 60.553235 
L 174.382216 62.977305 
L 174.382216 62.977305 
" clip-path="url(#p6f6778ec6b)" style="fill: none; stroke: #f2a900; stroke-width: 0.1; stroke-linecap: square"/>
   </g>
   <g id="line2d_19">
    <path d="M 47.564034 60.24335 
L 49.266292 67.015479 
L 50.11742 69.401549 
L 50.968549 70.74145 
L 51.819678 71.041393 
L 52.670807 70.09148 
L 53.521935 67.755289 
L 54.373064 64.129581 
L 56.075321 56.169966 
L 56.92645 54.523961 
L 57.777579 55.336552 
L 58.628708 58.009259 
L 60.330965 65.110431 
L 61.182094 68.009869 
L 62.033223 70.093876 
L 62.884351 71.062846 
L 63.73548 70.856928 
L 64.586609 69.346129 
L 65.437738 66.503427 
L 67.991124 55.208189 
L 68.842253 54.540629 
L 69.693381 56.237063 
L 70.54451 59.343741 
L 72.246767 66.405281 
L 73.097896 68.875713 
L 73.949025 70.585867 
L 74.800154 71.123025 
L 75.651282 70.39573 
L 76.502411 68.440553 
L 77.35354 65.118673 
L 79.055797 56.934607 
L 79.906926 54.643085 
L 80.758055 54.962276 
L 81.609184 57.228449 
L 84.16257 67.466399 
L 85.013699 69.701944 
L 85.864827 70.912389 
L 86.715956 70.892593 
L 87.567085 69.836265 
L 88.418213 67.29651 
L 89.269342 63.579051 
L 90.120471 59.262242 
L 90.9716 55.76262 
L 91.822728 54.457903 
L 92.673857 55.620733 
L 93.524986 58.584513 
L 95.227243 65.650362 
L 96.078372 68.438349 
L 96.929501 70.256766 
L 97.78063 71.077685 
L 98.631758 70.680891 
L 99.482887 68.990077 
L 100.334016 65.981328 
L 102.036273 57.664499 
L 102.887402 54.978444 
L 103.738531 54.658749 
L 104.589659 56.585396 
L 107.143046 66.761045 
L 107.994174 69.223616 
L 108.845303 70.707867 
L 109.696432 71.050445 
L 110.547561 70.182847 
L 111.398689 67.942886 
L 112.249818 64.503892 
L 113.952076 56.416636 
L 114.803204 54.583591 
L 115.654333 55.199523 
L 116.505462 57.770067 
L 118.207719 64.843322 
L 119.058848 67.839093 
L 119.909977 69.909105 
L 120.761105 70.989361 
L 121.612234 70.940265 
L 122.463363 69.492872 
L 123.314492 66.770662 
L 125.867878 55.394819 
L 126.719007 54.462785 
L 127.570135 56.039861 
L 128.421264 59.088284 
L 130.123522 66.11284 
L 130.97465 68.765482 
L 131.825779 70.486575 
L 132.676908 71.137041 
L 133.528037 70.513057 
L 134.379165 68.66294 
L 135.230294 65.353983 
L 136.932551 57.15205 
L 137.78368 54.712724 
L 138.634809 54.843422 
L 139.485938 57.056171 
L 142.039324 67.215356 
L 142.890453 69.562471 
L 143.741581 70.868634 
L 144.59271 71.039028 
L 145.443839 69.942456 
L 146.294968 67.438226 
L 147.146096 63.808081 
L 147.997225 59.564773 
L 148.848354 55.98314 
L 149.699483 54.425626 
L 150.550611 55.46463 
L 151.40174 58.336335 
L 153.103997 65.338239 
L 153.955126 68.246464 
L 154.806255 70.189698 
L 155.657384 71.116626 
L 156.508512 70.760129 
L 157.359641 69.110142 
L 158.21077 66.176698 
L 159.913027 57.972725 
L 160.764156 55.075963 
L 161.615285 54.624515 
L 162.466414 56.476715 
L 163.317542 59.649616 
L 165.0198 66.600827 
L 165.870929 69.104327 
L 166.722057 70.545354 
L 167.573186 71.084675 
L 168.424315 70.307695 
L 169.275443 68.197382 
L 170.126572 64.648182 
L 171.82883 56.568833 
L 172.679958 54.619676 
L 173.531087 55.089288 
L 174.382216 57.561739 
L 174.382216 57.561739 
" clip-path="url(#p6f6778ec6b)" style="fill: none; stroke: #f2a900; stroke-width: 0.1; stroke-linecap: square"/>
   </g>
   <g id="line2d_20">
    <path d="M 47.564034 65.577745 
L 49.266292 72.4755 
L 50.11742 74.8781 
L 50.968549 76.334237 
L 51.819678 76.668202 
L 52.670807 75.821259 
L 53.521935 73.504891 
L 54.373064 69.9447 
L 55.224193 65.652142 
L 56.075321 61.979992 
L 56.92645 60.16242 
L 57.777579 60.822474 
L 58.628708 63.407651 
L 61.182094 73.536549 
L 62.033223 75.592319 
L 62.884351 76.646018 
L 63.73548 76.514541 
L 64.586609 75.031135 
L 65.437738 72.2466 
L 67.991124 61.00887 
L 68.842253 60.104954 
L 69.693381 61.606298 
L 70.54451 64.720233 
L 72.246767 71.731187 
L 73.097896 74.428361 
L 73.949025 76.08865 
L 74.800154 76.682697 
L 75.651282 76.172419 
L 76.502411 74.165054 
L 77.35354 70.944653 
L 79.055797 62.732758 
L 79.906926 60.414964 
L 80.758055 60.399644 
L 81.609184 62.635242 
L 84.16257 72.885577 
L 85.013699 75.184096 
L 85.864827 76.465256 
L 86.715956 76.66153 
L 87.567085 75.59134 
L 88.418213 73.112323 
L 89.269342 69.486745 
L 90.120471 65.255353 
L 90.9716 61.597148 
L 91.822728 60.163467 
L 92.673857 61.069605 
L 93.524986 63.864128 
L 95.227243 70.960407 
L 96.078372 73.943776 
L 96.929501 75.796099 
L 97.78063 76.668667 
L 98.631758 76.368959 
L 99.482887 74.862856 
L 100.334016 71.881537 
L 102.036273 63.76896 
L 102.887402 60.811317 
L 103.738531 60.212514 
L 104.589659 61.981855 
L 107.994174 74.705174 
L 108.845303 76.173725 
L 109.696432 76.675109 
L 110.547561 75.903908 
L 111.398689 73.881188 
L 112.249818 70.566807 
L 113.952076 62.465339 
L 114.803204 60.273464 
L 115.654333 60.65448 
L 116.505462 63.158671 
L 119.058848 73.21741 
L 119.909977 75.34961 
L 120.761105 76.542948 
L 121.612234 76.598014 
L 122.463363 75.288779 
L 123.314492 72.814225 
L 124.16562 69.114193 
L 125.016749 64.879546 
L 125.867878 61.348037 
L 126.719007 60.160573 
L 127.570135 61.401883 
L 128.421264 64.476135 
L 130.123522 71.445515 
L 130.97465 74.159256 
L 131.825779 75.937424 
L 132.676908 76.716593 
L 133.528037 76.275741 
L 134.379165 74.587503 
L 135.230294 71.580874 
L 136.932551 63.444674 
L 137.78368 60.636676 
L 138.634809 60.385878 
L 139.485938 62.418354 
L 142.039324 72.612525 
L 142.890453 74.963767 
L 143.741581 76.327973 
L 144.59271 76.61945 
L 145.443839 75.704871 
L 146.294968 73.582893 
L 147.146096 70.302809 
L 148.848354 62.259498 
L 149.699483 60.231896 
L 150.550611 60.927491 
L 151.40174 63.743702 
L 153.103997 70.769451 
L 153.955126 73.624188 
L 154.806255 75.63249 
L 155.657384 76.664641 
L 156.508512 76.469911 
L 157.359641 75.180362 
L 158.21077 72.624936 
L 160.764156 61.189474 
L 161.615285 60.186528 
L 162.466414 61.854035 
L 165.870929 74.508698 
L 166.722057 76.083835 
L 167.573186 76.717677 
L 168.424315 76.146634 
L 169.275443 74.299412 
L 170.126572 71.278194 
L 171.82883 63.181816 
L 172.679958 60.483151 
L 173.531087 60.564365 
L 174.382216 62.969686 
L 174.382216 62.969686 
" clip-path="url(#p6f6778ec6b)" style="fill: none; stroke: #d62728; stroke-width: 0.1; stroke-linecap: square"/>
   </g>
   <g id="line2d_21">
    <path d="M 47.564034 60.14694 
L 49.266292 66.985883 
L 50.11742 69.388761 
L 50.968549 70.813521 
L 51.819678 71.155388 
L 52.670807 70.197335 
L 53.521935 68.026029 
L 54.373064 64.363432 
L 56.075321 56.287937 
L 56.92645 54.448277 
L 57.777579 55.259481 
L 58.628708 58.03908 
L 60.330965 65.104835 
L 61.182094 67.959378 
L 62.033223 70.041793 
L 62.884351 71.06179 
L 63.73548 70.94989 
L 64.586609 69.543405 
L 65.437738 66.796519 
L 67.991124 55.314616 
L 68.842253 54.542426 
L 69.693381 56.042677 
L 71.395639 62.955584 
L 72.246767 66.253087 
L 73.097896 68.887965 
L 73.949025 70.623917 
L 74.800154 71.145791 
L 75.651282 70.579605 
L 76.502411 68.668937 
L 77.35354 65.385676 
L 79.055797 57.1462 
L 79.906926 54.649435 
L 80.758055 54.899526 
L 81.609184 57.123213 
L 83.311441 64.171443 
L 84.16257 67.305949 
L 85.013699 69.64341 
L 85.864827 70.936895 
L 86.715956 71.082859 
L 87.567085 70.057363 
L 88.418213 67.522031 
L 89.269342 63.794416 
L 90.120471 59.468235 
L 90.9716 55.883024 
L 91.822728 54.495359 
L 92.673857 55.561958 
L 93.524986 58.395247 
L 95.227243 65.465776 
L 96.078372 68.318562 
L 96.929501 70.222981 
L 97.78063 71.10384 
L 98.631758 70.822973 
L 99.482887 69.211129 
L 100.334016 66.232628 
L 102.036273 57.98885 
L 102.887402 55.048197 
L 103.738531 54.603282 
L 104.589659 56.4356 
L 105.440788 59.624603 
L 107.143046 66.623544 
L 107.994174 69.023817 
L 108.845303 70.738209 
L 109.696432 71.142505 
L 110.547561 70.382901 
L 111.398689 68.194588 
L 112.249818 64.776665 
L 113.952076 56.612658 
L 114.803204 54.595542 
L 115.654333 54.986474 
L 116.505462 57.491459 
L 119.058848 67.538475 
L 119.909977 69.837042 
L 120.761105 71.100378 
L 121.612234 70.978988 
L 122.463363 69.740583 
L 123.314492 67.04357 
L 125.867878 55.518059 
L 126.719007 54.452596 
L 127.570135 55.758258 
L 128.421264 58.602946 
L 130.123522 65.79187 
L 130.97465 68.581167 
L 131.825779 70.437066 
L 132.676908 71.17604 
L 133.528037 70.720672 
L 134.379165 68.837876 
L 135.230294 65.610447 
L 136.932551 57.392238 
L 137.78368 54.844012 
L 138.634809 54.706886 
L 139.485938 56.619598 
L 142.039324 66.894862 
L 142.890453 69.323687 
L 143.741581 70.820445 
L 144.59271 71.124247 
L 145.443839 70.135387 
L 146.294968 67.725943 
L 147.146096 64.034758 
L 147.997225 59.739539 
L 148.848354 56.196221 
L 149.699483 54.532826 
L 150.550611 55.226641 
L 151.40174 57.785755 
L 153.955126 67.852318 
L 154.806255 70.002892 
L 155.657384 71.092533 
L 156.508512 70.838216 
L 157.359641 69.419482 
L 158.21077 66.406441 
L 159.913027 58.163331 
L 160.764156 55.272353 
L 161.615285 54.543011 
L 162.466414 56.019706 
L 163.317542 58.960624 
L 165.0198 65.965683 
L 165.870929 68.733693 
L 166.722057 70.472272 
L 167.573186 71.188788 
L 168.424315 70.516394 
L 169.275443 68.384592 
L 170.126572 64.851539 
L 171.82883 56.807013 
L 172.679958 54.758529 
L 173.531087 54.842774 
L 174.382216 56.93012 
L 174.382216 56.93012 
" clip-path="url(#p6f6778ec6b)" style="fill: none; stroke: #d62728; stroke-width: 0.1; stroke-linecap: square"/>
   </g>
   <g id="line2d_22">
    <g clip-path="url(#p6f6778ec6b)">
     <use xlink:href="#mdbf06ae1f3" x="47.564034" y="65.409766" style="stroke: #000000"/>
     <use xlink:href="#mdbf06ae1f3" x="48.415163" y="66.424848" style="stroke: #000000"/>
     <use xlink:href="#mdbf06ae1f3" x="49.266292" y="69.399895" style="stroke: #000000"/>
     <use xlink:href="#mdbf06ae1f3" x="50.11742" y="72.848672" style="stroke: #000000"/>
     <use xlink:href="#mdbf06ae1f3" x="50.968549" y="69.771271" style="stroke: #000000"/>
     <use xlink:href="#mdbf06ae1f3" x="51.819678" y="73.530267" style="stroke: #000000"/>
     <use xlink:href="#mdbf06ae1f3" x="52.670807" y="73.594219" style="stroke: #000000"/>
     <use xlink:href="#mdbf06ae1f3" x="53.521935" y="69.494478" style="stroke: #000000"/>
     <use xlink:href="#mdbf06ae1f3" x="54.373064" y="64.729996" style="stroke: #000000"/>
     <use xlink:href="#mdbf06ae1f3" x="55.224193" y="61.991899" style="stroke: #000000"/>
     <use xlink:href="#mdbf06ae1f3" x="56.075321" y="57.194098" style="stroke: #000000"/>
     <use xlink:href="#mdbf06ae1f3" x="56.92645" y="59.603272" style="stroke: #000000"/>
     <use xlink:href="#mdbf06ae1f3" x="57.777579" y="57.641157" style="stroke: #000000"/>
     <use xlink:href="#mdbf06ae1f3" x="58.628708" y="60.941047" style="stroke: #000000"/>
     <use xlink:href="#mdbf06ae1f3" x="59.479836" y="61.077498" style="stroke: #000000"/>
     <use xlink:href="#mdbf06ae1f3" x="60.330965" y="69.056198" style="stroke: #000000"/>
     <use xlink:href="#mdbf06ae1f3" x="61.182094" y="71.810047" style="stroke: #000000"/>
     <use xlink:href="#mdbf06ae1f3" x="62.033223" y="73.898906" style="stroke: #000000"/>
     <use xlink:href="#mdbf06ae1f3" x="62.884351" y="71.240971" style="stroke: #000000"/>
     <use xlink:href="#mdbf06ae1f3" x="63.73548" y="73.442398" style="stroke: #000000"/>
     <use xlink:href="#mdbf06ae1f3" x="64.586609" y="74.948464" style="stroke: #000000"/>
     <use xlink:href="#mdbf06ae1f3" x="65.437738" y="68.583046" style="stroke: #000000"/>
     <use xlink:href="#mdbf06ae1f3" x="66.288866" y="67.323484" style="stroke: #000000"/>
     <use xlink:href="#mdbf06ae1f3" x="67.139995" y="63.027076" style="stroke: #000000"/>
     <use xlink:href="#mdbf06ae1f3" x="67.991124" y="57.611676" style="stroke: #000000"/>
     <use xlink:href="#mdbf06ae1f3" x="68.842253" y="58.937325" style="stroke: #000000"/>
     <use xlink:href="#mdbf06ae1f3" x="69.693381" y="57.355993" style="stroke: #000000"/>
     <use xlink:href="#mdbf06ae1f3" x="70.54451" y="60.547545" style="stroke: #000000"/>
     <use xlink:href="#mdbf06ae1f3" x="71.395639" y="66.546102" style="stroke: #000000"/>
     <use xlink:href="#mdbf06ae1f3" x="72.246767" y="71.930959" style="stroke: #000000"/>
     <use xlink:href="#mdbf06ae1f3" x="73.097896" y="73.170838" style="stroke: #000000"/>
     <use xlink:href="#mdbf06ae1f3" x="73.949025" y="75.416246" style="stroke: #000000"/>
     <use xlink:href="#mdbf06ae1f3" x="74.800154" y="75.856576" style="stroke: #000000"/>
     <use xlink:href="#mdbf06ae1f3" x="75.651282" y="67.151864" style="stroke: #000000"/>
     <use xlink:href="#mdbf06ae1f3" x="76.502411" y="71.695227" style="stroke: #000000"/>
     <use xlink:href="#mdbf06ae1f3" x="77.35354" y="67.908953" style="stroke: #000000"/>
     <use xlink:href="#mdbf06ae1f3" x="78.204669" y="64.536177" style="stroke: #000000"/>
     <use xlink:href="#mdbf06ae1f3" x="79.055797" y="59.115602" style="stroke: #000000"/>
     <use xlink:href="#mdbf06ae1f3" x="79.906926" y="60.161456" style="stroke: #000000"/>
     <use xlink:href="#mdbf06ae1f3" x="80.758055" y="56.390619" style="stroke: #000000"/>
     <use xlink:href="#mdbf06ae1f3" x="81.609184" y="62.373111" style="stroke: #000000"/>
     <use xlink:href="#mdbf06ae1f3" x="82.460312" y="61.994368" style="stroke: #000000"/>
     <use xlink:href="#mdbf06ae1f3" x="83.311441" y="69.623614" style="stroke: #000000"/>
     <use xlink:href="#mdbf06ae1f3" x="84.16257" y="66.996226" style="stroke: #000000"/>
     <use xlink:href="#mdbf06ae1f3" x="85.013699" y="73.949413" style="stroke: #000000"/>
     <use xlink:href="#mdbf06ae1f3" x="85.864827" y="74.252843" style="stroke: #000000"/>
     <use xlink:href="#mdbf06ae1f3" x="86.715956" y="73.822809" style="stroke: #000000"/>
     <use xlink:href="#mdbf06ae1f3" x="87.567085" y="71.077032" style="stroke: #000000"/>
     <use xlink:href="#mdbf06ae1f3" x="88.418213" y="70.909737" style="stroke: #000000"/>
     <use xlink:href="#mdbf06ae1f3" x="89.269342" y="68.368905" style="stroke: #000000"/>
     <use xlink:href="#mdbf06ae1f3" x="90.120471" y="63.19864" style="stroke: #000000"/>
     <use xlink:href="#mdbf06ae1f3" x="90.9716" y="61.915801" style="stroke: #000000"/>
     <use xlink:href="#mdbf06ae1f3" x="91.822728" y="56.456169" style="stroke: #000000"/>
     <use xlink:href="#mdbf06ae1f3" x="92.673857" y="59.106694" style="stroke: #000000"/>
     <use xlink:href="#mdbf06ae1f3" x="93.524986" y="60.743005" style="stroke: #000000"/>
     <use xlink:href="#mdbf06ae1f3" x="94.376115" y="65.125232" style="stroke: #000000"/>
     <use xlink:href="#mdbf06ae1f3" x="95.227243" y="70.275015" style="stroke: #000000"/>
     <use xlink:href="#mdbf06ae1f3" x="96.078372" y="70.403002" style="stroke: #000000"/>
     <use xlink:href="#mdbf06ae1f3" x="96.929501" y="75.535135" style="stroke: #000000"/>
     <use xlink:href="#mdbf06ae1f3" x="97.78063" y="73.260657" style="stroke: #000000"/>
     <use xlink:href="#mdbf06ae1f3" x="98.631758" y="75.434338" style="stroke: #000000"/>
     <use xlink:href="#mdbf06ae1f3" x="99.482887" y="72.678354" style="stroke: #000000"/>
     <use xlink:href="#mdbf06ae1f3" x="100.334016" y="67.045697" style="stroke: #000000"/>
     <use xlink:href="#mdbf06ae1f3" x="101.185145" y="64.154254" style="stroke: #000000"/>
     <use xlink:href="#mdbf06ae1f3" x="102.036273" y="59.72623" style="stroke: #000000"/>
     <use xlink:href="#mdbf06ae1f3" x="102.887402" y="59.322762" style="stroke: #000000"/>
     <use xlink:href="#mdbf06ae1f3" x="103.738531" y="59.494134" style="stroke: #000000"/>
     <use xlink:href="#mdbf06ae1f3" x="104.589659" y="57.157721" style="stroke: #000000"/>
     <use xlink:href="#mdbf06ae1f3" x="105.440788" y="63.989658" style="stroke: #000000"/>
     <use xlink:href="#mdbf06ae1f3" x="106.291917" y="65.144634" style="stroke: #000000"/>
     <use xlink:href="#mdbf06ae1f3" x="107.143046" y="68.636384" style="stroke: #000000"/>
     <use xlink:href="#mdbf06ae1f3" x="107.994174" y="70.212865" style="stroke: #000000"/>
     <use xlink:href="#mdbf06ae1f3" x="108.845303" y="72.933972" style="stroke: #000000"/>
     <use xlink:href="#mdbf06ae1f3" x="109.696432" y="75.261249" style="stroke: #000000"/>
     <use xlink:href="#mdbf06ae1f3" x="110.547561" y="75.037643" style="stroke: #000000"/>
     <use xlink:href="#mdbf06ae1f3" x="111.398689" y="72.901343" style="stroke: #000000"/>
     <use xlink:href="#mdbf06ae1f3" x="112.249818" y="64.788375" style="stroke: #000000"/>
     <use xlink:href="#mdbf06ae1f3" x="113.100947" y="61.152554" style="stroke: #000000"/>
     <use xlink:href="#mdbf06ae1f3" x="113.952076" y="61.449161" style="stroke: #000000"/>
     <use xlink:href="#mdbf06ae1f3" x="114.803204" y="56.032554" style="stroke: #000000"/>
     <use xlink:href="#mdbf06ae1f3" x="115.654333" y="58.11735" style="stroke: #000000"/>
     <use xlink:href="#mdbf06ae1f3" x="116.505462" y="59.384583" style="stroke: #000000"/>
     <use xlink:href="#mdbf06ae1f3" x="117.356591" y="62.047745" style="stroke: #000000"/>
     <use xlink:href="#mdbf06ae1f3" x="118.207719" y="64.297971" style="stroke: #000000"/>
     <use xlink:href="#mdbf06ae1f3" x="119.058848" y="66.488672" style="stroke: #000000"/>
     <use xlink:href="#mdbf06ae1f3" x="119.909977" y="71.181138" style="stroke: #000000"/>
     <use xlink:href="#mdbf06ae1f3" x="120.761105" y="72.272856" style="stroke: #000000"/>
     <use xlink:href="#mdbf06ae1f3" x="121.612234" y="74.734091" style="stroke: #000000"/>
     <use xlink:href="#mdbf06ae1f3" x="122.463363" y="68.746939" style="stroke: #000000"/>
     <use xlink:href="#mdbf06ae1f3" x="123.314492" y="69.1973" style="stroke: #000000"/>
     <use xlink:href="#mdbf06ae1f3" x="124.16562" y="66.73242" style="stroke: #000000"/>
     <use xlink:href="#mdbf06ae1f3" x="125.016749" y="59.8383" style="stroke: #000000"/>
     <use xlink:href="#mdbf06ae1f3" x="125.867878" y="57.690157" style="stroke: #000000"/>
     <use xlink:href="#mdbf06ae1f3" x="126.719007" y="58.350066" style="stroke: #000000"/>
     <use xlink:href="#mdbf06ae1f3" x="127.570135" y="59.345069" style="stroke: #000000"/>
     <use xlink:href="#mdbf06ae1f3" x="128.421264" y="58.234016" style="stroke: #000000"/>
     <use xlink:href="#mdbf06ae1f3" x="129.272393" y="66.026953" style="stroke: #000000"/>
     <use xlink:href="#mdbf06ae1f3" x="130.123522" y="66.250863" style="stroke: #000000"/>
     <use xlink:href="#mdbf06ae1f3" x="130.97465" y="72.933192" style="stroke: #000000"/>
     <use xlink:href="#mdbf06ae1f3" x="131.825779" y="77.127408" style="stroke: #000000"/>
     <use xlink:href="#mdbf06ae1f3" x="132.676908" y="71.779355" style="stroke: #000000"/>
     <use xlink:href="#mdbf06ae1f3" x="133.528037" y="71.798803" style="stroke: #000000"/>
     <use xlink:href="#mdbf06ae1f3" x="134.379165" y="69.941072" style="stroke: #000000"/>
     <use xlink:href="#mdbf06ae1f3" x="135.230294" y="68.510062" style="stroke: #000000"/>
     <use xlink:href="#mdbf06ae1f3" x="136.081423" y="63.818711" style="stroke: #000000"/>
     <use xlink:href="#mdbf06ae1f3" x="136.932551" y="59.525802" style="stroke: #000000"/>
     <use xlink:href="#mdbf06ae1f3" x="137.78368" y="59.896454" style="stroke: #000000"/>
     <use xlink:href="#mdbf06ae1f3" x="138.634809" y="57.277586" style="stroke: #000000"/>
     <use xlink:href="#mdbf06ae1f3" x="139.485938" y="58.208101" style="stroke: #000000"/>
     <use xlink:href="#mdbf06ae1f3" x="140.337066" y="63.302583" style="stroke: #000000"/>
     <use xlink:href="#mdbf06ae1f3" x="141.188195" y="67.078093" style="stroke: #000000"/>
     <use xlink:href="#mdbf06ae1f3" x="142.039324" y="70.17767" style="stroke: #000000"/>
     <use xlink:href="#mdbf06ae1f3" x="142.890453" y="72.213685" style="stroke: #000000"/>
     <use xlink:href="#mdbf06ae1f3" x="143.741581" y="73.189796" style="stroke: #000000"/>
     <use xlink:href="#mdbf06ae1f3" x="144.59271" y="72.41157" style="stroke: #000000"/>
     <use xlink:href="#mdbf06ae1f3" x="145.443839" y="74.922576" style="stroke: #000000"/>
     <use xlink:href="#mdbf06ae1f3" x="146.294968" y="69.275301" style="stroke: #000000"/>
     <use xlink:href="#mdbf06ae1f3" x="147.146096" y="65.582866" style="stroke: #000000"/>
     <use xlink:href="#mdbf06ae1f3" x="147.997225" y="61.838933" style="stroke: #000000"/>
     <use xlink:href="#mdbf06ae1f3" x="148.848354" y="54.693643" style="stroke: #000000"/>
     <use xlink:href="#mdbf06ae1f3" x="149.699483" y="58.1555" style="stroke: #000000"/>
     <use xlink:href="#mdbf06ae1f3" x="150.550611" y="60.04336" style="stroke: #000000"/>
     <use xlink:href="#mdbf06ae1f3" x="151.40174" y="60.324162" style="stroke: #000000"/>
     <use xlink:href="#mdbf06ae1f3" x="152.252869" y="65.62181" style="stroke: #000000"/>
     <use xlink:href="#mdbf06ae1f3" x="153.103997" y="69.401389" style="stroke: #000000"/>
     <use xlink:href="#mdbf06ae1f3" x="153.955126" y="72.400188" style="stroke: #000000"/>
     <use xlink:href="#mdbf06ae1f3" x="154.806255" y="72.547527" style="stroke: #000000"/>
     <use xlink:href="#mdbf06ae1f3" x="155.657384" y="75.79232" style="stroke: #000000"/>
     <use xlink:href="#mdbf06ae1f3" x="156.508512" y="74.178121" style="stroke: #000000"/>
     <use xlink:href="#mdbf06ae1f3" x="157.359641" y="71.692658" style="stroke: #000000"/>
     <use xlink:href="#mdbf06ae1f3" x="158.21077" y="71.348236" style="stroke: #000000"/>
     <use xlink:href="#mdbf06ae1f3" x="159.061899" y="61.325105" style="stroke: #000000"/>
     <use xlink:href="#mdbf06ae1f3" x="159.913027" y="60.433503" style="stroke: #000000"/>
     <use xlink:href="#mdbf06ae1f3" x="160.764156" y="56.357541" style="stroke: #000000"/>
     <use xlink:href="#mdbf06ae1f3" x="161.615285" y="56.047644" style="stroke: #000000"/>
     <use xlink:href="#mdbf06ae1f3" x="162.466414" y="58.857833" style="stroke: #000000"/>
     <use xlink:href="#mdbf06ae1f3" x="163.317542" y="60.962713" style="stroke: #000000"/>
     <use xlink:href="#mdbf06ae1f3" x="164.168671" y="66.256792" style="stroke: #000000"/>
     <use xlink:href="#mdbf06ae1f3" x="165.0198" y="69.871848" style="stroke: #000000"/>
     <use xlink:href="#mdbf06ae1f3" x="165.870929" y="73.516583" style="stroke: #000000"/>
     <use xlink:href="#mdbf06ae1f3" x="166.722057" y="75.436897" style="stroke: #000000"/>
     <use xlink:href="#mdbf06ae1f3" x="167.573186" y="69.729035" style="stroke: #000000"/>
     <use xlink:href="#mdbf06ae1f3" x="168.424315" y="72.108577" style="stroke: #000000"/>
     <use xlink:href="#mdbf06ae1f3" x="169.275443" y="71.292033" style="stroke: #000000"/>
     <use xlink:href="#mdbf06ae1f3" x="170.126572" y="69.877325" style="stroke: #000000"/>
     <use xlink:href="#mdbf06ae1f3" x="170.977701" y="62.846671" style="stroke: #000000"/>
     <use xlink:href="#mdbf06ae1f3" x="171.82883" y="60.1598" style="stroke: #000000"/>
     <use xlink:href="#mdbf06ae1f3" x="172.679958" y="55.727808" style="stroke: #000000"/>
     <use xlink:href="#mdbf06ae1f3" x="173.531087" y="60.411285" style="stroke: #000000"/>
     <use xlink:href="#mdbf06ae1f3" x="174.382216" y="59.082317" style="stroke: #000000"/>
    </g>
   </g>
   <g id="patch_6">
    <path d="M 41.223125 79.272 
L 41.223125 46.512 
" style="fill: none; stroke: #000000; stroke-width: 1.5; stroke-linejoin: miter; stroke-linecap: square"/>
   </g>
   <g id="patch_7">
    <path d="M 41.223125 79.272 
L 180.723125 79.272 
" style="fill: none; stroke: #000000; stroke-width: 1.5; stroke-linejoin: miter; stroke-linecap: square"/>
   </g>
  </g>
 </g>
 <defs>
  <clipPath id="p39b838db0a">
   <rect x="41.223125" y="7.2" width="139.5" height="32.76"/>
  </clipPath>
  <clipPath id="p6f6778ec6b">
   <rect x="41.223125" y="46.512" width="139.5" height="32.76"/>
  </clipPath>
 </defs>
</svg>
