<?xml version="1.0" encoding="utf-8" standalone="no"?>
<!DOCTYPE svg PUBLIC "-//W3C//DTD SVG 1.1//EN"
  "http://www.w3.org/Graphics/SVG/1.1/DTD/svg11.dtd">
<svg xmlns:xlink="http://www.w3.org/1999/xlink" width="112.311875pt" height="114.100625pt" viewBox="0 0 112.311875 114.100625" xmlns="http://www.w3.org/2000/svg" version="1.1">
 <metadata>
  <rdf:RDF xmlns:dc="http://purl.org/dc/elements/1.1/" xmlns:cc="http://creativecommons.org/ns#" xmlns:rdf="http://www.w3.org/1999/02/22-rdf-syntax-ns#">
   <cc:Work>
    <dc:type rdf:resource="http://purl.org/dc/dcmitype/StillImage"/>
    <dc:date>2025-04-06T18:18:08.716707</dc:date>
    <dc:format>image/svg+xml</dc:format>
    <dc:creator>
     <cc:Agent>
      <dc:title>Matplotlib v3.10.0, https://matplotlib.org/</dc:title>
     </cc:Agent>
    </dc:creator>
   </cc:Work>
  </rdf:RDF>
 </metadata>
 <defs>
  <style type="text/css">*{stroke-linejoin: round; stroke-linecap: butt}</style>
 </defs>
 <g id="figure_1">
  <g id="patch_1">
   <path d="M 0 114.100625 
L 112.311875 114.100625 
L 112.311875 0 
L 0 0 
L 0 114.100625 
z
" style="fill: none"/>
  </g>
  <g id="axes_1">
   <g id="patch_2">
    <path d="M 32.223125 78.48 
L 88.023125 78.48 
L 88.023125 23.04 
L 32.223125 23.04 
L 32.223125 78.48 
z
" style="fill: none"/>
   </g>
   <g id="matplotlib.axis_1">
    <g id="xtick_1">
     <g id="line2d_1">
      <defs>
       <path id="m04858d0849" d="M 0 0 
L 0 3.5 
" style="stroke: #000000; stroke-width: 1.5"/>
      </defs>
      <g>
       <use xlink:href="#m04858d0849" x="41.523125" y="78.48" style="stroke: #000000; stroke-width: 1.5"/>
      </g>
     </g>
     <g id="text_1">
      <!-- $10^3$ -->
      <g transform="translate(33.603125 92.318594)">
       <text>
        <tspan x="0" y="-0.873438" style="font-size: 9px; font-family: 'DejaVu Sans'">1</tspan>
        <tspan x="5.726074" y="-0.873438" style="font-size: 9px; font-family: 'DejaVu Sans'">0</tspan>
        <tspan x="11.538281" y="-4.31875" style="font-size: 6.3px; font-family: 'DejaVu Sans'">3</tspan>
       </text>
      </g>
     </g>
    </g>
    <g id="xtick_2">
     <g id="line2d_2">
      <g>
       <use xlink:href="#m04858d0849" x="60.123125" y="78.48" style="stroke: #000000; stroke-width: 1.5"/>
      </g>
     </g>
     <g id="text_2">
      <!-- $10^4$ -->
      <g transform="translate(52.203125 92.318594)">
       <text>
        <tspan x="0" y="-0.960938" style="font-size: 9px; font-family: 'DejaVu Sans'">1</tspan>
        <tspan x="5.726074" y="-0.960938" style="font-size: 9px; font-family: 'DejaVu Sans'">0</tspan>
        <tspan x="11.538281" y="-4.40625" style="font-size: 6.3px; font-family: 'DejaVu Sans'">4</tspan>
       </text>
      </g>
     </g>
    </g>
    <g id="xtick_3">
     <g id="line2d_3">
      <g>
       <use xlink:href="#m04858d0849" x="78.723125" y="78.48" style="stroke: #000000; stroke-width: 1.5"/>
      </g>
     </g>
     <g id="text_3">
      <!-- $10^5$ -->
      <g transform="translate(70.803125 92.318594)">
       <text>
        <tspan x="0" y="-0.960938" style="font-size: 9px; font-family: 'DejaVu Sans'">1</tspan>
        <tspan x="5.726074" y="-0.960938" style="font-size: 9px; font-family: 'DejaVu Sans'">0</tspan>
        <tspan x="11.538281" y="-4.40625" style="font-size: 6.3px; font-family: 'DejaVu Sans'">5</tspan>
       </text>
      </g>
     </g>
    </g>
    <g id="text_4">
     <text style="font-size: 9px; font-family: 'Arial', sans-serif; text-anchor: middle" x="60.123125" y="105.028906" transform="rotate(-0 60.123125 105.028906)">Num. sim.</text>
    </g>
   </g>
   <g id="matplotlib.axis_2">
    <g id="ytick_1">
     <g id="line2d_4">
      <defs>
       <path id="m896919c22f" d="M 0 0 
L -3.5 0 
" style="stroke: #000000; stroke-width: 1.5"/>
      </defs>
      <g>
       <use xlink:href="#m896919c22f" x="32.223125" y="78.48" style="stroke: #000000; stroke-width: 1.5"/>
      </g>
     </g>
     <g id="text_5">
      <text style="font-size: 9px; font-family: 'Arial', sans-serif; text-anchor: end" x="25.223125" y="81.899297" transform="rotate(-0 25.223125 81.899297)">0.5</text>
     </g>
    </g>
    <g id="ytick_2">
     <g id="line2d_5">
      <g>
       <use xlink:href="#m896919c22f" x="32.223125" y="23.04" style="stroke: #000000; stroke-width: 1.5"/>
      </g>
     </g>
     <g id="text_6">
      <text style="font-size: 9px; font-family: 'Arial', sans-serif; text-anchor: end" x="25.223125" y="26.459297" transform="rotate(-0 25.223125 26.459297)">1.0</text>
     </g>
    </g>
    <g id="text_7">
     <text style="font-size: 9px; font-family: 'Arial', sans-serif; text-anchor: middle" x="14.038594" y="50.76" transform="rotate(-90 14.038594 50.76)">C2ST</text>
    </g>
   </g>
   <g id="line2d_6">
    <path d="M 41.523125 23.912736 
L 60.123125 27.49405 
L 78.723125 45.814087 
" clip-path="url(#p2be1fba958)" style="fill: none; stroke: #1f77b4; stroke-opacity: 0.7; stroke-width: 2; stroke-linecap: square"/>
    <defs>
     <path id="m6642d5661b" d="M 0 1.25 
C 0.331504 1.25 0.649475 1.118292 0.883883 0.883883 
C 1.118292 0.649475 1.25 0.331504 1.25 0 
C 1.25 -0.331504 1.118292 -0.649475 0.883883 -0.883883 
C 0.649475 -1.118292 0.331504 -1.25 0 -1.25 
C -0.331504 -1.25 -0.649475 -1.118292 -0.883883 -0.883883 
C -1.118292 -0.649475 -1.25 -0.331504 -1.25 0 
C -1.25 0.331504 -1.118292 0.649475 -0.883883 0.883883 
C -0.649475 1.118292 -0.331504 1.25 0 1.25 
z
" style="stroke: #1f77b4; stroke-opacity: 0.7; stroke-width: 1.5"/>
    </defs>
    <g clip-path="url(#p2be1fba958)">
     <use xlink:href="#m6642d5661b" x="41.523125" y="23.912736" style="fill: #1f77b4; fill-opacity: 0.7; stroke: #1f77b4; stroke-opacity: 0.7; stroke-width: 1.5"/>
     <use xlink:href="#m6642d5661b" x="60.123125" y="27.49405" style="fill: #1f77b4; fill-opacity: 0.7; stroke: #1f77b4; stroke-opacity: 0.7; stroke-width: 1.5"/>
     <use xlink:href="#m6642d5661b" x="78.723125" y="45.814087" style="fill: #1f77b4; fill-opacity: 0.7; stroke: #1f77b4; stroke-opacity: 0.7; stroke-width: 1.5"/>
    </g>
   </g>
   <g id="line2d_7">
    <path d="M 41.523125 23.994505 
L 41.523125 23.829022 
" clip-path="url(#p2be1fba958)" style="fill: none; stroke: #1f77b4; stroke-opacity: 0.7; stroke-width: 2; stroke-linecap: square"/>
   </g>
   <g id="line2d_8">
    <path d="M 60.123125 31.263083 
L 60.123125 24.608065 
" clip-path="url(#p2be1fba958)" style="fill: none; stroke: #1f77b4; stroke-opacity: 0.7; stroke-width: 2; stroke-linecap: square"/>
   </g>
   <g id="line2d_9">
    <path d="M 78.723125 46.711439 
L 78.723125 44.844774 
" clip-path="url(#p2be1fba958)" style="fill: none; stroke: #1f77b4; stroke-opacity: 0.7; stroke-width: 2; stroke-linecap: square"/>
   </g>
   <g id="line2d_10">
    <path d="M 41.523125 29.135739 
L 60.123125 36.082704 
L 78.723125 50.972557 
" clip-path="url(#p2be1fba958)" style="fill: none; stroke: #f2a900; stroke-opacity: 0.7; stroke-width: 2; stroke-linecap: square"/>
    <defs>
     <path id="m6f36b5257f" d="M 0 1.25 
C 0.331504 1.25 0.649475 1.118292 0.883883 0.883883 
C 1.118292 0.649475 1.25 0.331504 1.25 0 
C 1.25 -0.331504 1.118292 -0.649475 0.883883 -0.883883 
C 0.649475 -1.118292 0.331504 -1.25 0 -1.25 
C -0.331504 -1.25 -0.649475 -1.118292 -0.883883 -0.883883 
C -1.118292 -0.649475 -1.25 -0.331504 -1.25 0 
C -1.25 0.331504 -1.118292 0.649475 -0.883883 0.883883 
C -0.649475 1.118292 -0.331504 1.25 0 1.25 
z
" style="stroke: #f2a900; stroke-opacity: 0.7; stroke-width: 1.5"/>
    </defs>
    <g clip-path="url(#p2be1fba958)">
     <use xlink:href="#m6f36b5257f" x="41.523125" y="29.135739" style="fill: #f2a900; fill-opacity: 0.7; stroke: #f2a900; stroke-opacity: 0.7; stroke-width: 1.5"/>
     <use xlink:href="#m6f36b5257f" x="60.123125" y="36.082704" style="fill: #f2a900; fill-opacity: 0.7; stroke: #f2a900; stroke-opacity: 0.7; stroke-width: 1.5"/>
     <use xlink:href="#m6f36b5257f" x="78.723125" y="50.972557" style="fill: #f2a900; fill-opacity: 0.7; stroke: #f2a900; stroke-opacity: 0.7; stroke-width: 1.5"/>
    </g>
   </g>
   <g id="line2d_11">
    <path d="M 41.523125 29.558303 
L 41.523125 28.683459 
" clip-path="url(#p2be1fba958)" style="fill: none; stroke: #f2a900; stroke-opacity: 0.7; stroke-width: 2; stroke-linecap: square"/>
   </g>
   <g id="line2d_12">
    <path d="M 60.123125 36.697644 
L 60.123125 35.467763 
" clip-path="url(#p2be1fba958)" style="fill: none; stroke: #f2a900; stroke-opacity: 0.7; stroke-width: 2; stroke-linecap: square"/>
   </g>
   <g id="line2d_13">
    <path d="M 78.723125 51.762136 
L 78.723125 50.220014 
" clip-path="url(#p2be1fba958)" style="fill: none; stroke: #f2a900; stroke-opacity: 0.7; stroke-width: 2; stroke-linecap: square"/>
   </g>
   <g id="line2d_14">
    <path d="M 41.523125 25.860122 
L 60.123125 30.348877 
L 78.723125 35.023134 
" clip-path="url(#p2be1fba958)" style="fill: none; stroke: #d62728; stroke-opacity: 0.7; stroke-width: 2; stroke-linecap: square"/>
    <defs>
     <path id="m8eb82f841c" d="M 0 1.25 
C 0.331504 1.25 0.649475 1.118292 0.883883 0.883883 
C 1.118292 0.649475 1.25 0.331504 1.25 0 
C 1.25 -0.331504 1.118292 -0.649475 0.883883 -0.883883 
C 0.649475 -1.118292 0.331504 -1.25 0 -1.25 
C -0.331504 -1.25 -0.649475 -1.118292 -0.883883 -0.883883 
C -1.118292 -0.649475 -1.25 -0.331504 -1.25 0 
C -1.25 0.331504 -1.118292 0.649475 -0.883883 0.883883 
C -0.649475 1.118292 -0.331504 1.25 0 1.25 
z
" style="stroke: #d62728; stroke-opacity: 0.7; stroke-width: 1.5"/>
    </defs>
    <g clip-path="url(#p2be1fba958)">
     <use xlink:href="#m8eb82f841c" x="41.523125" y="25.860122" style="fill: #d62728; fill-opacity: 0.7; stroke: #d62728; stroke-opacity: 0.7; stroke-width: 1.5"/>
     <use xlink:href="#m8eb82f841c" x="60.123125" y="30.348877" style="fill: #d62728; fill-opacity: 0.7; stroke: #d62728; stroke-opacity: 0.7; stroke-width: 1.5"/>
     <use xlink:href="#m8eb82f841c" x="78.723125" y="35.023134" style="fill: #d62728; fill-opacity: 0.7; stroke: #d62728; stroke-opacity: 0.7; stroke-width: 1.5"/>
    </g>
   </g>
   <g id="line2d_15">
    <path d="M 41.523125 26.541147 
L 41.523125 24.994704 
" clip-path="url(#p2be1fba958)" style="fill: none; stroke: #d62728; stroke-opacity: 0.7; stroke-width: 2; stroke-linecap: square"/>
   </g>
   <g id="line2d_16">
    <path d="M 60.123125 31.149652 
L 60.123125 29.407949 
" clip-path="url(#p2be1fba958)" style="fill: none; stroke: #d62728; stroke-opacity: 0.7; stroke-width: 2; stroke-linecap: square"/>
   </g>
   <g id="line2d_17">
    <path d="M 78.723125 36.313861 
L 78.723125 33.756732 
" clip-path="url(#p2be1fba958)" style="fill: none; stroke: #d62728; stroke-opacity: 0.7; stroke-width: 2; stroke-linecap: square"/>
   </g>
   <g id="line2d_18"/>
   <g id="line2d_19"/>
   <g id="line2d_20"/>
   <g id="patch_3">
    <path d="M 32.223125 78.48 
L 32.223125 23.04 
" style="fill: none; stroke: #000000; stroke-width: 1.5; stroke-linejoin: miter; stroke-linecap: square"/>
   </g>
   <g id="patch_4">
    <path d="M 32.223125 78.48 
L 88.023125 78.48 
" style="fill: none; stroke: #000000; stroke-width: 1.5; stroke-linejoin: miter; stroke-linecap: square"/>
   </g>
  </g>
  <g id="text_8">
   <text style="font-size: 9px; font-family: 'Arial', sans-serif; text-anchor: middle" x="59.223125" y="14.038594" transform="rotate(-0 59.223125 14.038594)">Lotka-Volterra (long)</text>
  </g>
 </g>
 <defs>
  <clipPath id="p2be1fba958">
   <rect x="32.223125" y="23.04" width="55.8" height="55.44"/>
  </clipPath>
 </defs>
</svg>
