<?xml version="1.0" encoding="utf-8" standalone="no"?>
<!DOCTYPE svg PUBLIC "-//W3C//DTD SVG 1.1//EN"
  "http://www.w3.org/Graphics/SVG/1.1/DTD/svg11.dtd">
<svg xmlns:xlink="http://www.w3.org/1999/xlink" width="113.860156pt" height="116.643219pt" viewBox="0 0 113.860156 116.643219" xmlns="http://www.w3.org/2000/svg" version="1.1">
 <metadata>
  <rdf:RDF xmlns:dc="http://purl.org/dc/elements/1.1/" xmlns:cc="http://creativecommons.org/ns#" xmlns:rdf="http://www.w3.org/1999/02/22-rdf-syntax-ns#">
   <cc:Work>
    <dc:type rdf:resource="http://purl.org/dc/dcmitype/StillImage"/>
    <dc:date>2025-04-01T10:13:46.701608</dc:date>
    <dc:format>image/svg+xml</dc:format>
    <dc:creator>
     <cc:Agent>
      <dc:title>Matplotlib v3.10.0, https://matplotlib.org/</dc:title>
     </cc:Agent>
    </dc:creator>
   </cc:Work>
  </rdf:RDF>
 </metadata>
 <defs>
  <style type="text/css">*{stroke-linejoin: round; stroke-linecap: butt}</style>
 </defs>
 <g id="figure_1">
  <g id="patch_1">
   <path d="M 0 116.643219 
L 113.860156 116.643219 
L 113.860156 0 
L 0 0 
z
" style="fill: #ffffff"/>
  </g>
  <g id="axes_1">
   <g id="patch_2">
    <path d="M 41.223125 81.022594 
L 97.023125 81.022594 
L 97.023125 25.582594 
L 41.223125 25.582594 
z
" style="fill: #ffffff"/>
   </g>
   <g id="matplotlib.axis_1">
    <g id="xtick_1">
     <g id="line2d_1">
      <defs>
       <path id="m6a871b071b" d="M 0 0 
L 0 3.5 
" style="stroke: #000000; stroke-width: 1.5"/>
      </defs>
      <g>
       <use xlink:href="#m6a871b071b" x="41.223125" y="81.022594" style="stroke: #000000; stroke-width: 1.5"/>
      </g>
     </g>
     <g id="text_1">
      <text style="font-size: 9px; font-family: 'Arial', sans-serif; text-anchor: middle" x="41.223125" y="94.861188" transform="rotate(-0 41.223125 94.861188)">0.0</text>
     </g>
    </g>
    <g id="xtick_2">
     <g id="line2d_2">
      <g>
       <use xlink:href="#m6a871b071b" x="97.023125" y="81.022594" style="stroke: #000000; stroke-width: 1.5"/>
      </g>
     </g>
     <g id="text_2">
      <text style="font-size: 9px; font-family: 'Arial', sans-serif; text-anchor: middle" x="97.023125" y="94.861188" transform="rotate(-0 97.023125 94.861188)">1.0</text>
     </g>
    </g>
    <g id="text_3">
     <!-- $\alpha$ -->
     <g transform="translate(66.153125 107.5715)">
      <text>
       <tspan x="0" y="-0.96875" style="font-size: 9px; font-family: 'DejaVu Sans'">α</tspan>
      </text>
     </g>
    </g>
   </g>
   <g id="matplotlib.axis_2">
    <g id="ytick_1">
     <g id="line2d_3">
      <defs>
       <path id="m9f6afb6bf0" d="M 0 0 
L -3.5 0 
" style="stroke: #000000; stroke-width: 1.5"/>
      </defs>
      <g>
       <use xlink:href="#m9f6afb6bf0" x="41.223125" y="81.022594" style="stroke: #000000; stroke-width: 1.5"/>
      </g>
     </g>
     <g id="text_4">
      <text style="font-size: 9px; font-family: 'Arial', sans-serif; text-anchor: end" x="34.223125" y="84.441891" transform="rotate(-0 34.223125 84.441891)">0.0</text>
     </g>
    </g>
    <g id="ytick_2">
     <g id="line2d_4">
      <g>
       <use xlink:href="#m9f6afb6bf0" x="41.223125" y="25.582594" style="stroke: #000000; stroke-width: 1.5"/>
      </g>
     </g>
     <g id="text_5">
      <text style="font-size: 9px; font-family: 'Arial', sans-serif; text-anchor: end" x="34.223125" y="29.001891" transform="rotate(-0 34.223125 29.001891)">1.0</text>
     </g>
    </g>
    <g id="text_6">
     <text style="font-size: 9px; font-family: 'Arial', sans-serif; text-anchor: middle" x="14.038594" y="53.302594" transform="rotate(-90 14.038594 53.302594)">ECP</text>
    </g>
   </g>
   <g id="line2d_5">
    <path d="M 41.223125 81.022594 
L 43.083125 67.606114 
L 44.943125 63.836194 
L 46.803125 60.953314 
L 48.663125 56.573554 
L 50.523125 54.355954 
L 52.383125 51.861154 
L 54.243125 50.031634 
L 56.103125 48.312994 
L 57.963125 46.705234 
L 59.823125 44.820274 
L 61.683125 43.600594 
L 63.543125 41.937394 
L 65.403125 40.495954 
L 67.263125 39.719794 
L 69.123125 38.721874 
L 70.983125 37.668514 
L 72.843125 36.448834 
L 74.703125 35.450914 
L 76.563125 34.563874 
L 78.423125 34.064914 
L 80.283125 33.344194 
L 82.143125 32.568034 
L 84.003125 31.625554 
L 85.863125 30.683074 
L 87.723125 29.629714 
L 89.583125 28.853554 
L 91.443125 28.021954 
L 93.303125 26.968594 
L 95.163125 26.192434 
L 97.023125 25.582594 
" clip-path="url(#p59eb22ba18)" style="fill: none; stroke: #d62728; stroke-opacity: 0.4; stroke-width: 1.5; stroke-linecap: square"/>
   </g>
   <g id="line2d_6">
    <path d="M 41.223125 81.022594 
L 43.083125 67.827874 
L 44.943125 64.168834 
L 46.803125 61.175074 
L 48.663125 57.904114 
L 50.523125 55.686514 
L 52.383125 54.134194 
L 54.243125 51.750274 
L 56.103125 50.142514 
L 57.963125 48.368434 
L 59.823125 45.873634 
L 61.683125 44.487634 
L 63.543125 42.824434 
L 65.403125 41.327554 
L 67.263125 40.440514 
L 69.123125 39.165394 
L 70.983125 37.557634 
L 72.843125 36.670594 
L 74.703125 35.783554 
L 76.563125 34.175794 
L 78.423125 33.510514 
L 80.283125 32.512594 
L 82.143125 31.403794 
L 84.003125 30.738514 
L 85.863125 30.017794 
L 87.723125 29.241634 
L 89.583125 28.576354 
L 91.443125 27.633874 
L 93.303125 26.691394 
L 95.163125 26.303314 
L 97.023125 25.582594 
" clip-path="url(#p59eb22ba18)" style="fill: none; stroke: #d62728; stroke-opacity: 0.4; stroke-width: 1.5; stroke-linecap: square"/>
   </g>
   <g id="line2d_7">
    <path d="M 41.223125 81.022594 
L 43.083125 67.827874 
L 44.943125 63.669874 
L 46.803125 60.897874 
L 48.663125 56.296354 
L 50.523125 54.245074 
L 52.383125 52.249234 
L 54.243125 50.142514 
L 56.103125 48.312994 
L 57.963125 46.982434 
L 59.823125 44.875714 
L 61.683125 43.822354 
L 63.543125 42.214594 
L 65.403125 40.551394 
L 67.263125 39.331714 
L 69.123125 38.610994 
L 70.983125 37.224994 
L 72.843125 36.116194 
L 74.703125 35.506354 
L 76.563125 34.674754 
L 78.423125 33.898594 
L 80.283125 33.344194 
L 82.143125 32.401714 
L 84.003125 31.625554 
L 85.863125 30.904834 
L 87.723125 29.463394 
L 89.583125 28.798114 
L 91.443125 28.077394 
L 93.303125 27.079474 
L 95.163125 26.303314 
L 97.023125 25.582594 
" clip-path="url(#p59eb22ba18)" style="fill: none; stroke: #d62728; stroke-opacity: 0.4; stroke-width: 1.5; stroke-linecap: square"/>
   </g>
   <g id="line2d_8">
    <path d="M 41.223125 81.022594 
L 43.083125 65.832034 
L 44.943125 60.454354 
L 46.803125 56.628994 
L 48.663125 52.859074 
L 50.523125 50.308834 
L 52.383125 48.590194 
L 54.243125 46.428034 
L 56.103125 44.543074 
L 57.963125 43.323394 
L 59.823125 41.771074 
L 61.683125 40.939474 
L 63.543125 39.387154 
L 65.403125 37.779394 
L 67.263125 36.781474 
L 69.123125 36.005314 
L 70.983125 35.007394 
L 72.843125 34.064914 
L 74.703125 33.399634 
L 76.563125 32.179954 
L 78.423125 31.514674 
L 80.283125 30.849394 
L 82.143125 29.851474 
L 84.003125 29.075314 
L 85.863125 28.742674 
L 87.723125 28.188274 
L 89.583125 27.800194 
L 91.443125 27.134914 
L 93.303125 26.469634 
L 95.163125 25.915234 
L 97.023125 25.582594 
" clip-path="url(#p59eb22ba18)" style="fill: none; stroke: #d62728; stroke-opacity: 0.4; stroke-width: 1.5; stroke-linecap: square"/>
   </g>
   <g id="line2d_9">
    <path d="M 41.223125 81.022594 
L 43.083125 70.544434 
L 44.943125 67.162594 
L 46.803125 64.390594 
L 48.663125 60.842434 
L 50.523125 58.680274 
L 52.383125 57.072514 
L 54.243125 53.468914 
L 56.103125 52.304674 
L 57.963125 50.696914 
L 59.823125 48.701074 
L 61.683125 46.649794 
L 63.543125 45.485554 
L 65.403125 43.822354 
L 67.263125 41.992834 
L 69.123125 40.662274 
L 70.983125 39.553474 
L 72.843125 38.001154 
L 74.703125 37.003234 
L 76.563125 35.894434 
L 78.423125 34.896514 
L 80.283125 34.009474 
L 82.143125 33.011554 
L 84.003125 32.013634 
L 85.863125 30.627634 
L 87.723125 29.518834 
L 89.583125 28.853554 
L 91.443125 27.412114 
L 93.303125 27.079474 
L 95.163125 26.247874 
L 97.023125 25.582594 
" clip-path="url(#p59eb22ba18)" style="fill: none; stroke: #d62728; stroke-opacity: 0.4; stroke-width: 1.5; stroke-linecap: square"/>
   </g>
   <g id="line2d_10">
    <path d="M 41.223125 81.022594 
L 43.083125 73.316434 
L 44.943125 70.322674 
L 46.803125 67.827874 
L 48.663125 64.390594 
L 50.523125 62.283874 
L 52.383125 60.620674 
L 54.243125 58.014994 
L 56.103125 56.462674 
L 57.963125 54.577714 
L 59.823125 52.748194 
L 61.683125 51.362194 
L 63.543125 49.809874 
L 65.403125 48.257554 
L 67.263125 46.428034 
L 69.123125 45.097474 
L 70.983125 43.157074 
L 72.843125 41.382994 
L 74.703125 40.163314 
L 76.563125 38.555554 
L 78.423125 37.779394 
L 80.283125 36.504274 
L 82.143125 34.896514 
L 84.003125 33.732274 
L 85.863125 32.623474 
L 87.723125 31.292914 
L 89.583125 29.851474 
L 91.443125 28.798114 
L 93.303125 27.522994 
L 95.163125 26.414194 
L 97.023125 25.582594 
" clip-path="url(#p59eb22ba18)" style="fill: none; stroke: #d62728; stroke-opacity: 0.4; stroke-width: 1.5; stroke-linecap: square"/>
   </g>
   <g id="line2d_11">
    <path d="M 41.223125 81.022594 
L 43.083125 72.651154 
L 44.943125 69.269314 
L 46.803125 66.719074 
L 48.663125 64.224274 
L 50.523125 62.283874 
L 52.383125 59.844514 
L 54.243125 57.848674 
L 56.103125 56.296354 
L 57.963125 54.411394 
L 59.823125 52.581874 
L 61.683125 50.974114 
L 63.543125 49.033714 
L 65.403125 47.315074 
L 67.263125 45.929074 
L 69.123125 44.376754 
L 70.983125 42.658114 
L 72.843125 41.604754 
L 74.703125 40.274194 
L 76.563125 38.999074 
L 78.423125 37.834834 
L 80.283125 36.337954 
L 82.143125 34.674754 
L 84.003125 33.676834 
L 85.863125 32.734354 
L 87.723125 31.459234 
L 89.583125 30.184114 
L 91.443125 28.964434 
L 93.303125 27.467554 
L 95.163125 26.746834 
L 97.023125 25.582594 
" clip-path="url(#p59eb22ba18)" style="fill: none; stroke: #d62728; stroke-opacity: 0.4; stroke-width: 1.5; stroke-linecap: square"/>
   </g>
   <g id="line2d_12">
    <path d="M 41.223125 77.658346 
L 41.786761 76.296658 
L 42.350398 74.81929 
L 42.914034 73.237378 
L 43.47767 71.567626 
L 44.041307 69.810034 
L 44.604943 67.962346 
L 45.16858 66.357298 
L 45.732216 64.99489 
L 46.295852 63.875122 
L 46.859489 62.867362 
L 47.423125 61.909282 
L 47.986761 61.000882 
L 48.550398 60.134866 
L 49.114034 59.29837 
L 49.67767 58.491394 
L 50.241307 57.71341 
L 50.804943 56.973586 
L 51.36858 56.271922 
L 51.932216 55.608418 
L 52.495852 54.968506 
L 53.059489 54.345634 
L 53.623125 53.739802 
L 54.186761 53.14717 
L 54.750398 52.563898 
L 55.314034 51.989986 
L 55.87767 51.425122 
L 56.441307 50.873218 
L 57.004943 50.334274 
L 57.56858 49.80829 
L 58.132216 49.292314 
L 58.695852 48.784018 
L 59.259489 48.283402 
L 59.823125 47.785594 
L 60.386761 47.288506 
L 60.950398 46.792138 
L 61.514034 46.299586 
L 62.07767 45.818074 
L 62.641307 45.347602 
L 63.204943 44.88913 
L 63.76858 44.433298 
L 64.332216 43.980106 
L 64.895852 43.529554 
L 65.459489 43.089778 
L 66.023125 42.663682 
L 66.586761 42.251266 
L 67.150398 41.84857 
L 67.714034 41.451634 
L 68.27767 41.060458 
L 68.841307 40.675186 
L 69.404943 40.291594 
L 69.96858 39.909682 
L 70.532216 39.52945 
L 71.095852 39.154762 
L 71.659489 38.785594 
L 72.223125 38.421946 
L 72.786761 38.063026 
L 73.350398 37.709626 
L 73.914034 37.361746 
L 74.47767 37.02217 
L 75.041307 36.695554 
L 75.604943 36.381898 
L 76.16858 36.081202 
L 76.732216 35.781778 
L 77.295852 35.482834 
L 77.859489 35.18437 
L 78.423125 34.886602 
L 78.986761 34.590754 
L 79.550398 34.296826 
L 80.114034 34.004002 
L 80.67767 33.707818 
L 81.241307 33.408274 
L 81.804943 33.105442 
L 82.36858 32.80453 
L 82.932216 32.505538 
L 83.495852 32.208466 
L 84.059489 31.91305 
L 84.623125 31.620034 
L 85.186761 31.329418 
L 85.750398 31.04173 
L 86.314034 30.755962 
L 86.87767 30.472114 
L 87.441307 30.18925 
L 88.004943 29.903266 
L 88.56858 29.614162 
L 89.132216 29.321938 
L 89.695852 29.031826 
L 90.259489 28.745074 
L 90.823125 28.461682 
L 91.386761 28.182226 
L 91.950398 27.90589 
L 92.514034 27.632674 
L 93.07767 27.363586 
L 93.641307 27.102418 
L 94.204943 26.84917 
L 94.76858 26.603842 
L 95.332216 26.387842 
L 95.895852 26.201122 
L 96.459489 26.043682 
L 97.023125 25.911346 
" clip-path="url(#p59eb22ba18)" style="fill: none; stroke: #d62728; stroke-width: 2; stroke-linecap: square"/>
   </g>
   <g id="line2d_13">
    <path d="M 41.223125 81.022594 
L 41.786761 80.462594 
L 42.350398 79.902594 
L 42.914034 79.342594 
L 43.47767 78.782594 
L 44.041307 78.222594 
L 44.604943 77.662594 
L 45.16858 77.102594 
L 45.732216 76.542594 
L 46.295852 75.982594 
L 46.859489 75.422594 
L 47.423125 74.862594 
L 47.986761 74.302594 
L 48.550398 73.742594 
L 49.114034 73.182594 
L 49.67767 72.622594 
L 50.241307 72.062594 
L 50.804943 71.502594 
L 51.36858 70.942594 
L 51.932216 70.382594 
L 52.495852 69.822594 
L 53.059489 69.262594 
L 53.623125 68.702594 
L 54.186761 68.142594 
L 54.750398 67.582594 
L 55.314034 67.022594 
L 55.87767 66.462594 
L 56.441307 65.902594 
L 57.004943 65.342594 
L 57.56858 64.782594 
L 58.132216 64.222594 
L 58.695852 63.662594 
L 59.259489 63.102594 
L 59.823125 62.542594 
L 60.386761 61.982594 
L 60.950398 61.422594 
L 61.514034 60.862594 
L 62.07767 60.302594 
L 62.641307 59.742594 
L 63.204943 59.182594 
L 63.76858 58.622594 
L 64.332216 58.062594 
L 64.895852 57.502594 
L 65.459489 56.942594 
L 66.023125 56.382594 
L 66.586761 55.822594 
L 67.150398 55.262594 
L 67.714034 54.702594 
L 68.27767 54.142594 
L 68.841307 53.582594 
L 69.404943 53.022594 
L 69.96858 52.462594 
L 70.532216 51.902594 
L 71.095852 51.342594 
L 71.659489 50.782594 
L 72.223125 50.222594 
L 72.786761 49.662594 
L 73.350398 49.102594 
L 73.914034 48.542594 
L 74.47767 47.982594 
L 75.041307 47.422594 
L 75.604943 46.862594 
L 76.16858 46.302594 
L 76.732216 45.742594 
L 77.295852 45.182594 
L 77.859489 44.622594 
L 78.423125 44.062594 
L 78.986761 43.502594 
L 79.550398 42.942594 
L 80.114034 42.382594 
L 80.67767 41.822594 
L 81.241307 41.262594 
L 81.804943 40.702594 
L 82.36858 40.142594 
L 82.932216 39.582594 
L 83.495852 39.022594 
L 84.059489 38.462594 
L 84.623125 37.902594 
L 85.186761 37.342594 
L 85.750398 36.782594 
L 86.314034 36.222594 
L 86.87767 35.662594 
L 87.441307 35.102594 
L 88.004943 34.542594 
L 88.56858 33.982594 
L 89.132216 33.422594 
L 89.695852 32.862594 
L 90.259489 32.302594 
L 90.823125 31.742594 
L 91.386761 31.182594 
L 91.950398 30.622594 
L 92.514034 30.062594 
L 93.07767 29.502594 
L 93.641307 28.942594 
L 94.204943 28.382594 
L 94.76858 27.822594 
L 95.332216 27.262594 
L 95.895852 26.702594 
L 96.459489 26.142594 
L 97.023125 25.582594 
" clip-path="url(#p59eb22ba18)" style="fill: none; stroke-dasharray: 5.55,2.4; stroke-dashoffset: 0; stroke: #000000; stroke-opacity: 0.25; stroke-width: 1.5"/>
   </g>
   <g id="patch_3">
    <path d="M 41.223125 81.022594 
L 41.223125 25.582594 
" style="fill: none; stroke: #000000; stroke-width: 1.5; stroke-linejoin: miter; stroke-linecap: square"/>
   </g>
   <g id="patch_4">
    <path d="M 41.223125 81.022594 
L 97.023125 81.022594 
" style="fill: none; stroke: #000000; stroke-width: 1.5; stroke-linejoin: miter; stroke-linecap: square"/>
   </g>
   <g id="text_7">
    <text style="font-size: 9px; font-family: 'Arial', sans-serif; text-anchor: middle" x="69.123125" y="14.038594" transform="rotate(-0 69.123125 14.038594)">TabPFN (1k sim.)</text>
   </g>
  </g>
 </g>
 <defs>
  <clipPath id="p59eb22ba18">
   <rect x="41.223125" y="25.582594" width="55.8" height="55.44"/>
  </clipPath>
 </defs>
</svg>
