<?xml version="1.0" encoding="utf-8" standalone="no"?>
<!DOCTYPE svg PUBLIC "-//W3C//DTD SVG 1.1//EN"
  "http://www.w3.org/Graphics/SVG/1.1/DTD/svg11.dtd">
<svg xmlns:xlink="http://www.w3.org/1999/xlink" width="119.586406pt" height="116.643219pt" viewBox="0 0 119.586406 116.643219" xmlns="http://www.w3.org/2000/svg" version="1.1">
 <metadata>
  <rdf:RDF xmlns:dc="http://purl.org/dc/elements/1.1/" xmlns:cc="http://creativecommons.org/ns#" xmlns:rdf="http://www.w3.org/1999/02/22-rdf-syntax-ns#">
   <cc:Work>
    <dc:type rdf:resource="http://purl.org/dc/dcmitype/StillImage"/>
    <dc:date>2025-04-01T10:13:48.672729</dc:date>
    <dc:format>image/svg+xml</dc:format>
    <dc:creator>
     <cc:Agent>
      <dc:title>Matplotlib v3.10.0, https://matplotlib.org/</dc:title>
     </cc:Agent>
    </dc:creator>
   </cc:Work>
  </rdf:RDF>
 </metadata>
 <defs>
  <style type="text/css">*{stroke-linejoin: round; stroke-linecap: butt}</style>
 </defs>
 <g id="figure_1">
  <g id="patch_1">
   <path d="M 0 116.643219 
L 119.586406 116.643219 
L 119.586406 0 
L 0 0 
z
" style="fill: #ffffff"/>
  </g>
  <g id="axes_1">
   <g id="patch_2">
    <path d="M 41.223125 81.022594 
L 97.023125 81.022594 
L 97.023125 25.582594 
L 41.223125 25.582594 
z
" style="fill: #ffffff"/>
   </g>
   <g id="matplotlib.axis_1">
    <g id="xtick_1">
     <g id="line2d_1">
      <defs>
       <path id="m2bc089ac09" d="M 0 0 
L 0 3.5 
" style="stroke: #000000; stroke-width: 1.5"/>
      </defs>
      <g>
       <use xlink:href="#m2bc089ac09" x="41.223125" y="81.022594" style="stroke: #000000; stroke-width: 1.5"/>
      </g>
     </g>
     <g id="text_1">
      <text style="font-size: 9px; font-family: 'Arial', sans-serif; text-anchor: middle" x="41.223125" y="94.861188" transform="rotate(-0 41.223125 94.861188)">0.0</text>
     </g>
    </g>
    <g id="xtick_2">
     <g id="line2d_2">
      <g>
       <use xlink:href="#m2bc089ac09" x="97.023125" y="81.022594" style="stroke: #000000; stroke-width: 1.5"/>
      </g>
     </g>
     <g id="text_2">
      <text style="font-size: 9px; font-family: 'Arial', sans-serif; text-anchor: middle" x="97.023125" y="94.861188" transform="rotate(-0 97.023125 94.861188)">1.0</text>
     </g>
    </g>
    <g id="text_3">
     <!-- $\alpha$ -->
     <g transform="translate(66.153125 107.5715)">
      <text>
       <tspan x="0" y="-0.96875" style="font-size: 9px; font-family: 'DejaVu Sans'">α</tspan>
      </text>
     </g>
    </g>
   </g>
   <g id="matplotlib.axis_2">
    <g id="ytick_1">
     <g id="line2d_3">
      <defs>
       <path id="mc32df009da" d="M 0 0 
L -3.5 0 
" style="stroke: #000000; stroke-width: 1.5"/>
      </defs>
      <g>
       <use xlink:href="#mc32df009da" x="41.223125" y="81.022594" style="stroke: #000000; stroke-width: 1.5"/>
      </g>
     </g>
     <g id="text_4">
      <text style="font-size: 9px; font-family: 'Arial', sans-serif; text-anchor: end" x="34.223125" y="84.441891" transform="rotate(-0 34.223125 84.441891)">0.0</text>
     </g>
    </g>
    <g id="ytick_2">
     <g id="line2d_4">
      <g>
       <use xlink:href="#mc32df009da" x="41.223125" y="25.582594" style="stroke: #000000; stroke-width: 1.5"/>
      </g>
     </g>
     <g id="text_5">
      <text style="font-size: 9px; font-family: 'Arial', sans-serif; text-anchor: end" x="34.223125" y="29.001891" transform="rotate(-0 34.223125 29.001891)">1.0</text>
     </g>
    </g>
    <g id="text_6">
     <text style="font-size: 9px; font-family: 'Arial', sans-serif; text-anchor: middle" x="14.038594" y="53.302594" transform="rotate(-90 14.038594 53.302594)">ECP</text>
    </g>
   </g>
   <g id="line2d_5">
    <path d="M 41.223125 81.022594 
L 43.083125 76.476514 
L 44.943125 74.092594 
L 46.803125 72.041314 
L 48.663125 69.269314 
L 50.523125 67.162594 
L 52.383125 65.055874 
L 54.243125 62.394754 
L 56.103125 60.454354 
L 57.963125 58.846594 
L 59.823125 56.850754 
L 61.683125 54.910354 
L 63.543125 53.358034 
L 65.403125 51.583954 
L 67.263125 49.809874 
L 69.123125 48.368434 
L 70.983125 46.317154 
L 72.843125 45.152914 
L 74.703125 43.656034 
L 76.563125 42.048274 
L 78.423125 40.606834 
L 80.283125 39.442594 
L 82.143125 37.502194 
L 84.003125 36.171634 
L 85.863125 34.619314 
L 87.723125 33.233314 
L 89.583125 32.069074 
L 91.443125 30.128674 
L 93.303125 28.021954 
L 95.163125 26.913154 
L 97.023125 25.582594 
" clip-path="url(#p781ffaf849)" style="fill: none; stroke: #d62728; stroke-opacity: 0.4; stroke-width: 1.5; stroke-linecap: square"/>
   </g>
   <g id="line2d_6">
    <path d="M 41.223125 81.022594 
L 43.083125 75.922114 
L 44.943125 73.593634 
L 46.803125 71.930434 
L 48.663125 69.823714 
L 50.523125 67.550674 
L 52.383125 65.776594 
L 54.243125 63.558994 
L 56.103125 61.396834 
L 57.963125 59.622754 
L 59.823125 57.349714 
L 61.683125 55.686514 
L 63.543125 53.856994 
L 65.403125 51.972034 
L 67.263125 50.586034 
L 69.123125 49.477234 
L 70.983125 47.093314 
L 72.843125 45.984514 
L 74.703125 44.653954 
L 76.563125 43.323394 
L 78.423125 41.493874 
L 80.283125 40.163314 
L 82.143125 38.389234 
L 84.003125 36.892354 
L 85.863125 35.062834 
L 87.723125 33.066994 
L 89.583125 32.069074 
L 91.443125 30.793954 
L 93.303125 28.742674 
L 95.163125 27.578434 
L 97.023125 25.582594 
" clip-path="url(#p781ffaf849)" style="fill: none; stroke: #d62728; stroke-opacity: 0.4; stroke-width: 1.5; stroke-linecap: square"/>
   </g>
   <g id="line2d_7">
    <path d="M 41.223125 81.022594 
L 43.083125 76.753714 
L 44.943125 74.258914 
L 46.803125 71.320594 
L 48.663125 68.881234 
L 50.523125 67.162594 
L 52.383125 65.166754 
L 54.243125 63.226354 
L 56.103125 61.341394 
L 57.963125 60.066274 
L 59.823125 57.959554 
L 61.683125 56.019154 
L 63.543125 54.411394 
L 65.403125 52.581874 
L 67.263125 51.029554 
L 69.123125 49.477234 
L 70.983125 47.592274 
L 72.843125 46.150834 
L 74.703125 44.709394 
L 76.563125 42.768994 
L 78.423125 41.382994 
L 80.283125 39.553474 
L 82.143125 37.668514 
L 84.003125 36.337954 
L 85.863125 34.785634 
L 87.723125 33.011554 
L 89.583125 31.791874 
L 91.443125 30.461314 
L 93.303125 28.687234 
L 95.163125 27.412114 
L 97.023125 25.582594 
" clip-path="url(#p781ffaf849)" style="fill: none; stroke: #d62728; stroke-opacity: 0.4; stroke-width: 1.5; stroke-linecap: square"/>
   </g>
   <g id="line2d_8">
    <path d="M 41.223125 81.022594 
L 43.083125 76.088434 
L 44.943125 73.538194 
L 46.803125 71.597794 
L 48.663125 69.380194 
L 50.523125 67.384354 
L 52.383125 65.776594 
L 54.243125 63.614434 
L 56.103125 61.840354 
L 57.963125 60.010834 
L 59.823125 58.125874 
L 61.683125 56.684434 
L 63.543125 55.409314 
L 65.403125 53.524354 
L 67.263125 52.193794 
L 69.123125 50.696914 
L 70.983125 47.869474 
L 72.843125 46.095394 
L 74.703125 44.487634 
L 76.563125 43.157074 
L 78.423125 41.771074 
L 80.283125 40.551394 
L 82.143125 38.832754 
L 84.003125 37.890274 
L 85.863125 35.949874 
L 87.723125 33.898594 
L 89.583125 32.235394 
L 91.443125 30.738514 
L 93.303125 28.576354 
L 95.163125 27.412114 
L 97.023125 25.582594 
" clip-path="url(#p781ffaf849)" style="fill: none; stroke: #d62728; stroke-opacity: 0.4; stroke-width: 1.5; stroke-linecap: square"/>
   </g>
   <g id="line2d_9">
    <path d="M 41.223125 81.022594 
L 43.083125 76.975474 
L 44.943125 75.145954 
L 46.803125 72.928354 
L 48.663125 71.154274 
L 50.523125 68.881234 
L 52.383125 67.273474 
L 54.243125 64.778674 
L 56.103125 63.337234 
L 57.963125 61.285954 
L 59.823125 59.290114 
L 61.683125 57.516034 
L 63.543125 55.797394 
L 65.403125 53.524354 
L 67.263125 51.805714 
L 69.123125 50.308834 
L 70.983125 48.312994 
L 72.843125 46.760674 
L 74.703125 45.430114 
L 76.563125 43.600594 
L 78.423125 42.159154 
L 80.283125 40.107874 
L 82.143125 38.389234 
L 84.003125 36.726034 
L 85.863125 35.561794 
L 87.723125 33.344194 
L 89.583125 32.013634 
L 91.443125 30.683074 
L 93.303125 29.019874 
L 95.163125 27.633874 
L 97.023125 25.582594 
" clip-path="url(#p781ffaf849)" style="fill: none; stroke: #d62728; stroke-opacity: 0.4; stroke-width: 1.5; stroke-linecap: square"/>
   </g>
   <g id="line2d_10">
    <path d="M 41.223125 81.022594 
L 43.083125 76.088434 
L 44.943125 73.926274 
L 46.803125 72.373954 
L 48.663125 70.156354 
L 50.523125 67.827874 
L 52.383125 65.776594 
L 54.243125 63.448114 
L 56.103125 61.895794 
L 57.963125 60.232594 
L 59.823125 58.125874 
L 61.683125 56.684434 
L 63.543125 55.353874 
L 65.403125 53.358034 
L 67.263125 52.082914 
L 69.123125 50.530594 
L 70.983125 48.534754 
L 72.843125 47.037874 
L 74.703125 44.931154 
L 76.563125 42.658114 
L 78.423125 41.272114 
L 80.283125 39.608914 
L 82.143125 37.779394 
L 84.003125 36.171634 
L 85.863125 34.508434 
L 87.723125 32.789794 
L 89.583125 31.237474 
L 91.443125 30.294994 
L 93.303125 28.299154 
L 95.163125 27.245794 
L 97.023125 25.582594 
" clip-path="url(#p781ffaf849)" style="fill: none; stroke: #d62728; stroke-opacity: 0.4; stroke-width: 1.5; stroke-linecap: square"/>
   </g>
   <g id="line2d_11">
    <path d="M 41.223125 79.666778 
L 41.786761 79.084882 
L 42.350398 78.433546 
L 42.914034 77.71557 
L 43.47767 76.935154 
L 44.041307 76.092298 
L 44.604943 75.186414 
L 45.16858 74.35277 
L 45.732216 73.591366 
L 46.295852 72.902202 
L 46.859489 72.238854 
L 47.423125 71.580826 
L 47.986761 70.928118 
L 48.550398 70.28185 
L 49.114034 69.641742 
L 49.67767 69.007794 
L 50.241307 68.377906 
L 50.804943 67.746618 
L 51.36858 67.11393 
L 51.932216 66.479842 
L 52.495852 65.854854 
L 53.059489 65.239666 
L 53.623125 64.634278 
L 54.186761 64.03645 
L 54.750398 63.443382 
L 55.314034 62.855074 
L 55.87767 62.270938 
L 56.441307 61.694082 
L 57.004943 61.124506 
L 57.56858 60.56221 
L 58.132216 60.004254 
L 58.695852 59.449098 
L 59.259489 58.896742 
L 59.823125 58.348642 
L 60.386761 57.805022 
L 60.950398 57.265882 
L 61.514034 56.729794 
L 62.07767 56.197346 
L 62.641307 55.668538 
L 63.204943 55.144686 
L 63.76858 54.626714 
L 64.332216 54.114622 
L 64.895852 53.60841 
L 65.459489 53.10651 
L 66.023125 52.60797 
L 66.586761 52.11279 
L 67.150398 51.614334 
L 67.714034 51.108318 
L 68.27767 50.594742 
L 68.841307 50.076938 
L 69.404943 49.561654 
L 69.96858 49.04889 
L 70.532216 48.538646 
L 71.095852 48.025826 
L 71.659489 47.509646 
L 72.223125 46.990106 
L 72.786761 46.475522 
L 73.350398 45.975218 
L 73.914034 45.489194 
L 74.47767 45.014986 
L 75.041307 44.539098 
L 75.604943 44.06153 
L 76.16858 43.582282 
L 76.732216 43.102922 
L 77.295852 42.623842 
L 77.859489 42.145042 
L 78.423125 41.663862 
L 78.986761 41.179882 
L 79.550398 40.693102 
L 80.114034 40.206378 
L 80.67767 39.722174 
L 81.241307 39.24049 
L 81.804943 38.760654 
L 82.36858 38.278578 
L 82.932216 37.794262 
L 83.495852 37.307706 
L 84.059489 36.81877 
L 84.623125 36.328434 
L 85.186761 35.836698 
L 85.750398 35.346642 
L 86.314034 34.858826 
L 86.87767 34.37325 
L 87.441307 33.890194 
L 88.004943 33.414138 
L 88.56858 32.945082 
L 89.132216 32.483026 
L 89.695852 32.01817 
L 90.259489 31.550234 
L 90.823125 31.079218 
L 91.386761 30.610946 
L 91.950398 30.146594 
L 92.514034 29.686162 
L 93.07767 29.224666 
L 93.641307 28.75113 
L 94.204943 28.265554 
L 94.76858 27.767938 
L 95.332216 27.327946 
L 95.895852 26.947314 
L 96.459489 26.626042 
L 97.023125 26.350186 
" clip-path="url(#p781ffaf849)" style="fill: none; stroke: #d62728; stroke-width: 2; stroke-linecap: square"/>
   </g>
   <g id="line2d_12">
    <path d="M 41.223125 81.022594 
L 41.786761 80.462594 
L 42.350398 79.902594 
L 42.914034 79.342594 
L 43.47767 78.782594 
L 44.041307 78.222594 
L 44.604943 77.662594 
L 45.16858 77.102594 
L 45.732216 76.542594 
L 46.295852 75.982594 
L 46.859489 75.422594 
L 47.423125 74.862594 
L 47.986761 74.302594 
L 48.550398 73.742594 
L 49.114034 73.182594 
L 49.67767 72.622594 
L 50.241307 72.062594 
L 50.804943 71.502594 
L 51.36858 70.942594 
L 51.932216 70.382594 
L 52.495852 69.822594 
L 53.059489 69.262594 
L 53.623125 68.702594 
L 54.186761 68.142594 
L 54.750398 67.582594 
L 55.314034 67.022594 
L 55.87767 66.462594 
L 56.441307 65.902594 
L 57.004943 65.342594 
L 57.56858 64.782594 
L 58.132216 64.222594 
L 58.695852 63.662594 
L 59.259489 63.102594 
L 59.823125 62.542594 
L 60.386761 61.982594 
L 60.950398 61.422594 
L 61.514034 60.862594 
L 62.07767 60.302594 
L 62.641307 59.742594 
L 63.204943 59.182594 
L 63.76858 58.622594 
L 64.332216 58.062594 
L 64.895852 57.502594 
L 65.459489 56.942594 
L 66.023125 56.382594 
L 66.586761 55.822594 
L 67.150398 55.262594 
L 67.714034 54.702594 
L 68.27767 54.142594 
L 68.841307 53.582594 
L 69.404943 53.022594 
L 69.96858 52.462594 
L 70.532216 51.902594 
L 71.095852 51.342594 
L 71.659489 50.782594 
L 72.223125 50.222594 
L 72.786761 49.662594 
L 73.350398 49.102594 
L 73.914034 48.542594 
L 74.47767 47.982594 
L 75.041307 47.422594 
L 75.604943 46.862594 
L 76.16858 46.302594 
L 76.732216 45.742594 
L 77.295852 45.182594 
L 77.859489 44.622594 
L 78.423125 44.062594 
L 78.986761 43.502594 
L 79.550398 42.942594 
L 80.114034 42.382594 
L 80.67767 41.822594 
L 81.241307 41.262594 
L 81.804943 40.702594 
L 82.36858 40.142594 
L 82.932216 39.582594 
L 83.495852 39.022594 
L 84.059489 38.462594 
L 84.623125 37.902594 
L 85.186761 37.342594 
L 85.750398 36.782594 
L 86.314034 36.222594 
L 86.87767 35.662594 
L 87.441307 35.102594 
L 88.004943 34.542594 
L 88.56858 33.982594 
L 89.132216 33.422594 
L 89.695852 32.862594 
L 90.259489 32.302594 
L 90.823125 31.742594 
L 91.386761 31.182594 
L 91.950398 30.622594 
L 92.514034 30.062594 
L 93.07767 29.502594 
L 93.641307 28.942594 
L 94.204943 28.382594 
L 94.76858 27.822594 
L 95.332216 27.262594 
L 95.895852 26.702594 
L 96.459489 26.142594 
L 97.023125 25.582594 
" clip-path="url(#p781ffaf849)" style="fill: none; stroke-dasharray: 5.55,2.4; stroke-dashoffset: 0; stroke: #000000; stroke-opacity: 0.25; stroke-width: 1.5"/>
   </g>
   <g id="patch_3">
    <path d="M 41.223125 81.022594 
L 41.223125 25.582594 
" style="fill: none; stroke: #000000; stroke-width: 1.5; stroke-linejoin: miter; stroke-linecap: square"/>
   </g>
   <g id="patch_4">
    <path d="M 41.223125 81.022594 
L 97.023125 81.022594 
" style="fill: none; stroke: #000000; stroke-width: 1.5; stroke-linejoin: miter; stroke-linecap: square"/>
   </g>
   <g id="text_7">
    <text style="font-size: 9px; font-family: 'Arial', sans-serif; text-anchor: middle" x="69.123125" y="14.038594" transform="rotate(-0 69.123125 14.038594)">TabPFN (100k sim.)</text>
   </g>
  </g>
 </g>
 <defs>
  <clipPath id="p781ffaf849">
   <rect x="41.223125" y="25.582594" width="55.8" height="55.44"/>
  </clipPath>
 </defs>
</svg>
